<svg width="25" height="23" viewBox="0 0 25 23" fill="none" xmlns="http://www.w3.org/2000/svg">
<path d="M11.8963 16.4243C11.1343 17.6867 9.22931 17.6867 8.46731 16.4243L0.268188 2.84047C-0.493811 1.57804 0.458684 1.70402e-05 1.98268 1.70402e-05L18.3809 0C19.9049 0 20.8574 1.57804 20.0954 2.84047L11.8963 16.4243Z" fill="#CFDCBB"/>
<path fill-rule="evenodd" clip-rule="evenodd" d="M23.4717 19.9969L23.4717 19.9969L15.2726 6.41309C14.9278 5.84179 14.025 5.84179 13.6802 6.41309L5.48104 19.9969C5.19424 20.4721 5.50245 21.2102 6.27725 21.2102L22.6755 21.2102C23.4504 21.2102 23.7585 20.472 23.4717 19.9969ZM16.1909 5.85868C15.4289 4.59626 13.5239 4.59626 12.7619 5.85868L4.56277 19.4425C3.80077 20.7049 4.75327 22.283 6.27725 22.283L22.6755 22.2829C24.1995 22.2829 25.152 20.7049 24.39 19.4425L16.1909 5.85868Z" fill="#4A7848"/>
</svg>
