<svg width="586" height="489" viewBox="0 0 586 489" fill="none" xmlns="http://www.w3.org/2000/svg">
<path d="M306.894 488.537C460.786 488.537 585.541 483.9 585.541 478.18C585.541 472.46 460.786 467.823 306.894 467.823C153.001 467.823 28.2468 472.46 28.2468 478.18C28.2468 483.9 153.001 488.537 306.894 488.537Z" fill="#92E3A9"/>
<path opacity="0.8" d="M306.894 488.537C460.786 488.537 585.541 483.9 585.541 478.18C585.541 472.46 460.786 467.823 306.894 467.823C153.001 467.823 28.2468 472.46 28.2468 478.18C28.2468 483.9 153.001 488.537 306.894 488.537Z" fill="white"/>
<path d="M440.819 88.8706C440.271 88.8706 439.745 89.0883 439.358 89.4757C438.97 89.8631 438.753 90.3886 438.753 90.9365V101.528H401.002V90.9365C401.002 90.3886 400.784 89.8631 400.397 89.4757C400.01 89.0883 399.484 88.8706 398.936 88.8706C398.388 88.8706 397.863 89.0883 397.475 89.4757C397.088 89.8631 396.87 90.3886 396.87 90.9365V357.712C396.87 358.259 397.088 358.785 397.475 359.172C397.863 359.56 398.388 359.777 398.936 359.777C399.484 359.777 400.01 359.56 400.397 359.172C400.784 358.785 401.002 358.259 401.002 357.712V298.035H438.753V357.712C438.753 358.259 438.97 358.785 439.358 359.172C439.745 359.56 440.271 359.777 440.819 359.777C441.367 359.777 441.892 359.56 442.28 359.172C442.667 358.785 442.885 358.259 442.885 357.712V90.8952C442.874 90.3545 442.651 89.8395 442.265 89.461C441.879 89.0825 441.36 88.8705 440.819 88.8706ZM438.753 293.944H401.002V280.558H438.753V293.944ZM438.753 276.412H401.002V263.039H438.753V276.412ZM438.753 258.893H401.002V245.561H438.753V258.893ZM438.753 241.388H401.002V228.111H438.753V241.388ZM438.753 223.897H401.002V210.772H438.753V223.897ZM438.753 206.461H401.002V193.253H438.753V206.461ZM438.753 189.108H401.002V175.776H438.753V189.108ZM438.753 171.589H401.002V158.257H438.753V171.589ZM438.753 154.111H401.002V140.738H438.753V154.111ZM438.753 136.593H401.002V123.192H438.753V136.593ZM438.753 119.06H401.002V105.659H438.753V119.06Z" fill="white"/>
<path d="M83.2272 303.944C83.2272 303.944 114.147 261.62 99.0656 251.608C83.3787 241.265 76.0103 272.597 72.6911 287.981C65.612 320.815 67.609 327.784 72.3606 320.567L83.2272 303.944Z" fill="#92E3A9"/>
<path opacity="0.5" d="M83.2272 303.944C83.2272 303.944 114.147 261.62 99.0656 251.608C83.3787 241.265 76.0103 272.597 72.6911 287.981C65.612 320.815 67.609 327.784 72.3606 320.567L83.2272 303.944Z" fill="white"/>
<path d="M94.8235 329.974C94.8235 329.974 137.808 299.977 126.776 285.681C115.303 270.793 98.1565 298.076 90.0169 311.518C72.6497 340.275 72.2916 347.52 79.1228 342.231L94.8235 329.974Z" fill="#92E3A9"/>
<path opacity="0.5" d="M94.8235 329.974C94.8235 329.974 137.808 299.977 126.776 285.681C115.303 270.793 98.1565 298.076 90.0169 311.518C72.6497 340.275 72.2916 347.52 79.1228 342.231L94.8235 329.974Z" fill="white"/>
<path d="M95.7604 364.763C95.7604 364.763 132.946 348.057 126.597 335.524C119.986 322.481 102.922 340.826 94.755 349.944C77.3052 369.418 75.983 374.9 81.9741 371.856L95.7604 364.763Z" fill="#92E3A9"/>
<path opacity="0.5" d="M95.7604 364.763C95.7604 364.763 132.946 348.057 126.597 335.524C119.986 322.481 102.922 340.826 94.755 349.944C77.3052 369.418 75.983 374.9 81.9741 371.856L95.7604 364.763Z" fill="white"/>
<path d="M97.9638 399.704C97.9638 399.704 135.15 382.998 128.814 370.465C122.19 357.436 105.139 375.767 96.9584 384.899C79.5223 404.373 78.1863 409.854 84.1912 406.797L97.9638 399.704Z" fill="#92E3A9"/>
<path opacity="0.5" d="M97.9638 399.704C97.9638 399.704 135.15 382.998 128.814 370.465C122.19 357.436 105.139 375.767 96.9584 384.899C79.5223 404.373 78.1863 409.854 84.1912 406.797L97.9638 399.704Z" fill="white"/>
<path d="M54.3457 321.627C54.3457 321.627 13.4687 288.807 2.85002 303.406C-8.16805 318.556 22.7652 327.412 37.9839 331.433C70.4597 340.014 77.5112 338.32 70.5147 333.251L54.3457 321.627Z" fill="#92E3A9"/>
<path opacity="0.5" d="M54.3457 321.627C54.3457 321.627 13.4687 288.807 2.85002 303.406C-8.16805 318.556 22.7652 327.412 37.9839 331.433C70.4597 340.014 77.5112 338.32 70.5147 333.251L54.3457 321.627Z" fill="white"/>
<path d="M55.558 349.049C55.558 349.049 8.97909 325.002 1.47303 341.433C-6.33603 358.524 25.7541 361.004 41.4135 361.913C74.9498 363.868 81.5331 360.811 73.6689 357.23L55.558 349.049Z" fill="#92E3A9"/>
<path opacity="0.5" d="M55.558 349.049C55.558 349.049 8.97909 325.002 1.47303 341.433C-6.33603 358.524 25.7541 361.004 41.4135 361.913C74.9498 363.868 81.5331 360.811 73.6689 357.23L55.558 349.049Z" fill="white"/>
<path d="M61.1907 379.789C61.1907 379.789 21.2502 360.507 15.2867 374.597C9.07524 389.237 36.2623 390.587 49.5804 390.986C77.9795 391.867 83.4748 389.113 76.74 386.358L61.1907 379.789Z" fill="#92E3A9"/>
<path opacity="0.5" d="M61.1907 379.789C61.1907 379.789 21.2502 360.507 15.2867 374.597C9.07524 389.237 36.2623 390.587 49.5804 390.986C77.9795 391.867 83.4748 389.113 76.74 386.358L61.1907 379.789Z" fill="white"/>
<path d="M63.1467 404.621C63.1467 404.621 25.4649 381.208 18.0415 394.581C10.315 408.477 37.2129 412.706 50.407 414.524C78.5582 418.407 84.3014 416.273 77.9522 412.733L63.1467 404.621Z" fill="#92E3A9"/>
<path opacity="0.5" d="M63.1467 404.621C63.1467 404.621 25.4649 381.208 18.0415 394.581C10.315 408.477 37.2129 412.706 50.407 414.524C78.5582 418.407 84.3014 416.273 77.9522 412.733L63.1467 404.621Z" fill="white"/>
<path d="M59.5796 280.048C59.5796 280.048 52.5005 218.581 29.2799 224.861C5.16414 231.417 25.3547 262.515 35.6016 277.555C57.376 309.563 65.3917 313.088 63.6701 303.089L59.5796 280.048Z" fill="#92E3A9"/>
<path opacity="0.5" d="M59.5796 280.048C59.5796 280.048 52.5005 218.581 29.2799 224.861C5.16414 231.417 25.3547 262.515 35.6016 277.555C57.376 309.563 65.3917 313.088 63.6701 303.089L59.5796 280.048Z" fill="white"/>
<path d="M34.0315 247.255C34.0315 247.255 69.372 313.473 74.8534 344.214C81.1613 379.527 82.1805 418.972 77.8283 449.877" stroke="#92E3A9" stroke-width="1.99541" stroke-linecap="round" stroke-linejoin="round"/>
<path d="M69.2754 323.762L86.5875 270.737" stroke="#92E3A9" stroke-width="1.99541" stroke-linecap="round" stroke-linejoin="round"/>
<path d="M74.8533 344.215L107.439 303.241" stroke="#92E3A9" stroke-width="1.99541" stroke-linecap="round" stroke-linejoin="round"/>
<path d="M72.7735 336.764L25.5886 316.945" stroke="#92E3A9" stroke-width="1.99541" stroke-linecap="round" stroke-linejoin="round"/>
<path d="M78.9436 371.966L114.422 344.779" stroke="#92E3A9" stroke-width="1.99541" stroke-linecap="round" stroke-linejoin="round"/>
<path d="M77.0571 360.301L39.9951 352.588" stroke="#92E3A9" stroke-width="1.99541" stroke-linecap="round" stroke-linejoin="round"/>
<path d="M78.8334 388.686L50.1313 384.141" stroke="#92E3A9" stroke-width="1.99541" stroke-linecap="round" stroke-linejoin="round"/>
<path d="M81.2576 407.059L100.567 389.76" stroke="#92E3A9" stroke-width="1.99541" stroke-linecap="round" stroke-linejoin="round"/>
<path d="M80.8721 414.84L47.8867 406.549" stroke="#92E3A9" stroke-width="1.99541" stroke-linecap="round" stroke-linejoin="round"/>
<path d="M56.4392 424.935H95.4294V433.006H92.0276L84.9898 477.037H66.8788L59.841 433.006H56.4392V424.935Z" fill="#92E3A9"/>
<path opacity="0.5" d="M56.4392 424.935H95.4294V433.006H92.0276L84.9898 477.037H66.8788L59.841 433.006H56.4392V424.935Z" fill="white"/>
<path d="M120.647 9.15483C118.957 7.64436 116.893 6.61402 114.669 6.17081C112.446 5.7276 110.145 5.88769 108.004 6.63444C100.429 9.15483 93.1711 20.104 95.0028 29.373C96.2837 35.791 102.233 45.2528 104.038 48.8612C105.842 52.4696 103.308 58.5709 97.5783 71.2417C91.8489 83.9124 89.6315 95.7982 106.241 106.265C122.851 116.733 141.651 100.123 151.291 88.2095C160.932 76.2962 144.061 48.8612 142.615 37.2509C141.169 25.6406 138.69 3.38411 120.647 9.15483Z" fill="#263238"/>
<path d="M159.692 89.0083C155.56 93.1434 150.566 96.3165 145.067 98.3018C139.568 100.287 133.699 101.036 127.878 100.495L123.897 117.091L131.472 154.979L180.93 129.348L169.733 100.426L159.692 89.0083Z" fill="#92E3A9" stroke="#263238" stroke-width="1.59381" stroke-linecap="round" stroke-linejoin="round"/>
<path opacity="0.3" d="M159.692 89.0083C155.56 93.1434 150.566 96.3165 145.067 98.3018C139.568 100.287 133.699 101.036 127.878 100.495L123.897 117.091L131.472 154.979L180.93 129.348L169.733 100.426L159.692 89.0083Z" fill="#263238"/>
<path d="M159.693 89.0081L152.118 38.8208L129.668 43.4208L118.471 50.6377C118.471 50.6377 105.112 61.1186 105.112 62.1929C105.112 63.2671 127.713 101.087 127.713 101.087C133.593 101.435 139.48 100.539 144.991 98.4575C150.501 96.3762 155.511 93.1564 159.693 89.0081Z" fill="white"/>
<path d="M159.693 89.0081L152.118 38.8208L129.668 43.4208L118.471 50.6377C118.471 50.6377 105.112 61.1186 105.112 62.1929C105.112 63.2671 127.713 101.087 127.713 101.087C133.593 101.435 139.48 100.539 144.991 98.4575C150.501 96.3762 155.511 93.1564 159.693 89.0081Z" stroke="#263238" stroke-width="1.59381" stroke-linecap="round" stroke-linejoin="round"/>
<path opacity="0.5" d="M129.572 86.8601C129.572 86.8601 145.397 75.1258 143.937 78.5965C142.477 82.0672 131.541 90.7302 128.608 90.9918C125.674 91.2535 129.572 86.8601 129.572 86.8601Z" fill="#92E3A9"/>
<path d="M130.054 64.5759L130.674 65.2232L134.53 69.2999L135.522 84.9594L140.246 84.2156L136.513 69.5478L142.491 81.9707L147.463 76.9988L136.775 67.3029L136.513 59.604L131.046 56.8633" fill="#263238"/>
<path d="M121.363 45.9828C121.363 45.9828 116.667 48.1451 116.667 52.4696C116.667 56.7942 121.749 67.0824 124.93 69.2447C128.112 71.407 133.566 61.5045 133.566 61.5045C133.566 61.5045 141.829 65.471 144.033 61.8626C146.236 58.2541 138.978 46.3408 134.296 43.0905C129.613 39.8402 121.363 45.9828 121.363 45.9828Z" fill="white" stroke="#263238" stroke-width="1.59381" stroke-linecap="round" stroke-linejoin="round"/>
<path d="M117.397 41.6441C118.688 44.9434 119.774 48.3195 120.647 51.7532C121.363 55.3616 131.114 61.5041 132.189 61.8622C133.263 62.2203 133.993 50.307 133.993 50.307L131.114 36.2314L117.397 41.6441Z" fill="white"/>
<mask id="mask0_97_6031" style="mask-type:luminance" maskUnits="userSpaceOnUse" x="117" y="36" width="17" height="26">
<path d="M117.397 41.6441C118.688 44.9434 119.774 48.3195 120.647 51.7532C121.363 55.3616 131.114 61.5041 132.189 61.8622C133.263 62.2203 133.993 50.307 133.993 50.307L131.114 36.2314L117.397 41.6441Z" fill="white"/>
</mask>
<g mask="url(#mask0_97_6031)">
<g style="mix-blend-mode:multiply" opacity="0.5">
<path d="M131.417 37.7328C130.812 37.5629 130.195 37.4341 129.572 37.3472L119.614 40.8592L118.306 44.2748C118.967 46.1203 119.807 48.5994 120.317 50.6102C121.949 51.9263 123.922 52.7525 126.005 52.9928C128.993 53.1994 131.624 50.8856 133.483 48.0485L131.417 37.7328Z" fill="#92E3A9"/>
</g>
</g>
<path d="M117.397 41.6441C118.688 44.9434 119.774 48.3195 120.647 51.7532C121.363 55.3616 131.114 61.5041 132.189 61.8622C133.263 62.2203 133.993 50.307 133.993 50.307L131.114 36.2314L117.397 41.6441Z" stroke="#263238" stroke-width="1.59381" stroke-linecap="round" stroke-linejoin="round"/>
<path d="M110.896 35.5019C110.896 35.5019 106.916 32.2654 106.916 35.5019C106.916 38.7385 110.538 40.5565 113.417 40.5565" fill="white"/>
<path d="M110.896 35.5019C110.896 35.5019 106.916 32.2654 106.916 35.5019C106.916 38.7385 110.538 40.5565 113.417 40.5565" stroke="#263238" stroke-width="1.59381" stroke-linecap="round" stroke-linejoin="round"/>
<path d="M132.189 25.0346C132.189 25.0346 134.723 21.0681 135.439 25.4065C135.769 28.2308 134.994 31.0732 133.277 33.3395L132.189 25.0346Z" fill="white" stroke="#263238" stroke-width="1.59381" stroke-linecap="round" stroke-linejoin="round"/>
<g opacity="0.5">
<path d="M110.896 35.5019C110.896 35.5019 106.916 32.2654 106.916 35.5019C106.916 38.7385 110.538 40.5565 113.417 40.5565" fill="#92E3A9"/>
<path d="M110.896 35.5019C110.896 35.5019 106.916 32.2654 106.916 35.5019C106.916 38.7385 110.538 40.5565 113.417 40.5565" stroke="#263238" stroke-width="1.59381" stroke-linecap="round" stroke-linejoin="round"/>
</g>
<path opacity="0.5" d="M132.189 25.0346C132.189 25.0346 134.723 21.0681 135.439 25.4065C135.769 28.2308 134.994 31.0732 133.277 33.3395L132.189 25.0346Z" fill="#92E3A9" stroke="#263238" stroke-width="1.59381" stroke-linecap="round" stroke-linejoin="round"/>
<path d="M106.42 25.0619C106.42 25.0619 109.519 37.9668 116.171 44.3435C122.823 50.7202 129.943 50.7753 132.409 39.4129C134.433 30.0475 129.406 17.5558 129.406 17.5558C129.406 17.5558 113.182 4.1964 106.42 25.0619Z" fill="white"/>
<mask id="mask1_97_6031" style="mask-type:luminance" maskUnits="userSpaceOnUse" x="106" y="13" width="27" height="36">
<path d="M106.42 25.0619C106.42 25.0619 109.519 37.9668 116.171 44.3435C122.823 50.7202 129.943 50.7753 132.409 39.4129C134.433 30.0475 129.406 17.5558 129.406 17.5558C129.406 17.5558 113.182 4.1964 106.42 25.0619Z" fill="white"/>
</mask>
<g mask="url(#mask1_97_6031)">
<g style="mix-blend-mode:multiply" opacity="0.5">
<path d="M117.975 13.3552L120.495 19.6906C120.495 19.6906 124.462 18.8092 126.693 23.602C128.924 28.3949 131.169 35.4189 129.888 40.8591C128.663 46.0376 125.757 47.7454 121.281 47.8694C126.156 49.949 130.577 47.8693 132.409 39.3854C134.433 30.0201 129.406 17.5283 129.406 17.5283C129.406 17.5283 123.911 13.0247 117.975 13.3552Z" fill="#92E3A9"/>
</g>
</g>
<path d="M106.42 25.0619C106.42 25.0619 109.519 37.9668 116.171 44.3435C122.823 50.7202 129.943 50.7753 132.409 39.4129C134.433 30.0475 129.406 17.5558 129.406 17.5558C129.406 17.5558 113.182 4.1964 106.42 25.0619Z" stroke="#263238" stroke-width="1.59381" stroke-linecap="round" stroke-linejoin="round"/>
<path d="M118.733 31.8794C119.119 32.6093 119.05 33.3944 118.581 33.6423C118.113 33.8902 117.425 33.4908 117.053 32.7608C116.681 32.0309 116.736 31.2596 117.204 31.0117C117.672 30.7638 118.361 31.1632 118.733 31.8794Z" fill="#263238"/>
<path d="M125.922 29.6481C126.197 30.4194 126.018 31.1906 125.522 31.3559C125.027 31.5212 124.393 31.0529 124.145 30.2816C123.897 29.5104 124.049 28.7391 124.545 28.5738C125.04 28.4086 125.646 28.9044 125.922 29.6481Z" fill="#263238"/>
<path d="M126.418 25.5169C125.855 25.1389 125.184 24.9558 124.508 24.9956C123.831 25.0354 123.186 25.2959 122.672 25.7373C120.689 27.2798 124.435 35.0062 124.435 35.0062C124.435 35.0062 124.504 37.444 121.377 36.3146" stroke="#263238" stroke-width="0.796907" stroke-linecap="round" stroke-linejoin="round"/>
<path d="M126.418 38.8208C126.203 39.328 125.874 39.7784 125.456 40.1364C125.037 40.4945 124.541 40.7504 124.007 40.884C123.473 41.0175 122.915 41.0251 122.377 40.9061C121.84 40.787 121.337 40.5446 120.909 40.1981" stroke="#263238" stroke-width="0.796907" stroke-linecap="round" stroke-linejoin="round"/>
<path d="M118.03 27.5688C118.03 27.5688 114.505 24.2497 112.962 30.6539" stroke="#263238" stroke-width="0.796907" stroke-linecap="round" stroke-linejoin="round"/>
<path d="M129.613 13.4654C125.743 10.1049 122.617 10.1462 121.253 10.587C119.977 9.79057 118.526 9.3178 117.025 9.2097C106.2 7.76358 104.754 16.096 104.754 24.0152C104.754 31.9345 97.8675 41.3411 102.591 42.4292C103.884 42.7394 105.245 42.5835 106.434 41.9889C107.623 41.3943 108.565 40.3992 109.092 39.1788C109.092 39.1788 114.147 30.9153 114.147 25.0895C114.147 19.2637 120.441 19.8146 120.441 19.8146C120.713 19.4134 121.068 19.0758 121.482 18.8248C121.897 18.5738 122.361 18.4154 122.842 18.3604C123.323 18.3055 123.811 18.3553 124.271 18.5065C124.732 18.6576 125.154 18.9065 125.509 19.2361C128.374 21.6877 128.704 24.5661 131.018 25.3098C133.332 26.0536 137.202 22.335 137.202 22.335C134.997 19.1152 132.453 16.1417 129.613 13.4654Z" fill="#263238"/>
<path d="M120.743 15.6285C120.743 15.6285 116.391 12.1302 112.48 16.0554C108.568 19.9806 108.995 27.404 107.687 32.2107C106.379 37.0173 102.88 37.885 102.88 37.885" stroke="white" stroke-width="0.796907" stroke-linecap="round" stroke-linejoin="round"/>
<path d="M117.7 14.3201C117.7 14.3201 113.003 9.66494 107.095 15.5596C102.591 20.077 104.602 23.0381 103.72 30.4616" stroke="white" stroke-width="0.796907" stroke-linecap="round" stroke-linejoin="round"/>
<path d="M122.934 13.4379C122.934 13.4379 131.197 9.51271 134.723 19.5529" stroke="white" stroke-width="0.796907" stroke-linecap="round" stroke-linejoin="round"/>
<path d="M105.112 62.2207L92.6201 112.491L129.255 122.875L131.059 116.375L106.999 105.274L115.166 76.3514C115.166 76.3514 114.092 70.9387 108.28 64.8099" fill="white"/>
<mask id="mask2_97_6031" style="mask-type:luminance" maskUnits="userSpaceOnUse" x="92" y="62" width="40" height="61">
<path d="M105.112 62.2207L92.6201 112.491L129.255 122.875L131.059 116.375L106.999 105.274L115.166 76.3514C115.166 76.3514 114.092 70.9387 108.28 64.8099" fill="white"/>
</mask>
<g mask="url(#mask2_97_6031)">
<g style="mix-blend-mode:multiply" opacity="0.5">
<path d="M131.114 116.416L107.054 105.315L115.221 76.3924C114.581 73.9915 113.543 71.7149 112.149 69.6577L111.364 69.0654V77.0535C111.364 82.1632 104.974 98.4561 102.729 102.285C100.484 106.114 96.9858 110.907 96.9858 110.907L104.01 107.711L130.632 118.371L131.114 116.416Z" fill="#92E3A9"/>
</g>
</g>
<path d="M105.112 62.2207L92.6201 112.491L129.255 122.875L131.059 116.375L106.999 105.274L115.166 76.3514C115.166 76.3514 114.092 70.9387 108.28 64.8099" stroke="#263238" stroke-width="1.59381" stroke-linecap="round" stroke-linejoin="round"/>
<path d="M208.117 77.3157L180.379 71.4899L152.049 38.7524L156.236 65.0856L173.617 81.6403L208.544 83.2379L208.117 77.3157Z" fill="white"/>
<mask id="mask3_97_6031" style="mask-type:luminance" maskUnits="userSpaceOnUse" x="152" y="38" width="57" height="46">
<path d="M208.117 77.3157L180.379 71.4899L152.049 38.7524L156.236 65.0856L173.617 81.6403L208.544 83.2379L208.117 77.3157Z" fill="white"/>
</mask>
<g mask="url(#mask3_97_6031)">
<g style="mix-blend-mode:multiply" opacity="0.5">
<path d="M152.049 38.7524L155.423 59.7694L157.572 66.3389L157.847 66.5868C158.66 65.7467 163.246 60.9814 164.417 60.9814C165.587 60.9814 178.795 72.4815 176.881 73.3767L174.953 74.327L207.855 79.7534L208.089 77.2331L180.407 71.421L152.049 38.7524Z" fill="#92E3A9"/>
</g>
</g>
<path d="M208.117 77.3157L180.379 71.4899L152.049 38.7524L156.236 65.0856L173.617 81.6403L208.544 83.2379L208.117 77.3157Z" stroke="#263238" stroke-width="1.59381" stroke-linecap="round" stroke-linejoin="round"/>
<path d="M467.056 356.059L113.83 304.302C112.707 304.135 111.696 303.529 111.02 302.618C110.343 301.706 110.056 300.563 110.222 299.44L139.64 98.7595C139.721 98.204 139.91 97.67 140.198 97.1879C140.486 96.7058 140.865 96.2851 141.316 95.9499C141.766 95.6148 142.278 95.3717 142.822 95.2346C143.366 95.0976 143.933 95.0691 144.488 95.1511L151.181 96.1289C152.029 96.2562 152.896 96.1244 153.667 95.7509C154.439 95.3773 155.08 94.7794 155.506 94.0355L164.389 78.679C164.659 78.1969 165.025 77.7751 165.463 77.4395C167.543 75.9357 170.128 75.3032 172.667 75.6766L261.706 88.733C263.704 89.0198 265.565 89.9142 267.036 91.2947C267.429 91.688 267.738 92.1564 267.945 92.672L275.865 112.284C276.142 112.978 276.598 113.586 277.185 114.048C277.773 114.51 278.472 114.809 279.211 114.915L497.713 146.95C498.836 147.113 499.848 147.716 500.527 148.625C501.206 149.533 501.497 150.675 501.336 151.798L471.917 352.464C471.747 353.585 471.14 354.592 470.229 355.266C469.318 355.94 468.177 356.225 467.056 356.059Z" fill="#B4C8B4" stroke="#263238" stroke-width="1.59381" stroke-miterlimit="10"/>
<path d="M470.815 355.081H120.702C119.686 355.081 118.679 354.881 117.74 354.492C116.801 354.103 115.948 353.533 115.229 352.814C114.51 352.095 113.94 351.242 113.551 350.303C113.162 349.364 112.962 348.357 112.962 347.341V151.439C112.962 149.387 113.778 147.418 115.229 145.966C116.681 144.515 118.65 143.699 120.702 143.699H121.653C123.202 143.696 124.716 143.23 125.999 142.362C127.282 141.493 128.277 140.261 128.856 138.824L134.186 125.423C134.781 123.876 135.871 122.569 137.285 121.704C138.803 120.808 140.534 120.332 142.298 120.327H232.288C233.497 120.326 234.697 120.545 235.827 120.974C237.398 121.607 238.709 122.753 239.546 124.225L248.705 139.829C249.387 140.995 250.363 141.961 251.535 142.633C252.707 143.305 254.034 143.658 255.385 143.658H470.815C472.868 143.658 474.837 144.473 476.289 145.925C477.74 147.377 478.556 149.345 478.556 151.398V347.341C478.556 348.357 478.355 349.364 477.966 350.303C477.577 351.242 477.007 352.095 476.289 352.814C475.57 353.533 474.717 354.103 473.777 354.492C472.838 354.881 471.832 355.081 470.815 355.081Z" fill="#688F67"/>
<path d="M470.815 355.081H120.702C119.686 355.081 118.679 354.881 117.74 354.492C116.801 354.103 115.948 353.533 115.229 352.814C114.51 352.095 113.94 351.242 113.551 350.303C113.162 349.364 112.962 348.357 112.962 347.341V151.439C112.962 149.387 113.778 147.418 115.229 145.966C116.681 144.515 118.65 143.699 120.702 143.699H121.653C123.202 143.696 124.716 143.23 125.999 142.362C127.282 141.493 128.277 140.261 128.856 138.824L134.186 125.423C134.781 123.876 135.871 122.569 137.285 121.704C138.803 120.808 140.534 120.332 142.298 120.327H232.288C233.497 120.326 234.697 120.545 235.827 120.974C237.398 121.607 238.709 122.753 239.546 124.225L248.705 139.829C249.387 140.995 250.363 141.961 251.535 142.633C252.707 143.305 254.034 143.658 255.385 143.658H470.815C472.868 143.658 474.837 144.473 476.289 145.925C477.74 147.377 478.556 149.345 478.556 151.398V347.341C478.556 348.357 478.355 349.364 477.966 350.303C477.577 351.242 477.007 352.095 476.289 352.814C475.57 353.533 474.717 354.103 473.777 354.492C472.838 354.881 471.832 355.081 470.815 355.081Z" stroke="#263238" stroke-width="1.59381" stroke-miterlimit="10"/>
<path d="M211.891 143.038H155.864C154.527 143.038 153.245 142.507 152.299 141.562C151.354 140.616 150.823 139.334 150.823 137.997C150.821 137.334 150.95 136.677 151.203 136.064C151.455 135.451 151.826 134.894 152.295 134.424C152.763 133.955 153.319 133.582 153.932 133.328C154.544 133.074 155.201 132.943 155.864 132.943H211.891C213.231 132.943 214.517 133.475 215.465 134.423C216.413 135.371 216.945 136.657 216.945 137.997C216.945 138.661 216.814 139.317 216.56 139.93C216.306 140.542 215.933 141.098 215.464 141.567C214.994 142.035 214.437 142.406 213.824 142.658C213.211 142.911 212.554 143.04 211.891 143.038Z" fill="white"/>
<path d="M470.815 389.264H120.702C118.65 389.264 116.681 388.449 115.229 386.997C113.778 385.546 112.962 383.577 112.962 381.524V185.623C112.962 183.57 113.778 181.601 115.229 180.15C116.681 178.698 118.65 177.883 120.702 177.883H121.653C123.203 177.882 124.717 177.417 126.001 176.548C127.284 175.679 128.279 174.446 128.856 173.007L134.186 159.62C134.778 158.071 135.868 156.763 137.285 155.902C138.801 154.999 140.533 154.523 142.298 154.524H232.288C233.497 154.523 234.697 154.743 235.827 155.172C237.402 155.805 238.714 156.957 239.546 158.436L248.705 174.054C249.387 175.219 250.363 176.186 251.535 176.858C252.707 177.529 254.034 177.883 255.385 177.883H470.815C472.868 177.883 474.837 178.698 476.289 180.15C477.74 181.601 478.556 183.57 478.556 185.623V381.524C478.556 383.577 477.74 385.546 476.289 386.997C474.837 388.449 472.868 389.264 470.815 389.264Z" fill="#4A7848" stroke="#263238" stroke-width="1.59381" stroke-miterlimit="10"/>
<path d="M238.733 102.643L183.147 95.757C181.82 95.5884 180.612 94.9014 179.789 93.8461C178.966 92.7908 178.594 91.4528 178.754 90.124C178.922 88.7946 179.612 87.5864 180.67 86.7652C181.729 85.9439 183.071 85.5767 184.401 85.7443L239.973 92.6306C241.302 92.7958 242.511 93.4818 243.335 94.538C244.159 95.5942 244.53 96.9342 244.366 98.2636C244.285 98.9213 244.074 99.5564 243.747 100.133C243.419 100.709 242.981 101.215 242.458 101.622C241.935 102.028 241.337 102.328 240.698 102.503C240.058 102.679 239.391 102.726 238.733 102.643Z" fill="#92E3A9"/>
<path opacity="0.5" d="M238.733 102.643L183.147 95.757C181.82 95.5884 180.612 94.9014 179.789 93.8461C178.966 92.7908 178.594 91.4528 178.754 90.124C178.922 88.7946 179.612 87.5864 180.67 86.7652C181.729 85.9439 183.071 85.5767 184.401 85.7443L239.973 92.6306C241.302 92.7958 242.511 93.4818 243.335 94.538C244.159 95.5942 244.53 96.9342 244.366 98.2636C244.285 98.9213 244.074 99.5564 243.747 100.133C243.419 100.709 242.981 101.215 242.458 101.622C241.935 102.028 241.337 102.328 240.698 102.503C240.058 102.679 239.391 102.726 238.733 102.643Z" fill="white"/>
<path d="M211.891 177.236H155.864C155.201 177.236 154.544 177.105 153.932 176.851C153.319 176.597 152.763 176.224 152.295 175.755C151.826 175.285 151.455 174.728 151.203 174.115C150.95 173.502 150.821 172.845 150.823 172.181C150.823 170.843 151.354 169.56 152.299 168.612C153.244 167.665 154.526 167.131 155.864 167.127H211.891C213.231 167.127 214.517 167.659 215.465 168.607C216.413 169.555 216.945 170.841 216.945 172.181C216.945 173.522 216.413 174.808 215.465 175.756C214.517 176.703 213.231 177.236 211.891 177.236Z" fill="#92E3A9"/>
<path opacity="0.5" d="M211.891 177.236H155.864C155.201 177.236 154.544 177.105 153.932 176.851C153.319 176.597 152.763 176.224 152.295 175.755C151.826 175.285 151.455 174.728 151.203 174.115C150.95 173.502 150.821 172.845 150.823 172.181C150.823 170.843 151.354 169.56 152.299 168.612C153.244 167.665 154.526 167.131 155.864 167.127H211.891C213.231 167.127 214.517 167.659 215.465 168.607C216.413 169.555 216.945 170.841 216.945 172.181C216.945 173.522 216.413 174.808 215.465 175.756C214.517 176.703 213.231 177.236 211.891 177.236Z" fill="white"/>
<path d="M482.26 236.802H109.243C105.235 236.802 101.985 240.052 101.985 244.06V469.779C101.985 473.788 105.235 477.038 109.243 477.038H482.26C486.269 477.038 489.518 473.788 489.518 469.779V244.06C489.518 240.052 486.269 236.802 482.26 236.802Z" fill="white"/>
<mask id="mask4_97_6031" style="mask-type:luminance" maskUnits="userSpaceOnUse" x="101" y="236" width="389" height="242">
<path d="M482.26 236.802H109.243C105.235 236.802 101.985 240.052 101.985 244.06V469.779C101.985 473.788 105.235 477.038 109.243 477.038H482.26C486.269 477.038 489.518 473.788 489.518 469.779V244.06C489.518 240.052 486.269 236.802 482.26 236.802Z" fill="white"/>
</mask>
<g mask="url(#mask4_97_6031)">
<g style="mix-blend-mode:multiply">
<path d="M489.518 301.464C446.561 341.612 397.755 375.001 344.768 400.489C266.471 437.936 176.977 463.746 124.834 477.037H482.246C483.201 477.039 484.146 476.852 485.028 476.488C485.91 476.124 486.712 475.59 487.388 474.916C488.063 474.242 488.599 473.441 488.965 472.559C489.33 471.678 489.518 470.733 489.518 469.779V301.464Z" fill="#CFDCBB"/>
</g>
</g>
<path d="M482.26 236.802H109.243C105.235 236.802 101.985 240.052 101.985 244.06V469.779C101.985 473.788 105.235 477.038 109.243 477.038H482.26C486.269 477.038 489.518 473.788 489.518 469.779V244.06C489.518 240.052 486.269 236.802 482.26 236.802Z" stroke="#263238" stroke-width="1.59381" stroke-miterlimit="10"/>
<path d="M107.591 257.902V248.261C107.594 246.335 108.362 244.489 109.726 243.128C111.089 241.767 112.937 241.003 114.863 241.003H130.632" stroke="#263238" stroke-width="1.59381" stroke-miterlimit="10"/>
<path d="M107.591 404.318V269.65" stroke="#263238" stroke-width="1.59381" stroke-miterlimit="10"/>
<path d="M483.899 450.264V465.51C483.901 466.464 483.715 467.41 483.351 468.292C482.987 469.174 482.453 469.976 481.778 470.651C481.104 471.327 480.304 471.862 479.422 472.228C478.541 472.594 477.596 472.782 476.641 472.782H463.929" stroke="#263238" stroke-width="1.59381" stroke-miterlimit="10"/>
<path d="M483.899 254.514V438.929" stroke="#263238" stroke-width="1.59381" stroke-miterlimit="10"/>
<path d="M353.363 324.644H238.128C236.051 324.644 234.368 326.327 234.368 328.403V387.199C234.368 389.275 236.051 390.959 238.128 390.959H353.363C355.439 390.959 357.123 389.275 357.123 387.199V328.403C357.123 326.327 355.439 324.644 353.363 324.644Z" fill="#8AB751" stroke="#263238" stroke-width="1.59381" stroke-miterlimit="10"/>
<path d="M353.363 324.644H238.128C236.051 324.644 234.368 326.327 234.368 328.403V341.047C234.368 343.123 236.051 344.807 238.128 344.807H353.363C355.439 344.807 357.123 343.123 357.123 341.047V328.403C357.123 326.327 355.439 324.644 353.363 324.644Z" fill="white" stroke="#263238" stroke-width="1.59381" stroke-miterlimit="10"/>
<path d="M129.255 122.875L131.776 127.572L137.133 131.428C137.47 131.675 137.873 131.815 138.291 131.83C138.709 131.845 139.121 131.734 139.474 131.511L139.943 131.208C140.283 131.001 140.537 130.677 140.656 130.297C140.775 129.916 140.752 129.506 140.59 129.142L137.546 122.145L139.598 123.743C139.924 123.994 140.335 124.108 140.743 124.062C141.152 124.016 141.527 123.812 141.788 123.495C142.015 123.211 142.139 122.859 142.139 122.496C142.139 122.133 142.015 121.781 141.788 121.498L137.009 115.452L131.032 116.374L129.255 122.875Z" fill="white" stroke="#263238" stroke-width="1.59381" stroke-miterlimit="10"/>
<path d="M139.997 131.208L135.205 124.914" stroke="#263238" stroke-width="0.796907" stroke-linecap="round" stroke-linejoin="round"/>
<path d="M137.188 131.428L133.428 126.442" stroke="#263238" stroke-width="0.796907" stroke-linecap="round" stroke-linejoin="round"/>
<path d="M208.117 77.3154L215.609 77.7561L224.727 83.582C224.727 83.582 225.237 85.3586 223.969 85.6065C222.702 85.8544 215.857 83.334 215.857 83.334L208.544 83.2376L208.117 77.3154Z" fill="white" stroke="#263238" stroke-width="1.59381" stroke-miterlimit="10"/>
<path d="M208.502 82.3146L216.367 85.868C216.367 85.868 217.634 84.0913 215.857 83.3338L213.268 81.5571" fill="white"/>
<path d="M208.502 82.3146L216.367 85.868C216.367 85.868 217.634 84.0913 215.857 83.3338L213.268 81.5571" stroke="#263238" stroke-width="1.59381" stroke-linejoin="round"/>
<path d="M486.337 216.625L483.086 206.902L479.437 201.902C479.376 201.811 479.288 201.742 479.185 201.706C479.081 201.671 478.969 201.67 478.866 201.705C478.762 201.739 478.673 201.807 478.612 201.898C478.55 201.988 478.521 202.096 478.528 202.205V216.611L481.282 220.234L486.337 216.625Z" fill="white"/>
<path d="M539.306 259.141L512.037 260.106C511.03 260.141 510.035 259.889 509.167 259.379C508.299 258.869 507.593 258.123 507.134 257.227L486.337 216.625C486.337 216.625 481.654 219.16 481.296 220.234C480.938 221.308 496.694 260.822 501.528 272.955C501.935 273.974 502.647 274.842 503.567 275.438C504.487 276.035 505.57 276.332 506.665 276.288L537.144 274.994" fill="white"/>
<path d="M539.306 259.141L512.037 260.106C511.03 260.141 510.035 259.889 509.167 259.379C508.299 258.869 507.593 258.123 507.134 257.227L486.337 216.625C486.337 216.625 481.654 219.16 481.296 220.234C480.938 221.308 496.694 260.822 501.528 272.955C501.935 273.974 502.647 274.842 503.567 275.438C504.487 276.035 505.57 276.332 506.665 276.288L537.144 274.994" stroke="#263238" stroke-width="1.59381" stroke-miterlimit="10"/>
<path d="M488.334 221.68L484.064 223.443" stroke="#263238" stroke-width="1.19536" stroke-miterlimit="10"/>
<g opacity="0.5">
<path d="M539.306 259.141L512.037 260.106C511.03 260.141 510.035 259.889 509.167 259.379C508.299 258.869 507.593 258.123 507.134 257.227L486.337 216.625C486.337 216.625 481.654 219.16 481.296 220.234C480.938 221.308 496.694 260.822 501.528 272.955C501.935 273.974 502.647 274.842 503.567 275.438C504.487 276.035 505.57 276.332 506.665 276.288L537.144 274.994" fill="#92E3A9"/>
<path d="M539.306 259.141L512.037 260.106C511.03 260.141 510.035 259.889 509.167 259.379C508.299 258.869 507.593 258.123 507.134 257.227L486.337 216.625C486.337 216.625 481.654 219.16 481.296 220.234C480.938 221.308 496.694 260.822 501.528 272.955C501.935 273.974 502.647 274.842 503.567 275.438C504.487 276.035 505.57 276.332 506.665 276.288L537.144 274.994" stroke="#263238" stroke-width="1.59381" stroke-miterlimit="10"/>
<path d="M488.334 221.68L484.064 223.443" stroke="#263238" stroke-width="1.19536" stroke-miterlimit="10"/>
</g>
<path d="M486.337 216.625L483.086 206.902L479.437 201.902C479.376 201.811 479.288 201.742 479.185 201.706C479.081 201.671 478.969 201.67 478.866 201.705C478.762 201.739 478.673 201.807 478.612 201.898C478.55 201.988 478.521 202.096 478.528 202.205V216.611L481.282 220.234L486.337 216.625Z" fill="#92E3A9"/>
<mask id="mask5_97_6031" style="mask-type:luminance" maskUnits="userSpaceOnUse" x="478" y="201" width="9" height="20">
<path d="M486.337 216.625L483.086 206.902L479.437 201.902C479.376 201.811 479.288 201.742 479.185 201.706C479.081 201.671 478.969 201.67 478.866 201.705C478.762 201.739 478.673 201.807 478.612 201.898C478.55 201.988 478.521 202.096 478.528 202.205V216.611L481.282 220.234L486.337 216.625Z" fill="white"/>
</mask>
<g mask="url(#mask5_97_6031)">
<path opacity="0.5" d="M486.337 216.625L483.086 206.902L479.437 201.902C479.376 201.811 479.288 201.742 479.185 201.706C479.081 201.671 478.969 201.67 478.866 201.705C478.762 201.739 478.673 201.807 478.612 201.898C478.55 201.988 478.521 202.096 478.528 202.205V216.611L481.282 220.234L486.337 216.625Z" fill="white"/>
</g>
<path d="M486.337 216.625L483.086 206.902L479.437 201.902C479.376 201.811 479.288 201.742 479.185 201.706C479.081 201.671 478.969 201.67 478.866 201.705C478.762 201.739 478.673 201.807 478.612 201.898C478.55 201.988 478.521 202.096 478.528 202.205V216.611L481.282 220.234L486.337 216.625Z" stroke="#263238" stroke-width="1.59381" stroke-miterlimit="10"/>
<path d="M547.749 233.483C546.439 235.142 545.5 237.063 544.994 239.116C544.595 241.76 545.228 251.938 545.228 251.938L531.043 253.535C531.043 253.535 532.117 243.192 532.172 241.471C532.626 239.336 533.531 237.322 534.825 235.565C536.119 233.807 537.774 232.346 539.678 231.279C544.554 228.882 548.699 230.053 547.749 233.483Z" fill="white"/>
<mask id="mask6_97_6031" style="mask-type:luminance" maskUnits="userSpaceOnUse" x="531" y="230" width="17" height="24">
<path d="M547.749 233.483C546.439 235.142 545.5 237.063 544.994 239.116C544.595 241.76 545.228 251.938 545.228 251.938L531.043 253.535C531.043 253.535 532.117 243.192 532.172 241.471C532.626 239.336 533.531 237.322 534.825 235.565C536.119 233.807 537.774 232.346 539.678 231.279C544.554 228.882 548.699 230.053 547.749 233.483Z" fill="white"/>
</mask>
<g mask="url(#mask6_97_6031)">
<g style="mix-blend-mode:multiply" opacity="0.5">
<path d="M547.652 233.593C545.077 232.89 541.951 232.105 539.306 231.472C537.488 232.554 535.913 233.999 534.679 235.717C533.444 237.435 532.577 239.389 532.131 241.457C532.131 242.118 531.938 244.046 531.745 246.167C533.122 245.85 535.312 245.368 536.937 245.079C538.225 244.871 539.492 244.553 540.725 244.129L540.243 252.392H540.56L545.187 251.869C545.187 251.869 544.554 241.691 544.953 239.047C545.456 237.058 546.376 235.199 547.652 233.593Z" fill="#92E3A9"/>
</g>
</g>
<path d="M547.749 233.483C546.439 235.142 545.5 237.063 544.994 239.116C544.595 241.76 545.228 251.938 545.228 251.938L531.043 253.535C531.043 253.535 532.117 243.192 532.172 241.471C532.626 239.336 533.531 237.322 534.825 235.565C536.119 233.807 537.774 232.346 539.678 231.279C544.554 228.882 548.699 230.053 547.749 233.483Z" stroke="#263238" stroke-width="1.60013" stroke-miterlimit="10"/>
<path d="M550.696 235.232C562.458 219.696 534.1 203.555 526.649 218.994C525.611 220.898 524.788 222.912 524.198 224.999C523.068 225.687 520.066 227.533 519.515 228.042C518.964 228.552 520.892 229.86 521.953 230.508C519.928 235.48 520.231 240.713 520.81 241.898C521.815 243.936 526.773 243.964 530.037 243.358C533.301 242.752 534.596 239.625 535.546 238.771C536.497 237.917 541.234 239.005 542.901 239.501C544.567 239.997 548.41 238.303 550.696 235.232Z" fill="white"/>
<mask id="mask7_97_6031" style="mask-type:luminance" maskUnits="userSpaceOnUse" x="519" y="212" width="35" height="32">
<path d="M550.696 235.232C562.458 219.696 534.1 203.555 526.649 218.994C525.611 220.898 524.788 222.912 524.198 224.999C523.068 225.687 520.066 227.533 519.515 228.042C518.964 228.552 520.892 229.86 521.953 230.508C519.928 235.48 520.231 240.713 520.81 241.898C521.815 243.936 526.773 243.964 530.037 243.358C533.301 242.752 534.596 239.625 535.546 238.771C536.497 237.917 541.234 239.005 542.901 239.501C544.567 239.997 548.41 238.303 550.696 235.232Z" fill="white"/>
</mask>
<g mask="url(#mask7_97_6031)">
<g style="mix-blend-mode:multiply" opacity="0.5">
<path d="M539.058 233.745C539.058 233.745 539.306 234.915 536.937 235.866C534.568 236.816 534.1 236.1 533.398 237.752C533.099 238.839 532.496 239.818 531.659 240.572C530.821 241.326 529.786 241.825 528.674 242.008C526.43 242.434 524.163 242.724 521.884 242.876C523.757 243.923 527.475 243.84 530.147 243.358C533.398 242.766 534.706 239.626 535.656 238.772C536.607 237.918 541.344 239.006 543.011 239.502C543.402 239.579 543.804 239.579 544.195 239.502C544.817 238.118 545.19 236.635 545.297 235.122L539.058 233.745Z" fill="#92E3A9"/>
</g>
</g>
<path d="M550.696 235.232C562.458 219.696 534.1 203.555 526.649 218.994C525.611 220.898 524.788 222.912 524.198 224.999C523.068 225.687 520.066 227.533 519.515 228.042C518.964 228.552 520.892 229.86 521.953 230.508C519.928 235.48 520.231 240.713 520.81 241.898C521.815 243.936 526.773 243.964 530.037 243.358C533.301 242.752 534.596 239.625 535.546 238.771C536.497 237.917 541.234 239.005 542.901 239.501C544.567 239.997 548.41 238.303 550.696 235.232Z" stroke="#263238" stroke-width="1.59381" stroke-miterlimit="10"/>
<path d="M527.724 226.363C527.421 227.024 526.911 227.437 526.581 227.286C526.25 227.134 526.223 226.473 526.581 225.812C526.939 225.151 527.393 224.738 527.724 224.889C528.054 225.041 528.027 225.702 527.724 226.363Z" fill="#263238"/>
<path d="M527.448 222.121C527.448 222.121 528.826 220.978 529.101 223.608" stroke="#263238" stroke-width="0.796907" stroke-linecap="round" stroke-linejoin="round"/>
<path d="M521.677 233.18C521.677 233.18 521.678 234.557 524.157 234.557" stroke="#263238" stroke-width="0.796907" stroke-linecap="round" stroke-linejoin="round"/>
<path d="M518.317 323.308L517.229 336.778C517.229 336.778 509.695 390.408 510.053 396.565C510.411 402.721 511.224 466.323 511.224 466.323L520.3 467.769L530.492 397.226L544.801 325.539L518.317 323.308Z" fill="#92E3A9" stroke="#263238" stroke-width="1.59381" stroke-miterlimit="10"/>
<path opacity="0.2" d="M518.317 323.308L517.229 336.778C517.229 336.778 509.695 390.408 510.053 396.565C510.411 402.721 511.224 466.323 511.224 466.323L520.3 467.769L530.492 397.226L544.801 325.539L518.317 323.308Z" fill="#263238"/>
<path d="M529.803 372.297C529.803 372.297 526.319 392.804 523.688 402.858C521.058 412.912 521.071 422.939 521.071 433.847C521.071 444.754 517.146 464.862 517.146 464.862" stroke="#263238" stroke-width="1.19536" stroke-miterlimit="10"/>
<path d="M536.731 320.003C542.708 316.862 549.126 314.783 550.958 318.956C554.594 327.302 550.242 339.987 550.242 339.987L553.561 398.493L559.635 469.077L550.559 467.617C550.559 467.617 536.621 408.051 534.445 404.415C532.269 400.779 528.839 349.779 528.839 349.779L521.953 343.512" fill="#92E3A9"/>
<path d="M536.731 320.003C542.708 316.862 549.126 314.783 550.958 318.956C554.594 327.302 550.242 339.987 550.242 339.987L553.561 398.493L559.635 469.077L550.559 467.617C550.559 467.617 536.621 408.051 534.445 404.415C532.269 400.779 528.839 349.779 528.839 349.779L521.953 343.512" stroke="#263238" stroke-width="1.59381" stroke-miterlimit="10"/>
<g opacity="0.2">
<path d="M536.731 320.003C542.708 316.862 549.126 314.783 550.958 318.956C554.594 327.302 550.242 339.987 550.242 339.987L553.561 398.493L559.635 469.077L550.559 467.617C550.559 467.617 536.621 408.051 534.445 404.415C532.269 400.779 528.839 349.779 528.839 349.779L521.953 343.512" fill="#263238"/>
</g>
<path d="M543.81 364.323C544.017 377.889 545.394 384.417 546.468 387.998C547.777 392.364 547.336 400.655 547.336 404.525C547.336 408.395 545.587 403.657 549.526 421.562C553.465 439.466 556.068 464.339 556.068 464.339" stroke="#263238" stroke-width="1.19536" stroke-miterlimit="10"/>
<path d="M543.81 334.753C543.81 334.753 544.237 333.871 543.81 354.392C543.81 355.494 543.81 356.555 543.81 357.588" stroke="#263238" stroke-width="1.19536" stroke-miterlimit="10"/>
<path d="M523.661 330.855L523.371 336.998L521.953 341.268L524.074 343.747" stroke="#263238" stroke-width="1.19536" stroke-linecap="round" stroke-linejoin="round"/>
<path d="M520.879 334.519C520.879 334.519 524.432 338.072 533.66 336.998" stroke="#263238" stroke-width="1.19536" stroke-linecap="round" stroke-linejoin="round"/>
<path d="M542.681 331.447C549.567 330.07 550.008 328.169 552.39 326.572C552.435 323.967 551.967 321.38 551.013 318.956C549.209 314.824 542.749 316.862 536.786 320.002L533.894 324.575L518.372 323.308L517.876 329.395C525.846 332.129 534.37 332.834 542.681 331.447Z" fill="#263238"/>
<path d="M519.873 327.522L519.721 329.946L523.66 330.855L523.963 327.674L519.873 327.522Z" fill="white" stroke="#263238" stroke-width="1.19536" stroke-miterlimit="10"/>
<path d="M547.363 331.117L546.702 325.084L548.699 324.423L549.705 329.781" fill="#92E3A9"/>
<path d="M547.363 331.117L546.702 325.084L548.699 324.423L549.705 329.781" stroke="#263238" stroke-width="1.59381" stroke-miterlimit="10"/>
<path d="M531.965 333.128L530.629 326.09H533.976L535.312 332.122" fill="#92E3A9"/>
<path d="M531.965 333.128L530.629 326.09H533.976L535.312 332.122" stroke="#263238" stroke-width="1.59381" stroke-miterlimit="10"/>
<g opacity="0.2">
<path d="M547.363 331.117L546.702 325.084L548.699 324.423L549.705 329.781" fill="#263238"/>
<path d="M531.965 333.128L530.629 326.09H533.976L535.312 332.122" fill="#263238"/>
</g>
<path d="M516.54 269.925C516.54 269.925 515.397 277.569 511.968 290.584C508.538 303.599 505.082 319.204 505.082 319.204L506.996 327.219L512.712 318.818L516.54 269.925Z" fill="#263238" stroke="#263238" stroke-width="1.59381" stroke-miterlimit="10"/>
<path d="M526.085 258.866C526.085 258.866 518.069 260.767 517.312 264.582C516.903 266.338 516.645 268.125 516.54 269.925L528.757 260.009L544.03 253.894L526.085 258.866Z" fill="#263238" stroke="#263238" stroke-width="1.59381" stroke-miterlimit="10"/>
<path d="M528.274 255.919C528.274 255.919 521.76 263.287 519.171 266.317C516.581 269.347 516.568 301.864 516.568 306.643C516.568 311.422 513.978 324.396 518.303 326.999C522.628 329.602 549.085 328.734 551.688 324.396C554.291 320.058 556.012 268.052 555.585 263.287C555.261 261.149 554.419 259.123 553.132 257.385C551.846 255.647 550.153 254.25 548.203 253.316C545.187 251.925 528.274 255.919 528.274 255.919Z" fill="white"/>
<mask id="mask8_97_6031" style="mask-type:luminance" maskUnits="userSpaceOnUse" x="515" y="253" width="41" height="76">
<path d="M528.274 255.919C528.274 255.919 521.76 263.287 519.171 266.317C516.581 269.347 516.568 301.864 516.568 306.643C516.568 311.422 513.978 324.396 518.303 326.999C522.628 329.602 549.085 328.734 551.688 324.396C554.291 320.058 556.012 268.052 555.585 263.287C555.261 261.149 554.419 259.123 553.132 257.385C551.846 255.647 550.153 254.25 548.203 253.316C545.187 251.925 528.274 255.919 528.274 255.919Z" fill="white"/>
</mask>
<g mask="url(#mask8_97_6031)">
<g style="mix-blend-mode:multiply" opacity="0.5">
<path d="M548.204 253.315C547.844 253.17 547.462 253.086 547.074 253.067L545.201 254.045C548.354 256.628 550.523 260.217 551.344 264.209C552.215 270.009 552.136 275.912 551.11 281.687C550.173 288.064 535.051 281.687 537.888 284.056C540.725 286.425 551.344 290.432 551.826 292.553C552.308 294.674 546.565 298.214 544.499 298.462C542.433 298.71 545.876 303.42 548.038 307.428C550.201 311.436 549.415 317.069 544.499 320.897C539.582 324.726 528.164 326.613 523.234 326.806C521.636 326.806 520.645 327.219 520.342 327.687C527.916 329.381 549.36 328.28 551.688 324.396C554.291 320.057 556.013 268.052 555.586 263.287C555.261 261.149 554.419 259.123 553.132 257.385C551.846 255.647 550.154 254.25 548.204 253.315Z" fill="#92E3A9"/>
</g>
</g>
<path d="M528.274 255.919C528.274 255.919 521.76 263.287 519.171 266.317C516.581 269.347 516.568 301.864 516.568 306.643C516.568 311.422 513.978 324.396 518.303 326.999C522.628 329.602 549.085 328.734 551.688 324.396C554.291 320.058 556.012 268.052 555.585 263.287C555.261 261.149 554.419 259.123 553.132 257.385C551.846 255.647 550.153 254.25 548.203 253.316C545.187 251.925 528.274 255.919 528.274 255.919Z" stroke="#263238" stroke-width="1.59381" stroke-miterlimit="10"/>
<path d="M541.593 288.904C534.61 286.728 528.495 280.64 528.495 280.64C530.044 287.874 534.251 294.263 540.284 298.545" fill="white"/>
<path d="M541.593 288.904C534.61 286.728 528.495 280.64 528.495 280.64C530.044 287.874 534.251 294.263 540.284 298.545" stroke="#263238" stroke-width="1.19536" stroke-linecap="round" stroke-linejoin="round"/>
<path d="M546.909 248.55L526.098 253.315L524.804 259.389L548.203 253.315L546.909 248.55Z" fill="white" stroke="#263238" stroke-width="1.59381" stroke-miterlimit="10"/>
<path d="M521.512 476.858L520.3 467.713L511.224 466.267L503.663 471.652L496.887 475.37V476.858H521.512Z" fill="#263238" stroke="#263238" stroke-width="1.59381" stroke-miterlimit="10"/>
<path d="M560.764 477.574L559.635 469.077L550.558 467.617L542.997 473.002L536.221 476.734V477.574H560.764Z" fill="#263238" stroke="#263238" stroke-width="1.59381" stroke-miterlimit="10"/>
<path d="M482.371 208.693L476.779 205.456C476.779 205.456 474.603 205.194 475.54 207.618L481.131 211.929" fill="white"/>
<path d="M482.371 208.693L476.779 205.456C476.779 205.456 474.603 205.194 475.54 207.618L481.131 211.929" stroke="#263238" stroke-width="1.59381" stroke-linecap="round" stroke-linejoin="round"/>
<path d="M481.544 217.108C481.281 216.443 480.893 215.835 480.401 215.317L479.354 214.188L473.666 207.136C473.666 207.136 471.903 205.952 472.289 208.513L475.815 215.4L469.548 209.519C469.548 209.519 468.364 208.541 468.364 209.918C468.364 211.296 474.052 217.369 474.052 217.369L467.771 214.422C467.771 214.422 466.394 215.4 467.386 216.378C468.377 217.355 473.652 219.325 473.652 219.325L468.956 219.132C468.956 219.132 467.579 220.303 468.556 220.702C469.534 221.102 475.03 222.259 475.03 222.259C475.728 222.852 476.525 223.318 477.385 223.636L478.762 226.184L484.037 223.526L481.544 217.108Z" fill="white" stroke="#263238" stroke-width="1.59381" stroke-linecap="round" stroke-linejoin="round"/>
<path d="M537.86 278.244L506.431 285.612C504.822 285.896 503.165 285.613 501.741 284.812C500.317 284.011 499.215 282.741 498.622 281.219L478.79 226.128L484.064 223.47L505.977 264.058C506.474 264.986 507.256 265.73 508.209 266.179C509.161 266.628 510.233 266.758 511.265 266.551L535.298 259.761" fill="white"/>
<path d="M537.86 278.244L506.431 285.612C504.822 285.896 503.165 285.613 501.741 284.812C500.317 284.011 499.215 282.741 498.622 281.219L478.79 226.128L484.064 223.47L505.977 264.058C506.474 264.986 507.256 265.73 508.209 266.179C509.161 266.628 510.233 266.758 511.265 266.551L535.298 259.761" stroke="#263238" stroke-width="1.59381" stroke-miterlimit="10"/>
<path d="M487.025 228.662L480.91 231.72" stroke="#263238" stroke-width="1.19536" stroke-miterlimit="10"/>
<path d="M533.949 219.16C533.949 219.16 530.602 222.506 532.269 225.013C533.256 226.461 534.009 228.055 534.5 229.737C534.5 229.737 533.123 233.084 534.224 233.084C535.326 233.084 534.775 230.577 536.731 231.142C538.687 231.707 540.629 235.04 538.962 236.155C537.715 236.852 536.394 237.406 535.023 237.808C534.848 237.861 534.693 237.964 534.576 238.105C534.46 238.245 534.387 238.417 534.366 238.598C534.346 238.78 534.379 238.963 534.461 239.126C534.544 239.289 534.672 239.425 534.83 239.516C536.642 240.74 538.729 241.497 540.904 241.719C542.683 241.757 544.46 241.572 546.193 241.168C546.193 241.168 551.702 233.649 555.668 231.693C559.635 229.737 557.899 220.826 557.899 219.711C557.899 218.595 554.002 216.088 554.002 216.088C554.002 216.088 555.117 213.582 550.104 208.018C545.091 202.454 535.615 201.324 535.34 203.28C535.243 203.798 535.297 204.332 535.494 204.821C535.692 205.309 536.026 205.73 536.455 206.034C536.455 206.034 528.096 202.412 524.198 206.31C520.3 210.208 533.949 219.16 533.949 219.16Z" fill="#263238" stroke="#263238" stroke-width="1.59381" stroke-miterlimit="10"/>
<path d="M533.949 219.159C533.949 219.159 540.725 227.423 550.765 228.222" stroke="white" stroke-width="0.796907" stroke-linecap="round" stroke-linejoin="round"/>
<path d="M531.552 221.68C531.552 221.68 534.706 230.852 547.749 233.469" stroke="white" stroke-width="0.796907" stroke-linecap="round" stroke-linejoin="round"/>
</svg>
