<svg width="587" height="545" viewBox="0 0 587 545" fill="none" xmlns="http://www.w3.org/2000/svg">
<path d="M86.3833 503.229C200.802 557.757 386.303 557.774 500.722 503.229C615.141 448.685 615.124 360.285 500.722 305.757C386.32 251.229 200.802 251.229 86.3833 305.757C-28.0355 360.285 -28.0189 448.702 86.3833 503.229Z" fill="#F5F5F5"/>
<path d="M500.323 462.931C521.396 462.931 538.479 454.791 538.479 444.75C538.479 434.708 521.396 426.568 500.323 426.568C479.25 426.568 462.167 434.708 462.167 444.75C462.167 454.791 479.25 462.931 500.323 462.931Z" fill="#EBEBEB"/>
<path d="M77.6992 447.356L91.1984 439.569C98.7353 433.419 104.472 425.347 107.802 416.207C111.97 404.717 111.389 395.983 108.4 391.6C104.731 386.204 95.2165 387.15 94.8347 398.507C94.0377 420.889 87.5122 436.414 77.6992 447.356Z" fill="#688F67"/>
<path d="M77.6994 448.187C77.5236 448.184 77.3531 448.127 77.2123 448.021C77.0715 447.916 76.9678 447.769 76.9161 447.601C76.8644 447.433 76.8674 447.252 76.9246 447.086C76.9818 446.92 77.0903 446.776 77.2345 446.676C108.45 425.09 102.406 394.987 102.34 394.688C102.317 394.579 102.316 394.467 102.336 394.357C102.357 394.248 102.399 394.143 102.46 394.05C102.521 393.957 102.599 393.876 102.691 393.814C102.783 393.751 102.887 393.707 102.996 393.684C103.105 393.661 103.217 393.66 103.327 393.68C103.436 393.701 103.541 393.743 103.634 393.803C103.727 393.864 103.808 393.943 103.87 394.035C103.933 394.127 103.977 394.23 104 394.339C104 394.655 110.376 425.788 78.2308 448.037C78.0748 448.144 77.8881 448.196 77.6994 448.187Z" fill="white"/>
<path d="M50.6513 462.981C50.6513 462.981 45.9523 459.162 47.0814 453.982C48.2105 448.801 51.249 445.082 46.0519 438.407C40.8549 431.732 39.4103 422.832 45.6202 418.017C50.3524 414.281 57.7412 419.561 60.3979 409.715C62.3572 402.509 61.693 386.552 70.875 381.239C80.0571 375.926 85.8187 383.929 84.3742 394.755C83.1123 404.435 81.319 413.75 82.7138 416.34C85.4036 421.321 90.003 420.641 89.7871 429.74C89.6045 438.208 81.5847 445.215 81.5847 445.215L50.6513 462.981Z" fill="#4A7848"/>
<path d="M66.0763 454.862C65.8733 454.86 65.6779 454.785 65.5255 454.651C65.3731 454.517 65.2739 454.332 65.2461 454.131C62.8717 434.456 68.5669 400.484 73.2161 390.388C73.2552 390.276 73.3179 390.174 73.3999 390.088C73.4819 390.003 73.5813 389.935 73.6914 389.891C73.8016 389.847 73.9199 389.827 74.0383 389.833C74.1568 389.838 74.2728 389.869 74.3783 389.923C74.4775 389.968 74.5666 390.032 74.6406 390.112C74.7145 390.191 74.7718 390.285 74.8089 390.387C74.8461 390.489 74.8624 390.598 74.8568 390.706C74.8513 390.815 74.8241 390.921 74.7768 391.019C70.1775 400.982 64.6816 435.053 66.9563 453.866C66.9797 454.084 66.916 454.302 66.7791 454.473C66.6423 454.644 66.4434 454.754 66.2257 454.779L66.0763 454.862Z" fill="white"/>
<path d="M65.6282 439.536C65.5011 439.543 65.3748 439.514 65.2629 439.453C59.5013 436.647 55.8483 426.635 55.6989 426.17C55.6582 426.067 55.6387 425.957 55.6414 425.846C55.6441 425.735 55.669 425.625 55.7147 425.524C55.7604 425.423 55.8259 425.332 55.9073 425.257C55.9888 425.181 56.0845 425.123 56.1889 425.085C56.2933 425.047 56.4042 425.031 56.5151 425.037C56.6259 425.043 56.7345 425.071 56.8343 425.119C56.9341 425.168 57.0232 425.236 57.0963 425.319C57.1693 425.403 57.2249 425.5 57.2597 425.606C57.2597 425.705 60.8296 435.402 65.9934 437.909C66.1628 437.991 66.2993 438.128 66.3805 438.298C66.4617 438.468 66.4828 438.66 66.4404 438.844C66.3979 439.027 66.2944 439.191 66.1468 439.307C65.9993 439.424 65.8164 439.487 65.6282 439.487V439.536Z" fill="white"/>
<path d="M65.5286 446.178C65.3622 446.178 65.1998 446.127 65.0632 446.032C64.9267 445.937 64.8225 445.803 64.7648 445.647C64.6822 445.444 64.6829 445.217 64.7669 445.015C64.8508 444.813 65.0112 444.652 65.2131 444.567C74.9099 440.682 80.9538 429.142 81.0202 429.009C81.1215 428.813 81.2965 428.666 81.5067 428.599C81.7168 428.532 81.945 428.551 82.141 428.652C82.337 428.754 82.4846 428.929 82.5516 429.139C82.6185 429.349 82.5993 429.577 82.498 429.773C82.2323 430.271 76.1054 441.994 65.8939 446.112C65.7801 446.166 65.6541 446.189 65.5286 446.178Z" fill="white"/>
<path d="M404.468 356.848C404.468 356.848 397.212 345.092 396.498 332.323C395.784 319.555 398.59 314.242 402.442 312.714C406.294 311.186 406.593 315.885 408.569 318.658C410.545 321.431 414.58 319.854 416.074 311.203C417.568 302.552 423.015 287.957 434.339 285.118C446.792 282.03 440.117 296.641 436.979 302.336C433.84 308.032 431.416 315.802 433.475 317.911C435.534 320.02 438.739 316.118 441.777 319.737C445.48 324.104 433.973 339.828 427.365 343.631L404.468 356.848Z" fill="#688F67"/>
<path d="M414.413 351.916C414.304 351.912 414.197 351.887 414.098 351.841C413.999 351.795 413.91 351.73 413.836 351.65C413.762 351.57 413.704 351.476 413.667 351.373C413.629 351.271 413.612 351.162 413.616 351.053C414.741 330.513 421.146 310.611 432.213 293.271C432.276 293.181 432.356 293.104 432.449 293.045C432.542 292.987 432.646 292.948 432.755 292.931C432.864 292.914 432.975 292.919 433.081 292.946C433.188 292.973 433.288 293.021 433.375 293.088C433.549 293.218 433.666 293.41 433.7 293.624C433.734 293.838 433.683 294.057 433.558 294.234C422.689 311.32 416.399 330.916 415.293 351.136C415.287 351.245 415.259 351.352 415.212 351.45C415.164 351.549 415.097 351.637 415.015 351.709C414.934 351.782 414.838 351.837 414.735 351.873C414.632 351.908 414.522 351.923 414.413 351.916Z" fill="white"/>
<path d="M415.36 342.103C415.221 342.102 415.085 342.068 414.962 342.004C410.313 339.43 407.739 331.792 407.639 331.477C407.603 331.373 407.587 331.263 407.593 331.154C407.599 331.044 407.627 330.937 407.675 330.838C407.723 330.739 407.79 330.651 407.872 330.578C407.954 330.505 408.05 330.45 408.154 330.414C408.363 330.346 408.591 330.364 408.787 330.463C408.983 330.563 409.132 330.736 409.2 330.945C409.2 330.945 411.691 338.301 415.842 340.543C416.03 340.654 416.168 340.833 416.226 341.044C416.285 341.254 416.26 341.479 416.157 341.672C416.082 341.815 415.966 341.932 415.824 342.009C415.683 342.086 415.521 342.119 415.36 342.103Z" fill="white"/>
<path d="M416.174 337.073C415.99 337.071 415.812 337.007 415.667 336.893C415.523 336.779 415.421 336.62 415.377 336.442C415.349 336.337 415.343 336.228 415.359 336.121C415.374 336.014 415.411 335.911 415.466 335.818C415.522 335.725 415.596 335.644 415.683 335.58C415.77 335.516 415.869 335.471 415.974 335.445C427.963 332.407 432.114 326.13 432.147 326.064C432.206 325.971 432.282 325.891 432.372 325.828C432.462 325.765 432.563 325.72 432.67 325.696C432.778 325.672 432.888 325.67 432.997 325.689C433.105 325.708 433.208 325.748 433.301 325.807C433.393 325.866 433.474 325.942 433.537 326.032C433.6 326.122 433.645 326.223 433.668 326.33C433.692 326.437 433.695 326.548 433.676 326.656C433.657 326.765 433.617 326.868 433.558 326.961C433.375 327.243 429.058 333.835 416.389 337.056L416.174 337.073Z" fill="white"/>
<path d="M223.815 331.045C223.815 331.045 207.892 327.16 207.062 297.339C206.182 265.16 210.964 227.602 192.118 224.563C173.272 221.525 162.812 244.488 163.044 271.304C163.26 294.782 172.724 345.756 223.749 355.752L223.815 331.045Z" fill="#4A7848"/>
<path d="M223.815 352.697H223.666C212.192 350.605 202.844 344.278 195.887 333.917C175.265 303.15 181.757 245.7 183.899 235.671C183.947 235.457 184.076 235.271 184.258 235.15C184.441 235.029 184.663 234.984 184.879 235.024C185.094 235.075 185.281 235.207 185.401 235.393C185.522 235.578 185.566 235.802 185.526 236.02C183.417 245.982 176.958 302.702 197.265 332.988C200.221 337.684 204.121 341.715 208.717 344.825C213.313 347.935 218.506 350.056 223.965 351.053C224.073 351.073 224.176 351.114 224.269 351.174C224.361 351.234 224.44 351.312 224.502 351.404C224.564 351.495 224.607 351.597 224.629 351.705C224.65 351.813 224.65 351.925 224.629 352.033C224.594 352.222 224.492 352.392 224.344 352.514C224.195 352.635 224.007 352.7 223.815 352.697Z" fill="white"/>
<path d="M223.815 429.225C207.361 431.45 180.645 431.417 165.219 419.263C149.794 407.109 153.015 396.648 158.943 392.281C164.871 387.914 170.018 382.933 159.823 373.236C149.628 363.539 133.257 347.965 127.943 324.603C122.63 301.241 125.253 286.629 135.681 281.764C145.793 277.049 148.466 284.554 154.659 300.029C160.853 315.504 174.783 302.237 186.705 307.069C198.627 311.901 198.145 321.465 198.893 329.684C199.64 337.903 203.575 340.178 210.333 340.178C217.091 340.178 223.815 344.063 223.815 351.8V429.225Z" fill="#CFDCBB"/>
<path d="M223.815 402.094C223.744 402.11 223.671 402.11 223.6 402.094C222.886 401.895 205.866 396.947 181.077 374.182C154.676 349.941 142.223 313.578 142.09 313.212C142.026 313.003 142.046 312.777 142.145 312.582C142.244 312.387 142.415 312.238 142.621 312.166C142.828 312.097 143.054 312.113 143.25 312.209C143.446 312.305 143.596 312.475 143.668 312.681C143.784 313.046 156.121 349.011 182.206 372.954C206.647 395.419 223.865 400.45 224.048 400.5C224.153 400.531 224.25 400.581 224.335 400.65C224.42 400.718 224.491 400.802 224.543 400.898C224.596 400.993 224.629 401.098 224.641 401.207C224.653 401.315 224.643 401.425 224.612 401.529C224.559 401.697 224.452 401.843 224.308 401.945C224.164 402.046 223.992 402.099 223.815 402.094Z" fill="white"/>
<path d="M188 379.961C187.833 379.963 187.67 379.913 187.533 379.818C187.396 379.723 187.292 379.587 187.236 379.429C181.906 365.748 180.694 336.475 180.595 335.229C180.59 335.01 180.67 334.798 180.819 334.637C180.968 334.476 181.173 334.379 181.392 334.366C181.608 334.369 181.817 334.452 181.976 334.599C182.135 334.746 182.235 334.947 182.255 335.163C182.255 335.462 183.5 365.399 188.731 378.832C188.771 378.934 188.79 379.043 188.787 379.153C188.785 379.263 188.76 379.372 188.716 379.472C188.671 379.572 188.606 379.663 188.526 379.738C188.446 379.814 188.352 379.872 188.249 379.911C188.169 379.94 188.085 379.957 188 379.961Z" fill="white"/>
<path d="M187.867 399.637C186.337 399.649 184.806 399.571 183.285 399.404C183.176 399.391 183.07 399.357 182.975 399.303C182.879 399.249 182.795 399.177 182.727 399.091C182.659 399.004 182.609 398.906 182.579 398.8C182.549 398.694 182.541 398.584 182.554 398.475C182.567 398.366 182.602 398.26 182.655 398.165C182.709 398.069 182.781 397.985 182.868 397.917C182.954 397.849 183.053 397.799 183.159 397.769C183.264 397.739 183.375 397.731 183.484 397.744C183.633 397.744 199.092 399.504 206.182 392.281C206.256 392.194 206.347 392.123 206.449 392.072C206.552 392.022 206.664 391.993 206.778 391.988C206.892 391.982 207.007 392.001 207.113 392.042C207.22 392.083 207.317 392.146 207.399 392.226C207.48 392.306 207.544 392.402 207.587 392.509C207.629 392.615 207.649 392.729 207.646 392.843C207.642 392.957 207.615 393.07 207.566 393.173C207.517 393.276 207.447 393.369 207.361 393.444C202.23 398.74 193.28 399.637 187.867 399.637Z" fill="white"/>
<path d="M240.22 451.441L396.299 361.314C396.643 361.193 396.94 360.969 397.151 360.671C397.362 360.374 397.475 360.018 397.475 359.654C397.475 359.289 397.362 358.934 397.151 358.636C396.94 358.339 396.643 358.114 396.299 357.993L381.87 349.691C380.976 349.242 379.989 349.007 378.989 349.007C377.988 349.007 377.002 349.242 376.108 349.691L219.98 439.735C219.636 439.856 219.338 440.081 219.127 440.378C218.917 440.676 218.803 441.031 218.803 441.396C218.803 441.76 218.917 442.116 219.127 442.413C219.338 442.711 219.636 442.935 219.98 443.056L234.459 451.358C235.346 451.821 236.329 452.069 237.329 452.084C238.33 452.098 239.32 451.878 240.22 451.441Z" fill="#E0E0E0"/>
<path d="M392.014 13.3423L251.278 94.6028C249.186 95.9681 247.445 97.807 246.196 99.9705C244.947 102.134 244.225 104.561 244.089 107.056V440.914C244.089 445.497 247.31 447.357 251.278 445.065L392.014 363.805C394.109 362.443 395.853 360.604 397.102 358.44C398.351 356.276 399.072 353.847 399.204 351.352V17.4934C399.204 12.9106 395.999 11.051 392.014 13.3423Z" fill="#455A64"/>
<path d="M251.278 94.6028L392.015 13.3424C395.568 11.2835 398.507 12.562 399.105 16.1319C398.773 13.8874 397.969 11.7387 396.747 9.82697C395.525 7.91528 393.912 6.28396 392.015 5.04034L386.17 1.71952C383.942 0.589113 381.479 0 378.98 0C376.482 0 374.019 0.589113 371.791 1.71952L231.038 82.9136C228.918 84.2428 227.17 86.0881 225.957 88.2767L246.197 99.8995C247.41 97.7282 249.159 95.9044 251.278 94.6028Z" fill="#37474F"/>
<path d="M223.815 429.225C223.951 431.72 224.673 434.147 225.922 436.31C227.172 438.474 228.913 440.313 231.005 441.678L236.866 444.999C238.895 446.014 241.115 446.589 243.381 446.686C245.647 446.783 247.908 446.401 250.016 445.564C246.696 446.859 244.056 444.949 244.056 440.848V107.056C244.139 104.551 244.865 102.109 246.164 99.9659L225.924 88.343C224.643 90.4701 223.918 92.8855 223.815 95.3666V429.225Z" fill="#263238"/>
<path d="M255.147 139.085L388.196 62.2912C390.587 60.9297 392.513 62.0421 392.513 64.7818V311.884C392.433 313.381 392 314.839 391.25 316.137C390.5 317.436 389.453 318.539 388.196 319.356L255.197 396.15C252.806 397.528 250.88 396.415 250.88 393.659V146.557C250.955 145.064 251.381 143.61 252.122 142.312C252.864 141.014 253.9 139.909 255.147 139.085Z" fill="white"/>
<path d="M321.647 66.6251C320.912 67.1072 320.301 67.755 319.863 68.5164C319.425 69.2777 319.171 70.1314 319.123 71.0086C319.123 72.669 320.252 73.2833 321.647 72.4697C322.384 71.9905 322.997 71.3434 323.436 70.5815C323.874 69.8195 324.126 68.9644 324.17 68.0862C324.17 66.4757 323.041 65.8281 321.647 66.6251Z" fill="#37474F"/>
<path d="M321.647 369.567C318.744 371.465 316.329 374.021 314.599 377.027C312.868 380.033 311.869 383.404 311.684 386.868C311.684 393.227 316.151 395.818 321.647 392.63C324.548 390.73 326.962 388.174 328.693 385.168C330.424 382.162 331.423 378.792 331.609 375.328C331.642 368.969 327.159 366.379 321.647 369.567Z" fill="#37474F"/>
<path d="M297.753 92.328C296.294 93.2967 295.083 94.5948 294.218 96.1177C293.352 97.6406 292.857 99.3455 292.772 101.095C292.772 104.316 295.03 105.628 297.753 104.017C299.228 103.058 300.455 101.764 301.335 100.24C302.215 98.7168 302.723 97.0071 302.817 95.2503C302.817 92.0291 300.559 90.7174 297.753 92.328Z" fill="#37474F"/>
<path d="M310.156 91.2323C310.156 93.3908 311.817 94.2044 313.76 93.0587L346.968 73.8478C347.996 73.2054 348.859 72.3292 349.485 71.2905C350.111 70.2518 350.483 69.0799 350.571 67.8703C350.571 65.7284 348.91 64.9148 346.968 66.0605L313.76 85.2714C312.733 85.9122 311.872 86.7858 311.246 87.8214C310.62 88.857 310.247 90.0255 310.156 91.2323Z" fill="#37474F"/>
<path d="M235.039 149.778C236.218 150.546 237.199 151.58 237.902 152.797C238.606 154.015 239.014 155.381 239.091 156.785C239.091 159.375 237.281 160.421 235.039 159.126C233.865 158.356 232.888 157.321 232.187 156.103C231.487 154.886 231.081 153.522 231.005 152.119C231.005 149.546 232.814 148.5 235.039 149.778Z" fill="#37474F"/>
<path d="M235.039 180.961C236.218 181.728 237.199 182.763 237.902 183.98C238.606 185.197 239.014 186.564 239.091 187.968C239.091 190.541 237.281 191.587 235.039 190.309C233.865 189.539 232.888 188.503 232.187 187.286C231.487 186.069 231.081 184.704 231.005 183.302C231.005 180.712 232.814 179.666 235.039 180.961Z" fill="#37474F"/>
<path d="M233.777 150.409C234.956 151.177 235.937 152.211 236.641 153.428C237.344 154.646 237.752 156.012 237.829 157.416C237.829 159.99 236.019 161.036 233.777 159.757C232.599 158.99 231.618 157.955 230.914 156.738C230.211 155.521 229.803 154.154 229.726 152.75C229.743 150.16 231.553 149.164 233.777 150.409Z" fill="#455A64"/>
<path d="M233.777 181.575C234.958 182.344 235.94 183.381 236.644 184.602C237.348 185.822 237.754 187.192 237.829 188.599C237.829 191.172 236.019 192.218 233.777 190.923C232.596 190.159 231.613 189.125 230.909 187.907C230.205 186.689 229.799 185.321 229.726 183.916C229.743 181.343 231.553 180.297 233.777 181.575Z" fill="#455A64"/>
<path d="M419.444 72.6026C419.444 69.8463 417.518 68.7339 415.127 70.112L399.204 79.2941L282.129 146.906C280.871 147.723 279.824 148.826 279.074 150.124C278.324 151.423 277.891 152.88 277.812 154.378V401.414C277.812 404.17 279.738 405.282 282.129 403.904L399.254 336.276L415.127 327.11C416.385 326.293 417.431 325.19 418.182 323.892C418.932 322.593 419.365 321.136 419.444 319.638V72.6026Z" fill="white"/>
<path d="M421.105 72.6023C421.21 71.7697 421.066 70.9247 420.693 70.173C420.32 69.4214 419.733 68.7965 419.007 68.3765C418.28 67.9566 417.446 67.7601 416.608 67.8118C415.77 67.8635 414.967 68.161 414.297 68.6672L399.105 77.4507L281.299 145.528C279.782 146.485 278.521 147.797 277.624 149.35C276.727 150.904 276.222 152.652 276.151 154.444V401.413C276.085 402.242 276.244 403.074 276.612 403.819C276.981 404.565 277.544 405.197 278.243 405.647C278.838 405.993 279.515 406.171 280.203 406.162C281.176 406.132 282.125 405.851 282.959 405.348L400.848 337.272L416.008 328.521C417.516 327.555 418.77 326.24 419.666 324.689C420.561 323.138 421.072 321.394 421.155 319.605L421.105 72.6023ZM399.138 334.432L397.776 335.229L281.365 402.443C281.169 402.593 280.943 402.698 280.701 402.75C280.46 402.801 280.21 402.798 279.97 402.742C279.754 402.609 279.538 402.144 279.538 401.38V154.378C279.624 153.172 279.983 152.002 280.587 150.955C281.191 149.908 282.025 149.012 283.025 148.334L399.32 81.087L415.925 71.4733C416.12 71.323 416.347 71.2181 416.588 71.1664C416.829 71.1147 417.079 71.1174 417.319 71.1744C417.535 71.3072 417.751 71.7721 417.751 72.5359V319.638C417.665 320.844 417.307 322.014 416.702 323.061C416.099 324.108 415.265 325.004 414.264 325.682L399.105 334.432H399.138Z" fill="#CFDCBB"/>
<path d="M348.628 130.003C363.572 121.402 375.61 128.342 375.61 145.594C375.61 162.846 363.522 183.783 348.628 192.318C333.734 200.852 321.646 193.978 321.646 176.743C321.646 159.508 333.734 138.62 348.628 130.003Z" fill="#CFDCBB"/>
<path d="M348.628 143.552C353.46 140.762 357.378 143.021 357.378 148.533C357.214 151.57 356.336 154.525 354.816 157.159C353.296 159.793 351.176 162.032 348.628 163.693C343.796 166.482 339.878 164.224 339.878 158.711C340.042 155.675 340.92 152.719 342.44 150.085C343.96 147.451 346.081 145.213 348.628 143.552Z" fill="#BA68C8"/>
<path d="M365.681 173.306C365.681 164.141 359.255 160.421 351.302 165.004L346.32 167.877C338.384 172.459 331.941 183.617 331.941 192.783V195.257C336.54 196.768 342.319 195.954 348.545 192.318C355.443 188.063 361.276 182.287 365.598 175.431L365.681 173.306Z" fill="#BA68C8"/>
<path opacity="0.7" d="M348.628 143.552C353.46 140.762 357.378 143.021 357.378 148.533C357.214 151.57 356.336 154.525 354.816 157.159C353.296 159.793 351.176 162.032 348.628 163.693C343.796 166.482 339.878 164.224 339.878 158.711C340.042 155.675 340.92 152.719 342.44 150.085C343.96 147.451 346.081 145.213 348.628 143.552Z" fill="#9B7F7F"/>
<path opacity="0.7" d="M365.681 173.306C365.681 164.141 359.255 160.421 351.302 165.004L346.32 167.877C338.384 172.459 331.941 183.617 331.941 192.783V195.257C336.54 196.768 342.319 195.954 348.545 192.318C355.443 188.063 361.276 182.287 365.598 175.431L365.681 173.306Z" fill="#9B7F7F"/>
<path d="M296.425 230.258L331.144 210.217C332.804 209.304 334.016 210.035 334.016 211.878V213.023C333.964 214.021 333.676 214.992 333.177 215.858C332.678 216.724 331.981 217.459 331.144 218.005L296.425 238.046C294.847 238.959 293.552 238.212 293.552 236.385V235.24C293.606 234.242 293.894 233.271 294.393 232.406C294.892 231.54 295.588 230.805 296.425 230.258Z" fill="#CFDCBB"/>
<path d="M294.997 254.45L400.034 193.812C400.815 193.347 401.462 193.712 401.462 194.642V206.896C401.433 207.393 401.289 207.877 401.041 208.309C400.793 208.741 400.449 209.11 400.034 209.387L294.997 270.025C294.2 270.49 293.552 270.108 293.552 269.195V256.941C293.581 256.442 293.726 255.956 293.977 255.523C294.228 255.091 294.578 254.723 294.997 254.45Z" fill="#4A7848"/>
<path d="M296.425 284.77L331.144 264.728C332.804 263.815 334.016 264.562 334.016 266.389V267.534C333.965 268.533 333.678 269.504 333.179 270.37C332.68 271.236 331.982 271.971 331.144 272.516L296.425 292.557C294.847 293.487 293.552 292.739 293.552 290.896V289.751C293.609 288.754 293.898 287.784 294.397 286.919C294.896 286.054 295.59 285.318 296.425 284.77Z" fill="#CFDCBB"/>
<path d="M294.997 308.962L400.034 248.324C400.815 247.859 401.462 248.24 401.462 249.154V261.408C401.433 261.905 401.289 262.389 401.041 262.821C400.793 263.253 400.449 263.622 400.034 263.898L294.997 324.536C294.2 325.001 293.552 324.636 293.552 323.706V311.452C293.581 310.953 293.726 310.467 293.977 310.035C294.228 309.602 294.578 309.234 294.997 308.962Z" fill="#4A7848"/>
<path d="M331.039 320.098L372.549 296.171C374.209 295.241 375.438 295.988 375.438 297.831V310.65C375.384 311.649 375.094 312.621 374.591 313.487C374.089 314.353 373.389 315.088 372.549 315.631L331.039 339.574C329.378 340.487 328.166 339.74 328.166 337.914V325.079C328.224 324.082 328.514 323.113 329.013 322.248C329.511 321.383 330.205 320.647 331.039 320.098Z" fill="#7C8770"/>
<path d="M435.185 261.823C435.185 261.823 414.795 233.695 413.6 230.275C412.653 227.751 413.6 223.999 413.899 222.255C414.198 220.512 414.463 216.626 414.762 215.614C415.26 213.721 412.82 214.103 411.441 215.829C410.063 217.556 409.598 221.01 408.884 221.574C408.17 222.139 402.741 214.219 399.902 210.566C397.062 206.913 395.286 204.688 393.542 206.05C392.297 207.029 393.227 209.155 395.286 212.276C396.488 213.957 397.597 215.703 398.606 217.506C398.922 218.187 397.228 218.237 396.315 219.648C395.601 220.744 396.315 222.521 395.319 223.368C394.706 223.834 394.286 224.51 394.139 225.266C393.992 226.023 394.128 226.807 394.522 227.469C396.37 230.371 398.754 232.896 401.545 234.908C404.601 237.016 405.829 237.763 407.639 240.636C409.449 243.508 425.688 272.848 426.784 274.608C427.879 276.368 429.988 279.954 433.193 280.054C436.397 280.154 462.632 257.572 463.977 256.443C468.294 252.84 469.672 252.325 470.403 255.563C470.655 256.714 470.843 257.878 470.967 259.05C471.482 263.168 474.288 277.879 474.288 277.879C474.288 277.879 487.571 284.305 498.48 281.2C509.389 278.095 513.075 273.462 513.075 273.462L507.612 264.562C509.09 260.893 515.914 246.016 518.123 235.605L483.918 230.076C483.221 229.926 482.092 229.644 480.597 229.262C478.721 228.764 473.956 227.12 470.353 230.275C458.597 240.52 435.218 261.823 435.218 261.823" fill="#FFA8A7"/>
<path d="M502.997 434.405L496.87 442.923C499.654 444.223 502.697 444.876 505.769 444.833C511.265 445.032 512.776 443.172 512.976 442.807C513.905 440.814 512.461 437.228 512.062 434.14L502.997 434.405Z" fill="#37474F"/>
<path d="M497.218 438.839C497.218 438.839 489.779 438.358 484.649 437.727C479.518 437.096 475.45 439.586 476.646 441.695C477.841 443.804 480.68 445.564 485.097 447.041C488.866 448.32 493.399 449.233 497.318 450.362C501.236 451.491 503.959 452.969 506.234 452.172C508.774 451.292 509.87 450.279 509.655 448.42C509.1 445.774 508.413 443.159 507.596 440.582L497.218 438.839Z" fill="#37474F"/>
<path d="M512.975 425.854C512.975 425.854 512.046 433.592 511.979 435.252C511.913 436.912 504.424 437.444 502.996 434.405L502.764 424.941L512.975 425.854Z" fill="#F28F8F"/>
<path d="M505.437 430.604L508.11 442.359C508.11 442.359 508.36 443.787 502.249 444.7C496.139 445.614 486.542 441.496 484.898 440.666C483.254 439.835 483.071 438.158 489.082 438.49C495.093 438.823 497.218 438.839 497.218 438.839L495.259 433.642L505.437 430.604Z" fill="#FFA8A7"/>
<path d="M518.023 235.505L522.257 234.326C522.257 234.326 531.107 262.338 532.087 265.044C533.066 267.75 534.179 270.606 532.269 273.944C529.995 277.912 518.023 293.869 518.023 293.869L510.418 286.43L519.053 270.623L511.415 255.181L518.023 235.505Z" fill="#F28F8F"/>
<path d="M474.537 199.126C473.544 197.262 473.041 195.177 473.072 193.066C473.104 190.955 473.671 188.887 474.72 187.054C478.937 179.234 488.335 175.431 499.526 176.876C504.707 177.557 510.817 181.857 514.154 188.283C517.84 195.406 518.189 209.752 519.136 215.182L474.537 199.126Z" fill="#37474F"/>
<path d="M474.238 202.197C474.238 202.197 471.582 207.262 472.047 207.726C472.735 208.129 473.488 208.409 474.271 208.557L474.238 202.197Z" fill="#FFA8A7"/>
<path d="M482.308 186.191C479.419 188.067 474.437 191.521 474.222 202.895C473.989 214.518 475.65 218.353 477.376 219.698C478.539 220.611 485.363 220.146 488.285 219.466C491.208 218.785 499.626 214.617 502.664 208.291C506.234 200.852 505.504 190.027 500.207 186.706C497.511 185.112 494.454 184.228 491.324 184.138C488.193 184.048 485.091 184.754 482.308 186.191Z" fill="#FFA8A7"/>
<path d="M512.975 273.396C518.089 281.366 522.938 288.339 524.001 297.339C526.192 316.251 519.019 337.869 517.475 351.867C520.379 355.848 522.053 360.593 522.29 365.515C522.29 371.31 512.975 425.855 512.975 425.855C512.975 425.855 506.201 427.913 502.764 424.941L496.371 324.603L499.692 312.382L512.975 273.396Z" fill="#BA68C8"/>
<path opacity="0.2" d="M512.975 273.396C518.089 281.366 522.938 288.339 524.001 297.339C526.192 316.251 519.019 337.869 517.475 351.867C520.379 355.848 522.053 360.593 522.29 365.515C522.29 371.31 512.975 425.855 512.975 425.855C512.975 425.855 506.201 427.913 502.764 424.941L496.371 324.603L499.692 312.382L512.975 273.396Z" fill="black"/>
<path d="M496.371 324.603L499.692 312.382C506.05 310.708 512.183 308.272 517.957 305.126C517.957 305.126 514.503 311.419 504.574 314.873L499.443 330.564L499.011 366.512L496.371 324.603Z" fill="#BA68C8"/>
<path opacity="0.3" d="M496.371 324.603L499.692 312.382C506.05 310.708 512.183 308.272 517.957 305.126C517.957 305.126 514.503 311.419 504.574 314.873L499.443 330.564L499.011 366.512L496.371 324.603Z" fill="black"/>
<path d="M512.976 273.396C515.715 277.879 522.257 285.517 520.862 292.872C519.202 301.772 514.387 308.032 499.742 312.382L485.994 362.194C485.994 362.194 493.15 368.836 495.342 375.262C497.534 381.688 505.437 430.636 505.437 430.636C505.437 430.636 502.98 434.638 495.259 433.675C495.259 433.675 468.344 372.24 466.451 368.238C464.153 364.186 463.349 359.456 464.176 354.872C465.023 348.43 474.139 277.912 474.139 277.912L512.976 273.396Z" fill="#BA68C8"/>
<path opacity="0.2" d="M512.976 273.396C515.715 277.879 522.257 285.517 520.862 292.872C519.202 301.772 514.387 308.032 499.742 312.382L485.994 362.194C485.994 362.194 493.15 368.836 495.342 375.262C497.534 381.688 505.437 430.636 505.437 430.636C505.437 430.636 502.98 434.638 495.259 433.675C495.259 433.675 468.344 372.24 466.451 368.238C464.153 364.186 463.349 359.456 464.176 354.872C465.023 348.43 474.139 277.912 474.139 277.912L512.976 273.396Z" fill="black"/>
<path d="M518.023 235.505L483.819 229.976C483.121 229.827 481.992 229.544 480.498 229.162C480.498 229.162 479.037 250.615 470.253 255.53C470.469 256.559 470.652 257.705 470.818 259.017C471.332 263.134 474.139 277.846 474.139 277.846C474.139 277.846 487.422 284.271 498.331 281.166C509.24 278.061 512.926 273.429 512.926 273.429L507.463 264.529C508.99 260.826 515.865 245.949 518.023 235.505Z" fill="#BA68C8"/>
<path opacity="0.7" d="M518.023 235.505L483.819 229.976C483.121 229.827 481.992 229.544 480.498 229.162C480.498 229.162 479.037 250.615 470.253 255.53C470.469 256.559 470.652 257.705 470.818 259.017C471.332 263.134 474.139 277.846 474.139 277.846C474.139 277.846 487.422 284.271 498.331 281.166C509.24 278.061 512.926 273.429 512.926 273.429L507.463 264.529C508.99 260.826 515.865 245.949 518.023 235.505Z" fill="white"/>
<path d="M509.007 260.992C504.465 263.72 499.705 266.069 494.777 268.016C499.25 267.927 503.629 266.716 507.513 264.496L509.007 260.992Z" fill="#BA68C8"/>
<path d="M481.461 186.756C481.461 186.756 479.801 197.548 483.719 203.891C483.719 203.891 485.18 199.591 488.817 200.404C492.453 201.218 492.652 206.016 490.095 208.706C489.445 209.461 488.596 210.017 487.644 210.31C486.693 210.604 485.677 210.624 484.715 210.367C484.715 210.367 484.134 218.171 483.819 224.713C483.503 231.255 481.776 245.517 489.132 251.279C496.488 257.041 514.951 259.066 523.602 246.979C528.417 240.254 522.025 228.365 519.053 215.032C516.313 202.779 514.769 184.614 501.768 181.691C488.767 178.769 481.461 186.756 481.461 186.756Z" fill="#37474F"/>
</svg>
