<svg width="586" height="537" viewBox="0 0 586 537" fill="none" xmlns="http://www.w3.org/2000/svg">
<path d="M309.199 536.76C461.794 536.76 585.497 470.653 585.497 389.106C585.497 307.56 461.794 241.453 309.199 241.453C156.603 241.453 32.8999 307.56 32.8999 389.106C32.8999 470.653 156.603 536.76 309.199 536.76Z" fill="#F5F5F5"/>
<path d="M116.26 389.23C132.239 397.624 132.239 411.24 116.26 419.611C100.28 427.983 74.3448 428.006 58.3531 419.611C42.3615 411.217 42.3615 397.591 58.3531 389.23C74.3448 380.87 100.181 380.825 116.26 389.23Z" fill="#E0E0E0"/>
<path d="M151.31 408.528L296.336 484.707C297.995 485.473 299.83 485.872 301.691 485.872C303.552 485.872 305.387 485.473 307.046 484.707L552.549 355.755C555.505 354.202 555.505 351.681 552.549 350.128L407.523 273.939C405.864 273.173 404.029 272.773 402.168 272.773C400.307 272.773 398.472 273.173 396.813 273.939L151.31 402.902C148.342 404.455 148.342 406.975 151.31 408.528Z" fill="#E0E0E0"/>
<path d="M517.326 328.434L507.221 323.123C507.221 323.123 501.198 300.382 503.597 279.925C506.974 251.164 523.979 238.64 535.692 242.792C543.484 245.583 545.895 253.639 532.798 270.777C525.08 280.915 515.594 301.957 517.326 328.434Z" fill="#9FB878"/>
<path d="M513.133 317.317H513.269C513.359 317.302 513.446 317.271 513.523 317.225C513.6 317.18 513.666 317.121 513.718 317.051C513.77 316.982 513.806 316.904 513.825 316.822C513.843 316.74 513.843 316.656 513.825 316.574C508.284 290.052 518.476 260.233 531.14 247.833C531.26 247.707 531.321 247.543 531.311 247.377C531.3 247.21 531.219 247.054 531.083 246.941C530.948 246.828 530.77 246.768 530.587 246.773C530.403 246.778 530.229 246.847 530.101 246.967C517.264 259.603 506.875 289.895 512.502 316.81C512.529 316.947 512.607 317.071 512.721 317.163C512.835 317.255 512.98 317.309 513.133 317.317Z" fill="white"/>
<path d="M543.793 342.342C545.388 343.073 549.63 339.765 550.818 338.966C552.844 337.568 554.441 335.72 555.456 333.599C556.585 331.188 556.866 328.519 556.26 325.958C555.95 324.606 555.536 323.275 555.023 321.975L553.576 318.127C553.003 316.887 552.712 315.555 552.722 314.211C552.945 311.51 555.456 309.519 557.744 307.797C560.217 305.884 562.864 303.397 562.691 300.179C562.359 297.686 561.128 295.363 559.191 293.574C557.397 291.706 555.283 290.074 553.638 288.083C552.356 286.701 551.632 284.962 551.585 283.154C551.686 282.04 552.035 280.957 552.611 279.97C553.937 277.911 555.078 275.759 556.025 273.533C556.767 271.283 556.482 268.436 554.466 266.917C552.797 265.668 550.434 265.589 548.282 265.792C546.285 266.109 544.386 266.815 542.717 267.862C537.25 270.968 534.381 277.179 528.531 279.632C526.202 280.413 523.823 281.063 521.407 281.579C519.032 282.265 516.645 283.492 515.656 285.551C513.677 289.636 518.018 294.35 516.707 298.649C515.557 302.452 511.649 304.061 509.596 307.538C508.754 309.064 508.481 310.798 508.816 312.478C509.166 315.326 510.089 318.091 511.537 320.636C513.163 323.253 514.968 325.775 516.942 328.186C516.942 328.186 543.545 342.229 543.793 342.342Z" fill="#BCD398"/>
<path d="M528.321 335.005C528.413 334.998 528.503 334.974 528.586 334.935C528.669 334.896 528.742 334.843 528.802 334.778C528.862 334.713 528.907 334.638 528.934 334.557C528.962 334.477 528.972 334.392 528.964 334.307C526.403 309.08 537.955 280.566 547.021 272.014C547.099 271.957 547.162 271.886 547.208 271.805C547.253 271.724 547.279 271.636 547.284 271.545C547.289 271.454 547.273 271.364 547.236 271.279C547.2 271.194 547.144 271.118 547.072 271.055C547.001 270.991 546.915 270.942 546.821 270.911C546.728 270.88 546.628 270.867 546.528 270.874C546.428 270.881 546.332 270.907 546.244 270.95C546.156 270.993 546.079 271.053 546.019 271.125C536.755 279.846 524.994 308.843 527.566 334.42C527.582 334.588 527.67 334.744 527.811 334.853C527.952 334.963 528.135 335.017 528.321 335.005Z" fill="white"/>
<path d="M531.079 303.892H531.289C537.778 301.933 544.485 300.631 551.288 300.01C551.473 299.993 551.643 299.91 551.761 299.78C551.879 299.649 551.936 299.481 551.919 299.313C551.914 299.229 551.891 299.146 551.85 299.071C551.809 298.996 551.751 298.929 551.68 298.875C551.609 298.821 551.527 298.781 551.438 298.758C551.349 298.734 551.256 298.728 551.164 298.739C544.241 299.38 537.415 300.704 530.807 302.688C530.653 302.744 530.526 302.846 530.447 302.978C530.368 303.11 530.342 303.263 530.375 303.411C530.407 303.558 530.495 303.69 530.624 303.785C530.753 303.879 530.914 303.929 531.079 303.926V303.892Z" fill="white"/>
<path d="M156.257 394.53C156.409 396.399 157.043 398.209 158.106 399.814C159.17 401.419 160.634 402.773 162.379 403.768L295.594 473.724C297.491 474.593 299.586 475.045 301.71 475.045C303.834 475.045 305.929 474.593 307.826 473.724L542.333 350.545C544.182 349.658 545.73 348.329 546.81 346.701C547.89 345.073 548.461 343.208 548.461 341.306C548.461 339.405 547.89 337.54 546.81 335.911C545.73 334.283 544.182 332.955 542.333 332.068L409.144 262.09C407.249 261.213 405.153 260.756 403.028 260.756C400.902 260.756 398.807 261.213 396.912 262.09L162.379 385.281C160.633 386.278 159.169 387.634 158.106 389.241C157.043 390.848 156.409 392.66 156.257 394.53Z" fill="#37474F"/>
<path d="M162.379 391.706L295.594 461.684C297.489 462.561 299.584 463.017 301.71 463.017C303.835 463.017 305.931 462.561 307.826 461.684L542.333 338.493C545.722 336.715 545.722 333.835 542.333 332.068L409.143 262.09C407.249 261.213 405.153 260.756 403.028 260.756C400.902 260.756 398.806 261.213 396.912 262.09L162.379 385.281C159.003 387.081 159.003 389.939 162.379 391.706Z" fill="#455A64"/>
<path d="M301.691 463.023V475.074C299.539 475.125 297.408 474.667 295.507 473.747L162.379 403.768C160.585 402.91 159.073 401.634 157.998 400.07C156.924 398.507 156.324 396.712 156.261 394.868C156.198 393.025 156.674 391.2 157.64 389.578C158.607 387.957 160.029 386.598 161.761 385.641C159.015 387.43 159.287 390.052 162.379 391.717L295.594 461.695C297.471 462.598 299.568 463.054 301.691 463.023Z" fill="#263238"/>
<path d="M150.518 385.483C147.352 383.818 147.525 380.982 147.525 377.46V210.081C147.654 208.146 148.28 206.265 149.354 204.589C150.429 202.914 151.92 201.492 153.709 200.438L388.18 77.2475C389.999 76.3705 392.019 75.8952 394.077 75.86C396.136 75.8248 398.174 76.2307 400.028 77.0449C403.207 78.7103 403.034 81.5459 403.034 85.0791V252.447C402.918 254.379 402.303 256.259 401.24 257.934C400.176 259.61 398.693 261.033 396.912 262.09L162.379 385.281C160.559 386.16 158.536 386.637 156.475 386.672C154.415 386.707 152.374 386.3 150.518 385.483Z" fill="#37474F"/>
<path d="M403.034 85.0676C403.034 81.5232 400.288 80.0941 396.912 81.8607L162.379 205.063C160.567 206.084 159.076 207.515 158.051 209.215L149.331 204.601C150.359 202.899 151.849 201.466 153.66 200.438L388.168 77.2473C389.988 76.3676 392.011 75.8908 394.071 75.8556C396.132 75.8204 398.173 76.2278 400.029 77.0447C403.195 78.7663 403.034 81.5232 403.034 85.0676Z" fill="#455A64"/>
<path d="M161.662 385.618C159.909 386.338 158.003 386.699 156.08 386.675C154.156 386.652 152.262 386.245 150.531 385.483C147.365 383.818 147.525 380.982 147.525 377.46V210.081C147.595 208.145 148.212 206.257 149.319 204.602L158.05 209.204C156.951 210.862 156.334 212.748 156.257 214.684V382.074C156.257 385.359 158.619 386.845 161.662 385.618Z" fill="#263238"/>
<path d="M165.731 211.477L391.791 92.7307C393.82 91.6054 395.502 92.5281 395.502 94.6548V240.8C395.429 241.963 395.055 243.092 394.41 244.098C393.765 245.103 392.868 245.955 391.791 246.584L165.731 365.296C163.703 366.354 162.021 365.499 162.021 363.361V217.26C162.095 216.099 162.47 214.969 163.115 213.964C163.759 212.959 164.656 212.107 165.731 211.477Z" fill="#FAFAFA"/>
<path d="M179.336 385.618L397.011 271.261C397.957 270.822 399.004 270.593 400.066 270.593C401.127 270.593 402.174 270.822 403.12 271.261L406.744 273.072C408.439 273.961 408.439 275.401 406.744 276.29L189.069 390.614C188.113 391.062 187.053 391.295 185.977 391.295C184.902 391.295 183.842 391.062 182.885 390.614L179.299 388.825C177.617 387.936 177.617 386.496 179.336 385.618Z" fill="#263238"/>
<path d="M196.379 394.845L414.054 280.498C414.897 280.059 415.842 279.805 416.812 279.756C417.783 279.707 418.752 279.865 419.644 280.217L476.301 309.991C477.699 310.722 477.464 312.039 475.782 312.928L258.367 427.117C257.521 427.555 256.575 427.809 255.603 427.86C254.631 427.91 253.659 427.756 252.764 427.409L195.872 397.782C194.462 397.05 194.697 395.734 196.379 394.845Z" fill="#263238"/>
<path d="M385.014 328.569L391.841 324.991C392.125 324.844 392.15 324.608 391.841 324.473L385.323 321.097C385.169 321.028 385 320.992 384.828 320.992C384.656 320.992 384.487 321.028 384.333 321.097L377.519 324.687C377.222 324.833 377.197 325.069 377.519 325.204L384.037 328.58C384.189 328.648 384.357 328.683 384.527 328.681C384.696 328.679 384.863 328.641 385.014 328.569ZM375.119 316.191L368.305 319.769C368.008 319.916 367.983 320.152 368.243 320.287L374.761 323.663C374.914 323.732 375.084 323.768 375.255 323.768C375.427 323.768 375.596 323.732 375.75 323.663L382.565 320.073C382.862 319.927 382.886 319.691 382.627 319.556L376.109 316.18C375.949 316.102 375.769 316.062 375.588 316.064C375.406 316.066 375.228 316.11 375.07 316.191H375.119ZM353.092 327.759L341.565 333.812C341.268 333.959 341.244 334.195 341.503 334.33L348.021 337.762C348.175 337.831 348.344 337.867 348.516 337.867C348.688 337.867 348.857 337.831 349.011 337.762L360.55 331.697C360.834 331.551 360.859 331.314 360.55 331.179L354.02 327.804C353.876 327.719 353.713 327.667 353.543 327.651C353.373 327.636 353.202 327.657 353.043 327.714L353.092 327.759ZM365.151 321.424L358.336 325.002C358.052 325.148 358.027 325.384 358.274 325.519L364.804 328.895C364.958 328.965 365.128 329.001 365.299 329.001C365.471 329.001 365.64 328.965 365.794 328.895L372.609 325.306C372.893 325.159 372.918 324.923 372.609 324.788L366.078 321.412C365.93 321.337 365.764 321.295 365.594 321.289C365.424 321.283 365.256 321.314 365.101 321.379L365.151 321.424ZM338.411 335.467L331.597 339.045C331.312 339.202 331.287 339.427 331.535 339.562L338.065 342.938C338.219 343.007 338.388 343.042 338.56 343.042C338.731 343.042 338.9 343.007 339.055 342.938L345.869 339.36C346.154 339.202 346.178 338.977 345.931 338.831L339.401 335.455C339.245 335.37 339.068 335.323 338.886 335.317C338.704 335.311 338.524 335.347 338.362 335.421L338.411 335.467ZM328.455 340.699L321.566 344.232C321.269 344.39 321.245 344.615 321.566 344.75L328.084 348.182C328.238 348.251 328.407 348.287 328.579 348.287C328.751 348.287 328.92 348.251 329.074 348.182L335.888 344.603C336.185 344.446 336.21 344.221 335.95 344.075L329.432 340.699C329.279 340.614 329.105 340.565 328.925 340.558C328.746 340.55 328.567 340.583 328.406 340.654L328.455 340.699ZM354.007 354.674L360.834 351.096C361.119 350.938 361.144 350.713 360.834 350.578L354.316 347.203C354.164 347.131 353.994 347.093 353.822 347.093C353.65 347.093 353.48 347.131 353.327 347.203L346.512 350.781C346.216 350.938 346.191 351.164 346.45 351.299L352.968 354.731C353.131 354.785 353.304 354.804 353.476 354.786C353.648 354.769 353.813 354.715 353.958 354.629L354.007 354.674ZM344.051 359.907L350.866 356.328C351.15 356.171 351.187 355.946 350.928 355.811L344.41 352.379C344.255 352.307 344.083 352.269 343.909 352.269C343.735 352.269 343.563 352.307 343.408 352.379L336.593 355.957C336.309 356.115 336.284 356.34 336.593 356.475L343.111 359.85C343.251 359.908 343.402 359.939 343.555 359.941C343.708 359.942 343.86 359.916 344.002 359.862L344.051 359.907ZM334.083 365.139L340.91 361.561C341.194 361.403 341.219 361.178 340.91 361.043L334.392 357.611C334.239 357.539 334.069 357.502 333.897 357.502C333.725 357.502 333.555 357.539 333.402 357.611L326.588 361.201C326.291 361.358 326.266 361.583 326.526 361.718L333.044 365.15C333.201 365.214 333.374 365.242 333.546 365.232C333.718 365.222 333.885 365.175 334.033 365.094L334.083 365.139ZM324.04 370.326L330.855 366.748C331.151 366.59 331.176 366.365 330.855 366.23L324.337 362.798C324.184 362.726 324.014 362.689 323.842 362.689C323.67 362.689 323.5 362.726 323.347 362.798L316.619 366.41C316.335 366.568 316.31 366.793 316.619 366.928L323.137 370.36C323.281 370.414 323.437 370.439 323.593 370.434C323.748 370.428 323.901 370.391 324.04 370.326ZM375.02 333.756L381.835 330.178C382.12 330.032 382.157 329.795 381.897 329.66L375.379 326.285C375.225 326.215 375.056 326.179 374.884 326.179C374.713 326.179 374.543 326.215 374.39 326.285L367.562 329.874C367.278 330.02 367.253 330.257 367.562 330.392L374.08 333.767C374.233 333.836 374.401 333.87 374.57 333.868C374.74 333.867 374.907 333.828 375.057 333.756H375.02ZM363.889 349.397L379.089 341.408C379.386 341.261 379.411 341.025 379.089 340.89L363.258 332.575C363.103 332.505 362.931 332.469 362.758 332.469C362.584 332.469 362.413 332.505 362.257 332.575L354.403 336.704C354.106 336.862 354.081 337.098 354.341 337.233L362.727 341.633C362.986 341.768 362.949 342.004 362.665 342.15L356.468 345.447C356.184 345.605 356.159 345.83 356.468 345.965L362.986 349.397C363.134 349.459 363.294 349.492 363.456 349.492C363.619 349.492 363.779 349.459 363.926 349.397H363.889ZM318.4 345.886L311.672 349.464C311.388 349.622 311.363 349.847 311.672 349.982L318.19 353.414C318.344 353.483 318.513 353.52 318.685 353.52C318.856 353.52 319.026 353.483 319.179 353.414L325.994 349.836C326.278 349.678 326.303 349.453 326.056 349.318L319.526 345.886C319.361 345.798 319.173 345.752 318.981 345.752C318.79 345.752 318.602 345.798 318.437 345.886H318.4ZM308.481 351.074L301.666 354.652C301.37 354.809 301.345 355.034 301.666 355.169L308.184 358.601C308.337 358.673 308.507 358.711 308.679 358.711C308.851 358.711 309.021 358.673 309.174 358.601L315.988 355.023C316.285 354.866 316.31 354.64 316.05 354.505L309.47 351.074C309.318 351.001 309.148 350.964 308.976 350.964C308.804 350.964 308.634 351.001 308.481 351.074ZM253.357 406.941C253.51 407.013 253.68 407.051 253.852 407.051C254.024 407.051 254.194 407.013 254.347 406.941L261.162 403.363C261.446 403.217 261.471 402.981 261.223 402.846L254.693 399.47C254.54 399.398 254.371 399.36 254.198 399.36C254.026 399.36 253.857 399.398 253.704 399.47L246.889 403.048C246.604 403.206 246.58 403.442 246.827 403.577L253.357 406.941ZM228.807 392.977L221.992 396.556C221.708 396.713 221.671 396.949 221.931 397.084L228.461 400.46C228.614 400.532 228.783 400.57 228.956 400.57C229.128 400.57 229.297 400.532 229.45 400.46L236.265 396.882C236.549 396.736 236.574 396.499 236.265 396.364L229.747 392.989C229.602 392.922 229.441 392.887 229.279 392.885C229.116 392.883 228.955 392.914 228.807 392.977ZM241.435 403.476C241.591 403.544 241.762 403.58 241.936 403.58C242.109 403.58 242.28 403.544 242.437 403.476L249.251 399.897C249.536 399.74 249.56 399.504 249.251 399.369L242.733 395.993C242.58 395.921 242.411 395.883 242.239 395.883C242.066 395.883 241.897 395.921 241.744 395.993L234.991 399.526C234.707 399.672 234.669 399.909 234.929 400.044L241.435 403.476ZM268.929 409.102L275.743 405.524C276.028 405.377 276.052 405.141 275.743 405.006L269.213 401.63C269.059 401.561 268.89 401.525 268.718 401.525C268.547 401.525 268.377 401.561 268.224 401.63L261.409 405.22C261.124 405.366 261.1 405.602 261.409 405.737L267.927 409.113C268.08 409.18 268.248 409.213 268.418 409.209C268.588 409.205 268.754 409.164 268.904 409.091L268.929 409.102ZM257.971 414.368C258.123 414.44 258.293 414.478 258.465 414.478C258.637 414.478 258.807 414.44 258.96 414.368L265.775 410.79C266.072 410.643 266.096 410.407 265.775 410.272L259.257 406.896C259.103 406.827 258.934 406.791 258.762 406.791C258.59 406.791 258.421 406.827 258.267 406.896L251.453 410.486C251.156 410.632 251.131 410.869 251.391 411.004L257.971 414.368ZM238.701 387.745L231.874 391.323C231.59 391.481 231.565 391.717 231.874 391.852L238.392 395.228C238.545 395.3 238.715 395.337 238.887 395.337C239.059 395.337 239.229 395.3 239.382 395.228L246.196 391.649C246.493 391.503 246.518 391.267 246.258 391.132L239.74 387.7C239.576 387.63 239.396 387.597 239.215 387.605C239.034 387.613 238.857 387.661 238.701 387.745ZM288.507 361.583L281.692 365.161C281.395 365.319 281.371 365.544 281.63 365.679L288.148 369.055C288.301 369.127 288.471 369.164 288.643 369.164C288.815 369.164 288.985 369.127 289.138 369.055L295.965 365.477C296.249 365.319 296.274 365.094 295.965 364.959L289.447 361.527C289.303 361.478 289.149 361.457 288.995 361.467C288.841 361.477 288.692 361.516 288.556 361.583H288.507ZM248.658 382.513L241.843 386.091C241.558 386.248 241.521 386.485 241.781 386.62L248.299 389.995C248.454 390.067 248.626 390.105 248.8 390.105C248.974 390.105 249.146 390.067 249.301 389.995L256.115 386.417C256.4 386.26 256.425 386.035 256.115 385.9L249.598 382.524C249.458 382.466 249.307 382.436 249.154 382.434C249 382.432 248.848 382.459 248.707 382.513H248.658ZM298.463 356.351L291.648 359.929C291.364 360.087 291.339 360.312 291.648 360.447L298.166 363.879C298.319 363.951 298.489 363.988 298.661 363.988C298.833 363.988 299.003 363.951 299.156 363.879L305.97 360.3C306.255 360.143 306.28 359.918 306.032 359.783L299.502 356.407C299.354 356.326 299.187 356.279 299.015 356.269C298.843 356.259 298.67 356.287 298.513 356.351H298.463ZM278.588 366.827L271.773 370.405C271.489 370.563 271.464 370.788 271.773 370.923L278.291 374.355C278.444 374.427 278.614 374.464 278.786 374.464C278.958 374.464 279.128 374.427 279.28 374.355L286.095 370.776C286.38 370.619 286.417 370.394 286.157 370.259L279.59 366.827C279.435 366.755 279.263 366.717 279.089 366.717C278.915 366.717 278.743 366.755 278.588 366.827ZM268.632 372.059L261.817 375.637C261.52 375.795 261.495 376.02 261.755 376.155L268.273 379.587C268.426 379.659 268.596 379.697 268.768 379.697C268.94 379.697 269.11 379.659 269.262 379.587L276.09 376.009C276.374 375.851 276.399 375.626 276.09 375.491L269.621 372.014C269.465 371.95 269.294 371.92 269.122 371.925C268.95 371.931 268.783 371.973 268.632 372.048V372.059ZM258.737 377.291L251.91 380.87C251.626 381.027 251.601 381.264 251.91 381.399L258.428 384.774C258.581 384.846 258.751 384.884 258.923 384.884C259.095 384.884 259.265 384.846 259.418 384.774L266.232 381.196C266.529 381.039 266.554 380.813 266.294 380.678L259.727 377.246C259.562 377.173 259.38 377.137 259.197 377.143C259.013 377.149 258.834 377.196 258.676 377.28L258.737 377.291ZM304.214 380.802L311.029 377.224C311.326 377.066 311.35 376.841 311.029 376.706L304.511 373.331C304.357 373.261 304.188 373.225 304.016 373.225C303.845 373.225 303.675 373.261 303.522 373.331L296.694 376.909C296.41 377.066 296.385 377.292 296.694 377.427L303.212 380.858C303.364 380.913 303.528 380.935 303.691 380.923C303.854 380.912 304.012 380.866 304.152 380.791L304.214 380.802ZM397.146 304.59L390.332 308.168C390.047 308.315 390.023 308.551 390.27 308.686L396.8 312.062C396.954 312.131 397.123 312.167 397.295 312.167C397.467 312.167 397.636 312.131 397.79 312.062L404.604 308.472C404.889 308.326 404.914 308.09 404.666 307.954L398.136 304.579C397.975 304.497 397.794 304.454 397.61 304.454C397.426 304.454 397.245 304.497 397.085 304.579L397.146 304.59ZM385.088 310.914L378.273 314.503C377.989 314.65 377.964 314.886 378.211 315.021L384.741 318.397C384.895 318.466 385.065 318.502 385.236 318.502C385.408 318.502 385.577 318.466 385.731 318.397L392.546 314.807C392.83 314.661 392.855 314.425 392.607 314.29L386.077 310.914C385.917 310.833 385.737 310.79 385.553 310.788C385.37 310.786 385.189 310.826 385.026 310.903L385.088 310.914ZM407.053 299.313L400.238 302.891C399.942 303.037 399.917 303.274 400.177 303.409L406.694 306.784C406.848 306.854 407.018 306.89 407.189 306.89C407.361 306.89 407.53 306.854 407.684 306.784L414.499 303.195C414.795 303.048 414.82 302.812 414.56 302.677L408.043 299.301C407.889 299.231 407.719 299.195 407.546 299.197C407.374 299.199 407.205 299.239 407.053 299.313ZM351.991 345.875L358.806 342.297C359.09 342.15 359.115 341.914 358.868 341.779L352.338 338.403C352.184 338.334 352.015 338.298 351.843 338.298C351.671 338.298 351.502 338.334 351.348 338.403L344.533 341.993C344.249 342.139 344.224 342.375 344.472 342.51L351.002 345.886C351.156 345.956 351.326 345.992 351.498 345.99C351.67 345.988 351.839 345.949 351.991 345.875ZM417.999 294.114C417.845 294.045 417.676 294.009 417.504 294.009C417.332 294.009 417.163 294.045 417.009 294.114L410.195 297.704C409.91 297.85 409.885 298.086 410.133 298.221L416.663 301.597C416.817 301.666 416.986 301.702 417.158 301.702C417.329 301.702 417.499 301.666 417.652 301.597L424.467 298.007C424.752 297.861 424.776 297.625 424.529 297.49L417.999 294.114ZM314.108 375.592L320.923 372.014C321.208 371.857 321.232 371.632 320.923 371.497L314.405 368.065C314.252 367.993 314.083 367.955 313.911 367.955C313.738 367.955 313.569 367.993 313.416 368.065L306.725 371.643C306.44 371.8 306.403 372.025 306.725 372.16L313.243 375.592C313.387 375.645 313.542 375.67 313.698 375.664C313.854 375.658 314.006 375.622 314.146 375.559L314.108 375.592ZM436.266 311.454L443.081 307.876C443.378 307.729 443.402 307.493 443.143 307.358L436.588 303.814C436.434 303.744 436.265 303.708 436.093 303.708C435.921 303.708 435.752 303.744 435.598 303.814L428.784 307.392C428.487 307.549 428.462 307.786 428.722 307.921L435.24 311.296C435.39 311.39 435.564 311.448 435.746 311.464C435.928 311.479 436.111 311.453 436.279 311.386L436.266 311.454ZM416.985 311.792L423.812 308.213C424.096 308.067 424.121 307.831 423.812 307.696L417.294 304.32C417.14 304.251 416.971 304.214 416.799 304.214C416.627 304.214 416.458 304.251 416.304 304.32L409.49 307.91C409.193 308.056 409.168 308.292 409.428 308.427L415.946 311.803C416.117 311.868 416.303 311.892 416.488 311.872C416.672 311.853 416.847 311.79 416.997 311.69L416.985 311.792ZM427.299 299.043C427.146 298.973 426.976 298.937 426.805 298.937C426.633 298.937 426.464 298.973 426.31 299.043L419.495 302.632C419.211 302.778 419.186 303.015 419.495 303.15L426.013 306.525C426.166 306.597 426.336 306.635 426.508 306.635C426.68 306.635 426.85 306.597 427.003 306.525L433.817 302.947C434.102 302.801 434.139 302.565 433.817 302.43L427.299 299.043ZM429.402 297.917L445.233 306.233C445.388 306.305 445.56 306.343 445.734 306.343C445.908 306.343 446.08 306.305 446.235 306.233L453.049 302.655C453.334 302.508 453.359 302.272 453.049 302.137L437.218 293.822C437.065 293.752 436.895 293.716 436.724 293.716C436.552 293.716 436.383 293.752 436.229 293.822L429.414 297.4C429.167 297.501 429.167 297.737 429.414 297.872L429.402 297.917ZM406.398 309.44L399.583 313.029C399.298 313.176 399.274 313.412 399.583 313.547L406.101 316.923C406.254 316.995 406.423 317.032 406.596 317.032C406.768 317.032 406.937 316.995 407.09 316.923L413.905 313.344C414.189 313.198 414.227 312.962 413.967 312.827L407.449 309.451C407.288 309.372 407.108 309.33 406.925 309.328C406.742 309.326 406.561 309.365 406.398 309.44ZM331.461 348.823L324.646 352.413C324.361 352.559 324.337 352.795 324.646 352.93L331.176 356.306C331.329 356.378 331.499 356.415 331.671 356.415C331.843 356.415 332.013 356.378 332.166 356.306L338.881 352.761C339.166 352.615 339.191 352.379 338.943 352.244L332.413 348.868C332.268 348.797 332.107 348.756 331.942 348.748C331.778 348.74 331.613 348.766 331.461 348.823ZM425.37 316.63C425.523 316.702 425.693 316.74 425.865 316.74C426.037 316.74 426.207 316.702 426.359 316.63L433.174 313.052C433.459 312.906 433.483 312.669 433.174 312.534L426.693 309.091C426.54 309.022 426.37 308.985 426.199 308.985C426.027 308.985 425.858 309.022 425.704 309.091L418.889 312.669C418.605 312.827 418.58 313.063 418.827 313.198L425.37 316.63ZM341.429 343.636L334.614 347.225C334.318 347.371 334.293 347.608 334.614 347.743L341.132 351.119C341.285 351.191 341.455 351.228 341.627 351.228C341.799 351.228 341.969 351.191 342.122 351.119L348.936 347.54C349.233 347.394 349.258 347.158 348.998 347.023L342.48 343.647C342.313 343.551 342.121 343.497 341.923 343.491C341.725 343.485 341.529 343.527 341.355 343.613L341.429 343.636ZM263.314 401.709C263.466 401.781 263.636 401.819 263.808 401.819C263.98 401.819 264.15 401.781 264.303 401.709L271.118 398.131C271.414 397.985 271.439 397.748 271.118 397.613L264.674 394.193C264.52 394.123 264.351 394.087 264.179 394.087C264.008 394.087 263.838 394.123 263.685 394.193L256.87 397.771C256.573 397.928 256.548 398.165 256.808 398.3L263.314 401.709ZM251.737 390.671L244.885 394.294C244.601 394.44 244.576 394.676 244.885 394.811L251.403 398.187C251.556 398.259 251.726 398.297 251.898 398.297C252.07 398.297 252.24 398.259 252.393 398.187L259.207 394.609C259.504 394.451 259.529 394.215 259.269 394.08L252.751 390.704C252.594 390.63 252.42 390.592 252.243 390.594C252.066 390.596 251.892 390.638 251.737 390.716V390.671ZM274.271 396.443L281.086 392.865C281.371 392.718 281.395 392.482 281.086 392.347L274.568 388.96C274.415 388.891 274.245 388.855 274.074 388.855C273.902 388.855 273.733 388.891 273.579 388.96L266.764 392.538C266.48 392.696 266.455 392.932 266.764 393.067L273.294 396.443C273.442 396.52 273.607 396.565 273.777 396.572C273.947 396.58 274.116 396.551 274.271 396.488V396.443ZM284.228 391.211L291.042 387.632C291.339 387.475 291.364 387.25 291.104 387.115L284.586 383.705C284.433 383.636 284.263 383.6 284.092 383.6C283.92 383.6 283.751 383.636 283.597 383.705L276.782 387.284C276.485 387.441 276.461 387.677 276.782 387.812L283.3 391.188C283.439 391.262 283.595 391.306 283.755 391.318C283.916 391.33 284.077 391.308 284.228 391.256V391.211ZM294.196 385.978L301.011 382.4C301.295 382.243 301.32 382.017 301.011 381.882L294.493 378.45C294.339 378.381 294.17 378.345 293.998 378.345C293.827 378.345 293.657 378.381 293.504 378.45L286.689 382.029C286.404 382.186 286.367 382.423 286.627 382.546L293.157 385.922C293.307 386.018 293.48 386.077 293.662 386.095C293.844 386.113 294.028 386.088 294.196 386.023V385.978ZM261.693 385.438L254.879 389.016C254.594 389.163 254.557 389.399 254.817 389.534L261.335 392.91C261.491 392.979 261.662 393.015 261.836 393.015C262.009 393.015 262.181 392.979 262.336 392.91L269.151 389.332C269.436 389.174 269.46 388.938 269.151 388.803L262.633 385.427C262.482 385.371 262.319 385.347 262.156 385.357C261.993 385.366 261.835 385.41 261.693 385.483V385.438ZM271.662 380.206L264.835 383.784C264.55 383.93 264.526 384.167 264.835 384.302L271.353 387.677C271.506 387.747 271.676 387.783 271.847 387.783C272.019 387.783 272.188 387.747 272.342 387.677L279.157 384.088C279.441 383.942 279.478 383.705 279.219 383.57L272.701 380.195C272.536 380.123 272.355 380.091 272.173 380.101C271.992 380.111 271.816 380.162 271.662 380.251V380.206ZM311.499 359.276L304.684 362.855C304.4 363.001 304.375 363.237 304.684 363.372L311.202 366.748C311.356 366.817 311.525 366.854 311.697 366.854C311.868 366.854 312.038 366.817 312.191 366.748L319.006 363.159C319.291 363.012 319.315 362.776 319.068 362.641L312.538 359.265C312.373 359.194 312.192 359.162 312.01 359.171C311.829 359.181 311.653 359.233 311.499 359.321V359.276ZM301.543 364.576L294.728 368.155C294.431 368.301 294.406 368.537 294.666 368.672L301.184 372.048C301.338 372.117 301.507 372.153 301.679 372.153C301.85 372.153 302.02 372.117 302.173 372.048L308.988 368.458C309.285 368.312 309.31 368.076 308.988 367.941L302.47 364.565C302.325 364.504 302.166 364.473 302.005 364.475C301.845 364.477 301.687 364.512 301.543 364.576ZM321.467 354.1L314.653 357.69C314.356 357.836 314.331 358.072 314.653 358.207L321.171 361.583C321.324 361.653 321.494 361.689 321.665 361.689C321.837 361.689 322.006 361.653 322.16 361.583L328.975 357.994C329.271 357.847 329.296 357.611 329.037 357.476L322.519 354.1C322.359 354.018 322.179 353.973 321.996 353.969C321.813 353.965 321.631 354.003 321.467 354.078V354.1ZM281.618 375.019L274.803 378.597C274.506 378.743 274.482 378.979 274.741 379.114L281.259 382.49C281.413 382.559 281.582 382.596 281.754 382.596C281.926 382.596 282.095 382.559 282.249 382.49L289.076 378.901C289.36 378.754 289.385 378.518 289.076 378.383L282.558 375.007C282.411 374.944 282.249 374.913 282.087 374.915C281.924 374.917 281.764 374.952 281.618 375.019ZM291.574 369.786L284.759 373.364C284.475 373.511 284.45 373.747 284.759 373.882L291.277 377.258C291.431 377.327 291.6 377.363 291.772 377.363C291.944 377.363 292.113 377.327 292.267 377.258L299.081 373.668C299.366 373.522 299.403 373.286 299.143 373.151L292.613 369.775C292.453 369.697 292.274 369.657 292.092 369.659C291.91 369.661 291.732 369.705 291.574 369.786ZM278.86 403.858L285.675 400.28C285.971 400.134 285.996 399.897 285.737 399.762L279.219 396.387C279.065 396.317 278.896 396.281 278.724 396.281C278.552 396.281 278.383 396.317 278.229 396.387L271.414 399.965C271.118 400.123 271.093 400.359 271.414 400.494L277.932 403.87C278.078 403.931 278.237 403.961 278.398 403.96C278.558 403.958 278.716 403.923 278.86 403.858ZM226.334 401.608L219.816 398.232C219.663 398.16 219.493 398.123 219.321 398.123C219.149 398.123 218.979 398.16 218.826 398.232L212.012 401.81C211.715 401.968 211.69 402.204 212.012 402.339L218.529 405.715C218.682 405.787 218.852 405.825 219.024 405.825C219.196 405.825 219.366 405.787 219.519 405.715L226.334 402.137C226.569 401.979 226.593 401.709 226.334 401.608ZM239.32 404.567L232.802 401.191C232.649 401.119 232.479 401.082 232.307 401.082C232.135 401.082 231.965 401.119 231.812 401.191L221.386 406.683C221.09 406.84 221.065 407.076 221.386 407.212L227.904 410.587C228.057 410.659 228.227 410.697 228.399 410.697C228.571 410.697 228.741 410.659 228.894 410.587L239.382 405.085C239.555 404.939 239.58 404.702 239.32 404.567ZM216.6 394.845L210.082 391.469C209.929 391.397 209.76 391.36 209.587 391.36C209.415 391.36 209.246 391.397 209.093 391.469L200.695 395.88C200.41 396.027 200.386 396.263 200.695 396.398L207.213 399.774C207.367 399.843 207.536 399.879 207.707 399.879C207.879 399.879 208.048 399.843 208.202 399.774L216.588 395.363C216.835 395.205 216.86 394.958 216.6 394.845ZM223.031 391.469C223.184 391.541 223.354 391.579 223.526 391.579C223.698 391.579 223.868 391.541 224.021 391.469L230.835 387.891C231.132 387.734 231.157 387.497 230.897 387.362L224.379 383.987C224.227 383.915 224.057 383.877 223.885 383.877C223.713 383.877 223.543 383.915 223.39 383.987L216.575 387.565C216.278 387.711 216.254 387.947 216.513 388.083L223.031 391.469ZM251.255 408.1L244.737 404.725C244.583 404.655 244.414 404.619 244.242 404.619C244.071 404.619 243.901 404.655 243.748 404.725L230.638 411.611C230.353 411.769 230.316 411.994 230.638 412.129L237.155 415.504C237.311 415.577 237.482 415.614 237.656 415.614C237.83 415.614 238.002 415.577 238.157 415.504L251.255 408.618C251.49 408.461 251.515 408.224 251.255 408.089V408.1ZM255.856 415.471L249.325 412.095C249.172 412.026 249.002 411.99 248.831 411.99C248.659 411.99 248.49 412.026 248.336 412.095L239.938 416.472C239.654 416.63 239.629 416.855 239.938 416.99L246.468 420.422C246.622 420.49 246.792 420.526 246.963 420.526C247.135 420.526 247.304 420.49 247.458 420.422L255.843 416.011C256.078 415.831 256.115 415.594 255.856 415.459V415.471ZM297.103 352.57C297.255 352.642 297.425 352.68 297.597 352.68C297.769 352.68 297.939 352.642 298.092 352.57L304.907 348.992C305.191 348.834 305.216 348.609 304.969 348.474L298.438 345.099C298.284 345.03 298.115 344.994 297.944 344.994C297.772 344.994 297.603 345.03 297.449 345.099L290.647 348.609C290.362 348.767 290.337 348.992 290.585 349.127L297.103 352.57ZM277.178 363.035C277.331 363.107 277.5 363.144 277.673 363.144C277.845 363.144 278.014 363.107 278.167 363.035L284.982 359.457C285.267 359.31 285.304 359.074 285.044 358.939L278.514 355.507C278.36 355.438 278.19 355.403 278.019 355.403C277.847 355.403 277.678 355.438 277.524 355.507L270.71 359.085C270.425 359.243 270.4 359.479 270.71 359.614L277.178 363.035ZM232.987 386.237C233.143 386.307 233.315 386.343 233.488 386.343C233.662 386.343 233.833 386.307 233.989 386.237L240.804 382.58C241.088 382.423 241.113 382.186 240.804 382.051L234.286 378.676C234.133 378.604 233.964 378.566 233.791 378.566C233.619 378.566 233.45 378.604 233.297 378.676L226.482 382.254C226.197 382.4 226.16 382.636 226.482 382.771L232.987 386.237ZM287.134 357.825C287.287 357.897 287.457 357.935 287.629 357.935C287.801 357.935 287.971 357.897 288.124 357.825L294.938 354.247C295.235 354.1 295.26 353.864 295 353.729L288.482 350.297C288.328 350.228 288.159 350.192 287.987 350.192C287.816 350.192 287.646 350.228 287.493 350.297L280.678 353.875C280.381 354.033 280.356 354.269 280.616 354.404L287.134 357.825ZM267.209 368.29C267.362 368.362 267.532 368.399 267.704 368.399C267.876 368.399 268.046 368.362 268.199 368.29L275.014 364.711C275.31 364.565 275.335 364.329 275.014 364.194L268.496 360.762C268.342 360.692 268.173 360.656 268.001 360.656C267.829 360.656 267.66 360.692 267.506 360.762L260.692 364.34C260.395 364.498 260.37 364.734 260.63 364.869L267.209 368.29ZM260.741 415.865C260.587 415.795 260.418 415.759 260.246 415.759C260.075 415.759 259.905 415.795 259.752 415.865L249.264 421.378C248.979 421.524 248.954 421.761 249.264 421.896L255.781 425.272C255.934 425.344 256.104 425.381 256.276 425.381C256.448 425.381 256.618 425.344 256.771 425.272L267.259 419.758C267.543 419.612 267.568 419.375 267.259 419.24L260.741 415.865ZM252.912 375.795C253.066 375.864 253.235 375.9 253.407 375.9C253.578 375.9 253.748 375.864 253.902 375.795L260.729 372.205C261.013 372.059 261.038 371.823 260.729 371.688L254.211 368.312C254.058 368.24 253.888 368.203 253.716 368.203C253.544 368.203 253.374 368.24 253.221 368.312L246.407 371.89C246.11 372.037 246.085 372.273 246.345 372.408L252.912 375.795ZM242.956 381.027C243.11 381.097 243.279 381.133 243.451 381.133C243.622 381.133 243.792 381.097 243.945 381.027L250.76 377.438C251.057 377.291 251.082 377.055 250.822 376.92L244.304 373.544C244.151 373.472 243.982 373.435 243.809 373.435C243.637 373.435 243.468 373.472 243.315 373.544L236.488 377.123C236.203 377.269 236.178 377.505 236.488 377.64L242.956 381.027ZM445.307 318.914C445.154 318.842 444.985 318.805 444.812 318.805C444.64 318.805 444.471 318.842 444.318 318.914L427.534 327.725C427.25 327.882 427.213 328.107 427.473 328.242L434.003 331.674C434.156 331.746 434.325 331.784 434.498 331.784C434.67 331.784 434.839 331.746 434.992 331.674L451.763 322.864C452.06 322.706 452.085 322.481 451.825 322.346L445.307 318.914ZM423.28 330.482C423.127 330.41 422.957 330.372 422.785 330.372C422.613 330.372 422.443 330.41 422.29 330.482L415.476 334.06C415.191 334.217 415.154 334.443 415.414 334.578L421.932 338.01C422.087 338.082 422.258 338.119 422.433 338.119C422.607 338.119 422.778 338.082 422.934 338.01L429.748 334.431C430.033 334.274 430.057 334.049 429.748 333.914L423.28 330.482ZM288.828 398.626L295.643 395.048C295.928 394.901 295.952 394.665 295.705 394.53L289.175 391.154C289.021 391.085 288.852 391.049 288.68 391.049C288.508 391.049 288.339 391.085 288.185 391.154L281.371 394.733C281.086 394.89 281.061 395.126 281.371 395.261L287.889 398.637C288.036 398.7 288.197 398.732 288.36 398.73C288.523 398.728 288.683 398.692 288.828 398.626ZM403.355 340.946C403.201 340.877 403.032 340.841 402.86 340.841C402.689 340.841 402.519 340.877 402.366 340.946L395.551 344.525C395.267 344.682 395.229 344.907 395.489 345.042L402.019 348.474C402.172 348.546 402.342 348.584 402.514 348.584C402.686 348.584 402.856 348.546 403.009 348.474L409.824 344.896C410.108 344.738 410.133 344.513 409.824 344.378L403.355 340.946ZM455.3 313.682C455.147 313.61 454.978 313.572 454.806 313.572C454.633 313.572 454.464 313.61 454.311 313.682L447.459 317.316C447.175 317.474 447.137 317.699 447.397 317.834L453.915 321.21C454.069 321.279 454.238 321.315 454.41 321.315C454.581 321.315 454.751 321.279 454.905 321.21L461.732 317.632C462.016 317.474 462.041 317.249 461.732 317.114L455.3 313.682ZM471.787 311.882L455.943 303.555C455.791 303.483 455.621 303.445 455.449 303.445C455.277 303.445 455.107 303.483 454.954 303.555L448.102 307.189C447.818 307.347 447.793 307.572 448.04 307.707L463.884 316.034C464.037 316.103 464.207 316.139 464.378 316.139C464.55 316.139 464.719 316.103 464.873 316.034L471.688 312.455C471.972 312.208 472.009 311.983 471.75 311.848L471.787 311.882ZM366.091 360.469C365.938 360.397 365.768 360.36 365.596 360.36C365.424 360.36 365.254 360.397 365.101 360.469L356.716 364.869C356.431 365.026 356.394 365.263 356.654 365.398L363.172 368.773C363.327 368.846 363.499 368.883 363.673 368.883C363.847 368.883 364.019 368.846 364.174 368.773L372.559 364.374C372.844 364.216 372.868 363.98 372.621 363.845L366.091 360.469ZM391.259 347.248C391.106 347.176 390.937 347.138 390.765 347.138C390.592 347.138 390.423 347.176 390.27 347.248L379.782 352.75C379.498 352.908 379.473 353.144 379.72 353.279L386.25 356.655C386.403 356.727 386.573 356.764 386.745 356.764C386.917 356.764 387.087 356.727 387.24 356.655L397.728 351.152C398.012 350.995 398.037 350.77 397.728 350.635L391.259 347.248ZM343.025 372.588C342.872 372.516 342.702 372.478 342.53 372.478C342.358 372.478 342.188 372.516 342.035 372.588L285.934 402.058C285.65 402.204 285.613 402.44 285.873 402.576L292.39 405.951C292.543 406.023 292.713 406.061 292.885 406.061C293.057 406.061 293.227 406.023 293.38 405.951L349.493 376.493C349.777 376.335 349.802 376.099 349.493 375.964L343.025 372.588ZM283.782 403.712C283.629 403.643 283.459 403.606 283.288 403.606C283.116 403.606 282.947 403.643 282.793 403.712L274.395 408.123C274.111 408.28 274.086 408.506 274.395 408.641L280.913 412.073C281.067 412.142 281.236 412.178 281.408 412.178C281.579 412.178 281.749 412.142 281.902 412.073L290.288 407.662C290.572 407.515 290.609 407.279 290.35 407.144L283.782 403.712ZM354.564 366.579C354.411 366.507 354.241 366.47 354.069 366.47C353.897 366.47 353.727 366.507 353.574 366.579L345.177 370.99C344.892 371.136 344.867 371.373 345.177 371.508L351.694 374.883C351.847 374.956 352.017 374.993 352.189 374.993C352.361 374.993 352.531 374.956 352.684 374.883L361.069 370.473C361.366 370.326 361.391 370.09 361.131 369.955L354.564 366.579ZM272.243 409.811C272.09 409.739 271.921 409.701 271.748 409.701C271.576 409.701 271.407 409.739 271.254 409.811L262.868 414.21C262.571 414.368 262.547 414.604 262.868 414.739L269.386 418.115C269.539 418.187 269.709 418.225 269.881 418.225C270.053 418.225 270.223 418.187 270.376 418.115L278.761 413.715C279.058 413.558 279.083 413.333 278.761 413.198L272.243 409.811ZM377.667 354.449C377.513 354.38 377.344 354.344 377.172 354.344C377.001 354.344 376.831 354.38 376.678 354.449L368.292 358.86C367.995 359.006 367.971 359.243 368.292 359.378L374.81 362.81C374.964 362.879 375.133 362.915 375.305 362.915C375.476 362.915 375.646 362.879 375.8 362.81L384.185 358.399C384.482 358.253 384.507 358.016 384.247 357.881L377.667 354.449ZM413.324 335.714C413.171 335.642 413.001 335.604 412.829 335.604C412.657 335.604 412.487 335.642 412.334 335.714L405.507 339.292C405.223 339.45 405.198 339.675 405.507 339.81L411.976 343.197C412.128 343.269 412.298 343.306 412.47 343.306C412.642 343.306 412.812 343.269 412.965 343.197L419.78 339.619C420.077 339.461 420.101 339.236 419.78 339.101L413.324 335.714ZM435.586 321.547L442.401 317.969C442.685 317.812 442.722 317.587 442.462 317.451L435.932 314.076C435.778 314.007 435.609 313.972 435.438 313.972C435.266 313.972 435.097 314.007 434.943 314.076L428.128 317.654C427.844 317.812 427.819 318.037 428.128 318.183L434.646 321.559C434.803 321.624 434.974 321.654 435.147 321.646C435.319 321.638 435.486 321.593 435.635 321.514L435.586 321.547ZM394.933 323.325L401.747 319.747C402.032 319.601 402.069 319.364 401.809 319.229L395.291 315.854C395.135 315.784 394.964 315.748 394.79 315.748C394.617 315.748 394.445 315.784 394.289 315.854L387.475 319.443C387.19 319.589 387.166 319.826 387.475 319.961L393.993 323.336C394.149 323.402 394.321 323.432 394.493 323.424C394.666 323.416 394.833 323.371 394.982 323.291L394.933 323.325ZM368.564 356.767L388.477 346.303C388.773 346.145 388.798 345.92 388.538 345.785L382.021 342.353C381.867 342.284 381.697 342.247 381.526 342.247C381.354 342.247 381.185 342.284 381.031 342.353L361.106 352.818C360.822 352.975 360.785 353.2 361.045 353.335L367.562 356.711C367.713 356.792 367.882 356.839 368.056 356.849C368.23 356.859 368.404 356.831 368.564 356.767ZM424.715 326.78C424.867 326.852 425.037 326.889 425.209 326.889C425.381 326.889 425.551 326.852 425.704 326.78L432.519 323.201C432.815 323.044 432.84 322.819 432.581 322.684L426.063 319.252C425.909 319.182 425.74 319.146 425.568 319.146C425.396 319.146 425.227 319.182 425.073 319.252L418.258 322.83C417.962 322.988 417.937 323.224 418.258 323.359L424.715 326.78ZM416.354 321.817L423.169 318.239C423.465 318.093 423.49 317.857 423.23 317.722L416.712 314.346C416.559 314.276 416.389 314.24 416.218 314.24C416.046 314.24 415.877 314.276 415.723 314.346L408.908 317.924C408.612 318.082 408.587 318.318 408.847 318.453L415.364 321.829C415.518 321.899 415.688 321.935 415.861 321.933C416.033 321.931 416.202 321.891 416.354 321.817ZM358.559 361.966L365.373 358.388C365.67 358.23 365.695 358.005 365.435 357.87L358.917 354.449C358.764 354.377 358.595 354.34 358.423 354.34C358.25 354.34 358.081 354.377 357.928 354.449L351.101 358.027C350.816 358.185 350.792 358.41 351.101 358.545L357.619 361.977C357.763 362.045 357.923 362.083 358.086 362.087C358.249 362.091 358.41 362.061 358.559 362V361.966ZM402.663 338.336C402.815 338.408 402.985 338.445 403.157 338.445C403.329 338.445 403.499 338.408 403.652 338.336L410.467 334.758C410.751 334.6 410.776 334.375 410.529 334.24L403.998 330.864C403.844 330.796 403.675 330.76 403.504 330.76C403.332 330.76 403.163 330.796 403.009 330.864L396.194 334.443C395.91 334.6 395.885 334.825 396.194 334.971L402.663 338.336ZM308.753 388.206L315.568 384.628C315.852 384.482 315.877 384.245 315.568 384.11L309.038 380.678C308.884 380.61 308.714 380.574 308.543 380.574C308.371 380.574 308.202 380.61 308.048 380.678L301.233 384.257C300.949 384.414 300.924 384.651 301.172 384.786L307.702 388.161C307.858 388.25 308.037 388.301 308.221 388.309C308.405 388.317 308.588 388.281 308.753 388.206ZM318.709 382.974L325.524 379.396C325.821 379.249 325.846 379.013 325.586 378.878L319.093 375.401C318.939 375.332 318.77 375.296 318.598 375.296C318.426 375.296 318.257 375.332 318.103 375.401L311.289 378.979C310.992 379.137 310.967 379.373 311.289 379.508L317.806 382.884C317.944 382.951 318.097 382.989 318.252 382.997C318.408 383.005 318.564 382.981 318.709 382.929V382.974ZM298.785 393.439L305.599 389.86C305.896 389.714 305.921 389.478 305.599 389.343L299.081 385.967C298.928 385.898 298.758 385.862 298.587 385.862C298.415 385.862 298.246 385.898 298.092 385.967L291.277 389.545C290.98 389.703 290.956 389.939 291.215 390.074L297.733 393.45C297.899 393.523 298.083 393.557 298.267 393.547C298.451 393.537 298.629 393.484 298.785 393.394V393.439ZM338.634 372.453L345.449 368.875C345.746 368.717 345.77 368.492 345.511 368.357L338.993 364.925C338.839 364.856 338.67 364.82 338.498 364.82C338.326 364.82 338.157 364.856 338.003 364.925L331.189 368.503C330.892 368.661 330.867 368.886 331.189 369.021L337.645 372.453C337.797 372.525 337.967 372.563 338.139 372.563C338.311 372.563 338.481 372.525 338.634 372.453ZM328.678 377.685L335.493 374.107C335.777 373.961 335.802 373.725 335.554 373.589L328.987 370.203C328.833 370.133 328.664 370.097 328.492 370.097C328.321 370.097 328.151 370.133 327.998 370.203L321.183 373.781C320.898 373.938 320.874 374.175 321.121 374.31L327.651 377.685C327.808 377.765 327.984 377.808 328.163 377.81C328.342 377.811 328.519 377.773 328.678 377.697V377.685ZM348.602 367.221L355.417 363.642C355.702 363.485 355.726 363.26 355.417 363.125L348.899 359.693C348.746 359.621 348.577 359.583 348.405 359.583C348.232 359.583 348.063 359.621 347.91 359.693L341.095 363.271C340.811 363.429 340.774 363.654 341.033 363.789L347.564 367.221C347.722 367.302 347.9 367.346 348.081 367.348C348.263 367.35 348.442 367.31 348.602 367.232V367.221ZM402.959 294.429C403.112 294.501 403.282 294.539 403.454 294.539C403.626 294.539 403.796 294.501 403.949 294.429L410.764 290.851C411.06 290.693 411.085 290.468 410.825 290.333L409.094 289.422C408.94 289.352 408.771 289.316 408.599 289.316C408.428 289.316 408.258 289.352 408.104 289.422L401.277 293.011C400.993 293.158 400.968 293.394 401.277 293.529L402.959 294.429ZM353.488 322.954C353.642 323.022 353.811 323.058 353.983 323.058C354.154 323.058 354.323 323.022 354.477 322.954L361.292 319.376C361.576 319.218 361.601 318.982 361.292 318.847L354.774 315.471C354.621 315.399 354.452 315.361 354.279 315.361C354.107 315.361 353.938 315.399 353.785 315.471L346.97 319.049C346.685 319.196 346.661 319.432 346.908 319.567L353.488 322.954ZM373.413 312.489C373.567 312.558 373.736 312.593 373.907 312.593C374.079 312.593 374.248 312.558 374.402 312.489L381.217 308.911C381.501 308.753 381.526 308.517 381.217 308.382L374.748 304.939C374.595 304.867 374.426 304.829 374.254 304.829C374.081 304.829 373.912 304.867 373.759 304.939L366.944 308.517C366.66 308.663 366.623 308.9 366.882 309.035L373.413 312.489ZM341.318 329.368C341.472 329.437 341.641 329.473 341.813 329.473C341.984 329.473 342.153 329.437 342.307 329.368L349.122 325.778C349.419 325.632 349.443 325.396 349.184 325.261L342.592 321.817C342.439 321.745 342.269 321.708 342.097 321.708C341.925 321.708 341.755 321.745 341.602 321.817L334.788 325.396C334.491 325.542 334.466 325.778 334.726 325.913L341.318 329.368ZM363.444 317.755C363.598 317.825 363.767 317.861 363.939 317.861C364.11 317.861 364.28 317.825 364.433 317.755L371.248 314.177C371.545 314.02 371.57 313.783 371.31 313.648L364.792 310.272C364.639 310.2 364.47 310.163 364.297 310.163C364.125 310.163 363.956 310.2 363.803 310.272L356.988 313.851C356.691 313.997 356.666 314.233 356.926 314.368L363.444 317.755ZM321.393 339.844C321.548 339.91 321.717 339.944 321.888 339.944C322.059 339.944 322.228 339.91 322.383 339.844L329.197 336.265C329.494 336.108 329.519 335.872 329.259 335.737L322.741 332.361C322.588 332.289 322.419 332.251 322.247 332.251C322.074 332.251 321.905 332.289 321.752 332.361L314.937 335.939C314.64 336.085 314.616 336.322 314.875 336.457L321.393 339.844ZM331.362 334.6C331.515 334.669 331.685 334.706 331.856 334.706C332.028 334.706 332.197 334.669 332.351 334.6L339.166 331.022C339.45 330.864 339.475 330.628 339.166 330.493L332.648 327.117C332.495 327.045 332.325 327.008 332.153 327.008C331.981 327.008 331.811 327.045 331.658 327.117L324.844 330.696C324.559 330.842 324.535 331.078 324.782 331.213L331.362 334.6ZM383.035 304.939C383.188 305.011 383.357 305.048 383.529 305.048C383.702 305.048 383.871 305.011 384.024 304.939L390.839 301.361C391.136 301.203 391.16 300.978 390.901 300.843L389.169 299.932C389.015 299.862 388.846 299.826 388.674 299.826C388.503 299.826 388.334 299.862 388.18 299.932L381.365 303.521C381.068 303.667 381.043 303.904 381.303 304.039L383.035 304.939ZM412.928 289.186C413.081 289.258 413.25 289.295 413.423 289.295C413.595 289.295 413.764 289.258 413.917 289.186L420.732 285.607C421.017 285.45 421.041 285.225 420.732 285.09L419.001 284.178C418.847 284.109 418.677 284.073 418.506 284.073C418.334 284.073 418.165 284.109 418.011 284.178L411.196 287.768C410.9 287.914 410.875 288.15 411.135 288.285L412.928 289.186ZM426.619 296.376C426.773 296.445 426.942 296.481 427.114 296.481C427.286 296.481 427.455 296.445 427.609 296.376L434.423 292.786C434.72 292.64 434.745 292.404 434.485 292.269L427.967 288.893C427.814 288.824 427.644 288.788 427.473 288.788C427.301 288.788 427.132 288.824 426.978 288.893L420.163 292.483C419.866 292.629 419.842 292.865 420.101 293L426.619 296.376ZM445.592 316.259L452.406 312.68C452.703 312.523 452.728 312.298 452.406 312.163L445.888 308.731C445.735 308.661 445.565 308.625 445.394 308.625C445.222 308.625 445.053 308.661 444.899 308.731L438.084 312.309C437.787 312.467 437.763 312.692 438.022 312.827L444.54 316.259C444.699 316.344 444.879 316.391 445.063 316.395C445.247 316.399 445.429 316.36 445.592 316.281V316.259ZM393.003 299.65C393.156 299.722 393.326 299.76 393.498 299.76C393.67 299.76 393.84 299.722 393.993 299.65L400.807 296.072C401.092 295.914 401.117 295.689 400.807 295.554L399.076 294.643C398.922 294.574 398.753 294.537 398.581 294.537C398.41 294.537 398.24 294.574 398.086 294.643L391.272 298.232C390.987 298.379 390.95 298.615 391.272 298.75L393.003 299.65ZM311.375 345.031C311.529 345.1 311.698 345.135 311.87 345.135C312.041 345.135 312.211 345.1 312.365 345.031L319.179 341.453C319.464 341.295 319.488 341.059 319.241 340.924L312.711 337.548C312.558 337.476 312.388 337.439 312.216 337.439C312.044 337.439 311.874 337.476 311.721 337.548L304.907 341.126C304.622 341.273 304.598 341.509 304.845 341.644L311.375 345.031Z" fill="#455A64"/>
<path d="M340.873 391.796L342.27 392.527L379.399 412.016L445.406 377.348L446.779 376.627L408.265 356.407L340.873 391.796Z" fill="#37474F"/>
<path d="M342.27 392.527L379.399 412.016L445.406 377.348L408.265 357.847L342.27 392.527Z" fill="#263238"/>
<path d="M132.412 239.9L117.286 232.023C116.618 231.663 116.123 231.573 115.864 231.72L114.021 232.687C113.699 232.856 113.712 233.351 114.108 234.116L117.818 241.048L115.072 243.298C114.781 243.502 114.551 243.77 114.407 244.078C114.262 244.385 114.207 244.721 114.247 245.054C114.287 245.386 114.42 245.704 114.634 245.976C114.848 246.247 115.135 246.465 115.468 246.606L130.594 254.551L132.437 253.572L132.412 239.9Z" fill="#6CA569"/>
<path d="M115.443 232.924C113.971 232.147 113.365 232.653 114.107 234.049L117.818 240.98L115.072 243.231C114.78 243.434 114.551 243.703 114.407 244.01C114.262 244.318 114.207 244.654 114.247 244.986C114.287 245.319 114.42 245.636 114.634 245.908C114.848 246.18 115.135 246.397 115.468 246.539L130.594 254.483V240.879L115.443 232.924Z" fill="#4A7848"/>
<path d="M132.338 283.683C132.103 283.684 131.871 283.644 131.654 283.563C131.437 283.482 131.24 283.362 131.075 283.212C130.909 283.061 130.778 282.882 130.689 282.684C130.6 282.487 130.555 282.276 130.557 282.063V236.356C130.594 235.951 130.797 235.573 131.126 235.298C131.454 235.023 131.885 234.87 132.331 234.87C132.778 234.87 133.209 235.023 133.537 235.298C133.866 235.573 134.069 235.951 134.106 236.356V282.063C134.108 282.275 134.063 282.485 133.975 282.682C133.887 282.878 133.757 283.057 133.593 283.208C133.428 283.358 133.233 283.478 133.017 283.559C132.802 283.641 132.571 283.683 132.338 283.683Z" fill="#455A64"/>
<path d="M67.2702 405.389V402.542H68.0247C69.1997 400.622 70.9668 399.057 73.1079 398.041C80.9244 393.934 93.5891 393.934 101.406 398.041C103.551 399.052 105.319 400.618 106.489 402.542H107.256V405.299C107.256 408.033 105.376 410.778 101.406 412.86C93.5891 416.967 80.9244 416.967 73.1079 412.86C69.2615 410.801 67.2455 408.089 67.2702 405.389Z" fill="#263238"/>
<path d="M87.2691 413.051C98.321 413.051 107.28 408.346 107.28 402.542C107.28 396.737 98.321 392.032 87.2691 392.032C76.2172 392.032 67.2578 396.737 67.2578 402.542C67.2578 408.346 76.2172 413.051 87.2691 413.051Z" fill="#455A64"/>
<path d="M92.4265 303.554V401.292C92.3832 401.704 92.2207 402.098 91.9557 402.434C91.6906 402.77 91.3324 403.036 90.9176 403.205C89.7891 403.727 88.5411 403.999 87.2753 403.999C86.0094 403.999 84.7614 403.727 83.6329 403.205C83.2165 403.038 82.857 402.772 82.5916 402.436C82.3263 402.1 82.1648 401.705 82.124 401.292V303.554H92.4265Z" fill="#37474F"/>
<path d="M82.124 315.381V324.574L92.4265 329.975V320.805L82.124 315.381Z" fill="#263238"/>
<path d="M119.475 294.811L138.522 304.826C138.425 304.967 138.299 305.089 138.151 305.186L104.832 322.684C104.547 322.83 104.324 322.684 104.324 322.402V300.561C104.416 296.36 105.36 292.209 107.107 288.319L119.475 294.811Z" fill="#98A289"/>
<path d="M138.67 280.465V304.939L107.107 288.33L107.218 288.094C110.595 280.397 116.259 273.882 122.443 270.642C124.587 269.412 127.048 268.718 129.58 268.627C135.195 268.627 138.67 273.162 138.67 280.465Z" fill="#98A289"/>
<path d="M172.941 332.192V330.009H172.706V330.324C172.564 329.718 172.357 329.126 172.088 328.557C170.851 325.879 168.167 323.314 164.123 321.187L141.576 309.338C141.048 309.099 140.466 308.975 139.876 308.975C139.286 308.975 138.704 309.099 138.175 309.338L103.694 327.443C103.268 327.122 102.901 326.743 102.605 326.318V328.569C102.626 328.76 102.701 328.943 102.823 329.101C102.944 329.258 103.107 329.385 103.298 329.469L125.857 341.306C132.474 344.539 139.907 346.138 147.414 345.942C153.667 346.005 159.838 344.64 165.36 341.97C170.431 339.326 172.929 335.804 172.929 332.214L172.941 332.192Z" fill="#BAC6A8"/>
<path d="M172.088 328.569C170.851 325.89 168.167 323.325 164.123 321.198L141.576 309.35C141.048 309.111 140.466 308.986 139.876 308.986C139.286 308.986 138.704 309.111 138.175 309.35L103.694 327.443L125.857 339.078C132.476 342.306 139.907 343.904 147.414 343.714C153.666 343.772 159.836 342.407 165.36 339.742C169.911 337.357 172.397 334.285 172.855 331.078C172.732 330.212 172.474 329.367 172.088 328.569Z" fill="#CFDCBB"/>
<path d="M172.855 331.089C172.734 330.216 172.476 329.363 172.088 328.557C170.851 325.879 168.168 323.314 164.123 321.187L141.577 309.338C141.048 309.099 140.466 308.975 139.876 308.975C139.286 308.975 138.704 309.099 138.175 309.338L103.694 327.443L103.298 327.241C103.093 327.177 102.915 327.056 102.788 326.896C102.662 326.736 102.594 326.543 102.594 326.346C102.594 326.149 102.662 325.957 102.788 325.796C102.915 325.636 103.093 325.515 103.298 325.451L138.175 307.189C138.701 306.942 139.284 306.813 139.876 306.813C140.468 306.813 141.051 306.942 141.577 307.189L164.123 319.038C168.168 321.164 170.827 323.73 172.088 326.408C172.502 327.262 172.769 328.169 172.88 329.097C172.96 329.76 172.952 330.428 172.855 331.089Z" fill="#BAC6A8"/>
<path d="M104.065 325.148L138.93 306.829L138.151 305.175L104.832 322.683L104.065 325.148Z" fill="#BAC6A8"/>
<path d="M135.591 279.058C135.576 278.796 135.493 278.542 135.349 278.315C135.205 278.088 135.004 277.895 134.762 277.753L92.3153 255.428C92.0598 255.306 91.7754 255.242 91.4867 255.242C91.1979 255.242 90.9136 255.306 90.658 255.428L89.7181 255.923C89.4762 256.066 89.2749 256.258 89.1308 256.485C88.9867 256.712 88.904 256.967 88.8894 257.229V286.834C88.9059 287.095 88.9895 287.349 89.1334 287.576C89.2773 287.802 89.4775 287.995 89.7181 288.139L132.165 310.441C132.424 310.557 132.71 310.618 132.999 310.618C133.289 310.618 133.575 310.557 133.834 310.441L134.762 309.946C135.002 309.802 135.203 309.609 135.347 309.383C135.49 309.156 135.574 308.902 135.591 308.641V279.058Z" fill="#F5F5F5"/>
<path d="M135.356 278.271L132.993 279.508L89.1367 256.464C89.2732 256.23 89.4734 256.032 89.718 255.89L90.658 255.406C90.9135 255.284 91.1979 255.22 91.4866 255.22C91.7753 255.22 92.0597 255.284 92.3153 255.406L134.811 277.708C135.044 277.849 135.231 278.043 135.356 278.271Z" fill="#E0E0E0"/>
<path d="M133.006 279.497L132.573 279.734C132.709 279.787 132.824 279.877 132.901 279.992C132.979 280.107 133.015 280.24 133.006 280.375V309.98C133.018 310.076 133 310.174 132.954 310.261C132.908 310.349 132.836 310.423 132.746 310.475C132.619 310.52 132.477 310.52 132.35 310.475L132.177 310.407L89.7181 288.116C89.4782 287.972 89.2785 287.779 89.1347 287.553C88.9909 287.326 88.9069 287.072 88.8894 286.811V257.206C88.9004 256.94 88.9855 256.681 89.1368 256.452L133.006 279.497Z" fill="#EBEBEB"/>
<path opacity="0.2" d="M132.993 279.508L113.341 286.181C112.662 286.416 111.915 286.433 111.224 286.228C110.533 286.024 109.94 285.61 109.544 285.056L106.365 280.645L88.976 256.373L105.759 280.813L88.8894 286.822C88.8996 287.09 88.9893 287.351 89.1491 287.576L105.809 280.881L109.519 286.226C109.927 286.82 110.556 287.261 111.292 287.468C112.028 287.675 112.821 287.633 113.526 287.351L116.136 286.305L132.795 310.486C132.881 310.431 132.949 310.356 132.993 310.269C133.036 310.182 133.053 310.086 133.043 309.991V309.439L116.173 286.26L132.993 279.508Z" fill="black"/>
<path d="M125.548 284.246C125.53 283.985 125.446 283.731 125.302 283.504C125.159 283.278 124.959 283.085 124.719 282.94L82.2601 260.649C82.0046 260.527 81.7202 260.463 81.4315 260.463C81.1428 260.463 80.8584 260.527 80.6028 260.649L79.6629 261.133C79.423 261.278 79.2233 261.471 79.0795 261.697C78.9357 261.924 78.8517 262.177 78.8342 262.439V292.044C78.8527 292.306 78.9369 292.561 79.0806 292.789C79.2242 293.018 79.4234 293.213 79.6629 293.36L122.122 315.651C122.377 315.773 122.662 315.837 122.951 315.837C123.239 315.837 123.524 315.773 123.779 315.651L124.719 315.167C124.959 315.023 125.159 314.83 125.302 314.603C125.446 314.377 125.53 314.123 125.548 313.862V284.246Z" fill="#F5F5F5"/>
<path d="M125.3 283.559L122.95 284.797L79.0815 261.696C79.2218 261.468 79.4214 261.275 79.6628 261.133L80.6028 260.649C80.8583 260.527 81.1427 260.463 81.4314 260.463C81.7202 260.463 82.0045 260.527 82.2601 260.649L124.719 282.94C124.968 283.098 125.169 283.311 125.3 283.559Z" fill="#E0E0E0"/>
<path d="M122.951 284.741L122.518 284.977C122.654 285.03 122.768 285.121 122.846 285.235C122.923 285.35 122.96 285.484 122.951 285.619V315.223C122.963 315.32 122.945 315.417 122.899 315.505C122.853 315.592 122.781 315.666 122.691 315.719C122.564 315.764 122.422 315.764 122.295 315.719L122.122 315.651L79.6629 293.36C79.423 293.216 79.2233 293.023 79.0795 292.796C78.9357 292.57 78.8517 292.316 78.8342 292.055V262.45C78.8453 262.184 78.9304 261.924 79.0816 261.696L122.951 284.741Z" fill="#EBEBEB"/>
<path opacity="0.2" d="M122.951 284.741L103.286 291.436C102.608 291.666 101.864 291.681 101.177 291.476C100.489 291.272 99.8982 290.861 99.501 290.311L96.3348 285.911L78.9208 261.617L95.704 286.057L78.8342 292.066C78.8596 292.332 78.9482 292.589 79.094 292.82L95.7535 286.069L99.4639 291.413C99.8711 292.005 100.498 292.444 101.232 292.651C101.965 292.857 102.755 292.818 103.459 292.539L106.081 291.492L122.691 315.718C122.781 315.666 122.853 315.592 122.899 315.505C122.945 315.417 122.963 315.32 122.951 315.223V314.728L106.118 291.503L122.951 284.741Z" fill="black"/>
<path d="M115.493 289.489C115.478 289.228 115.395 288.973 115.251 288.746C115.107 288.519 114.906 288.326 114.664 288.184L72.2174 265.882C71.9601 265.765 71.6764 265.704 71.3888 265.704C71.1011 265.704 70.8175 265.765 70.5601 265.882L69.6202 266.377C69.3783 266.519 69.177 266.712 69.0329 266.939C68.8888 267.166 68.8061 267.42 68.7915 267.682V297.287C68.8061 297.549 68.8888 297.804 69.0329 298.031C69.177 298.258 69.3783 298.45 69.6202 298.592L112.067 320.895C112.327 321.011 112.612 321.071 112.902 321.071C113.191 321.071 113.477 321.011 113.736 320.895L114.664 320.399C114.906 320.257 115.107 320.065 115.251 319.838C115.395 319.611 115.478 319.356 115.493 319.094V289.489Z" fill="#F5F5F5"/>
<path d="M115.258 288.747L112.895 289.984L69.0388 266.94C69.1756 266.709 69.376 266.515 69.6201 266.377L70.5601 265.882C70.8174 265.765 71.1011 265.704 71.3887 265.704C71.6763 265.704 71.96 265.765 72.2174 265.882L114.664 288.184C114.912 288.322 115.116 288.516 115.258 288.747Z" fill="#E0E0E0"/>
<path d="M112.71 321.052C112.763 321.064 112.818 321.064 112.871 321.052C112.846 321.065 112.819 321.072 112.79 321.072C112.762 321.072 112.734 321.065 112.71 321.052Z" fill="#BA68C8"/>
<path d="M112.908 289.973L112.475 290.209C112.611 290.262 112.726 290.353 112.803 290.468C112.881 290.582 112.917 290.716 112.908 290.851V320.467C112.919 320.562 112.9 320.657 112.854 320.743C112.809 320.828 112.737 320.9 112.648 320.951C112.521 320.996 112.38 320.996 112.252 320.951L112.079 320.894L69.6202 298.592C69.3783 298.45 69.177 298.257 69.0329 298.031C68.8888 297.804 68.8061 297.549 68.7915 297.287V267.693C68.8025 267.427 68.8877 267.168 69.0389 266.939L112.908 289.973Z" fill="#EBEBEB"/>
<path opacity="0.2" d="M112.895 289.984L93.2428 296.668C92.5634 296.9 91.8178 296.914 91.1281 296.71C90.4383 296.505 89.8452 296.094 89.4459 295.543L86.2921 291.143L68.8781 266.861L85.6613 291.29L68.7915 297.298C68.8017 297.566 68.8914 297.827 69.0512 298.052L85.7108 291.357L89.4212 296.702C89.8288 297.297 90.4583 297.738 91.1942 297.944C91.9302 298.151 92.7233 298.109 93.4284 297.827L96.038 296.77L112.698 320.951C112.785 320.897 112.855 320.823 112.898 320.735C112.942 320.648 112.958 320.551 112.945 320.456V319.961L96.1246 296.736L112.895 289.984Z" fill="black"/>
<path d="M134.255 267.806C130.878 266.197 126.401 266.478 121.503 269.066C116 271.936 111.04 277.157 107.565 283.132C106.757 284.517 106.03 285.941 105.388 287.396C103.479 291.561 102.451 296.016 102.358 300.528V325.53C101.768 325.536 101.186 325.408 100.663 325.159L51.8226 299.481C51.331 299.185 50.922 298.789 50.6279 298.324C50.3338 297.859 50.1627 297.339 50.1282 296.803V273.106C50.1282 261.268 58.6991 247.225 69.2613 241.599C74.2085 238.966 78.8217 238.752 82.2352 240.474L134.255 267.806Z" fill="#CFDCBB"/>
<path opacity="0.1" d="M51.8226 299.481L100.663 325.193C101.186 325.442 101.768 325.569 102.358 325.564V300.561C102.376 298.208 102.683 295.865 103.273 293.574L51.031 266.129C50.4507 268.418 50.1479 270.757 50.1282 273.106V296.803C50.1627 297.338 50.3338 297.859 50.6279 298.324C50.922 298.789 51.331 299.185 51.8226 299.481Z" fill="black"/>
<path d="M105.388 287.43C103.479 291.595 102.451 296.05 102.358 300.562V325.53C102.15 325.525 101.943 325.503 101.74 325.463C101.74 324.034 101.74 316.022 101.74 300.562C101.74 282.209 117.261 270.54 121.528 269.055C116.024 271.924 111.065 277.145 107.59 283.12C106.771 284.52 106.037 285.959 105.388 287.43Z" fill="#BECBAA"/>
<path d="M104.831 322.684C104.559 322.83 104.324 322.684 104.324 322.414V300.573C104.413 296.371 105.357 292.22 107.107 288.33L107.218 288.094C107.893 286.552 108.669 285.049 109.544 283.593C112.92 277.933 117.496 273.229 122.443 270.641C124.587 269.412 127.048 268.718 129.58 268.627C130.872 268.618 132.147 268.9 133.29 269.449C136.629 271.069 138.583 274.985 138.583 280.465V304.376C138.572 304.536 138.521 304.691 138.433 304.83C138.345 304.968 138.223 305.086 138.076 305.175L138.843 306.829L139.016 306.739C139.28 306.562 139.517 306.354 139.721 306.12C140.215 305.563 140.5 304.877 140.537 304.162V280.465C140.537 274.13 138.064 269.719 134.168 267.851C130.792 266.231 126.314 266.512 121.417 269.1C115.913 271.969 110.953 277.179 107.478 283.177C106.67 284.558 105.944 285.978 105.301 287.43C103.39 291.598 102.362 296.057 102.271 300.573V325.519H102.655C103.148 325.494 103.629 325.371 104.065 325.159L104.831 322.684Z" fill="#BAC6A8"/>
<path d="M221.312 258.669C221.37 257.654 221.691 256.665 222.25 255.785C222.809 254.905 223.59 254.158 224.528 253.605L383.047 170.338C384.044 169.877 385.145 169.637 386.263 169.637C387.38 169.637 388.482 169.877 389.479 170.338L393.102 172.24C394.036 172.795 394.813 173.543 395.369 174.423C395.926 175.303 396.247 176.29 396.306 177.303V291.942C396.244 292.955 395.922 293.941 395.365 294.82C394.809 295.7 394.034 296.448 393.102 297.006L234.571 380.329C233.575 380.785 232.476 381.022 231.361 381.022C230.247 381.022 229.148 380.785 228.152 380.329L224.528 378.428C223.594 377.871 222.816 377.123 222.258 376.244C221.699 375.365 221.376 374.378 221.312 373.364V258.669Z" fill="#4A7848"/>
<path d="M222.252 255.789L231.367 260.571L395.366 174.411C394.822 173.524 394.044 172.774 393.102 172.229L389.466 170.338C388.476 169.872 387.378 169.629 386.263 169.629C385.148 169.629 384.05 169.872 383.06 170.338L224.528 253.606C223.574 254.141 222.79 254.893 222.252 255.789Z" fill="#598E56"/>
<path opacity="0.1" d="M221.312 258.658V373.297C221.37 374.312 221.691 375.3 222.25 376.181C222.809 377.061 223.59 377.808 224.528 378.36L228.152 380.273C228.433 380.415 228.726 380.536 229.03 380.633C229.461 380.761 229.904 380.852 230.353 380.903C231.197 381.001 232.054 380.974 232.889 380.824L233.519 380.678L233.915 380.554C233.666 380.645 233.398 380.687 233.129 380.677C232.861 380.667 232.598 380.606 232.357 380.498C232.012 380.295 231.737 380.008 231.562 379.67C231.387 379.332 231.32 378.956 231.367 378.585V263.946C231.334 263.426 231.476 262.909 231.774 262.465C232.073 262.021 232.513 261.67 233.037 261.46L231.367 260.571L222.252 255.788C221.675 256.656 221.352 257.644 221.312 258.658Z" fill="#BA68C8"/>
<path d="M221.312 258.658V373.297C221.37 374.312 221.691 375.3 222.25 376.181C222.809 377.061 223.59 377.808 224.528 378.36L228.152 380.273C228.433 380.415 228.726 380.536 229.03 380.633C229.461 380.761 229.904 380.852 230.353 380.903C231.197 381.001 232.054 380.974 232.889 380.824L233.519 380.678L233.915 380.554C233.666 380.645 233.398 380.687 233.129 380.677C232.861 380.667 232.598 380.606 232.357 380.498C232.012 380.295 231.737 380.008 231.562 379.67C231.387 379.332 231.32 378.956 231.367 378.585V263.946C231.334 263.426 231.476 262.909 231.774 262.465C232.073 262.021 232.513 261.67 233.037 261.46L231.367 260.571L222.252 255.788C221.675 256.656 221.352 257.644 221.312 258.658Z" fill="#598E56"/>
<path opacity="0.2" d="M231.367 260.571L307.492 286.451C310.126 287.347 313.016 287.399 315.687 286.599C318.358 285.799 320.65 284.195 322.185 282.051L334.404 265.004L395.365 174.411L336.841 265.634L396.305 291.976C396.25 293.013 395.905 294.019 395.304 294.902L336.655 265.916L322.457 286.597C320.88 288.896 318.444 290.6 315.597 291.396C312.75 292.192 309.683 292.026 306.96 290.929L296.83 286.867L232.332 380.498C231.987 380.295 231.712 380.008 231.537 379.67C231.362 379.332 231.295 378.956 231.342 378.585V376.672L296.509 286.744L231.367 260.571Z" fill="#50814E"/>
<path d="M261.508 279.801C261.567 278.787 261.888 277.801 262.444 276.921C263.001 276.041 263.778 275.293 264.711 274.737L423.243 191.47C424.237 191.01 425.337 190.77 426.452 190.77C427.568 190.77 428.668 191.01 429.662 191.47L433.286 193.372C434.222 193.926 435.001 194.674 435.56 195.553C436.118 196.433 436.441 197.421 436.501 198.435V313.074C436.439 314.088 436.116 315.075 435.557 315.955C434.998 316.834 434.22 317.582 433.286 318.138L274.766 401.405C273.768 401.861 272.667 402.098 271.551 402.098C270.434 402.098 269.333 401.861 268.335 401.405L264.674 399.458C263.744 398.9 262.97 398.151 262.414 397.272C261.858 396.393 261.535 395.408 261.471 394.395L261.508 279.801Z" fill="#4A7848"/>
<path d="M262.436 276.92L271.563 281.702L435.561 195.554C435.018 194.667 434.24 193.917 433.298 193.371L429.662 191.481C428.669 191.015 427.569 190.772 426.452 190.772C425.336 190.772 424.235 191.015 423.243 191.481L264.674 274.737C263.734 275.278 262.964 276.03 262.436 276.92Z" fill="#BA68C8"/>
<path d="M262.436 276.92L271.563 281.702L435.561 195.554C435.018 194.667 434.24 193.917 433.298 193.371L429.662 191.481C428.669 191.015 427.569 190.772 426.452 190.772C425.336 190.772 424.235 191.015 423.243 191.481L264.674 274.737C263.734 275.278 262.964 276.03 262.436 276.92Z" fill="#598E56"/>
<path d="M261.496 279.79V394.429C261.556 395.435 261.875 396.414 262.427 397.288C262.979 398.162 263.749 398.905 264.674 399.459L268.286 401.371C268.571 401.514 268.869 401.634 269.176 401.731C269.606 401.861 270.05 401.951 270.499 402.002C271.344 402.099 272.2 402.072 273.035 401.923L273.653 401.765C273.786 401.732 273.914 401.687 274.037 401.63C273.795 401.726 273.534 401.776 273.27 401.776C273.006 401.776 272.745 401.726 272.503 401.63C272.159 401.423 271.885 401.134 271.711 400.795C271.536 400.455 271.468 400.079 271.514 399.706V285.078C271.48 284.558 271.622 284.042 271.92 283.597C272.219 283.153 272.659 282.802 273.183 282.592L271.514 281.703L262.386 276.92C261.832 277.795 261.526 278.781 261.496 279.79Z" fill="#598E56"/>
<path opacity="0.4" d="M271.563 281.702L347.687 307.583C350.322 308.478 353.212 308.531 355.883 307.731C358.554 306.931 360.846 305.327 362.381 303.183L374.612 286.147L435.574 195.554L377.049 286.777L436.514 313.119C436.458 314.156 436.113 315.162 435.512 316.045L376.851 287.047L362.64 307.729C361.064 310.025 358.63 311.727 355.786 312.523C352.942 313.319 349.878 313.155 347.156 312.061L337.039 307.999L272.553 401.641C272.209 401.434 271.935 401.145 271.76 400.806C271.586 400.466 271.517 400.09 271.563 399.717V397.804L336.73 307.875L271.563 281.702Z" fill="#598E56"/>
<path d="M302.025 301.856L466.988 215.212L473.593 218.678C474.494 219.215 475.244 219.936 475.783 220.784C476.322 221.632 476.635 222.584 476.697 223.562V334.285C476.637 335.263 476.325 336.215 475.785 337.064C475.246 337.912 474.495 338.633 473.593 339.168L314.838 422.548C313.879 422.988 312.82 423.218 311.746 423.218C310.672 423.218 309.613 422.988 308.654 422.548L305.154 420.714C304.253 420.178 303.503 419.456 302.964 418.608C302.425 417.76 302.112 416.809 302.05 415.831L302.025 301.856Z" fill="#4A7848"/>
<path d="M466.085 205.468L466.753 205.13L464.193 203.78C463.977 203.662 463.75 203.564 463.513 203.487L390.913 179.002C389.914 178.706 388.838 178.703 387.837 178.994C386.836 179.285 385.961 179.854 385.335 180.623L304.128 288.521C302.857 290.379 302.133 292.502 302.025 294.688V301.844L304.499 303.183L466.939 215.201V208.033C466.925 207.122 466.63 206.233 466.085 205.468Z" fill="#598E56"/>
<path opacity="0.35" d="M466.728 205.119C466.509 204.998 466.277 204.896 466.036 204.815L393.424 180.33C392.626 180.089 391.773 180.036 390.946 180.178C390.12 180.32 389.346 180.651 388.699 181.14L386.226 179.813C386.878 179.328 387.653 179 388.481 178.858C389.308 178.717 390.162 178.766 390.963 179.002L463.562 203.476C463.799 203.557 464.027 203.659 464.242 203.78L466.728 205.119Z" fill="white"/>
<path opacity="0.2" d="M385.335 180.623C385.461 180.465 385.597 180.315 385.744 180.173C385.591 180.31 385.455 180.461 385.335 180.623Z" fill="black"/>
<path d="M387.858 181.951L306.638 289.849C305.378 291.71 304.658 293.832 304.548 296.016V303.184L469.511 216.54V209.384C469.453 208.413 469.096 207.477 468.482 206.681C467.867 205.885 467.02 205.262 466.036 204.883L393.424 180.342C392.429 180.038 391.353 180.03 390.352 180.319C389.352 180.609 388.478 181.18 387.858 181.951Z" fill="#4A7848"/>
<path d="M462.462 178.912C462.495 178.612 462.441 178.309 462.307 178.032C462.172 177.756 461.961 177.517 461.695 177.337L456.649 174.693C456.344 174.568 456.008 174.519 455.676 174.551C455.343 174.582 455.026 174.693 454.756 174.873L319.452 245.976C318.671 246.438 318.02 247.06 317.554 247.794C317.088 248.527 316.818 249.35 316.768 250.196V397.602C316.731 397.904 316.784 398.209 316.921 398.486C317.058 398.763 317.274 399.002 317.547 399.177L322.568 401.821C322.873 401.945 323.207 401.995 323.539 401.965C323.871 401.936 324.189 401.828 324.461 401.653L459.79 330.594C460.567 330.13 461.214 329.507 461.678 328.774C462.142 328.041 462.41 327.219 462.462 326.374V178.912Z" fill="#F0F0F0"/>
<path d="M324.473 401.709L459.79 330.594C460.567 330.13 461.214 329.507 461.678 328.774C462.142 328.041 462.411 327.219 462.462 326.374V178.912C462.462 177.359 461.225 176.729 459.79 177.506L324.473 248.609C323.696 249.073 323.049 249.697 322.585 250.43C322.121 251.163 321.853 251.984 321.802 252.829V400.235C321.802 401.821 323.001 402.452 324.473 401.709Z" fill="#FAFAFA"/>
<path d="M411.196 262.18C411.067 263.845 410.727 265.491 410.182 267.086C409.695 268.518 409.04 269.899 408.228 271.204C407.526 272.347 406.67 273.405 405.68 274.355C404.862 275.149 403.905 275.814 402.848 276.324C401.698 277.011 400.321 277.314 398.952 277.179C398.156 277.03 397.443 276.632 396.936 276.054C396.639 276.639 396.33 277.224 396.009 277.809C395.662 278.434 395.248 279.026 394.772 279.576C394.238 280.202 393.628 280.772 392.954 281.275C392.137 281.892 391.245 282.42 390.295 282.85C389.282 283.395 388.095 283.61 386.931 283.458C385.908 283.248 385.018 282.678 384.457 281.871C383.69 280.787 383.18 279.568 382.961 278.293C382.633 276.517 382.521 274.713 382.627 272.915C382.709 270.932 382.978 268.959 383.431 267.018C383.842 265.272 384.434 263.565 385.199 261.921C385.873 260.48 386.764 259.132 387.846 257.915C388.778 256.846 389.945 255.964 391.272 255.327C391.712 255.045 392.211 254.846 392.738 254.744C393.266 254.641 393.81 254.637 394.339 254.731C395.015 255.006 395.571 255.477 395.922 256.07V255.462C395.95 254.949 396.107 254.449 396.38 253.999C396.595 253.585 396.939 253.236 397.369 252.998L400.016 251.771C400.16 251.685 400.332 251.646 400.504 251.663C400.675 251.679 400.835 251.749 400.956 251.861C401.098 252.016 401.203 252.196 401.264 252.39C401.326 252.584 401.343 252.787 401.315 252.987L400.721 267.288C400.671 268.369 400.894 269.077 401.389 269.415C401.649 269.578 401.957 269.665 402.273 269.665C402.589 269.665 402.897 269.578 403.157 269.415C403.934 269.016 404.559 268.411 404.951 267.682C405.546 266.604 405.88 265.422 405.928 264.216C406.051 262.967 406.138 261.685 406.2 260.357C406.262 259.029 406.262 257.803 406.2 256.677C406.169 254.658 405.836 252.652 405.21 250.714C404.822 249.348 403.953 248.134 402.737 247.259C401.52 246.517 400.039 246.224 398.594 246.438C396.477 246.739 394.434 247.375 392.558 248.317C390.581 249.246 388.778 250.454 387.215 251.895C385.611 253.392 384.216 255.062 383.06 256.869C381.86 258.775 380.889 260.793 380.165 262.889C379.406 265.051 378.872 267.274 378.57 269.528C378.483 270.146 378.409 270.934 378.347 271.913C378.286 272.892 378.236 273.905 378.187 274.962C378.137 276.02 378.1 277.044 378.075 278.034C378.051 279.025 378.075 279.801 378.075 280.397C378.13 282.214 378.489 284.012 379.139 285.731C379.608 287.06 380.462 288.25 381.612 289.174C382.702 289.997 384.08 290.436 385.496 290.412C387.333 290.356 389.128 289.896 390.728 289.073C391.983 288.495 393.193 287.841 394.351 287.115C395.305 286.514 396.21 285.852 397.06 285.135C397.768 284.517 398.437 283.863 399.064 283.177C399.62 282.535 400.127 281.916 400.585 281.309C401.042 280.701 401.277 280.375 401.512 280.116C401.753 279.837 402.062 279.613 402.415 279.463L406.126 277.708C406.265 277.613 406.434 277.562 406.608 277.562C406.782 277.562 406.951 277.613 407.09 277.708C407.362 277.911 407.474 278.304 407.412 278.912C407.371 279.309 407.236 279.692 407.016 280.037C406.262 281.309 405.408 282.659 404.468 284.066C403.485 285.528 402.368 286.914 401.129 288.206C399.732 289.644 398.206 290.973 396.565 292.179C394.649 293.574 392.577 294.781 390.381 295.779C388.037 297.009 385.382 297.664 382.676 297.681C380.645 297.627 378.704 296.908 377.21 295.656C375.633 294.235 374.487 292.467 373.883 290.524C373.081 288.127 372.664 285.637 372.646 283.132C372.646 282.524 372.646 281.691 372.646 280.634C372.646 279.587 372.708 278.484 372.757 277.337C372.807 276.189 372.868 275.086 372.93 274.051C372.992 273.016 373.054 272.183 373.116 271.587C373.427 268.603 374.065 265.656 375.02 262.787C375.986 259.815 377.305 256.948 378.953 254.236C380.583 251.544 382.577 249.049 384.89 246.809C387.147 244.595 389.813 242.759 392.768 241.385C395.434 239.987 398.417 239.163 401.488 238.977C403.584 238.901 405.633 239.557 407.214 240.812C408.799 242.237 409.895 244.051 410.368 246.033C411.059 248.555 411.424 251.141 411.456 253.741C411.456 254.866 411.456 256.227 411.37 257.78C411.283 259.333 411.308 260.886 411.196 262.18ZM387.97 270.417C387.754 272.009 388.01 273.625 388.712 275.097C389.293 276.02 390.183 276.223 391.371 275.649C392.722 274.969 393.755 273.865 394.277 272.543C395.024 270.744 395.418 268.84 395.44 266.917C395.647 265.312 395.4 263.685 394.722 262.191C394.154 261.246 393.238 261.066 391.989 261.651C390.662 262.35 389.656 263.46 389.157 264.779C388.411 266.567 388.01 268.459 387.97 270.371V270.417Z" fill="#CFDCBB"/>
<path d="M321.789 400.269C321.765 400.544 321.809 400.82 321.918 401.077C322.027 401.334 322.199 401.566 322.42 401.754L317.559 399.211C317.284 399.037 317.066 398.799 316.926 398.522C316.787 398.245 316.732 397.939 316.768 397.636V250.23C316.798 249.382 317.071 248.556 317.559 247.833L322.581 250.466C322.092 251.193 321.819 252.023 321.789 252.874V400.269Z" fill="#E0E0E0"/>
<path d="M472.517 335.748C472.467 335.828 472.409 335.903 472.344 335.973L403.59 316.191C400.98 315.143 398.042 314.987 395.315 315.752C392.589 316.517 390.257 318.151 388.749 320.355L315.247 419.713L312.526 421.142C312.223 421.334 311.871 421.455 311.504 421.492C311.137 421.529 310.765 421.482 310.423 421.356L386.003 318.959C387.517 316.761 389.848 315.13 392.572 314.364C395.296 313.598 398.232 313.747 400.845 314.785L472.517 335.748Z" fill="#598E56"/>
<path opacity="0.4" d="M381.971 330.054L382.145 329.919L315.247 419.713L312.526 421.142C312.221 421.332 311.87 421.45 311.504 421.488C311.137 421.525 310.766 421.48 310.423 421.356L379.325 328.569L381.971 330.054Z" fill="white"/>
<path d="M476.635 222.853C476.487 222.043 476.017 221.817 475.398 222.2C475.093 222.408 474.825 222.658 474.607 222.943L474.261 223.382L406.423 317.204L396.293 330.043C395.641 330.791 394.777 331.363 393.795 331.698C392.812 332.033 391.747 332.118 390.715 331.944L381.971 330.054L315.185 307.707C314.736 307.623 314.273 307.623 313.824 307.707C313.65 307.739 313.48 307.788 313.317 307.853L315.791 306.525L379.782 327.905L388.205 330.639C389.237 330.815 390.302 330.732 391.285 330.396C392.269 330.061 393.132 329.487 393.783 328.737L403.912 315.91L472.084 221.649C472.292 221.392 472.552 221.174 472.851 221.007L466.951 217.913L469.425 216.619L473.506 218.757C474.301 219.216 474.987 219.814 475.524 220.518C476.062 221.221 476.439 222.015 476.635 222.853Z" fill="#598E56"/>
<path opacity="0.4" d="M406.423 317.204L396.293 330.043C395.641 330.791 394.777 331.363 393.795 331.698C392.812 332.033 391.747 332.118 390.716 331.944L381.971 330.054L382.145 329.919L382.565 329.311L388.291 330.549C389.323 330.726 390.389 330.642 391.372 330.307C392.355 329.971 393.219 329.398 393.869 328.647L403.9 315.955L406.423 317.204Z" fill="white"/>
<path d="M316.62 309.496L302.062 301.856V415.831C302.124 416.809 302.437 417.76 302.977 418.608C303.516 419.456 304.266 420.178 305.167 420.714L308.667 422.548C309.626 422.989 310.685 423.218 311.759 423.218C312.833 423.218 313.892 422.989 314.851 422.548L316.595 421.637L316.62 309.496Z" fill="#598E56"/>
<path d="M476.697 223.562V334.274C476.658 335.287 476.325 336.273 475.732 337.132C475.271 337.857 474.653 338.488 473.914 338.988L473.791 339.045C473.728 339.09 473.662 339.131 473.593 339.168L314.838 422.548C314.535 422.745 314.182 422.868 313.813 422.907C313.443 422.947 313.068 422.901 312.724 422.773C312.46 422.634 312.238 422.438 312.077 422.202C311.915 421.967 311.819 421.7 311.796 421.423C311.783 421.255 311.783 421.085 311.796 420.917V310.194C311.768 309.797 311.847 309.401 312.025 309.038C312.204 308.675 312.476 308.357 312.819 308.112C313.162 307.866 313.566 307.7 313.995 307.627C314.424 307.555 314.867 307.578 315.284 307.696L382.07 330.043L390.814 331.933C391.846 332.107 392.911 332.022 393.894 331.687C394.876 331.352 395.74 330.78 396.392 330.032L406.522 317.193L474.36 223.37L474.706 222.932C475.757 221.491 476.697 221.761 476.697 223.562Z" fill="#4A7848"/>
<path d="M473.593 339.168L473.803 339.044L473.914 338.977C474.655 338.484 475.274 337.855 475.732 337.131C476.317 336.286 476.65 335.316 476.697 334.318L406.435 317.215L453.433 349.723L473.593 339.168Z" fill="#598E56"/>
<path d="M311.734 420.917C311.689 421.277 311.755 421.642 311.925 421.97C312.096 422.298 312.364 422.576 312.699 422.773C313.042 422.903 313.417 422.952 313.787 422.914C314.156 422.877 314.51 422.755 314.814 422.56L369.492 393.832L381.984 330.043L311.734 419.071V420.917Z" fill="#598E56"/>
<path d="M475.732 337.132C475.274 337.855 474.655 338.484 473.914 338.977L473.803 339.044L314.838 422.548C314.534 422.744 314.181 422.866 313.811 422.903C313.441 422.94 313.067 422.892 312.723 422.762L388.749 320.264C390.271 318.05 392.619 316.409 395.364 315.643C398.108 314.876 401.063 315.035 403.689 316.09L475.732 337.132Z" fill="#4A7848"/>
<path d="M315.877 306.48L313.354 307.808L310.806 306.469L304.536 303.183L306.972 301.867L315.877 306.48Z" fill="#598E56"/>
<path d="M179.336 114.853L169.911 119.804C169.96 119.43 169.985 119.055 169.986 118.679V116.203C169.986 111.781 166.572 109.992 162.367 112.197C160.563 113.215 159.016 114.568 157.828 116.169C157.148 110.611 152.349 108.54 146.524 111.601C140.241 114.909 135.133 122.943 135.133 129.605V133.318C135.092 134.802 135.422 136.276 136.098 137.628L128.269 141.735C127.041 142.467 126.02 143.451 125.287 144.608C124.554 145.765 124.131 147.063 124.051 148.396C124.051 150.849 125.944 151.839 128.269 150.647L179.336 123.776C180.563 123.046 181.585 122.064 182.317 120.909C183.05 119.754 183.473 118.458 183.553 117.126C183.59 114.628 181.698 113.649 179.336 114.853Z" fill="white"/>
<path d="M133.748 86.6431L122.147 92.7306C122.21 92.2677 122.243 91.8018 122.245 91.3353V88.2297C122.245 82.7948 118.053 80.5893 112.871 83.3124C110.644 84.5572 108.738 86.2226 107.28 88.1959C106.439 81.3545 100.54 78.8115 93.3664 82.5698C85.6241 86.6431 79.3413 96.5452 79.3413 104.647V109.215C79.3065 111.044 79.7294 112.857 80.578 114.515L70.9435 119.579C69.4293 120.476 68.1688 121.685 67.2642 123.109C66.3595 124.532 65.8362 126.129 65.7366 127.77C65.7366 130.797 68.0741 132.013 70.9435 130.505L133.797 97.4904C135.313 96.5951 136.575 95.3863 137.48 93.9626C138.385 92.539 138.907 90.9409 139.004 89.2987C138.955 86.3055 136.629 85.0903 133.748 86.6431Z" fill="white"/>
<path d="M500.852 185.349L544.597 159.862L563.878 165.488L500.852 185.349Z" fill="#CFDCBB"/>
<path d="M500.852 185.349L538.66 156.655L530.262 147.833L500.852 185.349Z" fill="#CFDCBB"/>
<path d="M538.66 156.655V163.317L500.852 185.349L538.66 156.655Z" fill="#BAC6A8"/>
<path d="M544.968 156.104C544.781 156.104 544.599 156.053 544.445 155.957C544.291 155.862 544.172 155.726 544.104 155.568C544.036 155.41 544.022 155.237 544.063 155.072C544.105 154.906 544.2 154.756 544.337 154.641C545.633 153.55 546.829 152.365 547.911 151.096C547.983 151.002 548.074 150.922 548.181 150.861C548.287 150.8 548.406 150.759 548.53 150.741C548.654 150.723 548.781 150.728 548.903 150.756C549.025 150.784 549.139 150.835 549.239 150.904C549.339 150.974 549.423 151.061 549.484 151.161C549.546 151.26 549.585 151.37 549.598 151.484C549.612 151.598 549.6 151.713 549.563 151.822C549.526 151.932 549.465 152.033 549.383 152.12C548.237 153.465 546.971 154.722 545.599 155.879C545.425 156.021 545.201 156.101 544.968 156.104ZM551.931 147.698C551.785 147.701 551.64 147.67 551.511 147.608C551.402 147.559 551.305 147.491 551.226 147.408C551.146 147.325 551.086 147.228 551.048 147.123C551.01 147.019 550.995 146.908 551.005 146.798C551.014 146.688 551.047 146.581 551.102 146.483C552.182 144.524 553.012 142.459 553.576 140.328C553.633 140.11 553.784 139.922 553.993 139.805C554.203 139.688 554.456 139.651 554.695 139.703C554.935 139.756 555.142 139.892 555.27 140.083C555.399 140.274 555.439 140.504 555.382 140.722C554.798 142.978 553.927 145.165 552.784 147.237C552.705 147.379 552.582 147.499 552.431 147.58C552.28 147.662 552.107 147.703 551.931 147.698ZM555.32 135.805C555.198 135.8 555.078 135.774 554.968 135.728C554.857 135.681 554.757 135.615 554.675 135.534C554.592 135.452 554.528 135.357 554.486 135.252C554.443 135.148 554.424 135.038 554.429 134.927C554.429 134.466 554.429 134.015 554.429 133.565C554.428 131.827 554.267 130.092 553.947 128.378C553.926 128.269 553.928 128.156 553.955 128.048C553.981 127.94 554.031 127.837 554.101 127.746C554.171 127.655 554.26 127.578 554.363 127.518C554.466 127.458 554.581 127.418 554.701 127.399C554.946 127.363 555.195 127.416 555.397 127.547C555.598 127.677 555.735 127.875 555.777 128.097C556.112 129.904 556.282 131.733 556.285 133.565C556.285 134.038 556.285 134.522 556.285 134.994C556.28 135.105 556.251 135.214 556.2 135.315C556.149 135.416 556.076 135.506 555.987 135.581C555.897 135.657 555.792 135.715 555.678 135.753C555.563 135.792 555.442 135.809 555.32 135.805ZM553.329 123.641C553.135 123.641 552.946 123.585 552.788 123.482C552.631 123.379 552.513 123.234 552.45 123.067C551.651 120.992 550.645 118.989 549.445 117.081C549.338 116.888 549.314 116.665 549.378 116.457C549.442 116.249 549.59 116.07 549.791 115.955C550.003 115.855 550.248 115.832 550.478 115.891C550.708 115.949 550.904 116.085 551.028 116.27C552.282 118.271 553.329 120.373 554.157 122.549C554.206 122.657 554.23 122.772 554.228 122.888C554.225 123.005 554.196 123.119 554.143 123.225C554.09 123.331 554.013 123.425 553.917 123.502C553.822 123.58 553.71 123.638 553.588 123.675C553.497 123.672 553.405 123.661 553.316 123.641H553.329ZM546.823 112.827C546.682 112.827 546.543 112.797 546.417 112.741C546.29 112.684 546.18 112.602 546.093 112.501C544.61 110.754 542.98 109.114 541.22 107.595C541.107 107.528 541.012 107.44 540.94 107.336C540.868 107.232 540.822 107.115 540.805 106.993C540.788 106.872 540.801 106.748 540.842 106.631C540.882 106.514 540.951 106.407 541.042 106.316C541.133 106.226 541.245 106.155 541.369 106.108C541.494 106.061 541.628 106.039 541.763 106.044C541.898 106.049 542.029 106.08 542.149 106.136C542.269 106.192 542.374 106.272 542.457 106.368C544.286 107.949 545.982 109.653 547.528 111.466C547.658 111.639 547.713 111.851 547.681 112.059C547.649 112.267 547.533 112.457 547.355 112.591C547.208 112.723 547.016 112.807 546.811 112.827H546.823ZM537.139 104.185C536.938 104.186 536.743 104.127 536.582 104.017C534.634 102.686 532.598 101.464 530.485 100.36C530.283 100.245 530.137 100.066 530.075 99.8568C530.013 99.648 530.04 99.4256 530.151 99.2344C530.273 99.0466 530.47 98.9096 530.701 98.8528C530.933 98.796 531.179 98.8239 531.388 98.9306C533.565 100.069 535.663 101.328 537.671 102.7C537.827 102.806 537.942 102.955 538 103.124C538.058 103.293 538.056 103.474 537.994 103.642C537.933 103.81 537.815 103.956 537.657 104.06C537.499 104.163 537.309 104.219 537.114 104.219L537.139 104.185ZM439.94 100.922C439.735 100.924 439.535 100.863 439.372 100.751C439.209 100.638 439.091 100.479 439.037 100.299C438.984 100.119 438.997 99.9285 439.075 99.7561C439.153 99.5838 439.292 99.4399 439.47 99.3469C441.622 98.2217 443.848 97.164 446.111 96.185C446.222 96.1375 446.341 96.1103 446.463 96.1049C446.585 96.0996 446.707 96.1162 446.822 96.1538C446.937 96.1915 447.043 96.2494 447.133 96.3243C447.223 96.3991 447.296 96.4895 447.348 96.5901C447.402 96.6903 447.433 96.7993 447.44 96.9107C447.447 97.022 447.429 97.1335 447.387 97.2385C447.346 97.3434 447.282 97.4397 447.198 97.5216C447.115 97.6036 447.015 97.6694 446.903 97.7153C444.689 98.6718 442.5 99.707 440.397 100.81C440.255 100.885 440.092 100.924 439.927 100.922H439.94ZM525.476 97.8954C525.339 97.8975 525.204 97.8706 525.08 97.8166C522.879 96.8489 520.616 95.96 518.34 95.161C518.222 95.1215 518.113 95.0604 518.022 94.9815C517.931 94.9027 517.858 94.8077 517.808 94.7024C517.758 94.5971 517.733 94.4837 517.733 94.3691C517.733 94.2545 517.758 94.1411 517.808 94.0358C517.852 93.9283 517.919 93.8299 518.005 93.7467C518.092 93.6635 518.196 93.5973 518.312 93.552C518.428 93.5067 518.552 93.4834 518.678 93.4834C518.804 93.4834 518.929 93.5067 519.045 93.552C521.358 94.3621 523.67 95.2736 525.921 96.2638C526.107 96.3488 526.256 96.4882 526.344 96.6596C526.433 96.831 526.455 97.0244 526.408 97.2087C526.361 97.3931 526.247 97.5577 526.085 97.6761C525.923 97.7945 525.721 97.8598 525.513 97.8616L525.476 97.8954ZM452.172 95.6449C451.985 95.642 451.803 95.5892 451.65 95.4932C451.496 95.3971 451.376 95.2621 451.306 95.1048C451.256 94.9995 451.23 94.8861 451.23 94.7715C451.23 94.6569 451.256 94.5435 451.306 94.4382C451.356 94.3329 451.428 94.2379 451.52 94.1591C451.611 94.0802 451.719 94.0191 451.838 93.9795C454.15 93.1581 456.537 92.4042 458.924 91.7291C459.161 91.6649 459.415 91.6887 459.632 91.7953C459.849 91.9019 460.01 92.0825 460.081 92.2973C460.151 92.5122 460.125 92.7438 460.008 92.9411C459.891 93.1384 459.692 93.2853 459.456 93.3494C457.119 93.9795 454.781 94.7222 452.518 95.5211C452.408 95.5609 452.29 95.5801 452.172 95.5774V95.6449ZM512.774 93.3944C512.684 93.4105 512.592 93.4105 512.502 93.3944C510.177 92.753 507.79 92.1904 505.403 91.7178C505.28 91.6912 505.165 91.6429 505.063 91.5756C504.96 91.5084 504.874 91.4235 504.808 91.3258C504.675 91.1285 504.633 90.891 504.692 90.6657C504.751 90.4404 504.906 90.2457 505.123 90.1243C505.34 90.003 505.601 89.965 505.848 90.0187C508.322 90.5026 510.721 91.0764 513.096 91.7403C513.213 91.7725 513.322 91.8254 513.417 91.8961C513.511 91.9667 513.59 92.0537 513.647 92.152C513.705 92.2504 513.74 92.3581 513.752 92.4689C513.763 92.5798 513.75 92.6917 513.714 92.7981C513.654 92.9703 513.536 93.1208 513.376 93.228C513.216 93.3351 513.022 93.3934 512.824 93.3944H512.774ZM465.158 91.9204C464.949 91.9203 464.745 91.8557 464.581 91.7372C464.417 91.6187 464.302 91.4533 464.255 91.2677C464.203 91.0486 464.248 90.8196 464.38 90.6302C464.512 90.4408 464.72 90.3061 464.96 90.255C467.372 89.7487 469.845 89.3211 472.319 88.9948C472.443 88.9697 472.572 88.9682 472.697 88.9903C472.822 89.0124 472.94 89.0577 473.045 89.1234C473.15 89.189 473.239 89.2736 473.307 89.3719C473.374 89.4702 473.418 89.58 473.437 89.6946C473.456 89.8092 473.448 89.926 473.415 90.0379C473.382 90.1498 473.324 90.2542 473.245 90.3448C473.166 90.4354 473.067 90.5101 472.954 90.5644C472.842 90.6186 472.718 90.6512 472.591 90.6601C470.117 90.9864 467.743 91.4028 465.368 91.9091L465.158 91.9204ZM499.565 90.6263H499.429C497.018 90.3 494.556 90.0637 492.12 89.9175C491.991 89.9206 491.862 89.8993 491.743 89.8547C491.623 89.8101 491.515 89.7433 491.426 89.6586C491.336 89.5738 491.267 89.473 491.223 89.3626C491.179 89.2522 491.161 89.1346 491.169 89.0173C491.178 88.9001 491.213 88.7858 491.273 88.6817C491.333 88.5776 491.417 88.4861 491.518 88.413C491.619 88.3399 491.736 88.2869 491.861 88.2572C491.986 88.2276 492.116 88.222 492.244 88.2408C494.717 88.3871 497.191 88.6234 499.664 88.9498C499.893 88.9839 500.099 89.0947 500.243 89.2603C500.386 89.4259 500.456 89.6344 500.439 89.8447C500.422 90.0549 500.319 90.2517 500.151 90.3964C499.982 90.5411 499.76 90.6231 499.528 90.6263H499.565ZM478.639 90.0187C478.393 90.0277 478.153 89.9473 477.972 89.7954C477.791 89.6435 477.684 89.4324 477.674 89.2086C477.664 88.9847 477.753 88.7665 477.92 88.6019C478.087 88.4373 478.319 88.3398 478.565 88.3309C481.038 88.1508 483.574 88.0496 486.06 88.0496C486.306 88.0496 486.542 88.1385 486.716 88.2967C486.889 88.455 486.987 88.6697 486.987 88.8935C486.987 89.1173 486.889 89.332 486.716 89.4902C486.542 89.6485 486.306 89.7374 486.06 89.7374C483.586 89.7374 481.112 89.8387 478.713 90.0187H478.639Z" fill="#E3BEBE"/>
</svg>
