<svg width="554" height="514" viewBox="0 0 554 514" fill="none" xmlns="http://www.w3.org/2000/svg">
<path d="M276.452 345.569C262.66 314.261 264.7 262.983 271.092 258.714C278.124 254.03 289.26 278.068 300.407 271.035C311.555 264.003 319.168 248.752 309.788 224.714C300.407 200.676 288.098 216.508 279.298 222.342C270.499 228.177 263.467 222.935 265.234 201.827C266.526 186.256 272.598 157.64 275.705 143.718C277.104 144.322 278.504 144.904 279.879 145.58C252.331 132.677 221.842 128.574 208.951 132.677C196.06 136.78 198.397 137.954 204.836 153.193C218.296 184.987 167.338 195.885 152.657 171.396C143.869 156.739 156.795 148.509 153.273 137.954C149.751 127.4 84.6812 139.709 76.4748 144.406C76.4748 144.406 92.2947 191.841 89.9584 208.894C87.6222 225.948 79.404 233.525 67.0944 221.204C54.7848 208.883 38.9531 220.018 38.3602 240.558C37.7672 261.098 41.2894 277.487 55.3659 272.802C69.4425 268.118 80.578 251.112 85.2623 272.802C89.9466 294.492 81.7046 322.61 77.0559 342.568C77.0559 342.568 113.997 358.4 130.99 357.226C147.984 356.052 158.551 355.471 153.273 344.917C147.996 334.362 139.197 327.33 145.648 315.601C152.099 303.873 177.892 305.047 191.376 307.976C204.86 310.905 210.73 320.878 206.627 332.014C202.524 343.15 195.479 354.297 208.382 356.633C220.537 358.851 251.454 353.763 281.907 343.849C280.105 344.43 278.231 345 276.452 345.569Z" stroke="#263238" stroke-width="0.929397" stroke-miterlimit="10"/>
<path d="M287.505 341.976C285.702 342.592 283.888 343.161 282.085 343.79C283.888 343.197 285.702 342.592 287.505 341.976Z" stroke="#263238" stroke-width="0.929397" stroke-miterlimit="10"/>
<path d="M501.499 215.915C490.364 215.915 489.771 224.714 478.042 222.959C466.314 221.204 465.152 194.225 477.461 146.742C477.461 146.742 463.978 156.703 433.488 157.296C402.999 157.889 390.689 154.355 398.315 143.22C405.94 132.084 411.798 123.285 405.347 114.497C398.896 105.71 367.825 106.872 357.911 114.497C347.997 122.123 354.982 130.91 362.014 140.872C369.047 150.833 360.828 156.703 349.112 157.296C337.395 157.889 307.487 158.482 279.927 145.568C278.551 144.916 277.152 144.311 275.752 143.706C272.645 157.664 266.574 186.28 265.281 201.815C263.514 222.924 270.546 228.201 279.346 222.331C288.145 216.461 300.455 200.641 309.835 224.703C319.215 248.764 311.59 263.979 300.455 271.024C289.319 278.068 278.124 254.03 271.116 258.714C264.724 262.983 262.684 314.261 276.476 345.569C280.164 344.383 283.852 343.197 287.528 342.011C319.773 330.864 352.017 325.587 357.888 333.212C363.758 340.837 361.445 339.663 353.784 351.392C346.123 363.12 346.74 373.082 359.643 378.94C372.545 384.798 404.197 383.684 407.078 370.153C409.96 356.622 393.595 349.044 401.22 336.141C408.845 323.239 476.275 341.976 476.275 341.976C476.275 341.976 461.037 290.377 466.895 273.372C472.753 256.366 477.461 260.517 486.842 266.92C496.222 273.324 508.532 272.791 513.228 254.03C517.924 235.269 512.635 215.915 501.499 215.915Z" stroke="#263238" stroke-width="0.929397" stroke-miterlimit="10"/>
<path d="M466.639 91.5697C481.564 84.524 487.952 66.713 480.907 51.7876C473.861 36.8623 456.05 30.4745 441.125 37.5201C426.199 44.5657 419.811 62.3767 426.857 77.3021C433.903 92.2275 451.714 98.6153 466.639 91.5697Z" fill="#92E3A9" stroke="#263238" stroke-width="0.929397" stroke-miterlimit="10"/>
<path d="M456.396 89.0352C469.896 87.6496 479.716 75.5828 478.331 62.0831C476.945 48.5834 464.878 38.763 451.379 40.1485C437.879 41.534 428.058 53.6009 429.444 67.1006C430.83 80.6002 442.896 90.4207 456.396 89.0352Z" fill="white" stroke="#263238" stroke-width="0.929397" stroke-miterlimit="10"/>
<path d="M461.572 80.749C470.497 76.5035 474.291 65.8268 470.045 56.9019C465.8 47.977 455.123 44.1836 446.198 48.4291C437.273 52.6746 433.48 63.3513 437.725 72.2762C441.971 81.2011 452.647 84.9945 461.572 80.749Z" fill="#92E3A9" stroke="#263238" stroke-width="0.929397" stroke-miterlimit="10"/>
<path d="M465.176 64.5711C465.176 62.3359 464.513 60.1508 463.271 58.2923C462.029 56.4338 460.264 54.9852 458.199 54.1298C456.134 53.2744 453.862 53.0506 451.669 53.4867C449.477 53.9228 447.463 54.9991 445.883 56.5797C444.302 58.1602 443.226 60.174 442.79 62.3663C442.354 64.5586 442.577 66.8309 443.433 68.896C444.288 70.9611 445.737 72.7262 447.595 73.968C449.454 75.2099 451.639 75.8727 453.874 75.8727C455.359 75.8742 456.829 75.583 458.201 75.0156C459.573 74.4482 460.819 73.6158 461.869 72.566C462.919 71.5163 463.751 70.2697 464.319 68.8979C464.886 67.526 465.177 66.0557 465.176 64.5711Z" fill="white" stroke="#263238" stroke-width="0.929397" stroke-miterlimit="10"/>
<path d="M459.116 64.5719C459.118 63.5347 458.813 62.5201 458.238 61.6565C457.663 60.793 456.846 60.1193 455.888 59.7208C454.931 59.3222 453.876 59.2167 452.859 59.4176C451.841 59.6185 450.906 60.1168 450.172 60.8494C449.438 61.582 448.937 62.5159 448.734 63.533C448.531 64.5501 448.634 65.6047 449.03 66.5632C449.427 67.5216 450.098 68.341 450.961 68.9175C451.823 69.4939 452.837 69.8017 453.874 69.8017C455.262 69.8017 456.594 69.2511 457.576 68.2706C458.559 67.2902 459.112 65.96 459.116 64.5719Z" fill="#92E3A9" stroke="#263238" stroke-width="0.929397" stroke-miterlimit="10"/>
<path d="M456.044 56.377L453.886 64.5715L461.618 66.2673L456.044 56.377Z" fill="#263238" stroke="#263238" stroke-width="0.929397" stroke-miterlimit="10"/>
<path d="M459.341 60.9426L493.34 42.4189" stroke="#263238" stroke-width="1.85879" stroke-miterlimit="10"/>
<path d="M482.43 48.5137L482.94 39.6314L498.914 30.5V40.6394L482.43 48.5137Z" fill="#263238" stroke="#263238" stroke-width="0.929397" stroke-miterlimit="10"/>
<path d="M505.769 45.4663L498.772 40.3076L482.359 48.9291L490.269 53.5066L505.769 45.4663Z" fill="#263238" stroke="#263238" stroke-width="0.929397" stroke-miterlimit="10"/>
<path d="M297.217 66.3857H285.335V94.6812H297.217V66.3857Z" fill="#92E3A9" stroke="#263238" stroke-width="0.929397" stroke-miterlimit="10"/>
<path d="M314.733 57.8125H302.85V94.682H314.733V57.8125Z" fill="#92E3A9" stroke="#263238" stroke-width="0.929397" stroke-miterlimit="10"/>
<path d="M332.249 66.3857H320.366V94.6812H332.249V66.3857Z" fill="#92E3A9" stroke="#263238" stroke-width="0.929397" stroke-miterlimit="10"/>
<path d="M349.776 55.9502H337.894V94.6815H349.776V55.9502Z" fill="#92E3A9" stroke="#263238" stroke-width="0.929397" stroke-miterlimit="10"/>
<path d="M367.292 41.7793H355.409V94.682H367.292V41.7793Z" fill="#92E3A9" stroke="#263238" stroke-width="0.929397" stroke-miterlimit="10"/>
<path d="M351.52 19.3657L356.156 21.3462L324.623 51.6102L309.563 43.3919L285.702 57.8954V62.2714L309.657 47.7086L325.24 56.2115L358.742 24.05L360.532 28.758L367.161 13.377L351.52 19.3657Z" fill="#263238" stroke="#263238" stroke-width="0.929397" stroke-linecap="round" stroke-linejoin="round"/>
<path d="M213.174 93.494C229.242 89.7223 239.21 73.6391 235.439 57.571C231.667 41.503 215.584 31.5348 199.516 35.3065C183.448 39.0782 173.479 55.1615 177.251 71.2295C181.023 87.2976 197.106 97.2657 213.174 93.494Z" fill="white" stroke="#263238" stroke-width="0.929397" stroke-miterlimit="10"/>
<path d="M212.252 90.3059C226.555 87.0406 235.503 72.7988 232.238 58.4959C228.972 44.193 214.73 35.2452 200.428 38.5105C186.125 41.7758 177.177 56.0177 180.442 70.3206C183.707 84.6235 197.949 93.5712 212.252 90.3059Z" fill="#92E3A9" stroke="#263238" stroke-width="0.929397" stroke-miterlimit="10"/>
<path d="M209.997 88.2347C223.077 86.2074 232.038 73.9602 230.01 60.8798C227.983 47.7994 215.736 38.8391 202.655 40.8664C189.575 42.8937 180.615 55.1409 182.642 68.2213C184.669 81.3017 196.916 90.262 209.997 88.2347Z" fill="white" stroke="#263238" stroke-width="0.929397" stroke-miterlimit="10"/>
<path d="M205.975 85.076V81.2693C204.792 81.307 203.616 81.0855 202.528 80.6205C201.44 80.1555 200.467 79.4581 199.678 78.5774C198.278 76.8855 197.527 74.3595 197.424 70.9995L203.2 70.0152C203.219 71.1696 203.362 72.3186 203.627 73.4424C203.782 74.2227 204.156 74.9426 204.706 75.5177C204.946 75.7449 205.229 75.9218 205.539 76.0379C205.848 76.154 206.178 76.207 206.508 76.1937C206.844 76.2323 207.185 76.1762 207.491 76.0316C207.797 75.887 208.056 75.6597 208.24 75.3754C208.565 74.8013 208.729 74.1497 208.714 73.4899C208.769 72.2333 208.433 70.9906 207.753 69.9322C207.001 68.8713 206.112 67.9143 205.109 67.086L201.634 64.1094C200.877 63.4064 200.168 62.6537 199.511 61.8562C198.872 61.0709 198.368 60.1854 198.017 59.2354C197.625 58.1158 197.436 56.935 197.46 55.7489C197.405 54.6634 197.57 53.5781 197.948 52.5587C198.325 51.5394 198.905 50.6074 199.654 49.8194C201.261 48.3477 203.345 47.5055 205.524 47.4476V43.7002H207.493V47.3528C208.763 47.3723 210.008 47.7151 211.11 48.3489C211.995 48.9113 212.722 49.6911 213.22 50.614C213.719 51.5237 214.079 52.5031 214.288 53.5194C214.499 54.5277 214.634 55.5504 214.691 56.579L208.844 57.4329C208.831 56.5344 208.748 55.6383 208.595 54.7527C208.512 54.0907 208.259 53.4616 207.86 52.9265C207.656 52.7013 207.401 52.5287 207.116 52.4234C206.831 52.3181 206.525 52.2832 206.224 52.3217C205.881 52.3164 205.543 52.396 205.239 52.5532C204.935 52.7105 204.674 52.9405 204.48 53.2229C204.089 53.7866 203.882 54.4578 203.887 55.1441C203.834 56.2254 204.152 57.2925 204.789 58.1681C205.412 58.9612 206.098 59.7028 206.84 60.3857L210.232 63.3268C211.132 64.1477 211.968 65.0357 212.734 65.9832C213.498 66.9474 214.118 68.0181 214.572 69.1613C215.057 70.4328 215.295 71.7853 215.272 73.146C215.29 74.5139 214.985 75.8668 214.383 77.095C213.797 78.2515 212.913 79.2302 211.821 79.9293C210.645 80.6814 209.3 81.1297 207.908 81.2338V85.076H205.975Z" fill="#263238"/>
<path d="M109.49 41.2695H54.0022V93.437H109.49V41.2695Z" fill="white" stroke="#263238" stroke-width="0.929397" stroke-miterlimit="10"/>
<path d="M109.49 41.2695H54.0022V54.682H109.49V41.2695Z" fill="#92E3A9" stroke="#263238" stroke-width="0.929397" stroke-linecap="round" stroke-linejoin="round"/>
<path d="M65.1493 62.1289H58.5083V68.7699H65.1493V62.1289Z" fill="#92E3A9" stroke="#263238" stroke-width="0.929397" stroke-linecap="round" stroke-linejoin="round"/>
<path d="M75.111 62.1289H68.47V68.7699H75.111V62.1289Z" fill="#92E3A9" stroke="#263238" stroke-width="0.929397" stroke-linecap="round" stroke-linejoin="round"/>
<path d="M85.0607 62.1289H78.4197V68.7699H85.0607V62.1289Z" fill="#92E3A9" stroke="#263238" stroke-width="0.929397" stroke-linecap="round" stroke-linejoin="round"/>
<path d="M95.0221 62.1289H88.3811V68.7699H95.0221V62.1289Z" fill="#92E3A9" stroke="#263238" stroke-width="0.929397" stroke-linecap="round" stroke-linejoin="round"/>
<path d="M104.984 62.1289H98.3428V68.7699H104.984V62.1289Z" fill="#92E3A9" stroke="#263238" stroke-width="0.929397" stroke-linecap="round" stroke-linejoin="round"/>
<path d="M65.1493 72.5645H58.5083V79.2055H65.1493V72.5645Z" fill="#92E3A9" stroke="#263238" stroke-width="0.929397" stroke-linecap="round" stroke-linejoin="round"/>
<path d="M75.111 72.5645H68.47V79.2055H75.111V72.5645Z" fill="#92E3A9" stroke="#263238" stroke-width="0.929397" stroke-linecap="round" stroke-linejoin="round"/>
<path d="M85.0607 72.5645H78.4197V79.2055H85.0607V72.5645Z" fill="#92E3A9" stroke="#263238" stroke-width="0.929397" stroke-linecap="round" stroke-linejoin="round"/>
<path d="M95.0221 72.5645H88.3811V79.2055H95.0221V72.5645Z" fill="#92E3A9" stroke="#263238" stroke-width="0.929397" stroke-linecap="round" stroke-linejoin="round"/>
<path d="M104.984 72.5645H98.3428V79.2055H104.984V72.5645Z" fill="#92E3A9" stroke="#263238" stroke-width="0.929397" stroke-linecap="round" stroke-linejoin="round"/>
<path d="M65.1493 83H58.5083V89.641H65.1493V83Z" fill="#92E3A9" stroke="#263238" stroke-width="0.929397" stroke-linecap="round" stroke-linejoin="round"/>
<path d="M75.111 83H68.47V89.641H75.111V83Z" fill="#92E3A9" stroke="#263238" stroke-width="0.929397" stroke-linecap="round" stroke-linejoin="round"/>
<path d="M85.0607 83H78.4197V89.641H85.0607V83Z" fill="#92E3A9" stroke="#263238" stroke-width="0.929397" stroke-linecap="round" stroke-linejoin="round"/>
<path d="M95.0221 83H88.3811V89.641H95.0221V83Z" fill="#92E3A9" stroke="#263238" stroke-width="0.929397" stroke-linecap="round" stroke-linejoin="round"/>
<path d="M104.984 83H98.3428V89.641H104.984V83Z" fill="#92E3A9" stroke="#263238" stroke-width="0.929397" stroke-linecap="round" stroke-linejoin="round"/>
<path d="M66.3354 32.7305H61.5918V45.5381H66.3354V32.7305Z" fill="#263238"/>
<path d="M78.1943 32.7305H73.4507V45.5381H78.1943V32.7305Z" fill="#263238"/>
<path d="M90.0414 32.7305H85.2979V45.5381H90.0414V32.7305Z" fill="#263238"/>
<path d="M101.901 32.7305H97.157V45.5381H101.901V32.7305Z" fill="#263238"/>
<path d="M5.74815 430.954C8.32154 432.08 14.6186 431.938 14.6186 431.938C14.6186 431.938 13.2667 427.823 13.1481 427.574C11.7606 424.68 7.39654 419.913 3.83886 420.387C3.25057 420.484 2.68921 420.703 2.19132 421.031C1.69343 421.359 1.27017 421.788 0.949096 422.29C0.628025 422.793 0.416341 423.357 0.327823 423.946C0.239305 424.536 0.275939 425.138 0.435341 425.712C1.02829 428.167 3.55424 430.005 5.74815 430.954Z" fill="#92E3A9"/>
<path d="M7.91823 449.205C10.5865 449.584 16.2195 447.959 16.6583 447.829C17.5797 451.045 18.7168 454.194 20.0618 457.257C20.8326 459.048 21.6746 460.815 22.5284 462.605C22.0185 461.846 21.556 461.182 21.473 461.099C19.3858 458.668 13.907 455.17 10.6102 456.628C10.0677 456.875 9.58321 457.233 9.18854 457.679C8.79387 458.125 8.49787 458.65 8.31989 459.219C8.14191 459.787 8.08597 460.387 8.15571 460.979C8.22546 461.571 8.41932 462.141 8.72463 462.653C9.91053 464.87 12.8634 465.973 15.2352 466.317C17.607 466.661 22.4573 465.38 23.7262 465.013C24.0582 465.689 24.3903 466.376 24.7342 467.052C26.3589 470.29 27.9954 473.515 29.4778 476.729C30.0114 477.856 30.4976 478.994 30.9839 480.133C30.5214 479.457 30.1419 478.947 30.0707 478.828C27.9717 476.456 22.4929 472.958 19.1961 474.357C18.6564 474.609 18.1755 474.97 17.7843 475.419C17.3931 475.868 17.1003 476.393 16.9248 476.962C16.7494 477.531 16.6952 478.13 16.7657 478.721C16.8362 479.312 17.0299 479.882 17.3342 480.394C18.5201 482.611 21.4849 483.702 23.8448 484.046C26.2047 484.39 30.6044 483.228 32.146 482.86C32.6085 484.046 33.071 485.232 33.4742 486.418C33.7233 487.213 34.0316 487.972 34.2332 488.79C34.4348 489.608 34.6839 490.379 34.8973 491.162C35.2649 492.691 35.6563 494.269 35.9765 495.775C36.2137 496.818 36.4153 497.826 36.6169 498.822C36.0951 497.696 35.0396 495.502 34.9329 495.324C33.2252 492.608 28.3393 488.375 24.8647 489.252C24.3009 489.417 23.7774 489.696 23.3269 490.073C22.8764 490.45 22.5087 490.916 22.247 491.441C21.9852 491.967 21.8351 492.541 21.806 493.128C21.7769 493.714 21.8694 494.301 22.0778 494.85C22.9435 497.222 25.6355 498.763 28.0073 499.463C30.5214 500.222 36.0951 499.522 36.7947 499.463C37.1268 501.135 37.4351 502.76 37.7079 504.289C38.3008 507.693 38.7515 510.729 39.0954 513.302H41.4672C41.0521 510.634 40.5185 507.468 39.8069 503.91C39.4749 502.214 39.0835 500.412 38.621 498.562C40.3021 497.889 41.9416 497.117 43.5306 496.249C45.3688 498.241 50.0649 500.566 50.646 500.862C50.0056 502.439 49.3652 503.969 48.7367 505.392C47.4322 508.393 46.1989 511.049 45.1079 513.302H47.6575C48.5944 511.215 49.6261 508.843 50.6934 506.187C51.3575 504.586 52.0216 502.866 52.6976 501.099C53.3736 501.242 58.888 502.356 61.4613 501.775C63.8331 501.254 66.62 499.937 67.6754 497.625C67.9375 497.088 68.0838 496.503 68.1048 495.906C68.1258 495.309 68.0211 494.715 67.7974 494.161C67.5737 493.608 67.2361 493.107 66.8065 492.693C66.3769 492.278 65.8648 491.958 65.3036 491.755C61.9001 490.569 56.7178 494.482 54.8085 497.055C54.7017 497.21 53.6226 498.988 53.0296 500.127C53.3024 499.404 53.5751 498.704 53.836 497.957C54.3816 496.474 54.8796 494.98 55.4252 493.379L56.1367 491.007C56.3857 490.213 56.5518 489.359 56.7771 488.517C57.2396 486.584 57.6072 484.592 57.963 482.588C59.2674 483.062 63.8924 484.675 66.2642 484.497C68.636 484.319 71.6482 483.453 73.0238 481.331C73.3679 480.843 73.6051 480.289 73.72 479.704C73.8349 479.118 73.8249 478.516 73.6905 477.934C73.5562 477.353 73.3005 476.807 72.9404 476.332C72.5803 475.856 72.1237 475.462 71.6007 475.176C68.4107 473.539 62.6947 476.563 60.4296 478.828C60.2873 478.971 58.8405 480.773 58.0578 481.781C58.2476 480.595 58.4492 479.409 58.6033 478.129C59.0421 474.571 59.3742 470.954 59.7892 467.349C59.896 466.246 60.0146 465.143 60.1331 464.04C60.5956 464.218 66.0626 466.246 68.7427 466.068C71.1145 465.89 74.1148 465.024 75.5023 462.902C75.8446 462.414 76.0803 461.86 76.1941 461.275C76.308 460.69 76.2975 460.088 76.1633 459.507C76.029 458.926 75.7741 458.381 75.415 457.905C75.056 457.43 74.6009 457.035 74.0793 456.747C70.8892 455.099 65.1732 458.123 62.8963 460.388C62.7303 460.554 60.6549 463.163 60.1569 463.85C60.4059 461.419 60.6905 459.012 61.0581 456.64C61.5459 453.438 62.2351 450.269 63.1216 447.153C63.3351 447.236 69.0511 449.383 71.7786 449.193C74.1504 449.027 77.1626 448.149 78.5382 446.026C78.8804 445.539 79.1161 444.984 79.23 444.399C79.3439 443.815 79.3334 443.212 79.1991 442.632C79.0649 442.051 78.81 441.505 78.4509 441.03C78.0919 440.554 77.6368 440.16 77.1152 439.872C73.9251 438.223 68.2091 441.259 65.944 443.512C65.7661 443.69 63.5722 446.489 63.1572 447.07C63.1572 446.892 63.2521 446.702 63.2995 446.525C64.2817 443.43 65.5399 440.429 67.0588 437.559C67.8652 435.958 68.7427 434.476 69.6203 433.065C70.6402 433.575 75.3126 435.84 77.8148 435.946C80.3171 436.053 83.2699 435.496 84.9302 433.575C85.3252 433.128 85.6212 432.602 85.799 432.033C85.9767 431.463 86.0321 430.863 85.9616 430.271C85.8911 429.678 85.6962 429.108 85.3897 428.596C85.0832 428.084 84.672 427.643 84.1831 427.301C81.1946 425.309 75.1821 427.704 72.6799 429.673C72.5376 429.78 71.2806 431.037 70.3793 431.962C70.7825 431.333 71.1857 430.669 71.5652 430.064C73.0594 427.811 74.5773 425.831 75.9293 424.135C76.712 423.151 77.4353 422.285 78.1232 421.467C79.3802 421.467 84.4558 421.289 86.6735 420.281C88.8911 419.273 91.3222 417.375 91.844 414.897C91.9876 414.317 92.0075 413.714 91.9023 413.127C91.7971 412.539 91.5692 411.98 91.2335 411.487C90.8978 410.993 90.4618 410.576 89.954 410.263C89.4461 409.949 88.8779 409.746 88.2863 409.667C84.7286 409.287 80.4831 414.173 79.1786 417.102C79.0719 417.352 77.7674 421.514 77.8267 421.514H77.8148C77.1389 422.285 76.4155 423.115 75.6565 424.04C74.2571 425.748 72.7036 427.704 71.1501 429.969C69.4197 432.358 67.8356 434.849 66.4065 437.429C64.8089 440.3 63.4715 443.308 62.4101 446.418V446.536C62.4101 445.481 62.4101 442.54 62.4101 442.315C61.995 439.136 59.3267 433.243 55.8046 432.59C55.2154 432.498 54.6134 432.531 54.0378 432.687C53.4621 432.843 52.9258 433.118 52.4637 433.495C52.0016 433.872 51.6242 434.342 51.3559 434.875C51.0877 435.408 50.9347 435.991 50.9069 436.587C50.7053 439.113 52.5316 441.639 54.3104 443.228C56.3264 445.03 61.912 446.785 62.3626 446.904C61.3553 450.097 60.5629 453.353 59.9908 456.652C59.6469 458.573 59.3623 460.518 59.1014 462.463C59.1014 461.562 59.1014 460.743 59.1014 460.637C58.6864 457.458 56.0181 451.565 52.496 450.912C51.9077 450.82 51.3067 450.853 50.7318 451.008C50.1569 451.163 49.6212 451.438 49.1593 451.813C48.6974 452.189 48.3197 452.658 48.0508 453.189C47.7818 453.72 47.6277 454.302 47.5982 454.897C47.3966 457.423 49.2229 459.949 51.0018 461.55C52.7806 463.151 57.5479 464.74 58.8049 465.107L58.5203 467.361C58.0934 470.918 57.6783 474.547 57.1684 478.034C56.9905 479.22 56.7652 480.477 56.5399 481.698C56.5399 480.892 56.5399 480.204 56.5399 480.109C56.1248 476.931 53.4684 471.025 49.9345 470.373C49.3455 470.282 48.7442 470.317 48.1693 470.473C47.5945 470.63 47.0589 470.906 46.5972 471.282C46.1356 471.659 45.7582 472.129 45.4893 472.66C45.2205 473.192 45.0663 473.774 45.0367 474.369C44.8351 476.895 46.6614 479.421 48.4521 481.01C50.2428 482.599 54.5239 484.058 56.0181 484.568C55.7572 485.754 55.4963 487.035 55.188 488.232C54.9626 489.027 54.7966 489.822 54.5239 490.604C54.2511 491.387 54.0139 492.193 53.7649 492.976C53.2194 494.458 52.6739 495.988 52.1165 497.423L50.9306 500.317C51.1204 499.131 51.4524 496.676 51.4524 496.463C51.409 493.646 50.6499 490.888 49.2466 488.446C49.2702 488.134 49.2702 487.821 49.2466 487.509C49.1651 486.922 48.9619 486.359 48.65 485.855C48.3381 485.351 47.9245 484.917 47.4356 484.583C46.9467 484.248 46.3932 484.019 45.8106 483.91C45.2281 483.801 44.6292 483.815 44.0524 483.951C40.5896 484.876 38.3838 490.96 38.2178 494.162C38.2178 494.352 38.3364 496.415 38.4313 497.72C38.2653 496.961 38.0992 496.237 37.9095 495.455C37.5419 493.925 37.1387 492.407 36.7236 490.77C36.4864 489.988 36.2374 489.193 36.0002 488.398C35.763 487.604 35.4428 486.786 35.1582 485.967C34.4823 484.094 33.6877 482.232 32.8576 480.37C34.1976 480.05 38.9531 478.84 40.8505 477.37C42.7479 475.899 44.764 473.527 44.7521 471.001C44.7672 470.405 44.657 469.813 44.4285 469.262C44.1999 468.711 43.8583 468.215 43.4256 467.804C42.993 467.394 42.4789 467.079 41.9169 466.88C41.3548 466.681 40.7571 466.602 40.1627 466.649C36.605 467.041 33.498 472.721 32.8576 475.864C32.8576 476.053 32.6085 478.354 32.5137 479.623C32.0037 478.508 31.4938 477.393 30.9483 476.279C29.3473 473.077 27.6396 469.875 25.9438 466.673L24.4022 463.732C24.8884 463.613 30.5569 462.297 32.7034 460.66C34.6127 459.202 36.6169 456.818 36.605 454.292C36.6201 453.696 36.5099 453.103 36.2814 452.553C36.0529 452.002 35.7112 451.505 35.2785 451.095C34.8459 450.685 34.3319 450.37 33.7698 450.171C33.2077 449.972 32.61 449.893 32.0156 449.94C28.4579 450.331 25.3509 456.012 24.7105 459.154C24.7105 459.391 24.3547 462.712 24.331 463.554C23.1451 461.384 22.1015 459.225 21.1054 457.043C19.7203 454.109 18.5318 451.087 17.5477 447.995C17.773 447.995 23.7025 446.596 25.8489 444.924C27.7464 443.465 29.7624 441.081 29.7387 438.555C29.7555 437.96 29.6468 437.367 29.4196 436.817C29.1925 436.266 28.852 435.769 28.4202 435.359C27.9885 434.948 27.4752 434.633 26.9137 434.434C26.3522 434.235 25.755 434.156 25.1611 434.203C21.6034 434.594 18.4964 440.275 17.8442 443.406C17.8442 443.655 17.4765 447.224 17.4647 447.876L17.2749 447.331C16.3934 444.208 15.7862 441.013 15.4605 437.785C15.2589 436.006 15.1759 434.286 15.1166 432.626C16.3025 432.484 21.4137 431.796 23.5483 430.503C25.6829 429.21 27.8531 427.111 28.114 424.574C28.1959 423.983 28.1524 423.382 27.9865 422.809C27.8207 422.237 27.536 421.705 27.1512 421.25C26.7663 420.795 26.2899 420.426 25.7529 420.167C25.2159 419.908 24.6304 419.765 24.0345 419.747C20.4768 419.747 16.7531 425.048 15.7333 428.048C15.7333 428.214 15.3182 429.958 15.081 431.238C15.081 430.479 15.081 429.709 15.081 428.985C15.081 426.269 15.2589 423.779 15.4249 421.585C15.5317 420.399 15.6503 419.213 15.7807 418.158C16.8124 417.446 20.9631 414.517 22.2438 412.418C23.5246 410.319 24.5089 407.426 23.572 405.078C23.3706 404.519 23.0539 404.008 22.6423 403.58C22.2308 403.152 21.7338 402.815 21.1835 402.591C20.6332 402.367 20.0419 402.262 19.4482 402.282C18.8545 402.301 18.2716 402.446 17.7374 402.706C14.5474 404.354 13.7054 410.77 14.1797 413.924C14.1797 414.197 15.4368 418.395 15.4842 418.36H15.5554C15.4131 419.368 15.2708 420.459 15.1522 421.644C14.9269 423.85 14.7015 426.329 14.6422 429.056C14.5418 431.991 14.6091 434.929 14.8438 437.856C15.1039 441.131 15.6515 444.377 16.4804 447.556V447.675C15.9112 446.785 14.2509 444.366 14.1086 444.188C12.0096 441.817 6.53073 438.318 3.23394 439.717C2.72817 439.973 2.27863 440.327 1.91182 440.759C1.54502 441.191 1.26836 441.692 1.09816 442.232C0.927967 442.772 0.867669 443.341 0.920824 443.906C0.973979 444.47 1.13951 445.017 1.40767 445.517C2.62914 447.758 5.54644 448.849 7.91823 449.205Z" fill="#92E3A9"/>
<path d="M69.4424 432.342C69.4424 432.342 70.6283 428.156 70.6283 427.883C71.079 424.716 70.0591 418.324 66.8335 416.759C66.29 416.513 65.7007 416.385 65.1042 416.383C64.5076 416.381 63.9174 416.505 63.3721 416.746C62.8268 416.988 62.3388 417.343 61.94 417.786C61.5413 418.23 61.2408 418.753 61.0582 419.321C60.1925 421.692 61.2835 424.622 62.588 426.626C64.1059 428.986 69.4306 432.342 69.4424 432.342Z" fill="#92E3A9"/>
<path d="M443.473 430.954C446.047 432.08 452.344 431.938 452.344 431.938C452.344 431.938 450.992 427.823 450.873 427.574C449.486 424.68 445.122 419.913 441.564 420.387C440.976 420.484 440.415 420.703 439.917 421.031C439.419 421.359 438.995 421.788 438.674 422.29C438.353 422.793 438.142 423.357 438.053 423.946C437.965 424.536 438.001 425.138 438.161 425.712C438.754 428.167 441.28 430.005 443.473 430.954Z" fill="#92E3A9"/>
<path d="M445.644 449.204C448.312 449.583 453.945 447.958 454.384 447.828C455.311 451.042 456.448 454.191 457.787 457.256C458.558 459.047 459.4 460.814 460.254 462.604C459.744 461.845 459.282 461.181 459.199 461.098C457.111 458.667 451.633 455.169 448.336 456.627C447.793 456.874 447.309 457.232 446.914 457.678C446.519 458.124 446.223 458.649 446.045 459.218C445.867 459.786 445.811 460.386 445.881 460.978C445.951 461.57 446.145 462.14 446.45 462.652C447.636 464.869 450.589 465.972 452.961 466.316C455.332 466.66 460.183 465.379 461.452 465.012C461.784 465.688 462.116 466.375 462.46 467.051C464.084 470.289 465.721 473.515 467.203 476.728C467.737 477.855 468.223 478.993 468.709 480.132C468.247 479.456 467.867 478.946 467.796 478.827C465.697 476.456 460.23 472.957 456.922 474.356C456.38 474.606 455.897 474.965 455.503 475.413C455.109 475.861 454.814 476.386 454.636 476.955C454.459 477.524 454.402 478.124 454.471 478.716C454.54 479.309 454.732 479.88 455.036 480.393C456.222 482.61 459.187 483.701 461.547 484.045C463.906 484.389 468.306 483.227 469.848 482.859C470.31 484.045 470.785 485.231 471.176 486.417C471.425 487.212 471.733 487.971 471.935 488.789C472.137 489.607 472.386 490.378 472.599 491.161C472.967 492.69 473.358 494.268 473.678 495.774C473.915 496.817 474.117 497.825 474.319 498.821C473.797 497.695 472.741 495.501 472.635 495.323C470.927 492.607 466.041 488.374 462.566 489.251C461.994 489.416 461.462 489.699 461.005 490.082C460.549 490.465 460.178 490.939 459.916 491.475C459.655 492.01 459.508 492.594 459.487 493.19C459.465 493.785 459.569 494.379 459.791 494.932C460.657 497.304 463.349 498.845 465.721 499.545C468.235 500.304 473.809 499.604 474.508 499.545C474.84 501.217 475.149 502.842 475.422 504.371C476.014 507.775 476.465 510.811 476.809 513.384H479.181C478.766 510.716 478.232 507.55 477.521 503.992C477.189 502.296 476.797 500.494 476.335 498.644C478.016 497.971 479.655 497.199 481.244 496.331C483.082 498.323 487.779 500.648 488.36 500.944C487.719 502.521 487.079 504.051 486.45 505.474C485.146 508.475 483.913 511.131 482.822 513.384H485.371C486.308 511.297 487.34 508.925 488.407 506.269C489.071 504.668 489.735 502.948 490.411 501.181C491.087 501.324 496.602 502.438 499.175 501.857C501.547 501.336 504.334 500.019 505.389 497.707C505.651 497.17 505.797 496.585 505.818 495.988C505.839 495.391 505.735 494.797 505.511 494.243C505.287 493.69 504.95 493.189 504.52 492.775C504.091 492.36 503.578 492.04 503.017 491.837C499.614 490.651 494.431 494.564 492.522 497.138C492.415 497.292 491.336 499.071 490.743 500.209C491.016 499.486 491.289 498.786 491.562 498.039C492.095 496.556 492.593 495.062 493.139 493.461L493.85 491.089C494.099 490.295 494.265 489.441 494.491 488.599C494.953 486.666 495.321 484.674 495.677 482.67C496.981 483.144 501.606 484.757 503.978 484.579C506.35 484.401 509.362 483.535 510.737 481.413C511.082 480.925 511.319 480.371 511.434 479.786C511.549 479.201 511.539 478.598 511.404 478.016C511.27 477.435 511.014 476.889 510.654 476.414C510.294 475.938 509.837 475.544 509.314 475.258C506.124 473.621 500.408 476.645 498.143 478.91C498.001 479.053 496.554 480.855 495.771 481.863C495.961 480.677 496.163 479.491 496.317 478.211C496.756 474.653 497.088 471.036 497.444 467.431C497.55 466.328 497.669 465.225 497.788 464.122C498.25 464.3 503.717 466.328 506.397 466.15C508.769 465.972 511.769 465.107 513.157 462.984C513.499 462.496 513.735 461.942 513.848 461.357C513.962 460.772 513.952 460.17 513.818 459.589C513.683 459.008 513.428 458.463 513.069 457.987C512.71 457.512 512.255 457.117 511.734 456.829C508.544 455.181 502.828 458.205 500.551 460.47C500.385 460.636 498.309 463.245 497.811 463.932C498.06 461.501 498.345 459.094 498.713 456.722C499.2 453.52 499.889 450.351 500.776 447.235C500.989 447.318 506.705 449.465 509.433 449.275C511.805 449.109 514.817 448.231 516.193 446.108C516.535 445.621 516.77 445.066 516.884 444.481C516.998 443.897 516.988 443.294 516.853 442.714C516.719 442.133 516.464 441.587 516.105 441.112C515.746 440.636 515.291 440.242 514.769 439.954C511.579 438.305 505.863 441.341 503.598 443.594C503.421 443.772 501.227 446.571 500.812 447.152C500.812 446.974 500.906 446.784 500.954 446.607C501.936 443.512 503.194 440.511 504.713 437.641C505.52 436.04 506.397 434.558 507.275 433.147C508.295 433.657 512.967 435.922 515.469 436.028C517.971 436.135 520.924 435.578 522.585 433.657C522.979 433.21 523.276 432.684 523.453 432.115C523.631 431.545 523.687 430.945 523.616 430.353C523.545 429.76 523.351 429.19 523.044 428.678C522.738 428.166 522.326 427.725 521.837 427.383C518.849 425.391 512.837 427.786 510.334 429.755C510.204 429.862 508.935 431.119 508.034 432.044C508.437 431.415 508.84 430.751 509.22 430.146C510.726 427.893 512.232 425.913 513.584 424.217C514.366 423.233 515.09 422.367 515.778 421.549C517.035 421.549 522.11 421.371 524.328 420.363C526.545 419.355 528.977 417.457 529.498 414.979C529.642 414.399 529.662 413.796 529.557 413.209C529.451 412.621 529.224 412.063 528.888 411.569C528.552 411.076 528.116 410.658 527.608 410.345C527.1 410.031 526.532 409.828 525.941 409.749C522.383 409.369 518.126 414.255 516.821 417.184C516.714 417.434 515.41 421.596 515.469 421.596H515.552C514.876 422.367 514.153 423.197 513.394 424.122C511.994 425.83 510.441 427.786 508.887 430.051C507.177 432.441 505.613 434.932 504.203 437.511C502.606 440.382 501.268 443.39 500.207 446.5C500.212 446.539 500.212 446.579 500.207 446.618C500.207 445.563 500.207 442.622 500.207 442.397C499.792 439.218 497.123 433.325 493.601 432.672C493.012 432.58 492.41 432.613 491.834 432.769C491.259 432.925 490.722 433.2 490.26 433.577C489.798 433.954 489.421 434.425 489.153 434.957C488.884 435.49 488.731 436.073 488.704 436.669C488.502 439.195 490.328 441.721 492.107 443.31C494.123 445.112 499.709 446.867 500.159 446.986C499.152 450.179 498.36 453.435 497.788 456.734C497.444 458.655 497.159 460.6 496.898 462.545C496.898 461.644 496.898 460.825 496.898 460.719C496.483 457.541 493.815 451.647 490.293 450.994C489.704 450.902 489.103 450.935 488.528 451.09C487.954 451.245 487.418 451.52 486.956 451.895C486.494 452.271 486.116 452.74 485.847 453.271C485.579 453.802 485.424 454.384 485.395 454.979C485.193 457.505 487.02 460.031 488.798 461.632C490.577 463.233 495.345 464.822 496.602 465.19C496.519 465.937 496.412 466.684 496.317 467.443C495.89 471 495.475 474.629 494.965 478.116C494.787 479.302 494.562 480.559 494.337 481.78C494.337 480.974 494.337 480.286 494.337 480.191C493.922 477.013 491.265 471.107 487.731 470.455C487.142 470.365 486.541 470.399 485.966 470.555C485.391 470.712 484.856 470.988 484.394 471.364C483.932 471.741 483.555 472.211 483.286 472.742C483.017 473.274 482.863 473.856 482.833 474.451C482.632 476.977 484.458 479.503 486.249 481.092C488.039 482.681 492.332 484.14 493.815 484.65C493.554 485.836 493.293 487.117 492.985 488.314C492.759 489.109 492.593 489.904 492.321 490.686C492.048 491.469 491.811 492.275 491.562 493.058C491.016 494.54 490.471 496.07 489.913 497.505L488.727 500.399C488.917 499.213 489.249 496.758 489.249 496.545C489.211 493.728 488.452 490.968 487.043 488.528C487.047 488.215 487.027 487.901 486.984 487.591C486.902 487.004 486.699 486.441 486.387 485.937C486.076 485.433 485.662 484.999 485.173 484.665C484.684 484.33 484.131 484.101 483.548 483.992C482.965 483.883 482.367 483.897 481.79 484.033C478.327 484.958 476.121 491.042 475.955 494.244C475.955 494.434 476.074 496.497 476.169 497.802C476.003 497.043 475.837 496.319 475.647 495.537C475.279 494.007 474.876 492.489 474.461 490.852C474.224 490.07 473.975 489.275 473.738 488.48C473.5 487.686 473.18 486.868 472.896 486.049C472.22 484.176 471.425 482.314 470.595 480.452C471.935 480.132 476.69 478.922 478.588 477.452C480.485 475.981 482.501 473.609 482.489 471.083C482.505 470.487 482.394 469.895 482.166 469.344C481.937 468.793 481.596 468.297 481.163 467.886C480.73 467.476 480.216 467.161 479.654 466.962C479.092 466.763 478.494 466.685 477.9 466.731C474.342 467.123 471.235 472.803 470.595 475.946C470.595 476.135 470.346 478.436 470.251 479.705C469.741 478.59 469.231 477.475 468.686 476.361C467.085 473.159 465.377 469.957 463.681 466.755L462.14 463.814C462.626 463.695 468.294 462.379 470.441 460.742C472.35 459.284 474.354 456.9 474.342 454.374C474.357 453.778 474.247 453.185 474.019 452.635C473.79 452.084 473.449 451.587 473.016 451.177C472.583 450.767 472.069 450.452 471.507 450.253C470.945 450.054 470.347 449.975 469.753 450.022C466.195 450.413 463.088 456.094 462.448 459.236C462.448 459.474 462.092 462.794 462.068 463.636C460.942 461.466 459.839 459.307 458.843 457.125C457.478 454.19 456.309 451.167 455.344 448.077C455.57 448.077 461.499 446.678 463.646 445.006C465.543 443.547 467.559 441.163 467.535 438.637C467.552 438.042 467.443 437.449 467.216 436.899C466.989 436.348 466.649 435.851 466.217 435.441C465.785 435.03 465.272 434.715 464.71 434.516C464.149 434.317 463.552 434.238 462.958 434.285C459.4 434.676 456.293 440.357 455.641 443.488C455.641 443.737 455.273 447.306 455.261 447.958L455.072 447.413C454.19 444.29 453.583 441.095 453.257 437.866C453.067 436.088 452.973 434.368 452.913 432.708C454.099 432.566 459.21 431.878 461.345 430.585C463.48 429.292 465.65 427.193 465.911 424.656C465.993 424.065 465.949 423.464 465.783 422.891C465.617 422.319 465.333 421.787 464.948 421.332C464.563 420.877 464.087 420.508 463.55 420.249C463.013 419.99 462.427 419.847 461.831 419.829C458.274 419.829 454.55 425.13 453.53 428.13C453.53 428.296 453.115 430.04 452.878 431.32C452.878 430.561 452.878 429.791 452.878 429.067C452.878 426.351 453.056 423.861 453.222 421.667C453.328 420.481 453.447 419.295 453.577 418.24C454.609 417.528 458.76 414.599 460.04 412.5C461.321 410.401 462.306 407.508 461.369 405.16C461.167 404.601 460.851 404.09 460.439 403.662C460.028 403.234 459.53 402.897 458.98 402.673C458.43 402.449 457.839 402.344 457.245 402.364C456.651 402.383 456.068 402.528 455.534 402.788C452.344 404.436 451.502 410.852 452.036 414.006C452.036 414.279 453.222 418.477 453.34 418.442H453.399C453.257 419.45 453.115 420.541 452.996 421.726C452.771 423.932 452.546 426.411 452.486 429.138C452.386 432.073 452.453 435.011 452.688 437.938C452.948 441.213 453.496 444.459 454.324 447.638V447.757C453.755 446.867 452.095 444.448 451.953 444.27C449.854 441.899 444.375 438.4 441.078 439.8C440.535 440.047 440.051 440.406 439.656 440.854C439.261 441.301 438.965 441.827 438.787 442.396C438.609 442.966 438.553 443.567 438.623 444.159C438.693 444.752 438.887 445.323 439.192 445.836C440.355 447.757 443.272 448.848 445.644 449.204Z" fill="#92E3A9"/>
<path d="M507.168 432.342C507.168 432.342 508.354 428.156 508.354 427.883C508.804 424.716 507.784 418.324 504.559 416.759C504.015 416.513 503.426 416.385 502.829 416.383C502.233 416.381 501.643 416.505 501.097 416.746C500.552 416.988 500.064 417.343 499.665 417.786C499.267 418.23 498.966 418.753 498.784 419.321C497.918 421.692 499.009 424.622 500.313 426.626C501.831 428.986 507.108 432.342 507.168 432.342Z" fill="#92E3A9"/>
<path d="M393.654 184.11C393.654 184.11 394.022 170.721 401.742 166.927C409.462 163.132 409.901 175.667 409.901 175.667C409.901 175.667 427.559 164.448 431.389 172.951C435.22 181.454 429.871 185.569 429.871 185.569C429.871 185.569 445.549 185.023 446.64 193.621C447.731 202.219 439.631 206.429 439.631 206.429C439.631 206.429 449.32 214.339 445.917 217.991C442.513 221.644 435.066 221.905 435.066 221.905C435.066 221.905 439.287 230.384 431.923 233.396C424.559 236.408 416.139 230.799 416.139 230.799C416.139 230.799 417.443 234.689 411.917 233.704C406.391 232.72 400.805 230.147 397.378 222.035C393.951 213.924 389.527 190.953 393.654 184.11Z" fill="#263238" stroke="#263238" stroke-width="0.929397" stroke-linecap="round" stroke-linejoin="round"/>
<path d="M312.136 442.694C312.136 442.694 307.736 459.487 307.807 461.348C307.878 463.21 306.348 467.432 307.641 468.63C310.061 470.603 312.625 472.391 315.314 473.978C316.409 473.964 317.479 473.639 318.397 473.041C318.694 472.775 318.933 472.45 319.098 472.086C319.263 471.723 319.352 471.33 319.358 470.93C319.358 470.302 317.591 467.669 317.354 467.053C317.116 466.436 320.591 458.407 321.907 454.411C322.893 450.843 323.599 447.203 324.018 443.524L312.136 442.694Z" fill="#BDBDBD" stroke="#263238" stroke-width="0.929397" stroke-miterlimit="10"/>
<path d="M316.915 454.387C316.915 454.387 314.412 460.316 314.246 461.336C314.08 462.356 310.689 465.202 311.139 467.479C311.59 469.756 316.594 469.151 319.061 462.415" fill="#BDBDBD"/>
<path d="M316.915 454.387C316.915 454.387 314.412 460.316 314.246 461.336C314.08 462.356 310.689 465.202 311.139 467.479C311.59 469.756 316.594 469.151 319.061 462.415" stroke="#263238" stroke-width="0.929397" stroke-miterlimit="10"/>
<path d="M328.121 351.476C328.121 351.476 326.022 385.724 325.228 388.748C324.433 391.772 314.899 419.392 312.8 427.883C311.512 433.14 310.597 438.482 310.06 443.869L322.856 446.561L330.043 414.992C330.043 414.992 339.435 386.222 337.526 372.739C336.547 364.881 333.276 357.486 328.121 351.476Z" fill="#4A7848" stroke="#263238" stroke-width="0.929397" stroke-miterlimit="10"/>
<path d="M394.781 513.266C394.935 505.819 395.243 495.774 395.967 490.023C397.153 480.085 401.398 473.942 405.762 461.561C410.126 449.181 410.506 432.91 410.506 432.91L332.355 435.638C332.355 435.638 323.295 469.234 317.804 493.948C316.314 500.288 315.444 506.758 315.207 513.266" fill="#4A7848"/>
<path d="M394.781 513.266C394.935 505.819 395.243 495.774 395.967 490.023C397.153 480.085 401.398 473.942 405.762 461.561C410.126 449.181 410.506 432.91 410.506 432.91L332.355 435.638C332.355 435.638 323.295 469.234 317.804 493.948C316.314 500.288 315.444 506.758 315.207 513.266" stroke="#263238" stroke-width="0.929397" stroke-miterlimit="10"/>
<path d="M342.589 448.232L407.612 450.058L408.988 445.03L342.589 448.232Z" fill="#263238" stroke="#263238" stroke-width="0.929397" stroke-linecap="round" stroke-linejoin="round"/>
<path d="M339.304 512.08C339.304 512.08 338.024 471.416 337.988 449.347L339.304 512.08Z" fill="white"/>
<path d="M339.304 512.08C339.304 512.08 338.024 471.416 337.988 449.347" stroke="#263238" stroke-width="0.929397" stroke-miterlimit="10"/>
<path d="M389.148 265.451L398.635 271.831C398.635 271.831 409.865 281.864 412.628 290.165C415.391 298.466 413.387 347.764 410.6 363.69C407.814 379.617 414.775 399.457 417.253 410.652C419.732 421.847 420.811 442.671 420.811 442.671C420.811 442.671 422.566 445.114 392.112 446.169C361.659 447.225 340.419 448.814 337.929 449.312C336.424 449.62 334.897 449.815 333.363 449.893L332.177 439.078L329.224 447.984L322.904 446.537C322.904 446.537 326.829 427.183 327.813 419.641C328.797 412.099 335.012 386.436 335.095 376.783C335.178 367.129 327.113 351.594 325.536 342.036C323.959 332.478 327.137 316.089 335.023 303.708C342.91 291.327 348.199 286.536 363.615 273.894C379.032 261.253 389.148 265.451 389.148 265.451Z" fill="#4A7848" stroke="#263238" stroke-width="0.929397" stroke-miterlimit="10"/>
<path d="M364.434 409.952L396.251 413.557L394.46 405.232L374.609 403.524" stroke="#263238" stroke-width="0.929397" stroke-miterlimit="10"/>
<path d="M353.31 403.062L351.697 408.517L359.678 409.418" stroke="#263238" stroke-width="0.929397" stroke-miterlimit="10"/>
<path d="M365.252 348.546C363.756 347.161 362.383 345.649 361.148 344.027" stroke="#263238" stroke-width="0.929397" stroke-miterlimit="10"/>
<path d="M376.316 357.891C376.316 357.891 372.96 355.354 369.284 352.199" stroke="#263238" stroke-width="0.929397" stroke-miterlimit="10"/>
<path d="M389.148 265.45C389.148 265.45 379.032 261.24 363.615 273.894C348.199 286.547 342.921 291.35 335 303.707C330.267 311.347 327.122 319.861 325.75 328.742C325.939 329.667 326.141 330.603 326.366 331.564C330.778 350.206 335.688 359.219 335.688 359.219C335.688 359.219 344.226 316.74 359.085 299.521C373.944 282.302 398.623 271.83 398.623 271.83L389.148 265.45Z" fill="#4A7848" stroke="#263238" stroke-width="0.929397" stroke-miterlimit="10"/>
<path d="M352.065 182.592C352.065 182.592 340.929 192.992 340.099 201.186C339.269 209.381 338.403 216.449 337.016 219.093C335.628 221.738 328.631 223.469 331.003 227.466C333.375 231.462 335.593 231.379 335.593 231.379C335.593 231.379 339.15 249.061 341.854 251.539C344.558 254.018 354.128 252.595 354.128 252.595L357.093 274.036C357.093 274.036 337.182 291.694 333.304 316.301C329.426 340.909 333.861 354.95 333.861 354.95C333.861 354.95 336.458 316.183 345.424 301.667C354.389 287.152 375.213 273.407 378.285 270.929C381.356 268.45 389.148 265.426 389.148 265.426C389.148 265.426 385.448 257.125 384.949 253.378C384.451 249.63 384.617 244.116 385.317 242.61C386.017 241.104 398.457 236.585 403.106 222.331C407.754 208.076 400.912 191.249 393.618 184.086C386.325 176.923 361.386 173.365 352.065 182.592Z" fill="#BDBDBD" stroke="#263238" stroke-width="0.929397" stroke-miterlimit="10"/>
<path d="M403.153 222.355C407.897 208.124 400.959 191.273 393.666 184.11C386.373 176.947 361.398 173.366 352.077 182.592C352.077 182.592 351.484 183.15 350.559 184.11C354.101 183.224 357.792 183.103 361.386 183.754C368.845 184.94 368.679 190.87 366.651 196.55C364.623 202.231 366.153 203.239 369.96 206.037C373.767 208.836 369.865 214.208 372.545 216.343C375.225 218.477 377.407 206.856 383.218 215.228C389.029 223.6 385.127 227.395 381.499 229.743C379.466 231.1 377.261 232.177 374.941 232.945C374.941 232.945 380.431 239.385 385.851 242.041C388.448 240.108 398.931 235.163 403.153 222.355Z" fill="#263238" stroke="#263238" stroke-width="0.929397" stroke-linecap="round" stroke-linejoin="round"/>
<path d="M341.629 234.51C341.629 234.51 349.396 233.87 352.99 230.407" stroke="#263238" stroke-width="0.929397" stroke-miterlimit="10"/>
<path d="M346.562 216.164C346.621 218.002 345.922 219.52 345.009 219.556C344.095 219.592 343.289 218.121 343.218 216.283C343.147 214.445 343.858 212.927 344.771 212.891C345.684 212.856 346.491 214.326 346.562 216.164Z" fill="#263238"/>
<path d="M343.218 208.658C343.218 208.658 345.72 205.29 349.302 209.263" stroke="#263238" stroke-width="0.929397" stroke-miterlimit="10"/>
<path d="M354.128 252.618L363.39 249.132L356.939 260.718L354.128 252.618Z" fill="#263238" stroke="#263238" stroke-width="0.929397" stroke-miterlimit="10"/>
<path d="M327.457 422.83L315.314 473.978L326.212 476.516L332.213 439.112L327.457 422.83Z" fill="white" stroke="#263238" stroke-width="0.929397" stroke-miterlimit="10"/>
<path d="M338.189 300.375C335.858 305.45 334.215 310.815 333.304 316.325C329.426 340.921 333.861 354.974 333.861 354.974C333.861 354.974 336.434 316.729 345.246 302C342.839 301.728 340.472 301.183 338.189 300.375Z" fill="white" stroke="#263238" stroke-width="0.929397" stroke-miterlimit="10"/>
<path d="M375.711 316.337L374.881 359.741L298.925 372.264L300.585 392.721C300.585 392.721 342.744 393.551 362.358 391.879C381.973 390.207 399.121 388.962 401.588 386.874C404.054 384.787 411.205 344.443 414.123 316.065C417.04 287.686 411.205 278.116 399.524 279.753" fill="#4A7848"/>
<path d="M375.711 316.337L374.881 359.741L298.925 372.264L300.585 392.721C300.585 392.721 342.744 393.551 362.358 391.879C381.973 390.207 399.121 388.962 401.588 386.874C404.054 384.787 411.205 344.443 414.123 316.065C417.04 287.686 411.205 278.116 399.524 279.753" stroke="#263238" stroke-width="0.929397" stroke-miterlimit="10"/>
<path d="M253.481 370.426L247.398 388.878L253.327 392.104C253.327 392.104 260.858 397.938 264.985 401.093C269.111 404.247 272.278 404.247 274.472 403.275C276.666 402.303 286.615 388.214 287.825 385.546C289.034 382.878 283.212 374.873 277.389 371.457C271.566 368.042 266.716 368.066 263.301 369.086C260.068 369.789 256.784 370.237 253.481 370.426Z" fill="white" stroke="#263238" stroke-width="0.929397" stroke-miterlimit="10"/>
<path d="M298.925 372.263L289.319 371.433C286.306 370.647 283.237 370.088 280.14 369.761C277.638 369.761 274.294 372.263 272.622 373.52C270.95 374.777 252.592 394.807 252.592 394.807C252.592 394.807 254.264 398.139 256.766 397.309C259.269 396.479 263.882 394.38 263.882 394.38C263.882 394.38 258.877 399.396 261.38 401.898C263.882 404.401 268.056 404.401 268.056 404.401L270.985 402.729C272.216 403.7 273.633 404.41 275.148 404.816C277.235 405.231 280.579 404.401 283.449 402.729C286.319 401.057 293.778 392.352 293.778 392.352L300.182 389.873L298.925 372.263Z" fill="#BDBDBD" stroke="#263238" stroke-width="0.929397" stroke-miterlimit="10"/>
<path d="M256.79 371.22C256.79 371.22 268.934 364.176 274.27 366.121C279.607 368.066 286.663 379.96 284.718 381.668C282.773 383.376 279.619 382.628 277.923 380.933C276.504 379.645 274.959 378.504 273.31 377.529C270.111 379.326 266.528 380.326 262.862 380.446" fill="white"/>
<path d="M256.79 371.22C256.79 371.22 268.934 364.176 274.27 366.121C279.607 368.066 286.663 379.96 284.718 381.668C282.773 383.376 279.619 382.628 277.923 380.933C276.504 379.645 274.959 378.504 273.31 377.529C270.111 379.326 266.528 380.326 262.862 380.446" stroke="#263238" stroke-width="0.929397" stroke-miterlimit="10"/>
<path d="M293.007 398.793L289.153 396.73C288.842 396.565 288.568 396.341 288.344 396.07C288.12 395.799 287.953 395.486 287.85 395.15C287.748 394.814 287.713 394.461 287.747 394.112C287.781 393.762 287.884 393.422 288.05 393.113C288.216 392.803 288.441 392.53 288.712 392.307C288.984 392.085 289.296 391.918 289.632 391.817C289.968 391.715 290.321 391.681 290.67 391.717C291.019 391.752 291.358 391.855 291.667 392.022L295.521 394.073C296.146 394.408 296.613 394.976 296.819 395.654C297.026 396.332 296.956 397.064 296.624 397.69C296.289 398.315 295.721 398.782 295.043 398.988C294.365 399.195 293.633 399.125 293.007 398.793Z" fill="white" stroke="#263238" stroke-width="0.929397" stroke-miterlimit="10"/>
<path d="M289.604 402.919L285.75 400.856C285.14 400.522 284.685 399.964 284.479 399.3C284.273 398.636 284.333 397.919 284.647 397.298C284.983 396.691 285.542 396.238 286.205 396.035C286.869 395.831 287.585 395.893 288.204 396.207L292.058 398.259C292.67 398.591 293.127 399.149 293.333 399.814C293.539 400.478 293.478 401.197 293.161 401.817C292.829 402.428 292.271 402.886 291.607 403.092C290.942 403.298 290.223 403.236 289.604 402.919Z" fill="white" stroke="#263238" stroke-width="0.929397" stroke-miterlimit="10"/>
<path d="M285.714 406.56L281.86 404.496C281.549 404.332 281.274 404.108 281.051 403.836C280.828 403.565 280.661 403.252 280.559 402.916C280.458 402.579 280.424 402.226 280.46 401.876C280.496 401.527 280.601 401.188 280.769 400.879C280.934 400.57 281.159 400.296 281.431 400.074C281.702 399.851 282.015 399.685 282.351 399.583C282.687 399.482 283.04 399.448 283.389 399.483C283.738 399.518 284.077 399.622 284.386 399.788L288.24 401.852C288.549 402.017 288.823 402.242 289.045 402.514C289.268 402.785 289.434 403.098 289.536 403.434C289.637 403.77 289.671 404.123 289.636 404.472C289.601 404.821 289.497 405.16 289.331 405.469C289.165 405.778 288.94 406.052 288.669 406.274C288.398 406.497 288.085 406.663 287.749 406.765C287.413 406.866 287.06 406.9 286.711 406.865C286.362 406.83 286.023 406.726 285.714 406.56Z" fill="white" stroke="#263238" stroke-width="0.929397" stroke-miterlimit="10"/>
<path d="M277.531 406.738L276.523 406.204C276.213 406.04 275.938 405.816 275.714 405.545C275.491 405.274 275.323 404.961 275.221 404.625C275.118 404.289 275.083 403.936 275.117 403.586C275.152 403.237 275.255 402.897 275.42 402.587C275.755 401.963 276.323 401.496 277.001 401.289C277.679 401.083 278.411 401.153 279.037 401.485L280.045 402.03C280.356 402.195 280.631 402.419 280.854 402.69C281.078 402.961 281.246 403.273 281.348 403.609C281.451 403.946 281.486 404.299 281.451 404.648C281.417 404.998 281.314 405.337 281.148 405.647C280.983 405.956 280.758 406.23 280.486 406.453C280.215 406.675 279.902 406.842 279.566 406.943C279.23 407.044 278.877 407.078 278.528 407.043C278.179 407.008 277.84 406.904 277.531 406.738Z" fill="white" stroke="#263238" stroke-width="0.929397" stroke-miterlimit="10"/>
<path d="M253.481 370.426L202.512 348.878L204.397 382.64L246.485 392.282L253.481 370.426Z" fill="#263238" stroke="#263238" stroke-width="0.929397" stroke-linecap="round" stroke-linejoin="round"/>
<path d="M246.485 392.282L253.481 370.426L246.354 367.271L246.212 367.995L239.689 390.634L246.485 392.282Z" fill="white" stroke="#263238" stroke-width="0.929397" stroke-miterlimit="10"/>
<path d="M173.872 235.376L186.917 241.436C186.917 241.436 192.396 256.959 190.57 257.41C188.743 257.861 175.046 246.915 175.046 246.915L173.872 235.376Z" fill="white" stroke="#263238" stroke-width="0.929397" stroke-linecap="round" stroke-linejoin="round"/>
<path d="M181.45 232.269L182.363 227.039C182.363 227.039 194.459 227.869 199.298 227.834C204.136 227.798 208.358 227.182 208.323 222.047C208.287 216.912 205.465 199.396 205.465 199.396C205.465 199.396 210.896 198.151 212.995 195.72C215.094 193.289 212.058 190.288 209.319 186.671C206.579 183.054 204.124 179.153 203.804 174.919C203.484 170.686 196.132 156.834 196.132 156.834C196.132 156.834 197.317 154.712 193.368 150.205C189.419 145.699 169.164 144.916 156.202 151.391C143.241 157.866 140.288 167.211 140.347 177.481C140.406 187.751 146.277 202.23 146.277 202.23C146.277 202.23 142.446 217.967 142.15 218.833C141.853 219.699 138.414 226.446 138.414 226.446C138.414 226.446 154.625 237.748 160.543 242.824C166.46 247.899 179.825 256.58 179.908 251.884C179.991 247.188 180.525 236.586 180.525 236.586L181.45 232.269Z" fill="white" stroke="#263238" stroke-width="0.929397" stroke-linecap="round" stroke-linejoin="round"/>
<path d="M199.321 183.221C199.393 184.976 198.989 186.411 198.408 186.435C197.827 186.458 197.282 185.071 197.222 183.316C197.163 181.561 197.543 180.126 198.136 180.102C198.728 180.078 199.238 181.466 199.321 183.221Z" fill="#263238"/>
<path d="M190.819 177.422C190.819 177.422 193.511 172.868 200.484 175.548" stroke="#263238" stroke-width="1.85879" stroke-linecap="round" stroke-linejoin="round"/>
<path d="M208.323 222.047C208.323 216.9 205.465 199.396 205.465 199.396C205.465 199.396 202.132 197.605 195.788 199.147C189.443 200.689 187.712 211.006 186.502 212.192C185.292 213.378 177.406 206.262 174.347 201.388C171.287 196.514 169.129 188.178 168.797 183.303C168.465 178.429 179.932 175.975 181.723 171.445C183.514 166.914 175.058 162.088 178.011 159.064C180.964 156.04 187.071 157.202 190.095 157.783C192.157 158.062 194.255 157.732 196.132 156.834C196.132 156.834 197.317 154.712 193.368 150.205C189.419 145.699 169.164 144.916 156.202 151.391C143.241 157.866 140.288 167.211 140.347 177.481C140.406 185.782 144.249 196.882 145.695 200.795C146.92 201.325 148.239 201.599 149.573 201.602C150.759 201.294 151.66 197.665 152.242 194.024C152.823 190.383 161.563 186.114 161.563 186.114C161.563 186.114 163.14 196.989 163.152 199.1C163.164 201.21 161.966 211.801 167.801 216.888C172.369 220.675 177.239 224.082 182.363 227.075C182.363 227.075 194.459 227.905 199.298 227.869C204.136 227.834 208.358 227.182 208.323 222.047Z" fill="#263238" stroke="#263238" stroke-width="0.929397" stroke-linecap="round" stroke-linejoin="round"/>
<path d="M163.425 193.609C163.425 193.609 160.91 179.117 156.689 179.745C152.467 180.374 150.071 185.829 152.23 192.79C154.388 199.751 158.622 199.099 161.029 198.483" fill="white"/>
<path d="M163.425 193.609C163.425 193.609 160.91 179.117 156.689 179.745C152.467 180.374 150.071 185.829 152.23 192.79C154.388 199.751 158.622 199.099 161.029 198.483" stroke="#263238" stroke-width="0.929397" stroke-linecap="round" stroke-linejoin="round"/>
<path d="M193.107 204.602C193.107 204.602 195.538 207.614 201.883 207.578" stroke="white" stroke-width="0.929397" stroke-linecap="round" stroke-linejoin="round"/>
<path d="M125.251 513.267H189.289C189.502 509.899 191.993 496.949 191.993 488.458C191.993 478.65 198.74 415.383 198.74 415.383L115.455 414.292L118.183 453.011L125.251 513.267Z" fill="#CFDCBB" stroke="#263238" stroke-width="0.929397" stroke-linecap="round" stroke-linejoin="round"/>
<path d="M133.552 228.651C133.552 228.651 118.953 247.377 114.838 257.872C110.723 268.367 107.533 270.193 108.446 283.428C109.36 296.662 115.763 349.613 115.763 349.613L102.979 418.549C118.068 423.954 133.973 426.73 150 426.755C176.469 426.755 187.949 424.478 189.716 423.565C191.483 422.652 207.504 418.549 207.504 418.549C207.504 418.549 207.504 340.493 202.476 313.561C197.448 286.63 191.068 266.126 188.791 261.062C186.514 255.998 179.197 239.609 179.197 239.609L133.552 228.651Z" fill="#CFDCBB" stroke="#263238" stroke-width="0.929397" stroke-linecap="round" stroke-linejoin="round"/>
<path d="M188.826 261.062C186.538 256.046 179.232 239.609 179.232 239.609L133.552 228.651C133.552 228.651 130.468 232.612 126.733 237.913C136.683 243.689 161.314 257.967 162.772 258.322C164.599 258.785 173.73 257.872 173.73 257.872L169.65 262.888C169.65 262.888 180.608 271.569 184.261 275.21C186.182 277.131 191.755 282.206 196.618 286.594C193.309 273.478 190.249 264.216 188.826 261.062Z" fill="#CFDCBB" stroke="#263238" stroke-width="0.929397" stroke-linecap="round" stroke-linejoin="round"/>
<path d="M167.824 249.654L183.348 261.976L196.12 284.804L187.913 251.48L171.026 241.898L167.824 249.654Z" fill="white" stroke="#263238" stroke-width="0.929397" stroke-linecap="round" stroke-linejoin="round"/>
<path d="M136.79 219.983L184.581 241.519V258.406L129.935 230.479L136.79 219.983Z" fill="white" stroke="#263238" stroke-width="0.929397" stroke-linecap="round" stroke-linejoin="round"/>
<path d="M199.986 392.732H117.4V459.558H199.986V392.732Z" fill="#92E3A9" stroke="#263238" stroke-width="0.929397" stroke-miterlimit="10"/>
<path d="M163.757 424.586C163.757 424.586 169.899 432.591 172.307 433.397C174.334 434.23 176.01 435.738 177.05 437.666C178.118 439.267 179.422 451.28 180.252 452.087C181.082 452.893 181.059 454.755 178.118 453.415C175.177 452.075 173.374 447.486 173.374 447.486L174.441 458.159C174.441 458.159 176.813 458.692 174.975 460.032C173.137 461.372 171.5 463.234 169.899 462.404C168.475 461.556 167.137 460.571 165.903 459.463C163.996 460.103 161.965 460.286 159.974 459.997C157.044 459.463 157.602 460.53 154.91 458.657C152.218 456.783 152.23 458.929 150.901 455.455C148.833 449.237 147.138 442.901 145.826 436.48C145.292 433.006 144.759 428.179 144.759 428.179L163.757 424.586Z" fill="white" stroke="#263238" stroke-width="0.929397" stroke-linecap="round" stroke-linejoin="round"/>
<path d="M164.836 419.51L166.698 427.787L143.739 430.989L142.671 422.712L164.836 419.51Z" fill="white" stroke="#263238" stroke-width="0.929397" stroke-linecap="round" stroke-linejoin="round"/>
<path d="M135.414 245.101C135.414 245.101 119.44 250.117 118.989 257.422C118.538 264.727 113.238 353.325 115.526 359.255C117.815 365.184 140.264 425.273 140.264 425.273L166.283 422.083C166.283 422.083 152.953 352.4 152.526 351.025C152.099 349.649 161.468 272.02 161.468 272.02" fill="#CFDCBB"/>
<path d="M135.414 245.101C135.414 245.101 119.44 250.117 118.989 257.422C118.538 264.727 113.238 353.325 115.526 359.255C117.815 365.184 140.264 425.273 140.264 425.273L166.283 422.083C166.283 422.083 152.953 352.4 152.526 351.025C152.099 349.649 161.468 272.02 161.468 272.02" stroke="#263238" stroke-width="0.929397" stroke-linecap="round" stroke-linejoin="round"/>
<path d="M158.373 294.314L152.49 351.024L158.1 386.257" stroke="#878787" stroke-width="0.929397" stroke-linecap="round" stroke-linejoin="round"/>
<path d="M159.274 285.635L158.965 288.647" stroke="#878787" stroke-width="0.929397" stroke-linecap="round" stroke-linejoin="round"/>
<path d="M117.151 276.858L115.396 330.105" stroke="#878787" stroke-width="0.929397" stroke-linecap="round" stroke-linejoin="round"/>
<path d="M176.825 376.96L194.376 376.319L195.954 382.64L166.875 384.502" stroke="#878787" stroke-width="0.929397" stroke-linecap="round" stroke-linejoin="round"/>
<path d="M162.203 377.482L171.548 377.15" stroke="#878787" stroke-width="0.929397" stroke-linecap="round" stroke-linejoin="round"/>
<path d="M130.611 239.42L162.808 258.323L173.766 257.872L169.65 262.889L190.866 279.788" stroke="#878787" stroke-width="0.929397" stroke-linecap="round" stroke-linejoin="round"/>
<path d="M145.992 24.5479V104.702" stroke="#263238" stroke-width="0.929397" stroke-miterlimit="10"/>
<path d="M269.112 24.5479V104.702" stroke="#263238" stroke-width="0.929397" stroke-miterlimit="10"/>
<path d="M392.231 24.5479V104.702" stroke="#263238" stroke-width="0.929397" stroke-miterlimit="10"/>
<line x1="29" y1="513.5" x2="529" y2="513.5" stroke="black"/>
</svg>
