<svg width="588" height="438" viewBox="0 0 588 438" fill="none" xmlns="http://www.w3.org/2000/svg">
<path d="M587.894 384.755H0.30249V385.049H587.894V384.755Z" fill="#E6E6E6"/>
<path d="M550.758 395.12H528.7V395.414H550.758V395.12Z" fill="#E6E6E6"/>
<path d="M448.94 403.183H438.728V403.476H448.94V403.183Z" fill="#E6E6E6"/>
<path d="M352.058 399.126H329.307V399.42H352.058V399.126Z" fill="#E6E6E6"/>
<path d="M146.166 398.975H95.4099V399.268H146.166V398.975Z" fill="#E6E6E6"/>
<path d="M84.9509 398.975H77.512V399.268H84.9509V398.975Z" fill="#E6E6E6"/>
<path d="M332.856 392.018H222.765V392.311H332.856V392.018Z" fill="#E6E6E6"/>
<path d="M278.821 332.342H51.9046C50.127 332.339 48.4232 331.63 47.1673 330.372C45.9114 329.114 45.2061 327.409 45.2061 325.632V6.65154C45.2215 4.88409 45.9337 3.19412 47.1879 1.94871C48.4421 0.703298 50.1371 0.00302773 51.9046 0H278.821C280.6 0 282.307 0.706976 283.566 1.9654C284.824 3.22383 285.531 4.93062 285.531 6.7103V325.632C285.531 327.411 284.824 329.118 283.566 330.377C282.307 331.635 280.6 332.342 278.821 332.342ZM51.9046 0.235038C50.2049 0.238151 48.5758 0.915545 47.375 2.11853C46.1743 3.32153 45.4998 4.95181 45.4999 6.65154V325.632C45.4998 327.331 46.1743 328.962 47.375 330.165C48.5758 331.368 50.2049 332.045 51.9046 332.048H278.821C280.522 332.045 282.152 331.368 283.354 330.165C284.557 328.963 285.234 327.332 285.237 325.632V6.65154C285.234 4.95073 284.557 3.32047 283.354 2.11782C282.152 0.915163 280.522 0.238144 278.821 0.235038H51.9046Z" fill="#E6E6E6"/>
<path d="M533.024 332.342H306.097C304.318 332.339 302.613 331.631 301.355 330.373C300.097 329.115 299.389 327.41 299.386 325.632V6.65154C299.405 4.88302 300.12 3.19306 301.376 1.94798C302.632 0.702887 304.328 0.00299471 306.097 0H533.024C534.79 0.00611624 536.482 0.707753 537.734 1.95284C538.985 3.19792 539.696 4.88612 539.711 6.65154V325.632C539.711 327.407 539.008 329.11 537.754 330.368C536.501 331.626 534.8 332.336 533.024 332.342ZM306.097 0.235038C304.396 0.238144 302.765 0.915163 301.563 2.11782C300.36 3.32047 299.683 4.95073 299.68 6.65154V325.632C299.683 327.332 300.36 328.963 301.563 330.165C302.765 331.368 304.396 332.045 306.097 332.048H533.024C534.725 332.045 536.355 331.368 537.558 330.165C538.761 328.963 539.438 327.332 539.441 325.632V6.65154C539.438 4.95073 538.761 3.32047 537.558 2.11782C536.355 0.915163 534.725 0.238144 533.024 0.235038H306.097Z" fill="#E6E6E6"/>
<path d="M306.978 21.9521H69.2974V191.331H306.978V21.9521Z" fill="#FAFAFA"/>
<path d="M311.374 21.9521H71.354V191.331H311.374V21.9521Z" fill="#F5F5F5"/>
<path d="M305.216 184.41V28.8623L77.512 28.8623V184.41H305.216Z" fill="#FAFAFA"/>
<path d="M118.972 184.41L155.098 28.8623H202.457L166.332 184.41H118.972Z" fill="white"/>
<path d="M173.995 184.41L210.132 28.8623H231.52L195.383 184.41H173.995Z" fill="white"/>
<path d="M305.216 184.41V28.8623H304.428V184.41H305.216Z" fill="#FAFAFA"/>
<path d="M64.6787 21.6709V88.7974H82.4357C82.4357 88.7974 114.295 67.9849 121.593 25.1729C121.77 24.1476 121.72 23.096 121.446 22.092C121.173 21.0881 120.683 20.1562 120.011 19.3619C119.339 18.5677 118.501 17.9304 117.556 17.4948C116.611 17.0593 115.582 16.8361 114.542 16.8409H69.5087C68.2277 16.8409 66.9992 17.3498 66.0934 18.2556C65.1876 19.1614 64.6787 20.3899 64.6787 21.6709Z" fill="#CFDCBB"/>
<path d="M64.6787 212.05V94.2148H82.4357C82.4357 94.2148 118.479 163.609 122.651 212.05H64.6787Z" fill="#CFDCBB"/>
<path d="M81.9189 88.7969H65.3253C64.3453 88.7969 63.5508 89.5914 63.5508 90.5714V92.44C63.5508 93.42 64.3453 94.2145 65.3253 94.2145H81.9189C82.8989 94.2145 83.6934 93.42 83.6934 92.44V90.5714C83.6934 89.5914 82.8989 88.7969 81.9189 88.7969Z" fill="#F5F5F5"/>
<path d="M316.427 21.6709V88.7973H298.635C298.635 88.7973 266.728 67.9848 259.477 25.1729C259.303 24.1478 259.354 23.097 259.628 22.0939C259.902 21.0909 260.392 20.1598 261.064 19.3661C261.736 18.5723 262.573 17.935 263.517 17.4988C264.461 17.0626 265.489 16.8381 266.529 16.8408H311.609C312.887 16.847 314.11 17.3583 315.013 18.2631C315.915 19.1679 316.424 20.3928 316.427 21.6709Z" fill="#CFDCBB"/>
<path d="M316.427 212.05V94.2148H298.634C298.634 94.2148 262.603 163.609 258.42 212.05H316.427Z" fill="#CFDCBB"/>
<path d="M299.151 94.2021H315.745C316.725 94.2021 317.519 93.4077 317.519 92.4276V90.5591C317.519 89.579 316.725 88.7846 315.745 88.7846H299.151C298.171 88.7846 297.377 89.579 297.377 90.5591V92.4276C297.377 93.4077 298.171 94.2021 299.151 94.2021Z" fill="#F5F5F5"/>
<path d="M311.056 233.462H272.005V384.755H311.056V233.462Z" fill="#FAFAFA"/>
<path d="M300.632 384.755H311.056V367.28H289.703L300.632 384.755Z" fill="#F4F8FF"/>
<path d="M124.226 233.462H85.1743V384.755H124.226V233.462Z" fill="#E0E0E0"/>
<path d="M311.056 233.462H115.129V378.738H311.056V233.462Z" fill="#FAFAFA"/>
<path d="M173.995 207.771C173.995 221.874 187.58 233.461 204.197 233.461H219.192C235.798 233.461 249.383 221.897 249.383 207.771H173.995Z" fill="#EBEBEB"/>
<path d="M165.298 175.49H193.503C193.503 175.49 188.602 188.417 188.602 196.032C188.602 203.648 210.061 233.462 179.4 233.462C148.74 233.462 170.199 203.636 170.199 196.032C170.199 188.429 165.298 175.49 165.298 175.49Z" fill="#E0E0E0"/>
<path d="M302.971 242.311H123.215V278.941H302.971V242.311Z" fill="#EBEBEB"/>
<path d="M125.553 384.755H115.129V367.28H136.494L125.553 384.755Z" fill="#FAFAFA"/>
<path d="M207.569 260.62C207.569 261.712 207.893 262.78 208.5 263.689C209.107 264.597 209.97 265.305 210.979 265.723C211.988 266.141 213.099 266.25 214.17 266.037C215.242 265.824 216.226 265.298 216.998 264.526C217.771 263.753 218.297 262.769 218.51 261.698C218.723 260.626 218.614 259.516 218.196 258.506C217.778 257.497 217.07 256.634 216.161 256.028C215.253 255.421 214.185 255.097 213.093 255.097C211.628 255.097 210.223 255.679 209.187 256.714C208.151 257.75 207.569 259.155 207.569 260.62Z" fill="#FAFAFA"/>
<path d="M302.971 287.791H123.215V324.421H302.971V287.791Z" fill="#EBEBEB"/>
<path d="M207.569 306.1C207.569 307.192 207.893 308.26 208.5 309.168C209.107 310.076 209.97 310.784 210.979 311.202C211.988 311.621 213.099 311.73 214.17 311.517C215.242 311.304 216.226 310.778 216.998 310.005C217.771 309.233 218.297 308.249 218.51 307.177C218.723 306.106 218.614 304.995 218.196 303.986C217.778 302.977 217.07 302.114 216.161 301.507C215.253 300.9 214.185 300.576 213.093 300.576C211.628 300.576 210.223 301.158 209.187 302.194C208.151 303.23 207.569 304.635 207.569 306.1Z" fill="#FAFAFA"/>
<path d="M302.971 333.258H123.215V369.888H302.971V333.258Z" fill="#EBEBEB"/>
<path d="M213.093 357.103C216.143 357.103 218.616 354.63 218.616 351.58C218.616 348.53 216.143 346.057 213.093 346.057C210.042 346.057 207.569 348.53 207.569 351.58C207.569 354.63 210.042 357.103 213.093 357.103Z" fill="#FAFAFA"/>
<path d="M434.979 19.9082H347.745V82.0049H434.979V19.9082Z" fill="#E0E0E0"/>
<path d="M442.101 19.9082H352.704V82.0049H442.101V19.9082Z" fill="#F5F5F5"/>
<path d="M436.401 76.3049V25.6074L358.404 25.6074V76.3049H436.401Z" fill="white"/>
<path d="M422.675 61.5323V40.3672H372.13V61.5323H422.675Z" fill="#F5F5F5"/>
<path d="M505.749 50.9561H452.654V106.636H505.749V50.9561Z" fill="#E0E0E0"/>
<path d="M512.894 50.9561H457.625V106.636H512.894V50.9561Z" fill="#F5F5F5"/>
<path d="M507.194 100.937V56.6562H463.325V100.937H507.194Z" fill="white"/>
<path d="M477.051 78.7962C477.051 76.8409 477.827 74.9655 479.208 73.5818C480.59 72.1981 482.464 71.4191 484.419 71.416H486.088C488.043 71.4191 489.917 72.1981 491.299 73.5818C492.68 74.9655 493.456 76.8409 493.456 78.7962C493.456 80.7504 492.68 82.6246 491.298 84.0064C489.916 85.3883 488.042 86.1646 486.088 86.1646H484.478C483.505 86.1723 482.541 85.9875 481.64 85.6206C480.739 85.2538 479.92 84.7123 479.23 84.0273C478.539 83.3423 477.991 82.5274 477.617 81.6296C477.243 80.7317 477.051 79.7688 477.051 78.7962Z" fill="#F5F5F5"/>
<path d="M587.894 125.568H447.695H422.205V157.968H396.715V190.368H371.226V222.768H345.736V255.168H320.246V287.556H294.756V319.955H269.267V352.355H243.777V384.755H269.267H587.894V125.568Z" fill="#FAFAFA"/>
<path d="M386.444 352.355H241.156V362.074H386.444V352.355Z" fill="#EBEBEB"/>
<path d="M411.934 319.955H266.646V329.674H411.934V319.955Z" fill="#EBEBEB"/>
<path d="M437.423 287.556H292.135V297.274H437.423V287.556Z" fill="#EBEBEB"/>
<path d="M462.913 255.156H317.625V264.875H462.913V255.156Z" fill="#EBEBEB"/>
<path d="M488.403 222.768H343.115V232.486H488.403V222.768Z" fill="#EBEBEB"/>
<path d="M513.893 190.367H368.605V200.086H513.893V190.367Z" fill="#EBEBEB"/>
<path d="M539.382 157.968H394.094V167.687H539.382V157.968Z" fill="#EBEBEB"/>
<path d="M564.872 125.568H419.584V135.287H564.872V125.568Z" fill="#EBEBEB"/>
<path d="M562.404 125.568V157.968H536.915V190.368H511.425V222.768H485.935V255.168H460.445V287.556H434.956V319.955H409.466V352.355H383.976V384.755H409.466H587.894V157.968V125.568H562.404Z" fill="white"/>
<path d="M294.098 437.826C419.94 437.826 521.954 431.87 521.954 424.523C521.954 417.176 419.94 411.22 294.098 411.22C168.256 411.22 66.2417 417.176 66.2417 424.523C66.2417 431.87 168.256 437.826 294.098 437.826Z" fill="#F5F5F5"/>
<path d="M429.421 125.745C431.066 131.256 439.551 141.574 440.22 149.084C440.89 156.593 426.424 168.604 426.424 168.604C426.424 168.604 415.612 132.455 422.381 128.236C429.15 124.017 429.421 125.745 429.421 125.745Z" fill="#263238"/>
<path d="M399.712 164.797C397.15 166.935 394.635 168.733 392.014 170.579C389.394 172.424 386.691 174.104 383.941 175.679C381.181 177.312 378.337 178.799 375.421 180.133C373.94 180.803 372.471 181.461 370.943 182.037C370.191 182.342 369.427 182.636 368.652 182.894L366.301 183.717C364.292 184.279 362.189 184.431 360.12 184.164C358.39 183.961 356.677 183.631 354.996 183.176C351.862 182.309 348.795 181.217 345.818 179.909C340.039 177.386 334.464 174.42 329.142 171.037L331.34 166.947C334.113 168.122 336.957 169.298 339.777 170.32C342.598 171.342 345.442 172.424 348.286 173.305C351.058 174.214 353.884 174.951 356.747 175.514C358.062 175.771 359.393 175.932 360.731 175.996C361.729 176.073 362.732 175.97 363.692 175.691C366.374 174.665 368.995 173.488 371.543 172.165C372.847 171.483 374.14 170.79 375.409 170.038C376.678 169.286 377.971 168.557 379.228 167.782C381.755 166.219 384.223 164.562 386.667 162.858C389.112 161.154 391.544 159.332 393.718 157.604L399.712 164.797Z" fill="#E58A7B"/>
<path d="M405.917 152.281C403.002 150.001 390.945 157.463 387.29 160.577L389.958 176.713C389.958 176.713 407.292 169.45 408.326 164.491C409.419 159.308 408.091 154.02 405.917 152.281Z" fill="#407BFF"/>
<path opacity="0.2" d="M405.917 152.281C403.002 150.001 390.945 157.463 387.29 160.577L389.958 176.713C389.958 176.713 407.292 169.45 408.326 164.491C409.419 159.308 408.091 154.02 405.917 152.281Z" fill="black"/>
<path d="M446.472 201.109L409.877 208.242C390.968 157.039 395.082 155.359 395.082 155.359C397.741 153.898 400.488 152.602 403.308 151.481L403.802 151.293C406.152 150.435 406.622 150.306 409.748 149.389C415.13 148.108 420.148 147.039 426.365 146.157L427.54 145.993C428.715 145.852 429.785 145.734 430.866 145.628C431.595 145.546 432.323 145.499 433.017 145.452L435.367 145.323C439.386 145.123 442.265 145.182 442.265 145.182C441.149 177.159 442.959 186.337 446.472 201.109Z" fill="#407BFF"/>
<path opacity="0.2" d="M446.472 201.109L409.877 208.242C390.968 157.039 395.082 155.359 395.082 155.359C397.741 153.898 400.488 152.602 403.308 151.481L403.802 151.293C406.152 150.435 406.622 150.306 409.748 149.389C415.13 148.108 420.148 147.039 426.365 146.157L427.54 145.993C428.715 145.852 429.785 145.734 430.866 145.628C431.595 145.546 432.323 145.499 433.017 145.452L435.367 145.323C439.386 145.123 442.265 145.182 442.265 145.182C441.149 177.159 442.959 186.337 446.472 201.109Z" fill="black"/>
<path d="M417.81 129.424C415.459 133.314 423.979 135.112 429.021 131.128C433.052 127.932 432.1 120.552 428.645 118.836C425.19 117.12 417.81 129.424 417.81 129.424Z" fill="#407BFF"/>
<path opacity="0.4" d="M417.81 129.424C415.459 133.314 423.979 135.112 429.021 131.128C433.052 127.932 432.1 120.552 428.645 118.836C425.19 117.12 417.81 129.424 417.81 129.424Z" fill="black"/>
<path d="M453.429 413.042L444.275 413.723L440.925 392.652L450.08 391.971L453.429 413.042Z" fill="#E58A7B"/>
<path d="M518.182 383.591L510.414 388.48L496.582 372.074L504.35 367.174L518.182 383.591Z" fill="#E58A7B"/>
<path d="M440.925 392.653L442.782 404.358L451.808 402.842L450.092 391.983L440.925 392.653Z" fill="#CF6F64"/>
<path d="M504.362 367.187L496.582 372.075L502.317 378.868L510.261 374.179L504.362 367.187Z" fill="#CF6F64"/>
<path d="M410.442 208.242C410.442 208.242 410.312 280.892 416.247 308.25C422.429 336.713 440.609 401.466 440.609 401.466L453.794 399.762C453.794 399.762 443.488 334.351 439.093 306.065C434.31 275.239 437.248 203.024 437.248 203.024L410.442 208.242Z" fill="#407BFF"/>
<path opacity="0.7" d="M410.442 208.242C410.442 208.242 410.312 280.892 416.247 308.25C422.429 336.713 440.609 401.466 440.609 401.466L453.794 399.762C453.794 399.762 443.488 334.351 439.093 306.065C434.31 275.239 437.248 203.024 437.248 203.024L410.442 208.242Z" fill="black"/>
<path opacity="0.5" d="M436.424 235.226L429.961 228.786C430.208 256.697 431.771 270.482 437.141 285.501C436.295 269.624 436.225 250.844 436.424 235.226Z" fill="black"/>
<path d="M419.537 206.362C419.537 206.362 439.245 266.403 449.023 300.988C459.341 337.478 498.897 377.833 498.897 377.833L510.25 371.276C510.25 371.276 483.221 332.965 473.279 298.92C453.065 229.807 461.374 215.165 446.461 201.109L419.537 206.362Z" fill="#407BFF"/>
<path opacity="0.7" d="M419.537 206.362C419.537 206.362 439.245 266.403 449.023 300.988C459.341 337.478 498.897 377.833 498.897 377.833L510.25 371.276C510.25 371.276 483.221 332.965 473.279 298.92C453.065 229.807 461.374 215.165 446.461 201.109L419.537 206.362Z" fill="black"/>
<path d="M404.048 108.224C409.29 109.975 414.049 122.984 414.249 128.108C414.449 133.232 399.066 140.294 399.066 140.294C399.066 140.294 392.285 123.842 394.177 113.265C394.999 108.67 404.048 108.224 404.048 108.224Z" fill="#263238"/>
<path d="M332.116 167.381L325.899 160.612L323.866 169.097C323.866 169.097 328.284 172.999 331.857 171.659L332.116 167.381Z" fill="#E58A7B"/>
<path d="M319.6 158.674L315.251 162.129L323.866 169.098L325.899 160.613L319.6 158.674Z" fill="#E58A7B"/>
<path d="M507.981 386.729L515.244 379.408C515.37 379.282 515.536 379.206 515.713 379.193C515.89 379.18 516.065 379.231 516.208 379.337L522.824 384.249C522.988 384.378 523.122 384.54 523.219 384.724C523.315 384.908 523.372 385.111 523.384 385.319C523.396 385.527 523.364 385.735 523.29 385.929C523.216 386.124 523.101 386.3 522.953 386.447C520.368 388.95 519.005 390.031 515.808 393.251C513.846 395.237 511.178 398.328 508.463 401.066C505.749 403.804 502.893 401.254 503.763 399.891C507.723 393.698 507.018 391.383 507.288 388.233C507.329 387.664 507.575 387.13 507.981 386.729Z" fill="#263238"/>
<path d="M443.664 412.407H453.982C454.163 412.407 454.339 412.47 454.479 412.586C454.618 412.702 454.713 412.863 454.746 413.042L456.367 421.198C456.404 421.398 456.395 421.604 456.343 421.801C456.29 421.998 456.195 422.181 456.064 422.337C455.932 422.493 455.768 422.619 455.583 422.704C455.398 422.789 455.196 422.833 454.992 422.831C451.385 422.772 449.645 422.561 445.109 422.561C442.324 422.561 436.566 422.843 432.711 422.843C428.856 422.843 428.445 419.035 430.032 418.694C437.083 417.143 439.844 415.016 442.159 412.971C442.579 412.612 443.112 412.413 443.664 412.407Z" fill="#263238"/>
<g style="mix-blend-mode:multiply" opacity="0.27">
<path d="M443.452 163.715L437.812 167.076L444.322 191.555C442.9 184.14 443.535 175.996 443.452 163.715Z" fill="#407BFF"/>
</g>
<path d="M411.393 125.498C415.401 128.848 421.218 133.725 428.069 128.025C433.945 123.113 438.058 110.221 427.517 109.751C422.005 109.504 411.393 125.498 411.393 125.498Z" fill="#263238"/>
<path d="M421.077 127.79C421.077 133.337 421.935 143.338 426.365 146.182C426.365 146.182 425.966 151.893 416.023 153.82C405.106 155.947 409.748 149.413 409.748 149.413C415.436 146.828 414.449 142.433 412.568 138.484L421.077 127.79Z" fill="#E58A7B"/>
<path d="M417.61 132.15L412.58 138.485C413.021 139.4 413.383 140.352 413.661 141.329C415.871 140.553 418.515 137.45 418.292 135.018C418.243 134.028 418.012 133.056 417.61 132.15Z" fill="#CF6F64"/>
<path d="M421.605 115.051C422.781 124.088 423.498 127.884 419.878 133.348C414.437 141.575 403.085 141.046 399.218 132.549C395.693 124.899 394.377 111.396 402.415 106.166C404.182 104.996 406.22 104.298 408.333 104.138C410.447 103.978 412.566 104.361 414.49 105.252C416.414 106.142 418.077 107.51 419.323 109.226C420.568 110.941 421.354 112.946 421.605 115.051Z" fill="#E58A7B"/>
<path d="M405.905 99.2208C399.794 103.557 412.051 104.838 412.063 111.125C412.063 113.723 416.329 121.961 422.393 121.491L428.269 111.055C434.45 101.066 419.843 89.314 405.905 99.2208Z" fill="#263238"/>
<path d="M405.905 99.2208C395.152 98.6567 390.463 107.212 391.697 114.898C399.198 113.027 406.958 112.412 414.66 113.076C429.397 114.58 405.905 99.2208 405.905 99.2208Z" fill="#263238"/>
<path d="M424.544 122.842C424.693 124.596 424.139 126.338 423.004 127.684C421.488 129.458 419.479 128.412 418.774 126.309C418.174 124.405 418.245 121.197 420.29 120.186C420.741 119.977 421.238 119.884 421.735 119.915C422.231 119.946 422.713 120.1 423.135 120.364C423.557 120.627 423.907 120.992 424.153 121.425C424.399 121.857 424.533 122.344 424.544 122.842Z" fill="#E58A7B"/>
<path d="M408.549 120.187C408.69 120.915 408.42 121.573 407.95 121.667C407.48 121.761 406.975 121.244 406.834 120.492C406.693 119.74 406.963 119.094 407.433 119C407.903 118.906 408.408 119.458 408.549 120.187Z" fill="#263238"/>
<path d="M400.335 121.785C400.476 122.513 400.205 123.183 399.735 123.277C399.265 123.371 398.76 122.854 398.619 122.102C398.478 121.35 398.748 120.703 399.218 120.621C399.688 120.539 400.194 121.044 400.335 121.785Z" fill="#263238"/>
<path d="M399.442 120.633L397.597 120.48C397.597 120.48 398.76 121.667 399.442 120.633Z" fill="#263238"/>
<path d="M402.755 122.619C402.425 124.399 401.856 126.127 401.063 127.755C401.484 127.951 401.944 128.053 402.409 128.053C402.874 128.053 403.333 127.951 403.754 127.755L402.755 122.619Z" fill="#DF5753"/>
<path d="M406.822 130.106C406.771 130.107 406.722 130.089 406.683 130.057C406.645 130.025 406.619 129.979 406.61 129.93C406.605 129.902 406.606 129.873 406.612 129.846C406.618 129.818 406.63 129.792 406.646 129.769C406.663 129.746 406.684 129.726 406.708 129.712C406.732 129.697 406.759 129.687 406.787 129.683C407.695 129.525 408.553 129.155 409.292 128.604C410.031 128.053 410.63 127.335 411.041 126.51C411.052 126.484 411.067 126.46 411.087 126.44C411.107 126.419 411.131 126.404 411.157 126.393C411.184 126.382 411.212 126.376 411.24 126.376C411.268 126.376 411.297 126.381 411.323 126.392C411.349 126.403 411.373 126.419 411.393 126.439C411.413 126.459 411.429 126.483 411.44 126.509C411.451 126.535 411.457 126.563 411.457 126.592C411.457 126.62 411.451 126.648 411.44 126.674C411.01 127.571 410.37 128.352 409.574 128.949C408.778 129.546 407.85 129.943 406.869 130.106H406.822Z" fill="#263238"/>
<path d="M410.441 117.061C410.334 117.062 410.229 117.025 410.147 116.955C409.752 116.579 409.273 116.303 408.75 116.147C408.227 115.992 407.675 115.963 407.139 116.062C407.02 116.092 406.895 116.073 406.79 116.01C406.686 115.947 406.61 115.846 406.581 115.727C406.551 115.609 406.57 115.483 406.632 115.379C406.695 115.274 406.797 115.199 406.916 115.169C407.593 115.036 408.293 115.065 408.957 115.255C409.621 115.445 410.23 115.79 410.735 116.262C410.815 116.343 410.86 116.453 410.86 116.567C410.86 116.682 410.815 116.792 410.735 116.873C410.702 116.923 410.659 116.966 410.608 116.999C410.558 117.031 410.501 117.052 410.441 117.061Z" fill="#263238"/>
<path d="M395.787 118.694C395.732 118.706 395.676 118.706 395.622 118.694C395.568 118.672 395.52 118.64 395.479 118.599C395.438 118.558 395.405 118.509 395.383 118.455C395.361 118.402 395.35 118.344 395.351 118.286C395.352 118.228 395.364 118.171 395.387 118.118C395.637 117.475 396.037 116.902 396.555 116.446C397.072 115.99 397.691 115.665 398.36 115.497C398.417 115.485 398.475 115.485 398.532 115.497C398.588 115.508 398.642 115.531 398.689 115.564C398.736 115.597 398.776 115.64 398.807 115.689C398.837 115.738 398.857 115.793 398.866 115.85C398.877 115.905 398.878 115.963 398.867 116.019C398.856 116.075 398.834 116.128 398.803 116.175C398.771 116.222 398.73 116.262 398.682 116.293C398.634 116.324 398.581 116.345 398.525 116.355C397.997 116.499 397.509 116.764 397.101 117.129C396.693 117.495 396.376 117.95 396.174 118.459C396.137 118.529 396.081 118.588 396.013 118.629C395.944 118.67 395.866 118.693 395.787 118.694Z" fill="#263238"/>
<path d="M505.256 390.997C505.054 390.992 504.857 390.937 504.681 390.839C504.505 390.741 504.355 390.601 504.245 390.433C504.161 390.333 504.105 390.214 504.083 390.086C504.06 389.958 504.071 389.826 504.116 389.704C504.527 388.599 507.77 387.894 508.135 387.812C508.177 387.805 508.221 387.809 508.26 387.826C508.3 387.843 508.334 387.871 508.358 387.906C508.383 387.94 508.396 387.981 508.396 388.024C508.396 388.066 508.383 388.107 508.358 388.141C507.723 389.187 506.478 390.938 505.314 390.997H505.256ZM507.712 388.353C506.431 388.682 504.738 389.269 504.527 389.857C504.506 389.911 504.502 389.97 504.514 390.026C504.527 390.083 504.556 390.134 504.597 390.174C504.67 390.295 504.774 390.395 504.898 390.463C505.021 390.531 505.161 390.565 505.303 390.562C505.925 390.527 506.807 389.716 507.712 388.353Z" fill="#407BFF"/>
<path d="M507.183 388.351C506.008 388.351 504.539 388.057 504.104 387.423C504.007 387.279 503.963 387.106 503.978 386.932C503.993 386.759 504.066 386.597 504.186 386.471C504.289 386.34 504.419 386.232 504.567 386.155C504.715 386.078 504.877 386.034 505.044 386.024H505.138C506.454 386.024 508.264 387.799 508.334 387.869C508.363 387.896 508.383 387.93 508.393 387.967C508.404 388.004 508.404 388.044 508.393 388.081C508.383 388.117 508.363 388.15 508.336 388.177C508.31 388.204 508.277 388.223 508.24 388.234C507.894 388.317 507.539 388.357 507.183 388.351ZM505.138 386.459H505.067C504.962 386.463 504.859 386.49 504.765 386.539C504.671 386.588 504.59 386.657 504.527 386.741C504.362 386.965 504.409 387.094 504.468 387.176C504.821 387.717 506.619 388.022 507.723 387.893C507.019 387.175 506.12 386.677 505.138 386.459Z" fill="#407BFF"/>
<path d="M440.291 414.017C439.501 414.087 438.71 413.888 438.047 413.453C437.89 413.331 437.767 413.171 437.688 412.988C437.61 412.805 437.58 412.605 437.6 412.407C437.599 412.289 437.629 412.173 437.687 412.07C437.745 411.967 437.828 411.881 437.929 411.82C439.01 411.185 442.794 413.065 443.217 413.277C443.257 413.298 443.29 413.33 443.311 413.37C443.332 413.41 443.34 413.455 443.335 413.5C443.329 413.544 443.311 413.586 443.281 413.619C443.252 413.653 443.213 413.677 443.17 413.688C442.223 413.887 441.259 413.997 440.291 414.017ZM438.552 412.113C438.414 412.105 438.276 412.133 438.152 412.196C438.113 412.217 438.08 412.249 438.059 412.289C438.038 412.329 438.03 412.374 438.035 412.419C438.023 412.552 438.044 412.685 438.095 412.808C438.146 412.931 438.226 413.039 438.329 413.124C438.916 413.629 440.432 413.712 442.43 413.383C441.217 412.746 439.906 412.317 438.552 412.113Z" fill="#407BFF"/>
<path d="M443.123 413.665H443.041C441.865 413.16 439.597 411.162 439.762 410.139C439.762 409.904 439.973 409.599 440.561 409.54H440.737C442.782 409.54 443.311 413.277 443.334 413.442C443.34 413.481 443.335 413.521 443.321 413.558C443.306 413.595 443.283 413.628 443.252 413.653C443.211 413.669 443.166 413.673 443.123 413.665ZM440.773 409.951H440.643C440.267 409.951 440.244 410.128 440.244 410.175C440.15 410.797 441.701 412.361 442.876 413.054C442.641 412.137 442.042 409.975 440.726 409.975L440.773 409.951Z" fill="#407BFF"/>
<path d="M407.656 119.035L405.811 118.87C405.811 118.87 406.974 120.069 407.656 119.035Z" fill="#263238"/>
<path d="M415.73 161.635C396.069 166.018 402.145 154.125 403.32 151.505L403.813 151.317C406.164 150.459 406.634 150.329 409.76 149.413C415.215 147.94 420.768 146.86 426.377 146.181L427.552 146.017C428.727 145.864 429.797 145.746 430.878 145.652C431.607 145.57 432.335 145.523 433.028 145.476L435.379 145.335C435.778 147.168 436.754 156.969 415.73 161.635Z" fill="#E58A7B"/>
<path d="M446.59 198.854L448.882 201.815C449.058 202.039 448.811 202.356 448.388 202.438L410.007 209.912C409.678 209.983 409.372 209.912 409.313 209.666L408.338 206.457C408.338 206.234 408.526 205.987 408.879 205.917L445.944 198.701C446.055 198.668 446.174 198.665 446.287 198.692C446.401 198.719 446.505 198.774 446.59 198.854Z" fill="#26395A"/>
<path d="M442.418 203.965L443.417 203.777C443.617 203.777 443.746 203.612 443.711 203.483L442.418 199.323C442.418 199.194 442.183 199.135 441.983 199.17L440.996 199.358C440.796 199.358 440.667 199.535 440.702 199.652L441.995 203.824C442.03 203.941 442.23 204.012 442.418 203.965Z" fill="#407BFF"/>
<path d="M419.937 217.832L412.286 214.988L413.461 222.263C413.461 222.263 419.008 224.26 421.84 221.699L419.937 217.832Z" fill="#E58A7B"/>
<path d="M405 216.916L403.179 221.687L413.462 222.263L412.287 214.988L405 216.916Z" fill="#E58A7B"/>
<path d="M412.862 209.724L413.861 209.536C414.049 209.536 414.19 209.371 414.143 209.242L412.85 205.082C412.85 204.953 412.627 204.894 412.427 204.929L411.428 205.117C411.229 205.117 411.099 205.293 411.146 205.411L412.439 209.583C412.474 209.7 412.662 209.771 412.862 209.724Z" fill="#407BFF"/>
<path d="M427.646 206.833L428.633 206.645C428.833 206.645 428.962 206.481 428.927 206.351L427.634 202.191C427.634 202.062 427.399 202.003 427.2 202.038L426.212 202.226C426.013 202.226 425.883 202.403 425.919 202.52L427.211 206.692C427.258 206.76 427.326 206.811 427.405 206.836C427.483 206.862 427.568 206.861 427.646 206.833Z" fill="#407BFF"/>
<path d="M423.462 141.516C424.297 141.199 425.343 144.137 425.084 144.513C424.485 145.371 413.509 148.367 413.015 146.687C412.985 145.776 413.124 144.867 413.426 144.007C413.744 143.443 416.176 144.478 423.462 141.516Z" fill="#407BFF"/>
<path d="M421.606 141.587C422.029 140.612 423.239 139.049 424.297 139.942C425.354 140.835 425.801 142.762 425.108 143.079C424.414 143.397 420.877 143.22 421.606 141.587Z" fill="#407BFF"/>
<path d="M423.85 142.093C424.579 141.317 426.201 140.247 426.941 141.446C427.682 142.645 427.411 144.607 426.659 144.666C425.907 144.725 422.616 143.373 423.85 142.093Z" fill="#407BFF"/>
<path d="M424.25 141.916C424.191 141.291 424.313 140.662 424.603 140.106C424.893 139.549 425.338 139.088 425.883 138.778C427.223 137.908 428.528 137.344 429.045 136.428C429.267 137.287 429.311 138.183 429.174 139.06C428.904 140.318 424.732 141.281 425.014 142.374L424.25 141.916Z" fill="#407BFF"/>
<path d="M424.074 141.857C423.684 141.364 423.446 140.769 423.388 140.143C423.329 139.517 423.453 138.888 423.745 138.332C424.379 136.874 425.178 135.699 425.131 134.665C425.784 135.266 426.308 135.994 426.671 136.804C427.117 137.979 424.144 141.07 424.979 141.845L424.074 141.857Z" fill="#407BFF"/>
<path d="M505.808 371.428C505.784 371.427 505.76 371.421 505.74 371.408C505.719 371.396 505.702 371.379 505.69 371.358C505.42 370.982 478.555 332.647 468.707 298.966C462.28 277.362 457.341 255.342 453.923 233.062C451.89 220.511 450.656 212.931 446.614 206.715C446.586 206.686 446.571 206.648 446.571 206.609C446.571 206.569 446.586 206.531 446.614 206.503C446.641 206.479 446.677 206.466 446.713 206.466C446.75 206.466 446.786 206.479 446.813 206.503C450.903 212.778 452.137 220.382 454.17 232.968C457.603 255.216 462.551 277.204 468.977 298.778C478.814 332.412 505.655 370.7 505.925 371.087C505.947 371.116 505.959 371.151 505.959 371.187C505.959 371.223 505.947 371.259 505.925 371.287C505.923 371.32 505.911 371.352 505.89 371.377C505.869 371.403 505.84 371.421 505.808 371.428Z" fill="#407BFF"/>
<path opacity="0.4" d="M505.808 371.428C505.784 371.427 505.76 371.421 505.74 371.408C505.719 371.396 505.702 371.379 505.69 371.358C505.42 370.982 478.555 332.647 468.707 298.966C462.28 277.362 457.341 255.342 453.923 233.062C451.89 220.511 450.656 212.931 446.614 206.715C446.586 206.686 446.571 206.648 446.571 206.609C446.571 206.569 446.586 206.531 446.614 206.503C446.641 206.479 446.677 206.466 446.713 206.466C446.75 206.466 446.786 206.479 446.813 206.503C450.903 212.778 452.137 220.382 454.17 232.968C457.603 255.216 462.551 277.204 468.977 298.778C478.814 332.412 505.655 370.7 505.925 371.087C505.947 371.116 505.959 371.151 505.959 371.187C505.959 371.223 505.947 371.259 505.925 371.287C505.923 371.32 505.911 371.352 505.89 371.377C505.869 371.403 505.84 371.421 505.808 371.428Z" fill="black"/>
<path d="M456.156 399.716L438.199 402.043L437.024 397.037L455.721 393.076L456.156 399.716Z" fill="#407BFF"/>
<path d="M511.201 370.876L497.957 378.527L493.491 374.707L507.981 364.906L511.201 370.876Z" fill="#407BFF"/>
<path d="M449.046 157.628C449.681 160.895 450.045 163.974 450.398 167.159C450.75 170.343 450.88 173.493 450.974 176.678C451.067 179.887 450.997 183.1 450.762 186.302C450.633 187.912 450.492 189.522 450.269 191.144C450.175 191.943 450.069 192.754 449.916 193.565L449.481 196.056C448.999 198.087 448.116 200.001 446.884 201.686C445.873 203.103 444.757 204.442 443.547 205.693C441.279 208.022 438.844 210.183 436.26 212.156C431.263 216.004 425.975 219.458 420.442 222.486L417.927 218.585C420.278 216.716 422.628 214.789 424.979 212.826C427.329 210.864 429.562 208.878 431.712 206.809C433.838 204.819 435.843 202.703 437.718 200.475C438.579 199.444 439.364 198.352 440.068 197.208C440.623 196.375 441.021 195.447 441.243 194.47C441.625 191.617 441.849 188.745 441.913 185.868C441.913 184.399 441.913 182.93 441.913 181.461C441.913 179.992 441.854 178.499 441.784 177.018C441.643 174.057 441.372 171.143 441.055 168.134C440.738 165.126 440.326 162.152 439.88 159.367L449.046 157.628Z" fill="#E58A7B"/>
<path d="M447.624 147.639C452.642 151.705 451.443 163.786 451.443 163.786L434.521 169.356C434.521 169.356 435.296 155.43 436.142 150.424C437.129 144.466 442.676 143.631 447.624 147.639Z" fill="#407BFF"/>
<path opacity="0.2" d="M447.624 147.639C452.642 151.705 451.443 163.786 451.443 163.786L434.521 169.356C434.521 169.356 435.296 155.43 436.142 150.424C437.129 144.466 442.676 143.631 447.624 147.639Z" fill="black"/>
<path d="M224.069 198.054C223.413 195.204 221.809 192.662 219.521 190.841C217.233 189.02 214.395 188.029 211.471 188.029H117.457C114.028 188.029 110.74 189.391 108.316 191.816C105.891 194.24 104.53 197.528 104.53 200.956V409.927C104.53 413.356 105.891 416.644 108.316 419.068C110.74 421.493 114.028 422.854 117.457 422.854H415.953C419.382 422.854 422.67 421.493 425.094 419.068C427.518 416.644 428.88 413.356 428.88 409.927V234.39C428.88 230.962 427.518 227.674 425.094 225.25C422.67 222.825 419.382 221.463 415.953 221.463H253.484C246.656 221.464 240.029 219.15 234.686 214.898C229.344 210.646 225.601 204.708 224.069 198.054Z" fill="#4A7848"/>
<path opacity="0.22" d="M190.882 132.972L199.261 160.107C200.331 163.56 202.727 166.448 205.925 168.136C209.122 169.824 212.858 170.173 216.313 169.109L243.436 160.73L190.882 132.972Z" fill="#407BFF"/>
<path d="M190.882 132.972L93.9294 162.927C92.2178 163.453 90.6268 164.311 89.2472 165.452C87.8677 166.594 86.7267 167.996 85.8895 169.578C85.0523 171.161 84.5354 172.893 84.3683 174.676C84.2012 176.458 84.3872 178.257 84.9157 179.967L140.267 359.159C140.795 360.87 141.655 362.46 142.798 363.839C143.941 365.217 145.344 366.357 146.928 367.193C148.511 368.029 150.244 368.544 152.027 368.711C153.81 368.877 155.608 368.69 157.319 368.161L281.406 329.827C283.117 329.3 284.707 328.441 286.085 327.299C287.463 326.157 288.603 324.755 289.439 323.172C290.275 321.59 290.791 319.858 290.957 318.076C291.124 316.294 290.937 314.496 290.408 312.787L243.401 160.73L190.882 132.972Z" fill="#B2CAFF"/>
<path opacity="0.8" d="M190.882 132.972L93.9294 162.927C92.2178 163.453 90.6268 164.311 89.2472 165.452C87.8677 166.594 86.7267 167.996 85.8895 169.578C85.0523 171.161 84.5354 172.893 84.3683 174.676C84.2012 176.458 84.3872 178.257 84.9157 179.967L140.267 359.159C140.795 360.87 141.655 362.46 142.798 363.839C143.941 365.217 145.344 366.357 146.928 367.193C148.511 368.029 150.244 368.544 152.027 368.711C153.81 368.877 155.608 368.69 157.319 368.161L281.406 329.827C283.117 329.3 284.707 328.441 286.085 327.299C287.463 326.157 288.603 324.755 289.439 323.172C290.275 321.59 290.791 319.858 290.957 318.076C291.124 316.294 290.937 314.496 290.408 312.787L243.401 160.73L190.882 132.972Z" fill="white"/>
<g opacity="0.28">
<path d="M243.048 322L162.384 346.914C160.875 347.377 159.245 347.225 157.848 346.489C156.452 345.754 155.404 344.495 154.933 342.989C154.474 341.48 154.63 339.851 155.368 338.458C156.105 337.064 157.364 336.019 158.87 335.55L239.535 310.624C241.045 310.162 242.677 310.316 244.073 311.054C245.47 311.792 246.517 313.053 246.985 314.561C247.445 316.07 247.288 317.699 246.551 319.092C245.813 320.486 244.554 321.532 243.048 322Z" fill="#407BFF"/>
</g>
<g opacity="0.28">
<path d="M156.237 175.783L113.578 188.957C112.07 189.417 110.441 189.263 109.045 188.528C107.65 187.793 106.601 186.536 106.128 185.032C105.668 183.522 105.824 181.892 106.561 180.496C107.299 179.1 108.558 178.053 110.064 177.581L152.724 164.408C154.232 163.941 155.864 164.092 157.261 164.828C158.658 165.564 159.706 166.825 160.174 168.333C160.634 169.843 160.478 171.473 159.741 172.869C159.003 174.265 157.744 175.312 156.237 175.783Z" fill="#407BFF"/>
</g>
<g opacity="0.28">
<path d="M191.047 189.757L120.536 211.533C119.03 211.985 117.407 211.826 116.019 211.089C114.631 210.351 113.589 209.097 113.12 207.596C112.657 206.089 112.81 204.46 113.546 203.066C114.282 201.672 115.54 200.626 117.045 200.157L187.556 178.381C189.065 177.918 190.695 178.071 192.092 178.806C193.488 179.542 194.536 180.8 195.007 182.306C195.462 183.82 195.302 185.451 194.56 186.847C193.818 188.242 192.556 189.288 191.047 189.757Z" fill="#407BFF"/>
</g>
<g opacity="0.28">
<path d="M230.415 202.319L127.516 234.049C126.009 234.512 124.38 234.359 122.986 233.623C121.591 232.888 120.546 231.629 120.077 230.124C119.617 228.616 119.771 226.986 120.506 225.591C121.241 224.196 122.498 223.147 124.002 222.673L226.901 190.943C228.408 190.484 230.036 190.638 231.429 191.374C232.823 192.109 233.869 193.365 234.34 194.869C234.804 196.377 234.651 198.008 233.915 199.404C233.18 200.8 231.921 201.848 230.415 202.319Z" fill="#407BFF"/>
</g>
<g opacity="0.28">
<path d="M237.384 224.883L177.567 243.369C176.059 243.828 174.43 243.672 173.036 242.934C171.642 242.197 170.597 240.937 170.128 239.432C169.668 237.925 169.823 236.297 170.558 234.904C171.294 233.51 172.55 232.464 174.053 231.993L233.87 213.507C235.38 213.051 237.009 213.208 238.404 213.945C239.799 214.682 240.847 215.939 241.321 217.444C241.78 218.953 241.624 220.582 240.886 221.975C240.149 223.369 238.89 224.414 237.384 224.883Z" fill="#407BFF"/>
</g>
<g opacity="0.28">
<path d="M150.138 251.842L134.497 256.672C132.988 257.135 131.358 256.983 129.961 256.247C128.565 255.512 127.517 254.253 127.046 252.747C126.583 251.237 126.738 249.605 127.475 248.208C128.213 246.812 129.475 245.765 130.983 245.296L146.625 240.466C148.133 240.006 149.762 240.16 151.158 240.896C152.553 241.631 153.602 242.887 154.075 244.391C154.532 245.901 154.374 247.531 153.637 248.925C152.9 250.32 151.643 251.368 150.138 251.842Z" fill="#407BFF"/>
</g>
<g opacity="0.28">
<path d="M244.365 247.458L141.466 279.247C139.957 279.706 138.328 279.55 136.934 278.812C135.541 278.074 134.495 276.815 134.027 275.31C133.564 273.803 133.717 272.174 134.452 270.779C135.188 269.385 136.446 268.339 137.952 267.871L240.851 236.082C242.358 235.622 243.985 235.777 245.379 236.512C246.772 237.247 247.819 238.504 248.29 240.007C248.753 241.516 248.6 243.146 247.865 244.543C247.129 245.939 245.871 246.987 244.365 247.458Z" fill="#407BFF"/>
</g>
<g opacity="0.28">
<path d="M211.624 282.291L148.434 301.811C146.927 302.271 145.3 302.116 143.906 301.381C142.513 300.646 141.466 299.389 140.995 297.886C140.535 296.377 140.689 294.748 141.425 293.353C142.16 291.957 143.416 290.909 144.92 290.435L208.11 270.915C209.62 270.456 211.251 270.612 212.646 271.349C214.042 272.087 215.09 273.346 215.561 274.852C216.023 276.361 215.868 277.991 215.13 279.386C214.392 280.78 213.131 281.825 211.624 282.291Z" fill="#407BFF"/>
</g>
<g opacity="0.28">
<path d="M251.333 270.033L234.469 275.239C232.959 275.699 231.329 275.543 229.933 274.805C228.538 274.068 227.49 272.809 227.019 271.302C226.56 269.794 226.716 268.165 227.453 266.771C228.191 265.377 229.45 264.332 230.956 263.863L247.82 258.657C249.327 258.194 250.956 258.347 252.35 259.083C253.744 259.819 254.79 261.077 255.258 262.582C255.722 264.091 255.569 265.722 254.833 267.118C254.098 268.514 252.84 269.562 251.333 270.033Z" fill="#407BFF"/>
</g>
<g opacity="0.28">
<path d="M258.302 292.621L155.427 324.351C153.917 324.813 152.285 324.659 150.888 323.921C149.492 323.183 148.445 321.922 147.976 320.414C147.514 318.905 147.668 317.275 148.406 315.88C149.144 314.486 150.405 313.441 151.913 312.975L254.8 281.186C256.31 280.73 257.939 280.887 259.334 281.624C260.729 282.361 261.777 283.618 262.251 285.123C262.487 285.874 262.572 286.665 262.501 287.45C262.43 288.234 262.205 288.997 261.838 289.694C261.47 290.391 260.969 291.008 260.362 291.51C259.756 292.013 259.056 292.39 258.302 292.621Z" fill="#407BFF"/>
</g>
<path d="M260.512 65.5865L291.278 134.147C292.077 135.936 292.134 137.969 291.439 139.802C290.743 141.634 289.35 143.116 287.564 143.924L157.049 202.507C155.259 203.309 153.225 203.368 151.392 202.672C149.559 201.976 148.077 200.581 147.271 198.794L116.493 130.233C115.687 128.443 115.626 126.405 116.322 124.57C117.019 122.734 118.416 121.25 120.207 120.444L250.722 61.8611C252.515 61.0627 254.551 61.0064 256.386 61.7044C258.22 62.4024 259.703 63.7981 260.512 65.5865Z" fill="#76B274"/>
<path opacity="0.3" d="M260.512 65.5865L291.278 134.147C292.077 135.936 292.134 137.969 291.439 139.802C290.743 141.634 289.35 143.116 287.564 143.924L157.049 202.507C155.259 203.309 153.225 203.368 151.392 202.672C149.559 201.976 148.077 200.581 147.271 198.794L116.493 130.233C115.687 128.443 115.626 126.405 116.322 124.57C117.019 122.734 118.416 121.25 120.207 120.444L250.722 61.8611C252.515 61.0627 254.551 61.0064 256.386 61.7044C258.22 62.4024 259.703 63.7981 260.512 65.5865Z" fill="black" fill-opacity="0.5"/>
<path d="M239.942 62.1993L235.771 64.0703L236.252 65.1426L240.423 63.2715L239.942 62.1993Z" fill="#548453"/>
<path d="M229.929 66.6852L216.923 72.5195L217.404 73.5918L230.41 67.7574L229.929 66.6852Z" fill="#548453"/>
<path d="M116.377 137.144L115.305 137.625L118.867 145.558L119.939 145.077L116.377 137.144Z" fill="#548453"/>
<path opacity="0.6" d="M256.14 61.615L222.483 127.543C219.36 133.653 214.245 138.516 207.984 141.325C201.724 144.135 194.691 144.725 188.05 142.996L116.423 124.323C117.157 122.604 118.507 121.221 120.207 120.445L250.723 61.8618C252.432 61.0973 254.368 61.0091 256.14 61.615Z" fill="#4A7848"/>
<path d="M302.407 145.993L201.129 152.245C199.34 152.351 197.59 152.81 195.978 153.593C194.366 154.377 192.924 155.471 191.735 156.813C190.547 158.154 189.634 159.717 189.05 161.411C188.466 163.106 188.222 164.899 188.332 166.688L199.884 353.871C199.992 355.662 200.452 357.413 201.237 359.025C202.023 360.638 203.12 362.079 204.463 363.267C205.807 364.454 207.372 365.365 209.069 365.947C210.766 366.529 212.56 366.77 214.35 366.657L343.973 358.654C345.76 358.547 347.509 358.087 349.118 357.303C350.727 356.518 352.166 355.423 353.352 354.082C354.537 352.74 355.447 351.177 356.027 349.484C356.608 347.79 356.849 345.998 356.736 344.211L346.982 185.362L302.407 145.993Z" fill="white"/>
<path opacity="0.8" d="M302.407 145.993L201.129 152.245C199.34 152.351 197.59 152.81 195.978 153.593C194.366 154.377 192.924 155.471 191.735 156.813C190.547 158.154 189.634 159.717 189.05 161.411C188.466 163.106 188.222 164.899 188.332 166.688L199.884 353.871C199.992 355.662 200.452 357.413 201.237 359.025C202.023 360.638 203.12 362.079 204.463 363.267C205.807 364.454 207.372 365.365 209.069 365.947C210.766 366.529 212.56 366.77 214.35 366.657L343.973 358.654C345.76 358.547 347.509 358.087 349.118 357.303C350.727 356.518 352.166 355.423 353.352 354.082C354.537 352.74 355.447 351.177 356.027 349.484C356.608 347.79 356.849 345.998 356.736 344.211L346.982 185.362L302.407 145.993Z" fill="white"/>
<g opacity="0.22">
<path d="M308.529 341.978L224.257 347.185C222.683 347.275 221.137 346.738 219.957 345.692C218.776 344.646 218.058 343.176 217.958 341.602C217.868 340.029 218.402 338.483 219.445 337.301C220.488 336.12 221.956 335.397 223.528 335.292L307.801 330.097C309.375 330.004 310.923 330.537 312.105 331.581C313.287 332.625 314.009 334.094 314.112 335.668C314.205 337.244 313.67 338.793 312.624 339.976C311.578 341.159 310.105 341.879 308.529 341.978Z" fill="#407BFF"/>
</g>
<g opacity="0.22">
<path d="M258.655 179.427L214.08 182.153C212.506 182.243 210.961 181.709 209.779 180.666C208.597 179.623 207.875 178.155 207.769 176.583C207.679 175.007 208.215 173.46 209.261 172.278C210.306 171.096 211.777 170.375 213.351 170.272L257.926 167.522C259.499 167.429 261.045 167.963 262.226 169.007C263.406 170.051 264.125 171.52 264.225 173.093C264.325 174.671 263.794 176.224 262.75 177.412C261.706 178.599 260.233 179.324 258.655 179.427Z" fill="#407BFF"/>
</g>
<g opacity="0.22">
<path d="M289.186 201.215L215.537 205.751C213.962 205.847 212.413 205.315 211.23 204.271C210.047 203.226 209.326 201.755 209.227 200.18C209.133 198.604 209.668 197.055 210.714 195.872C211.761 194.69 213.233 193.969 214.809 193.87L288.446 189.333C290.021 189.237 291.57 189.769 292.753 190.814C293.936 191.858 294.657 193.329 294.756 194.904C294.85 196.478 294.316 198.026 293.273 199.208C292.229 200.39 290.76 201.112 289.186 201.215Z" fill="#407BFF"/>
</g>
<g opacity="0.22">
<path d="M324.477 222.709L216.995 229.337C215.415 229.434 213.862 228.901 212.675 227.854C211.487 226.808 210.763 225.334 210.66 223.755C210.567 222.182 211.101 220.636 212.145 219.455C213.189 218.275 214.658 217.556 216.231 217.456L323.725 210.816C325.299 210.726 326.845 211.263 328.025 212.309C329.205 213.354 329.924 214.825 330.024 216.399C330.117 217.969 329.587 219.513 328.548 220.695C327.51 221.877 326.046 222.601 324.477 222.709Z" fill="#407BFF"/>
</g>
<g opacity="0.22">
<path d="M325.934 246.283L263.45 250.137C261.875 250.231 260.328 249.697 259.145 248.654C257.963 247.61 257.242 246.141 257.139 244.567C257.042 242.992 257.575 241.443 258.619 240.26C259.663 239.077 261.134 238.356 262.709 238.256L325.194 234.402C326.769 234.305 328.318 234.838 329.501 235.882C330.684 236.926 331.405 238.397 331.504 239.972C331.598 241.547 331.064 243.094 330.021 244.276C328.977 245.459 327.508 246.18 325.934 246.283Z" fill="#407BFF"/>
</g>
<g opacity="0.22">
<path d="M234.787 251.9L218.44 252.91C216.867 253.004 215.321 252.47 214.14 251.426C212.96 250.382 212.241 248.913 212.141 247.34C212.048 245.766 212.581 244.218 213.625 243.036C214.669 241.853 216.138 241.132 217.711 241.029L234.058 240.019C235.634 239.928 237.181 240.465 238.363 241.51C239.545 242.556 240.266 244.026 240.369 245.601C240.459 247.175 239.923 248.721 238.877 249.901C237.831 251.081 236.361 251.8 234.787 251.9Z" fill="#407BFF"/>
</g>
<g opacity="0.22">
<path d="M327.391 269.857L219.897 276.485C218.323 276.579 216.775 276.045 215.593 275.002C214.411 273.958 213.689 272.489 213.586 270.915C213.496 269.34 214.032 267.792 215.078 266.61C216.123 265.428 217.594 264.707 219.169 264.604L326.651 257.976C328.227 257.883 329.776 258.418 330.959 259.464C332.142 260.51 332.862 261.982 332.962 263.558C333.055 265.132 332.521 266.678 331.477 267.858C330.433 269.039 328.964 269.758 327.391 269.857Z" fill="#407BFF"/>
</g>
<g opacity="0.22">
<path d="M287.365 295.993L221.355 300.071C219.779 300.161 218.232 299.625 217.05 298.58C215.868 297.534 215.147 296.064 215.044 294.489C214.954 292.915 215.49 291.369 216.536 290.189C217.582 289.008 219.052 288.29 220.626 288.19L286.636 284.112C288.21 284.022 289.756 284.559 290.937 285.605C292.117 286.65 292.835 288.121 292.935 289.694C293.032 291.268 292.499 292.816 291.454 293.997C290.41 295.179 288.939 295.897 287.365 295.993Z" fill="#407BFF"/>
</g>
<g opacity="0.22">
<path d="M328.837 293.443L311.209 294.524C309.636 294.618 308.09 294.084 306.909 293.04C305.728 291.996 305.01 290.527 304.91 288.954C304.813 287.379 305.346 285.83 306.39 284.646C307.434 283.463 308.905 282.743 310.48 282.643L328.108 281.562C329.683 281.465 331.232 281.998 332.415 283.042C333.598 284.086 334.319 285.557 334.419 287.132C334.509 288.708 333.973 290.255 332.927 291.437C331.882 292.619 330.411 293.34 328.837 293.443Z" fill="#407BFF"/>
</g>
<g opacity="0.22">
<path d="M330.294 317.018L222.812 323.646C221.237 323.739 219.69 323.206 218.508 322.162C217.325 321.118 216.604 319.649 216.501 318.075C216.408 316.501 216.941 314.953 217.985 313.771C219.028 312.589 220.498 311.867 222.071 311.764L329.565 305.136C331.139 305.043 332.685 305.577 333.865 306.621C335.046 307.665 335.765 309.134 335.864 310.707C335.961 312.282 335.429 313.831 334.384 315.014C333.34 316.197 331.869 316.918 330.294 317.018Z" fill="#407BFF"/>
</g>
<path opacity="0.22" d="M302.407 145.993L304.158 174.339C304.267 176.126 304.728 177.874 305.513 179.483C306.298 181.092 307.392 182.531 308.733 183.718C310.075 184.904 311.636 185.814 313.329 186.397C315.023 186.979 316.814 187.223 318.601 187.113L346.982 185.362L302.407 145.993Z" fill="#9DB1DF"/>
<path opacity="0.5" d="M269.243 216.704C269.225 215.345 268.936 214.004 268.391 212.76C267.846 211.515 267.057 210.393 266.071 209.458C265.085 208.524 263.922 207.796 262.65 207.319C261.379 206.842 260.024 206.624 258.667 206.679H164.534C157.401 206.679 150.432 212.473 149.092 219.606L111.945 409.927C110.558 417.061 115.212 422.854 122.345 422.854H420.842C427.975 422.854 434.885 417.072 436.284 409.927L466.921 253.04C468.308 245.895 463.654 240.113 456.52 240.113H294.098C279.996 240.113 269.725 230.406 269.243 216.704Z" fill="#CFDCBB"/>
</svg>
