<svg width="732" height="540" viewBox="0 0 732 540" fill="none" xmlns="http://www.w3.org/2000/svg">
<path d="M732 479.758H0V480.124H732V479.758Z" fill="#EBEBEB"/>
<path d="M484.906 507.293H472.184V507.659H484.906V507.293Z" fill="#EBEBEB"/>
<path d="M253.594 489.1H219.658V489.466H253.594V489.1Z" fill="#EBEBEB"/>
<path d="M671.639 496.945H588.675V497.311H671.639V496.945Z" fill="#EBEBEB"/>
<path d="M145.507 496.945H62.542V497.311H145.507V496.945Z" fill="#EBEBEB"/>
<path d="M346.968 414.463H64.2843C62.0697 414.459 59.9472 413.576 58.3827 412.009C56.8182 410.442 55.9394 408.318 55.9395 406.103V8.7296C55.9587 6.52778 56.846 4.42248 58.4084 2.87099C59.9709 1.3195 62.0824 0.447131 64.2843 0.443359H346.968C349.185 0.443359 351.311 1.32408 352.879 2.89178C354.447 4.45948 355.327 6.58574 355.327 8.8028V406.103C355.327 408.32 354.447 410.446 352.879 412.014C351.311 413.582 349.185 414.463 346.968 414.463ZM64.2843 0.73616C62.1668 0.740039 60.1374 1.58391 58.6415 3.08255C57.1456 4.58119 56.3054 6.61214 56.3055 8.7296V406.103C56.3054 408.221 57.1456 410.252 58.6415 411.75C60.1374 413.249 62.1668 414.093 64.2843 414.097H346.968C349.087 414.093 351.118 413.249 352.616 411.751C354.114 410.253 354.958 408.222 354.961 406.103V8.7296C354.958 6.6108 354.114 4.57988 352.616 3.08166C351.118 1.58344 349.087 0.74003 346.968 0.73616H64.2843Z" fill="#EBEBEB"/>
<path d="M663.646 414.463H380.947C378.731 414.459 376.607 413.577 375.041 412.01C373.474 410.443 372.592 408.319 372.588 406.103V8.7296C372.611 6.52644 373.501 4.42116 375.066 2.87008C376.631 1.31899 378.744 0.44709 380.947 0.443359H663.646C665.845 0.450979 667.953 1.32505 669.512 2.87613C671.071 4.42721 671.957 6.53031 671.976 8.7296V406.103C671.976 408.315 671.099 410.437 669.538 412.004C667.976 413.571 665.858 414.455 663.646 414.463ZM380.947 0.73616C378.829 0.74003 376.798 1.58344 375.299 3.08166C373.801 4.57988 372.958 6.6108 372.954 8.7296V406.103C372.958 408.222 373.801 410.253 375.299 411.751C376.798 413.249 378.829 414.093 380.947 414.097H663.646C665.765 414.093 667.795 413.249 669.294 411.751C670.792 410.253 671.635 408.222 671.639 406.103V8.7296C671.635 6.6108 670.792 4.57988 669.294 3.08166C667.795 1.58344 665.765 0.74003 663.646 0.73616H380.947Z" fill="#EBEBEB"/>
<path d="M165.871 265.953L554.593 265.953V54.8004L165.871 54.8004V265.953Z" fill="#E6E6E6"/>
<path d="M161.45 265.953L550.171 265.953V54.8004L161.45 54.8004V265.953Z" fill="#F5F5F5"/>
<path d="M542.251 257.054V63.7031L169.385 63.7031V257.054H542.251Z" fill="white"/>
<path d="M172.723 257.067V63.7168H169.385V257.067H172.723Z" fill="#E6E6E6"/>
<path d="M164.729 223.205L546.892 223.205V211.259L164.729 211.259V223.205Z" fill="#F5F5F5"/>
<path d="M164.729 121.691L546.892 121.691V109.745L164.729 109.745V121.691Z" fill="#F5F5F5"/>
<path d="M152.827 40.0742H563.23C563.554 40.0781 563.863 40.2093 564.09 40.4395C564.318 40.6697 564.445 40.9804 564.445 41.304C564.445 41.6263 564.317 41.9353 564.089 42.1632C563.861 42.3911 563.552 42.5191 563.23 42.5191H152.827C152.503 42.5191 152.193 42.3916 151.962 42.1641C151.732 41.9366 151.601 41.6276 151.597 41.304C151.601 40.979 151.732 40.6684 151.962 40.4386C152.191 40.2088 152.502 40.078 152.827 40.0742Z" fill="#E6E6E6"/>
<path d="M145.507 41.3022C145.507 42.5102 145.865 43.6911 146.536 44.6954C147.208 45.6996 148.162 46.4821 149.279 46.9437C150.395 47.4054 151.623 47.5254 152.808 47.2887C153.993 47.0519 155.08 46.469 155.933 45.6138C156.787 44.7585 157.367 43.6694 157.601 42.4842C157.835 41.299 157.712 40.071 157.247 38.9558C156.783 37.8405 155.998 36.8881 154.993 36.219C153.987 35.55 152.805 35.1944 151.597 35.1973C150.796 35.1973 150.003 35.3553 149.263 35.6623C148.523 35.9693 147.851 36.4192 147.285 36.9862C146.719 37.5533 146.271 38.2264 145.966 38.967C145.661 39.7076 145.505 40.5012 145.507 41.3022Z" fill="#E6E6E6"/>
<path d="M552.953 48.1259C553.388 48.1259 553.805 47.9532 554.112 47.6457C554.42 47.3382 554.593 46.9211 554.593 46.4862V42.8994C554.593 42.4646 554.42 42.0475 554.112 41.74C553.805 41.4325 553.388 41.2598 552.953 41.2598C552.517 41.2597 552.098 41.432 551.788 41.7391C551.478 42.0462 551.302 42.4632 551.299 42.8994V46.4423C551.295 46.662 551.335 46.8803 551.416 47.0844C551.497 47.2885 551.619 47.4744 551.773 47.6311C551.927 47.7878 552.11 47.9123 552.313 47.9973C552.516 48.0822 552.733 48.126 552.953 48.1259Z" fill="#E6E6E6"/>
<path d="M171.288 48.1286C171.724 48.1286 172.143 47.9563 172.453 47.6492C172.762 47.3421 172.938 46.9251 172.942 46.4889V42.9021C172.927 42.4736 172.746 42.0677 172.438 41.77C172.129 41.4723 171.717 41.3061 171.288 41.3063C171.07 41.2965 170.853 41.3303 170.648 41.4055C170.444 41.4808 170.256 41.5961 170.097 41.7446C169.937 41.8932 169.809 42.0721 169.719 42.2709C169.63 42.4696 169.581 42.6842 169.575 42.9021V46.445C169.569 46.6703 169.609 46.8944 169.693 47.1035C169.778 47.3125 169.904 47.502 170.065 47.6599C170.225 47.8179 170.417 47.9411 170.628 48.0217C170.838 48.1024 171.063 48.1387 171.288 48.1286Z" fill="#E6E6E6"/>
<path opacity="0.5" d="M153.222 85.6328L546.906 85.6328V41.3029L153.222 41.3029V85.6328Z" fill="#E0E0E0"/>
<path d="M533.32 47.407C536.692 47.407 539.425 44.6738 539.425 41.3022C539.425 37.9305 536.692 35.1973 533.32 35.1973C529.949 35.1973 527.215 37.9305 527.215 41.3022C527.215 44.6738 529.949 47.407 533.32 47.407Z" fill="#E6E6E6"/>
<path d="M433.183 479.758H458.159V312.803H433.183V479.758Z" fill="#E6E6E6"/>
<path d="M439.756 479.755H433.183V457.02H446.637L439.756 479.755Z" fill="#F0F0F0"/>
<path d="M616.006 479.758H640.981V312.803H616.006V479.758Z" fill="#E6E6E6"/>
<path d="M413.183 465.803H621.73V312.8H413.183V465.803Z" fill="#F0F0F0"/>
<path d="M418.277 361.523H616.635V319.565H418.277V361.523Z" fill="#E6E6E6"/>
<path d="M457.63 332.609H572.92C579.317 332.609 585.452 327.441 589.858 318.291H440.691C445.098 327.441 451.217 332.609 457.63 332.609Z" fill="#F0F0F0"/>
<path d="M622.171 479.755H628.73V457.02H615.275L622.171 479.755Z" fill="#F0F0F0"/>
<path d="M418.277 410.275H616.635V368.317H418.277V410.275Z" fill="#E6E6E6"/>
<path d="M457.63 381.363H572.92C579.317 381.363 585.452 376.18 589.858 367.045H440.691C445.098 376.18 451.217 381.363 457.63 381.363Z" fill="#F0F0F0"/>
<path d="M418.277 459.027H616.635V417.069H418.277V459.027Z" fill="#E6E6E6"/>
<path d="M457.63 430.097H572.92C579.317 430.097 585.452 424.915 589.858 415.779H440.691C445.098 424.915 451.217 430.097 457.63 430.097Z" fill="#F0F0F0"/>
<path d="M584.458 229.092C580.506 215.784 629.74 149.201 651.348 151.192C672.957 153.183 634.966 233.952 623.298 241.096C610.137 249.163 588.762 243.571 584.458 229.092Z" fill="#F5F5F5"/>
<path d="M581.632 248.285C579.729 241.492 614.148 230.439 627.821 238.447C641.495 246.455 613.577 267.083 605.861 266.146C597.063 265.092 583.711 255.678 581.632 248.285Z" fill="#F5F5F5"/>
<path d="M623.444 242.193C628.202 233.263 593.154 181.101 574.473 180.134C555.793 179.168 579.788 240.158 588.996 246.41C599.405 253.51 618.247 251.9 623.444 242.193Z" fill="#F5F5F5"/>
<path d="M605.481 214.438H605.408C604.52 214.424 603.657 214.732 602.979 215.306C602.301 215.879 601.853 216.678 601.719 217.556C597.66 245.077 597.168 273.006 600.255 300.653C600.357 301.533 600.776 302.347 601.433 302.942C602.09 303.537 602.941 303.873 603.827 303.888H603.9C604.418 303.896 604.931 303.793 605.406 303.586C605.881 303.38 606.306 303.075 606.654 302.691C607.002 302.307 607.263 301.854 607.422 301.361C607.581 300.868 607.633 300.348 607.575 299.833C604.634 272.796 605.121 245.496 609.024 218.581C609.097 218.07 609.06 217.55 608.916 217.055C608.772 216.56 608.524 216.101 608.189 215.709C607.854 215.317 607.439 215.001 606.972 214.781C606.505 214.562 605.997 214.445 605.481 214.438Z" fill="#EBEBEB"/>
<path d="M582.802 312.789C595.744 312.789 606.65 305.176 609.3 294.855C609.949 292.098 610.876 289.415 612.067 286.846L612.272 286.422H553.332L553.537 286.846C554.728 289.415 555.655 292.098 556.303 294.855C558.953 305.176 569.875 312.789 582.802 312.789Z" fill="#FAFAFA"/>
<path d="M553.214 289.013H612.448C614.102 289.013 615.537 287.402 615.947 285.089C616.532 281.766 614.805 278.545 612.448 278.545H553.214C550.857 278.545 549.13 281.766 549.73 285.089C550.14 287.387 551.575 289.013 553.214 289.013Z" fill="#F0F0F0"/>
<path d="M390.756 374.58H317.834V479.754H390.756V374.58Z" fill="#F0F0F0"/>
<path d="M100.972 479.758H317.849V374.584H100.972V479.758Z" fill="#F5F5F5"/>
<path d="M120.019 456.467H165.871V409.78H120.019V456.467Z" fill="#FAFAFA"/>
<path d="M182.268 456.467H228.12V409.78H182.268V456.467Z" fill="#FAFAFA"/>
<g style="mix-blend-mode:multiply" opacity="0.7">
<path d="M390.756 385.77H100.196V391.757H390.756V385.77Z" fill="#E6E6E6"/>
</g>
<path d="M394.782 370.953H317.834V388.302H394.782V370.953Z" fill="#F0F0F0"/>
<path d="M96.9456 388.287H317.849V370.939H96.9456V388.287Z" fill="#F5F5F5"/>
<path d="M159.429 341.426C159.429 341.426 160.82 370.955 214.036 370.955C267.253 370.955 268.644 341.426 268.644 341.426H159.429Z" fill="#F0F0F0"/>
<path d="M159.429 321.865C159.429 321.865 160.82 351.394 214.036 351.394C267.253 351.394 268.644 321.865 268.644 321.865H159.429Z" fill="#F0F0F0"/>
<path d="M290.583 506.527H141.465V534.593H290.583V506.527Z" fill="#CFDCBB"/>
<path opacity="0.2" d="M290.583 506.527H141.465V509.717H290.583V506.527Z" fill="black"/>
<path opacity="0.2" d="M158.261 506.527H152.384V534.593H158.261V506.527Z" fill="black"/>
<path opacity="0.2" d="M171.747 506.527H165.87V534.593H171.747V506.527Z" fill="black"/>
<path opacity="0.2" d="M185.248 506.527H179.371V534.593H185.248V506.527Z" fill="black"/>
<path opacity="0.2" d="M198.734 506.527H192.857V534.593H198.734V506.527Z" fill="black"/>
<path opacity="0.2" d="M212.22 506.527H206.342V534.593H212.22V506.527Z" fill="black"/>
<path opacity="0.2" d="M225.721 506.527H219.844V534.593H225.721V506.527Z" fill="black"/>
<path opacity="0.2" d="M239.207 506.527H233.329V534.593H239.207V506.527Z" fill="black"/>
<path opacity="0.2" d="M252.692 506.527H246.815V534.593H252.692V506.527Z" fill="black"/>
<path opacity="0.2" d="M266.193 506.527H260.316V534.593H266.193V506.527Z" fill="black"/>
<path opacity="0.2" d="M279.68 506.527H273.802V534.593H279.68V506.527Z" fill="black"/>
<path d="M284.524 478.463H135.405V506.528H284.524V478.463Z" fill="#CFDCBB"/>
<path opacity="0.2" d="M284.524 478.463H135.405V481.652H284.524V478.463Z" fill="black"/>
<path opacity="0.2" d="M152.187 478.463H146.309V506.528H152.187V478.463Z" fill="black"/>
<path opacity="0.2" d="M165.688 478.463H159.811V506.528H165.688V478.463Z" fill="black"/>
<path opacity="0.2" d="M179.173 478.463H173.296V506.528H179.173V478.463Z" fill="black"/>
<path opacity="0.2" d="M192.659 478.463H186.782V506.528H192.659V478.463Z" fill="black"/>
<path opacity="0.2" d="M206.16 478.463H200.283V506.528H206.16V478.463Z" fill="black"/>
<path opacity="0.2" d="M219.646 478.463H213.769V506.528H219.646V478.463Z" fill="black"/>
<path opacity="0.2" d="M233.132 478.463H227.254V506.528H233.132V478.463Z" fill="black"/>
<path opacity="0.2" d="M246.633 478.463H240.756V506.528H246.633V478.463Z" fill="black"/>
<path opacity="0.2" d="M260.119 478.463H254.241V506.528H260.119V478.463Z" fill="black"/>
<path opacity="0.2" d="M273.605 478.463H267.728V506.528H273.605V478.463Z" fill="black"/>
<path d="M280.226 450.398H131.107V478.464H280.226V450.398Z" fill="#CFDCBB"/>
<path opacity="0.2" d="M280.226 450.398H131.107V453.588H280.226V450.398Z" fill="black"/>
<path opacity="0.2" d="M147.904 450.398H142.027V478.464H147.904V450.398Z" fill="black"/>
<path opacity="0.2" d="M161.389 450.398H155.512V478.464H161.389V450.398Z" fill="black"/>
<path opacity="0.2" d="M174.891 450.398H169.014V478.464H174.891V450.398Z" fill="black"/>
<path opacity="0.2" d="M188.376 450.398H182.499V478.464H188.376V450.398Z" fill="black"/>
<path opacity="0.2" d="M201.863 450.398H195.985V478.464H201.863V450.398Z" fill="black"/>
<path opacity="0.2" d="M215.363 450.398H209.486V478.464H215.363V450.398Z" fill="black"/>
<path opacity="0.2" d="M228.849 450.398H222.972V478.464H228.849V450.398Z" fill="black"/>
<path opacity="0.2" d="M242.335 450.398H236.458V478.464H242.335V450.398Z" fill="black"/>
<path opacity="0.2" d="M255.836 450.398H249.959V478.464H255.836V450.398Z" fill="black"/>
<path opacity="0.2" d="M269.322 450.398H263.445V478.464H269.322V450.398Z" fill="black"/>
<path d="M286.984 422.348H137.865V450.413H286.984V422.348Z" fill="#CFDCBB"/>
<path opacity="0.2" d="M286.984 422.348H137.865V425.537H286.984V422.348Z" fill="black"/>
<path opacity="0.2" d="M154.647 422.348H148.77V450.413H154.647V422.348Z" fill="black"/>
<path opacity="0.2" d="M168.148 422.348H162.271V450.413H168.148V422.348Z" fill="black"/>
<path opacity="0.2" d="M181.634 422.348H175.756V450.413H181.634V422.348Z" fill="black"/>
<path opacity="0.2" d="M195.119 422.348H189.242V450.413H195.119V422.348Z" fill="black"/>
<path opacity="0.2" d="M208.621 422.348H202.744V450.413H208.621V422.348Z" fill="black"/>
<path opacity="0.2" d="M222.106 422.348H216.229V450.413H222.106V422.348Z" fill="black"/>
<path opacity="0.2" d="M235.592 422.348H229.715V450.413H235.592V422.348Z" fill="black"/>
<path opacity="0.2" d="M249.093 422.348H243.216V450.413H249.093V422.348Z" fill="black"/>
<path opacity="0.2" d="M262.579 422.348H256.702V450.413H262.579V422.348Z" fill="black"/>
<path opacity="0.2" d="M276.065 422.348H270.188V450.413H276.065V422.348Z" fill="black"/>
<path d="M131.32 422.332H280.439V394.267H131.32V422.332Z" fill="#CFDCBB"/>
<path opacity="0.2" d="M131.32 397.455H280.439V394.266H131.32V397.455Z" fill="black"/>
<path opacity="0.2" d="M263.642 422.332H269.519V394.267H263.642V422.332Z" fill="black"/>
<path opacity="0.2" d="M250.141 422.332H256.018V394.267H250.141V422.332Z" fill="black"/>
<path opacity="0.2" d="M236.655 422.332H242.532V394.267H236.655V422.332Z" fill="black"/>
<path opacity="0.2" d="M223.17 422.332H229.047V394.267H223.17V422.332Z" fill="black"/>
<path opacity="0.2" d="M209.668 422.332H215.545V394.267H209.668V422.332Z" fill="black"/>
<path opacity="0.2" d="M196.183 422.332H202.06V394.267H196.183V422.332Z" fill="black"/>
<path opacity="0.2" d="M182.697 422.332H188.574V394.267H182.697V422.332Z" fill="black"/>
<path opacity="0.2" d="M169.196 422.332H175.073V394.267H169.196V422.332Z" fill="black"/>
<path opacity="0.2" d="M155.71 422.332H161.587V394.267H155.71V422.332Z" fill="black"/>
<path opacity="0.2" d="M142.224 422.332H148.102V394.267H142.224V422.332Z" fill="black"/>
<path d="M137.38 394.285H286.499V366.22H137.38V394.285Z" fill="#CFDCBB"/>
<path opacity="0.2" d="M137.38 369.408H286.499V366.219H137.38V369.408Z" fill="black"/>
<path opacity="0.2" d="M269.702 394.285H275.579V366.22H269.702V394.285Z" fill="black"/>
<path opacity="0.2" d="M256.231 394.285H262.108V366.22H256.231V394.285Z" fill="black"/>
<path opacity="0.2" d="M242.73 394.285H248.607V366.22H242.73V394.285Z" fill="black"/>
<path opacity="0.2" d="M229.229 394.285H235.106V366.22H229.229V394.285Z" fill="black"/>
<path opacity="0.2" d="M215.758 394.285H221.635V366.22H215.758V394.285Z" fill="black"/>
<path opacity="0.2" d="M202.257 394.285H208.135V366.22H202.257V394.285Z" fill="black"/>
<path opacity="0.2" d="M188.756 394.285H194.634V366.22H188.756V394.285Z" fill="black"/>
<path opacity="0.2" d="M175.285 394.285H181.163V366.22H175.285V394.285Z" fill="black"/>
<path opacity="0.2" d="M161.785 394.285H167.662V366.22H161.785V394.285Z" fill="black"/>
<path opacity="0.2" d="M148.284 394.285H154.161V366.22H148.284V394.285Z" fill="black"/>
<path d="M141.677 366.215H290.796V338.15H141.677V366.215Z" fill="#CFDCBB"/>
<path opacity="0.2" d="M141.677 341.34H290.796V338.151H141.677V341.34Z" fill="black"/>
<path opacity="0.2" d="M274 366.215H279.877V338.15H274V366.215Z" fill="black"/>
<path opacity="0.2" d="M260.499 366.215H266.376V338.15H260.499V366.215Z" fill="black"/>
<path opacity="0.2" d="M247.013 366.215H252.89V338.15H247.013V366.215Z" fill="black"/>
<path opacity="0.2" d="M233.527 366.215H239.404V338.15H233.527V366.215Z" fill="black"/>
<path opacity="0.2" d="M220.026 366.215H225.903V338.15H220.026V366.215Z" fill="black"/>
<path opacity="0.2" d="M206.54 366.215H212.417V338.15H206.54V366.215Z" fill="black"/>
<path opacity="0.2" d="M193.054 366.215H198.931V338.15H193.054V366.215Z" fill="black"/>
<path opacity="0.2" d="M179.553 366.215H185.43V338.15H179.553V366.215Z" fill="black"/>
<path opacity="0.2" d="M166.067 366.215H171.944V338.15H166.067V366.215Z" fill="black"/>
<path opacity="0.2" d="M152.581 366.215H158.459V338.15H152.581V366.215Z" fill="black"/>
<path d="M134.919 338.152H284.038V310.087H134.919V338.152Z" fill="#CFDCBB"/>
<path opacity="0.2" d="M134.919 313.275H284.038V310.086H134.919V313.275Z" fill="black"/>
<path opacity="0.2" d="M267.241 338.152H273.119V310.087H267.241V338.152Z" fill="black"/>
<path opacity="0.2" d="M253.771 338.152H259.648V310.087H253.771V338.152Z" fill="black"/>
<path opacity="0.2" d="M240.27 338.152H246.147V310.087H240.27V338.152Z" fill="black"/>
<path opacity="0.2" d="M226.769 338.152H232.646V310.087H226.769V338.152Z" fill="black"/>
<path opacity="0.2" d="M213.298 338.152H219.175V310.087H213.298V338.152Z" fill="black"/>
<path opacity="0.2" d="M199.797 338.152H205.674V310.087H199.797V338.152Z" fill="black"/>
<path opacity="0.2" d="M186.296 338.152H192.173V310.087H186.296V338.152Z" fill="black"/>
<path opacity="0.2" d="M172.825 338.152H178.702V310.087H172.825V338.152Z" fill="black"/>
<path opacity="0.2" d="M159.324 338.152H165.202V310.087H159.324V338.152Z" fill="black"/>
<path opacity="0.2" d="M145.823 338.152H151.701V310.087H145.823V338.152Z" fill="black"/>
<path d="M599.819 215.918L542.953 225.662C541.859 225.846 540.844 226.351 540.038 227.113C539.232 227.876 538.671 228.861 538.427 229.943C538.182 231.025 538.266 232.155 538.665 233.19C539.065 234.225 539.764 235.118 540.673 235.754L551.157 243.175L486.871 334.05C486.453 334.641 485.922 335.144 485.309 335.529C484.697 335.915 484.014 336.176 483.301 336.297C482.587 336.419 481.857 336.398 481.151 336.237C480.445 336.075 479.779 335.777 479.189 335.357L384.697 268.558C383.5 267.716 382.019 267.382 380.576 267.629C379.134 267.877 377.848 268.686 377.001 269.88L186.522 539.109H254.976L390.361 347.729C390.779 347.139 391.309 346.636 391.922 346.25C392.534 345.865 393.217 345.604 393.93 345.482C394.644 345.361 395.374 345.382 396.08 345.543C396.786 345.704 397.452 346.003 398.042 346.423L492.534 413.222C493.126 413.641 493.795 413.939 494.502 414.099C495.209 414.26 495.941 414.279 496.656 414.156C497.371 414.034 498.055 413.771 498.668 413.384C499.281 412.997 499.812 412.493 500.23 411.9L596.784 275.398L607.283 282.818C608.188 283.442 609.256 283.786 610.355 283.807C611.454 283.828 612.534 283.526 613.463 282.938C614.391 282.35 615.126 281.502 615.577 280.5C616.027 279.497 616.173 278.385 615.996 277.3L606.237 220.434C605.975 218.989 605.155 217.705 603.954 216.86C602.753 216.015 601.268 215.677 599.819 215.918Z" fill="#97E422"/>
<path opacity="0.2" d="M250.693 531.192H202.51C202.444 531.189 202.379 531.169 202.323 531.133C202.267 531.098 202.222 531.048 202.191 530.989C202.156 530.932 202.138 530.867 202.138 530.8C202.138 530.733 202.156 530.668 202.191 530.611L378.656 281.132C379.099 280.496 379.662 279.955 380.315 279.538C380.967 279.121 381.695 278.837 382.457 278.702C383.219 278.567 384.001 278.584 384.757 278.752C385.512 278.919 386.227 279.235 386.861 279.679L481.338 346.478C481.893 346.881 482.523 347.169 483.191 347.325C483.859 347.481 484.552 347.502 485.228 347.387C485.904 347.272 486.55 347.023 487.129 346.655C487.708 346.287 488.208 345.808 488.599 345.244L562.237 241.154L550.62 232.891C550.558 232.853 550.51 232.795 550.484 232.727C550.458 232.659 550.455 232.584 550.475 232.513C550.491 232.444 550.527 232.381 550.579 232.332C550.63 232.283 550.695 232.25 550.765 232.238L598.686 224.033C598.732 224.025 598.779 224.026 598.825 224.036C598.87 224.046 598.913 224.065 598.951 224.092C598.989 224.119 599.021 224.154 599.045 224.193C599.07 224.233 599.086 224.277 599.093 224.323L607.298 272.244C607.309 272.316 607.299 272.389 607.271 272.456C607.243 272.522 607.197 272.58 607.138 272.622C607.077 272.661 607.007 272.681 606.935 272.681C606.863 272.681 606.792 272.661 606.731 272.622L595.114 264.359L498.764 400.571C498.321 401.204 497.759 401.744 497.108 402.16C496.457 402.575 495.73 402.859 494.97 402.993C494.209 403.128 493.429 403.112 492.675 402.946C491.921 402.779 491.207 402.466 490.574 402.023L396.082 335.224C395.529 334.833 394.905 334.555 394.244 334.405C393.583 334.255 392.9 334.237 392.232 334.352C391.565 334.466 390.926 334.712 390.354 335.073C389.781 335.434 389.285 335.905 388.894 336.459L250.998 531.032C250.963 531.081 250.918 531.121 250.864 531.149C250.811 531.177 250.753 531.191 250.693 531.192ZM203.207 530.466H250.504L388.081 335.979C388.977 334.7 390.344 333.828 391.883 333.556C393.421 333.283 395.005 333.633 396.286 334.527L490.777 401.326C491.33 401.717 491.955 401.996 492.615 402.145C493.276 402.295 493.959 402.313 494.627 402.199C495.294 402.084 495.933 401.839 496.506 401.477C497.078 401.116 497.574 400.645 497.965 400.092L594.519 263.59C594.544 263.549 594.577 263.515 594.618 263.489C594.658 263.464 594.704 263.449 594.751 263.444C594.794 263.424 594.841 263.413 594.889 263.413C594.937 263.413 594.984 263.424 595.027 263.444L606.281 271.402L598.28 224.919L551.651 232.906L562.905 240.863C562.98 240.921 563.032 241.003 563.051 241.096C563.087 241.184 563.087 241.283 563.051 241.372L489.209 345.767C488.766 346.399 488.201 346.937 487.548 347.348C486.894 347.759 486.166 348.036 485.404 348.163C483.879 348.416 482.315 348.062 481.048 347.175L386.571 280.376C386.015 279.974 385.385 279.686 384.717 279.53C384.049 279.374 383.357 279.353 382.681 279.468C382.005 279.583 381.358 279.832 380.779 280.2C380.201 280.568 379.701 281.047 379.31 281.611L203.207 530.466Z" fill="white"/>
<path d="M510.995 442.6H504.753V535.467H510.995V442.6Z" fill="#587057"/>
<path d="M565.607 392H559.365V535.469H565.607V392Z" fill="#587057"/>
<path d="M621.22 426.414H614.979V535.47H621.22V426.414Z" fill="#587057"/>
<path d="M504.768 442.6H461V535.467H504.768V442.6Z" fill="#6D896C"/>
<path opacity="0.2" d="M461 442.6V497.667L482.869 442.6H461Z" fill="white"/>
<path d="M559.364 392H515.596V535.469H559.364V392Z" fill="#6D896C"/>
<path opacity="0.2" d="M515.596 392V447.067L537.48 392H515.596Z" fill="white"/>
<path d="M614.994 426.414H571.226V535.47H614.994V426.414Z" fill="#6D896C"/>
<path opacity="0.2" d="M571.226 426.414V475.422L593.11 426.414H571.226Z" fill="white"/>
<path d="M376.753 526.971L365.014 524.769L367.003 496.992L378.743 499.209L376.753 526.971Z" fill="#A87A77"/>
<path d="M455.755 526.649H443.803L440.841 498.994H452.778L455.755 526.649Z" fill="#A87A77"/>
<path d="M442.83 525.27H457.379C457.617 525.271 457.847 525.353 458.032 525.501C458.216 525.65 458.345 525.858 458.397 526.09L460.766 536.72C460.821 536.979 460.817 537.246 460.754 537.503C460.691 537.76 460.571 537.999 460.404 538.203C460.236 538.407 460.025 538.571 459.785 538.683C459.545 538.794 459.284 538.85 459.019 538.847C454.327 538.771 450.91 538.482 445.017 538.482C441.388 538.482 430.438 538.862 425.426 538.862C420.415 538.862 419.762 533.911 421.812 533.455C431.015 531.451 437.94 528.671 440.886 526.029C441.417 525.542 442.11 525.271 442.83 525.27Z" fill="#263238"/>
<path d="M365.257 522.186L378.12 524.403C378.353 524.444 378.565 524.562 378.722 524.739C378.879 524.915 378.972 525.139 378.986 525.375L379.502 536.234C379.515 536.496 379.469 536.758 379.367 537C379.265 537.242 379.109 537.458 378.912 537.632C378.715 537.805 378.482 537.932 378.229 538.003C377.976 538.074 377.71 538.087 377.452 538.041C372.896 537.16 366.168 535.733 360.351 534.73C353.532 533.561 350.207 532.71 342.218 531.328C337.389 530.493 338.437 525.254 340.548 525.117C350.1 524.692 353.472 526.15 362.265 522.611C363.203 522.194 364.239 522.046 365.257 522.186Z" fill="#263238"/>
<path d="M406.155 161.196C405.745 162.411 405.426 163.291 405.046 164.233C404.666 165.175 404.287 166.177 403.892 167.134C403.102 169.062 402.267 170.946 401.386 172.829C399.627 176.608 397.654 180.284 395.478 183.839C391.026 191.444 385.226 198.176 378.363 203.703C376.452 205.16 374.42 206.451 372.288 207.561C371.741 207.865 371.18 208.123 370.602 208.381C370.025 208.639 369.509 208.882 368.826 209.14C367.479 209.636 366.092 210.012 364.68 210.264C362.386 210.651 360.065 210.849 357.739 210.856C355.552 210.856 353.457 210.856 351.391 210.659C343.335 210.016 335.363 208.572 327.594 206.346L328.793 197.462C336.387 197.173 344.086 196.93 351.315 196.292C353.122 196.125 354.899 195.913 356.585 195.654C358.128 195.445 359.652 195.11 361.141 194.652C361.627 194.513 362.096 194.32 362.538 194.075C363.039 193.771 363.723 193.483 364.285 193.088C365.523 192.307 366.696 191.429 367.793 190.461C370.215 188.312 372.4 185.909 374.308 183.292C376.387 180.518 378.285 177.611 379.988 174.59C381.765 171.553 383.359 168.318 384.924 165.068C385.683 163.443 386.442 161.788 387.11 160.133L388.128 157.657L389.054 155.318L406.155 161.196Z" fill="#A87A77"/>
<path d="M400.399 147.197C422.192 147.197 398.242 194.276 398.242 194.276L370.435 183.022C370.435 183.022 378.028 166.651 383.025 157.281C384.643 154.106 387.143 151.466 390.225 149.677C393.307 147.889 396.839 147.027 400.399 147.197Z" fill="#407BFF"/>
<g opacity="0.3">
<path d="M400.399 147.197C422.192 147.197 398.242 194.276 398.242 194.276L370.435 183.022C370.435 183.022 378.029 166.651 383.025 157.281C384.643 154.106 387.143 151.466 390.225 149.677C393.307 147.889 396.84 147.027 400.399 147.197Z" fill="white"/>
</g>
<path opacity="0.2" d="M395.068 162.41C387.095 168.014 381.552 178.417 379.973 186.861L395.858 193.3C398.744 188.987 401.553 183.899 404.651 179.435C405.502 177.111 406.337 174.666 407.066 172.19L395.068 162.41Z" fill="black"/>
<path d="M335.627 198.602L326.075 193.211L318.755 206.879C322.983 207.594 327.309 207.486 331.496 206.56L335.627 198.602Z" fill="#A87A77"/>
<path d="M316.932 193.211L311.617 205.269L318.694 206.925L326.014 193.211H316.932Z" fill="#A87A77"/>
<path opacity="0.2" d="M367.003 497.006L365.986 511.312L377.725 513.514L378.742 499.208L367.003 497.006Z" fill="black"/>
<path opacity="0.2" d="M452.778 499.014H440.826L442.375 513.274H454.312L452.778 499.014Z" fill="black"/>
<path d="M459.825 152.404C456.322 165.294 453.784 178.426 452.231 191.692C451.092 200.941 450.424 209.765 449.999 217.783C448.996 236.554 449.422 250.86 448.86 255.75C439.52 255.112 404.332 252.713 385.075 251.316C376.404 183.385 392.972 148.395 392.972 148.395C397.991 147.452 403.063 146.818 408.159 146.496C409.237 146.496 410.346 146.39 411.455 146.375C420.514 146.481 429.561 147.11 438.548 148.258C440.249 148.456 441.98 148.714 443.651 148.987C452.322 150.324 459.825 152.404 459.825 152.404Z" fill="#407BFF"/>
<g opacity="0.3">
<path d="M459.825 152.404C456.322 165.294 453.784 178.426 452.231 191.692C451.092 200.941 450.424 209.765 449.999 217.783C448.996 236.554 449.422 250.86 448.86 255.75C439.52 255.112 404.332 252.713 385.075 251.316C376.404 183.385 392.972 148.395 392.972 148.395C397.991 147.452 403.063 146.818 408.159 146.496C409.237 146.496 410.346 146.39 411.455 146.375C420.514 146.481 429.561 147.11 438.548 148.258C440.249 148.456 441.98 148.714 443.651 148.987C452.322 150.324 459.825 152.404 459.825 152.404Z" fill="white"/>
</g>
<path opacity="0.2" d="M443.742 169.598C443.62 179.373 446.36 188.97 451.624 197.207C451.806 195.385 452.019 193.547 452.247 191.694C453.097 184.739 454.191 177.54 455.633 170.266L443.742 169.598Z" fill="black"/>
<path d="M438.123 117.52C435.815 126.13 432.99 141.97 438.685 148.212C435.805 150.825 432.397 152.788 428.692 153.97C424.987 155.152 421.072 155.524 417.211 155.061C409.724 154.378 409.724 149.108 411.592 146.329C421.478 144.689 421.721 137.46 420.506 130.565L438.123 117.52Z" fill="#A87A77"/>
<path d="M411.728 157.901C411.904 159.241 412.22 160.56 412.67 161.834C412.799 162.24 413.054 162.595 413.398 162.846C413.742 163.097 414.157 163.232 414.583 163.232C415.831 163.213 417.077 163.32 418.304 163.55C418.562 163.611 418.83 163.618 419.092 163.571C419.353 163.524 419.602 163.424 419.823 163.277C421.341 162.32 423.285 160.908 422.784 159.146C422.192 157.081 418.638 155.213 418.638 155.213C418.638 155.213 412.533 156.716 411.728 157.901Z" fill="#263238"/>
<path d="M414.932 161.836C412.487 167.182 406.838 201.413 406.139 206.591C405.441 211.77 407.825 220.123 411.136 226.759C414.941 221.541 417.108 215.308 417.362 208.854C417.803 201.777 418.228 162.686 418.228 162.686L414.932 161.836Z" fill="#263238"/>
<path d="M418.593 155.215C420.853 157.101 422.721 159.413 424.09 162.019C427.932 161.715 444.896 154.274 442.481 148.533C440.37 147.941 438.518 146.726 437.925 147.349C437.12 148.579 429.922 152.922 418.593 155.215Z" fill="white"/>
<path d="M418.592 155.213C418.592 155.213 412.077 157.415 410.559 161.121C406.625 159.374 404.484 151.492 407.962 146.314C410.133 146.131 412.214 145.053 412.609 145.767C413.216 147.118 411.561 150.748 418.592 155.213Z" fill="white"/>
<path opacity="0.2" d="M430.939 122.848L420.506 130.547C420.821 132.154 420.988 133.785 421.007 135.422C424.758 135.149 430.119 131.428 430.818 127.571C431.148 126.017 431.19 124.416 430.939 122.848Z" fill="black"/>
<path d="M412.822 89.8629C408.266 91.655 406.58 109.287 415.859 107.556C425.138 105.824 421.994 86.2637 412.822 89.8629Z" fill="#263238"/>
<path d="M442.906 107.495C439.186 118.749 437.591 125.522 430.271 129.881C419.245 136.426 406.504 127.466 406.777 115.332C407.02 104.412 413.049 87.8285 425.457 86.2339C428.189 85.8642 430.969 86.1995 433.535 87.2079C436.101 88.2164 438.366 89.8645 440.114 91.9954C441.863 94.1263 443.038 96.6692 443.527 99.3822C444.015 102.095 443.802 104.888 442.906 107.495Z" fill="#A87A77"/>
<path d="M438.685 115.242C433.961 115.333 430.089 101.027 439.611 97.0177C432.109 96.152 409.07 97.4125 404.94 87.1159C400.809 76.8193 416.831 75.2246 422.283 79.1125C420.552 73.4478 427.598 65.0951 440.264 72.6885C452.93 80.2818 452.778 89.6521 451.593 92.4312C457.243 93.9499 458.351 106.525 452.11 108.21C455.77 113.283 452.611 123.944 442.739 121.666C442.405 127.877 435.48 125.159 435.905 120.39C436.331 115.621 438.685 115.242 438.685 115.242Z" fill="#263238"/>
<path d="M417.636 117.989C418.971 118.38 420.38 118.446 421.746 118.182C423.111 117.917 424.394 117.331 425.487 116.471C425.544 116.411 425.576 116.332 425.576 116.25C425.576 116.168 425.544 116.09 425.487 116.03C425.431 115.975 425.354 115.943 425.275 115.943C425.195 115.943 425.119 115.975 425.062 116.03C424.052 116.839 422.866 117.399 421.599 117.663C420.332 117.927 419.021 117.888 417.772 117.549C417.735 117.537 417.695 117.534 417.655 117.539C417.616 117.543 417.578 117.556 417.544 117.576C417.51 117.596 417.48 117.623 417.457 117.655C417.433 117.686 417.417 117.723 417.408 117.761C417.419 117.818 417.447 117.87 417.487 117.91C417.528 117.951 417.579 117.978 417.636 117.989Z" fill="#263238"/>
<path d="M445.261 119.433C443.078 121.469 440.18 122.561 437.196 122.47C433.248 122.303 432.488 118.476 434.599 115.393C436.513 112.614 440.856 109.318 444.319 111.004C445.072 111.382 445.719 111.942 446.201 112.633C446.682 113.325 446.984 114.125 447.077 114.963C447.171 115.8 447.054 116.648 446.736 117.428C446.419 118.209 445.912 118.898 445.261 119.433Z" fill="#A87A77"/>
<path d="M362.022 506.681L381.764 511.343C381.764 511.343 388.75 434.422 394.749 392.157C396.344 380.949 398.804 365.185 402.555 348.389C407.278 327.234 413.186 304.347 418.076 286.427C423.194 267.55 427.097 254.201 427.097 254.201L385.212 251.27C385.212 251.27 362.538 350.135 360.139 386.432C357.572 424.308 362.022 506.681 362.022 506.681Z" fill="#263238"/>
<path opacity="0.2" d="M402.449 348.389C407.172 327.234 413.079 304.347 417.969 286.427L413.611 277.057C403.269 289.403 400.474 327.629 402.449 348.389Z" fill="black"/>
<path d="M407.749 252.85C407.749 252.85 412.305 355.087 417.317 389.713C422.83 427.68 436.847 510.508 436.847 510.508H458.731C458.731 510.508 452.656 431.734 448.541 394.603C443.848 352.308 448.86 255.72 448.86 255.72L407.749 252.85Z" fill="#263238"/>
<path d="M434.235 510.976H459.992L461.131 503.277L432.701 502.775L434.235 510.976Z" fill="#407BFF"/>
<path d="M360.762 508L383.192 512.222L385.729 504.401L360.154 499.557L360.762 508Z" fill="#407BFF"/>
<path d="M425.609 106.599C425.35 107.526 424.667 108.118 424.09 107.997C423.513 107.875 423.179 106.949 423.422 106.022C423.665 105.096 424.363 104.504 424.94 104.625C425.518 104.747 425.852 105.673 425.609 106.599Z" fill="#263238"/>
<path d="M415.069 103.838C414.826 104.764 414.127 105.356 413.55 105.22C412.973 105.083 412.654 104.187 412.897 103.245C413.14 102.304 413.839 101.727 414.416 101.848C414.993 101.97 415.312 102.896 415.069 103.838Z" fill="#263238"/>
<path d="M417.408 104.701C415.544 107.255 413.342 109.544 410.863 111.505C412.093 113.464 415.267 113.297 415.267 113.297L417.408 104.701Z" fill="#783A3A"/>
<path d="M428.874 103.58C428.768 103.574 428.666 103.537 428.58 103.476C428.494 103.414 428.427 103.329 428.388 103.231C428.131 102.567 427.723 101.973 427.195 101.496C426.668 101.018 426.036 100.671 425.35 100.482C425.277 100.468 425.208 100.44 425.146 100.399C425.084 100.358 425.031 100.306 424.989 100.244C424.948 100.183 424.919 100.114 424.904 100.042C424.889 99.969 424.888 99.8942 424.902 99.8214C424.916 99.7486 424.944 99.6793 424.985 99.6174C425.026 99.5554 425.078 99.5022 425.14 99.4606C425.201 99.419 425.27 99.3899 425.343 99.3749C425.415 99.3599 425.49 99.3594 425.563 99.3734C426.433 99.5954 427.238 100.023 427.909 100.62C428.58 101.217 429.098 101.967 429.42 102.806C429.45 102.874 429.466 102.948 429.467 103.023C429.467 103.098 429.453 103.172 429.425 103.242C429.397 103.311 429.355 103.374 429.302 103.427C429.249 103.48 429.186 103.522 429.117 103.55C429.039 103.579 428.956 103.589 428.874 103.58Z" fill="#263238"/>
<path d="M410.62 98.552C410.502 98.5384 410.391 98.4909 410.301 98.4153C410.247 98.363 410.204 98.3004 410.175 98.2313C410.146 98.1622 410.131 98.0879 410.131 98.0129C410.131 97.9379 410.146 97.8636 410.175 97.7945C410.204 97.7254 410.247 97.6628 410.301 97.6104C410.869 96.9148 411.596 96.3657 412.42 96.0089C413.245 95.6522 414.143 95.4983 415.039 95.5602C415.185 95.5863 415.316 95.6663 415.406 95.7844C415.496 95.9025 415.539 96.0502 415.525 96.1981C415.502 96.3459 415.423 96.4793 415.304 96.5699C415.185 96.6606 415.036 96.7015 414.887 96.684C414.177 96.6519 413.47 96.7862 412.821 97.0762C412.172 97.3663 411.6 97.8041 411.151 98.3546C411.087 98.4305 411.004 98.4885 410.911 98.5231C410.818 98.5577 410.718 98.5676 410.62 98.552Z" fill="#263238"/>
<path d="M438.897 527.365C438.081 527.428 437.268 527.214 436.589 526.758C436.373 526.573 436.208 526.337 436.107 526.072C436.006 525.807 435.973 525.52 436.012 525.239C436.007 525.075 436.051 524.912 436.137 524.772C436.224 524.632 436.349 524.52 436.497 524.449C437.819 523.766 441.661 526.135 442.101 526.409C442.147 526.436 442.184 526.477 442.206 526.526C442.228 526.575 442.234 526.629 442.223 526.682C442.218 526.74 442.195 526.794 442.156 526.838C442.118 526.882 442.067 526.912 442.01 526.925C440.992 527.187 439.948 527.335 438.897 527.365ZM437.12 524.89C436.994 524.879 436.867 524.906 436.756 524.966C436.68 524.966 436.589 525.072 436.573 525.3C436.547 525.488 436.568 525.679 436.634 525.857C436.7 526.035 436.81 526.193 436.953 526.317C438.287 526.925 439.802 527.001 441.19 526.53C439.948 525.724 438.56 525.166 437.105 524.89H437.12Z" fill="#407BFF"/>
<path d="M441.934 526.94H441.798C440.568 526.272 438.168 523.644 438.426 522.384C438.468 522.176 438.58 521.989 438.743 521.853C438.906 521.718 439.11 521.643 439.322 521.64C439.539 521.609 439.76 521.626 439.97 521.689C440.179 521.752 440.373 521.859 440.537 522.004C441.919 523.128 442.208 526.56 442.223 526.727C442.224 526.778 442.212 526.829 442.188 526.874C442.164 526.919 442.129 526.957 442.086 526.985C442.032 526.987 441.979 526.971 441.934 526.94ZM439.52 522.095H439.398C439.034 522.095 439.003 522.308 438.988 522.384C438.836 523.158 440.355 525.148 441.585 526.074C441.505 524.714 441.013 523.411 440.173 522.338C439.992 522.181 439.76 522.094 439.52 522.095Z" fill="#407BFF"/>
<path d="M363.829 523.612C361.87 523.612 358.423 523.536 357.329 522.184C357.156 521.977 357.039 521.728 356.988 521.462C356.938 521.197 356.956 520.923 357.041 520.666C357.073 520.517 357.143 520.379 357.244 520.264C357.345 520.15 357.474 520.063 357.618 520.013C359.136 519.481 363.51 522.67 363.996 523.05C364.043 523.083 364.077 523.131 364.094 523.186C364.11 523.241 364.108 523.3 364.087 523.354C364.081 523.42 364.051 523.482 364.004 523.529C363.957 523.576 363.895 523.605 363.829 523.612ZM357.845 520.575C357.786 520.594 357.732 520.63 357.692 520.678C357.652 520.727 357.626 520.786 357.618 520.848C357.568 521.008 357.559 521.177 357.591 521.342C357.623 521.506 357.694 521.66 357.8 521.79C358.407 522.564 360.321 523.005 362.994 523.02C361.187 521.835 358.757 520.392 357.845 520.59V520.575Z" fill="#407BFF"/>
<path d="M363.829 523.616C363.761 523.643 363.685 523.643 363.616 523.616C362.31 522.735 359.941 519.697 360.382 518.406C360.488 518.103 360.777 517.753 361.551 517.799C361.842 517.812 362.127 517.884 362.388 518.012C362.65 518.14 362.882 518.321 363.07 518.543C364.361 520.062 364.133 523.266 364.118 523.403C364.115 523.451 364.099 523.497 364.072 523.537C364.046 523.577 364.009 523.609 363.966 523.631L363.829 523.616ZM361.187 518.346C360.974 518.346 360.928 518.498 360.913 518.543C360.655 519.318 362.219 521.656 363.51 522.765C363.616 521.404 363.292 520.044 362.584 518.877C362.453 518.719 362.291 518.589 362.108 518.495C361.926 518.401 361.726 518.345 361.521 518.33C361.41 518.31 361.295 518.315 361.187 518.346Z" fill="#407BFF"/>
<path d="M405.653 205.742L400.809 202.279L321.382 313.462L326.227 316.924C340.989 326.925 359.075 330.761 376.625 327.612C394.176 324.463 409.801 314.58 420.166 300.071C430.531 285.562 434.815 267.577 432.103 249.954C429.392 232.33 419.9 216.464 405.653 205.742Z" fill="#436C41"/>
<path opacity="0.1" d="M405.653 205.742L400.809 202.279L321.382 313.462L326.227 316.924C340.989 326.925 359.075 330.761 376.625 327.612C394.176 324.463 409.801 314.58 420.166 300.071C430.531 285.562 434.815 267.577 432.103 249.954C429.392 232.33 419.9 216.464 405.653 205.742Z" fill="black"/>
<path d="M288.017 266.562C286.886 257.167 287.582 247.642 290.067 238.512L291.586 238.907C289.145 247.853 288.464 257.189 289.581 266.395L288.017 266.562Z" fill="#4A7848"/>
<path d="M292.618 284.891C291.264 281.434 290.172 277.881 289.353 274.26L290.872 273.926C291.681 277.463 292.752 280.935 294.076 284.314L292.618 284.891Z" fill="#4A7848"/>
<path d="M374.903 324.753C411.854 317.141 435.638 281.016 428.026 244.065C420.414 207.114 384.289 183.33 347.338 190.942C310.388 198.554 286.604 234.679 294.215 271.63C301.827 308.581 337.952 332.365 374.903 324.753Z" fill="#4A7848"/>
<path d="M344.967 275.142L355.689 260.153C351.963 255.475 349.973 251 349.72 246.728C349.528 242.361 350.865 238.064 353.502 234.578C356.008 230.863 359.866 228.275 364.254 227.365C368.79 226.501 373.484 227.374 377.406 229.81L379.988 226.195L385.181 229.901L382.585 233.515C385.761 236.183 387.971 239.823 388.872 243.873C389.551 247.85 388.911 251.941 387.049 255.521L377.148 250.236C377.87 248.873 378.229 247.346 378.192 245.804C378.155 244.262 377.722 242.755 376.935 241.428L366.942 255.43C371.559 261.079 374.024 265.878 374.338 269.827C374.567 274.05 373.261 278.214 370.663 281.551C367.918 285.64 363.731 288.541 358.939 289.676C353.888 290.716 348.631 289.885 344.147 287.337L341.565 290.952L336.371 287.246L338.831 283.799C335.29 280.758 332.904 276.591 332.073 271.999C331.439 266.997 332.44 261.925 334.928 257.541L344.997 263.221C344.047 265.243 343.575 267.456 343.615 269.69C343.634 271.588 344.097 273.455 344.967 275.142ZM371.817 237.555C370.159 237.016 368.373 237.016 366.714 237.555C365.113 238.065 363.721 239.084 362.751 240.456C361.853 241.726 361.375 243.244 361.384 244.799C361.402 246.614 361.928 248.387 362.902 249.917L371.817 237.555ZM349.796 279.364C351.685 280.278 353.836 280.498 355.871 279.987C357.913 279.485 359.701 278.254 360.898 276.524C361.996 275.041 362.533 273.217 362.417 271.376C362.126 269.152 361.174 267.068 359.683 265.392L349.796 279.364Z" fill="white"/>
<path opacity="0.1" d="M416.436 252.18C413.256 238.376 404.932 226.305 393.161 218.426C381.389 210.548 367.055 207.455 353.082 209.779C339.109 212.103 326.548 219.669 317.96 230.933C309.372 242.198 305.404 256.314 306.863 270.404C305.159 263.002 304.987 255.329 306.36 247.859C307.732 240.388 310.62 233.277 314.845 226.965C319.069 220.652 324.542 215.272 330.925 211.154C337.307 207.037 344.466 204.27 351.959 203.024C359.451 201.777 367.12 202.078 374.492 203.908C381.864 205.738 388.783 209.058 394.824 213.663C400.864 218.268 405.898 224.061 409.615 230.685C413.332 237.309 415.653 244.624 416.436 252.18Z" fill="black"/>
<path d="M461.358 158.934C462.877 160.862 464.137 162.594 465.413 164.477C466.689 166.36 467.934 168.167 469.149 170.05C471.564 173.817 473.857 177.644 475.983 181.638C478.109 185.632 480.084 189.717 481.876 193.939L483.182 197.143L484.366 200.439C484.761 201.517 485.095 202.671 485.444 203.795L485.946 205.496L486.082 205.921L486.31 206.848C486.455 207.478 486.556 208.117 486.614 208.761C486.758 210.902 486.474 213.05 485.779 215.079C485.254 216.606 484.566 218.072 483.728 219.453C482.342 221.713 480.734 223.829 478.929 225.771C475.726 229.175 472.247 232.31 468.526 235.141C461.454 240.541 453.923 245.313 446.02 249.401L441.099 241.899C447.462 236.477 453.826 230.767 459.581 224.981C462.378 222.211 464.977 219.247 467.357 216.112C468.368 214.802 469.243 213.392 469.969 211.905C470.193 211.418 470.366 210.909 470.485 210.386C470.485 209.991 470.485 210.052 470.485 210.386C470.463 210.497 470.463 210.61 470.485 210.72C470.482 210.766 470.482 210.812 470.485 210.857L470.349 210.523L469.817 209.187C469.453 208.275 469.134 207.379 468.709 206.483L467.494 203.795L466.203 201.107C464.396 197.538 462.467 193.985 460.371 190.476C458.275 186.968 456.104 183.475 453.841 180.043C452.732 178.312 451.578 176.596 450.424 174.91L446.961 169.974L461.358 158.934Z" fill="#A87A77"/>
<path d="M459.825 152.403C471.017 154.666 480.843 182.032 480.843 182.032L457.486 201.061C457.486 201.061 449.892 187.15 443.696 173.725C437.029 159.1 446.263 149.669 459.825 152.403Z" fill="#407BFF"/>
<g opacity="0.3">
<path d="M459.825 152.405C471.017 154.668 480.843 182.034 480.843 182.034L457.486 201.063C457.486 201.063 449.892 187.152 443.696 173.727C437.029 159.102 446.263 149.671 459.825 152.405Z" fill="white"/>
</g>
<path d="M443.863 240.854L431.805 242.175L439.626 255.266C439.626 255.266 449.649 251.864 448.434 246.366L443.863 240.854Z" fill="#A87A77"/>
<path d="M424.622 249.084L431.593 259.608L439.626 255.265L431.805 242.174L424.622 249.084Z" fill="#A87A77"/>
</svg>
