<svg width="711" height="416" viewBox="0 0 711 416" fill="none" xmlns="http://www.w3.org/2000/svg">
<rect x="0.5" y="0.5" width="710" height="59" rx="4.5" fill="#FAFBFB"/>
<rect x="0.5" y="0.5" width="710" height="59" rx="4.5" stroke="#8993A4"/>
<path d="M28.1484 26.9567C28.0916 26.4524 27.8572 26.0618 27.4453 25.7848C27.0334 25.5043 26.5149 25.364 25.8899 25.364C25.4425 25.364 25.0554 25.435 24.7287 25.5771C24.402 25.7156 24.1481 25.9073 23.967 26.1523C23.7894 26.3938 23.7006 26.669 23.7006 26.978C23.7006 27.2372 23.761 27.4609 23.8817 27.6491C24.006 27.8374 24.1676 27.9954 24.3665 28.1232C24.5689 28.2475 24.7855 28.3523 25.0163 28.4375C25.2472 28.5192 25.4691 28.5866 25.6822 28.6399L26.7475 28.9169C27.0955 29.0021 27.4524 29.1175 27.8182 29.2631C28.1839 29.4087 28.5231 29.6005 28.8356 29.8384C29.1481 30.0763 29.4002 30.3711 29.592 30.7227C29.7873 31.0742 29.8849 31.495 29.8849 31.9851C29.8849 32.603 29.7251 33.1516 29.4055 33.631C29.0895 34.1104 28.6296 34.4886 28.0259 34.7656C27.4258 35.0426 26.6996 35.1811 25.8473 35.1811C25.0305 35.1811 24.3239 35.0515 23.7273 34.7923C23.1307 34.533 22.6637 34.1655 22.3263 33.6896C21.989 33.2102 21.8026 32.642 21.767 31.9851H23.4183C23.4503 32.3793 23.5781 32.7077 23.8018 32.9705C24.0291 33.2298 24.3185 33.4233 24.6701 33.5511C25.0252 33.6754 25.4141 33.7376 25.8366 33.7376C26.3018 33.7376 26.7156 33.6648 27.0778 33.5192C27.4435 33.37 27.7312 33.1641 27.9407 32.9013C28.1502 32.6349 28.255 32.3242 28.255 31.9691C28.255 31.646 28.1626 31.3814 27.978 31.1754C27.7969 30.9695 27.5501 30.799 27.2376 30.6641C26.9286 30.5291 26.5788 30.4102 26.1882 30.3072L24.8991 29.9556C24.0256 29.7177 23.3331 29.3679 22.8217 28.9062C22.3139 28.4446 22.06 27.8338 22.06 27.0739C22.06 26.4453 22.2305 25.8967 22.5714 25.4279C22.9123 24.9592 23.3739 24.5952 23.9563 24.3359C24.5387 24.0732 25.1957 23.9418 25.9272 23.9418C26.6658 23.9418 27.3175 24.0714 27.8821 24.3306C28.4503 24.5898 28.8977 24.9467 29.2244 25.4013C29.5511 25.8523 29.7216 26.3707 29.7358 26.9567H28.1484ZM35.1704 35.1651C34.4033 35.1651 33.7339 34.9893 33.1622 34.6378C32.5905 34.2862 32.1466 33.7944 31.8305 33.1623C31.5145 32.5302 31.3564 31.7915 31.3564 30.9464C31.3564 30.0977 31.5145 29.3555 31.8305 28.7198C32.1466 28.0842 32.5905 27.5906 33.1622 27.239C33.7339 26.8874 34.4033 26.7116 35.1704 26.7116C35.9374 26.7116 36.6068 26.8874 37.1785 27.239C37.7503 27.5906 38.1942 28.0842 38.5102 28.7198C38.8263 29.3555 38.9843 30.0977 38.9843 30.9464C38.9843 31.7915 38.8263 32.5302 38.5102 33.1623C38.1942 33.7944 37.7503 34.2862 37.1785 34.6378C36.6068 34.9893 35.9374 35.1651 35.1704 35.1651ZM35.1757 33.8281C35.6729 33.8281 36.0848 33.6967 36.4115 33.4339C36.7382 33.1712 36.9797 32.8214 37.1359 32.3846C37.2957 31.9478 37.3756 31.4666 37.3756 30.9411C37.3756 30.419 37.2957 29.9396 37.1359 29.5028C36.9797 29.0625 36.7382 28.7092 36.4115 28.4428C36.0848 28.1765 35.6729 28.0433 35.1757 28.0433C34.675 28.0433 34.2595 28.1765 33.9292 28.4428C33.6025 28.7092 33.3593 29.0625 33.1995 29.5028C33.0432 29.9396 32.9651 30.419 32.9651 30.9411C32.9651 31.4666 33.0432 31.9478 33.1995 32.3846C33.3593 32.8214 33.6025 33.1712 33.9292 33.4339C34.2595 33.6967 34.675 33.8281 35.1757 33.8281ZM34.5152 25.7262L35.7616 23.2706H37.4395L35.7883 25.7262H34.5152ZM44.2085 35.1651C43.4165 35.1651 42.7347 34.9858 42.163 34.6271C41.5948 34.2649 41.158 33.766 40.8526 33.1303C40.5472 32.4947 40.3945 31.7667 40.3945 30.9464C40.3945 30.1154 40.5508 29.3821 40.8633 28.7464C41.1758 28.1072 41.6161 27.6083 42.1843 27.2496C42.7525 26.891 43.4219 26.7116 44.1925 26.7116C44.8139 26.7116 45.3679 26.8271 45.8544 27.0579C46.3409 27.2852 46.7333 27.6048 47.0316 28.0167C47.3335 28.4286 47.5128 28.9098 47.5696 29.4602H46.0195C45.9343 29.0767 45.739 28.7464 45.4336 28.4695C45.1317 28.1925 44.7269 28.054 44.2191 28.054C43.7752 28.054 43.3864 28.1712 43.0526 28.4055C42.7223 28.6364 42.4648 28.9666 42.2802 29.3963C42.0955 29.8224 42.0032 30.3267 42.0032 30.9091C42.0032 31.5057 42.0938 32.0206 42.2749 32.4538C42.456 32.8871 42.7116 33.2227 43.0419 33.4606C43.3757 33.6985 43.7681 33.8175 44.2191 33.8175C44.521 33.8175 44.7944 33.7624 45.0394 33.6523C45.288 33.5387 45.4957 33.3771 45.6626 33.1676C45.8331 32.9581 45.9521 32.706 46.0195 32.4112H47.5696C47.5128 32.9403 47.3406 33.4126 47.0529 33.8281C46.7653 34.2436 46.38 34.5703 45.897 34.8082C45.4176 35.0462 44.8548 35.1651 44.2085 35.1651ZM49.2728 35V26.8182H50.8655V35H49.2728ZM50.0771 25.5558C49.8002 25.5558 49.5622 25.4634 49.3634 25.2788C49.1681 25.0906 49.0704 24.8668 49.0704 24.6076C49.0704 24.3448 49.1681 24.1211 49.3634 23.9364C49.5622 23.7482 49.8002 23.6541 50.0771 23.6541C50.3541 23.6541 50.5903 23.7482 50.7856 23.9364C50.9845 24.1211 51.0839 24.3448 51.0839 24.6076C51.0839 24.8668 50.9845 25.0906 50.7856 25.2788C50.5903 25.4634 50.3541 25.5558 50.0771 25.5558ZM56.4545 35.1651C55.6875 35.1651 55.0181 34.9893 54.4464 34.6378C53.8746 34.2862 53.4308 33.7944 53.1147 33.1623C52.7987 32.5302 52.6406 31.7915 52.6406 30.9464C52.6406 30.0977 52.7987 29.3555 53.1147 28.7198C53.4308 28.0842 53.8746 27.5906 54.4464 27.239C55.0181 26.8874 55.6875 26.7116 56.4545 26.7116C57.2216 26.7116 57.891 26.8874 58.4627 27.239C59.0344 27.5906 59.4783 28.0842 59.7944 28.7198C60.1104 29.3555 60.2685 30.0977 60.2685 30.9464C60.2685 31.7915 60.1104 32.5302 59.7944 33.1623C59.4783 33.7944 59.0344 34.2862 58.4627 34.6378C57.891 34.9893 57.2216 35.1651 56.4545 35.1651ZM56.4599 33.8281C56.957 33.8281 57.369 33.6967 57.6957 33.4339C58.0224 33.1712 58.2638 32.8214 58.4201 32.3846C58.5799 31.9478 58.6598 31.4666 58.6598 30.9411C58.6598 30.419 58.5799 29.9396 58.4201 29.5028C58.2638 29.0625 58.0224 28.7092 57.6957 28.4428C57.369 28.1765 56.957 28.0433 56.4599 28.0433C55.9592 28.0433 55.5437 28.1765 55.2134 28.4428C54.8867 28.7092 54.6435 29.0625 54.4837 29.5028C54.3274 29.9396 54.2493 30.419 54.2493 30.9411C54.2493 31.4666 54.3274 31.9478 54.4837 32.3846C54.6435 32.8214 54.8867 33.1712 55.2134 33.4339C55.5437 33.6967 55.9592 33.8281 56.4599 33.8281ZM66.1438 35V24.0909H70.0323C70.881 24.0909 71.5842 24.2454 72.1417 24.5543C72.6992 24.8633 73.1165 25.2859 73.3935 25.8221C73.6705 26.3548 73.8089 26.9549 73.8089 27.6225C73.8089 28.2937 73.6687 28.8974 73.3881 29.4336C73.1112 29.9663 72.6921 30.3888 72.131 30.7013C71.5735 31.0103 70.8722 31.1648 70.027 31.1648H67.353V29.7692H69.8778C70.4141 29.7692 70.8491 29.6768 71.1829 29.4922C71.5167 29.304 71.7617 29.0483 71.918 28.7251C72.0742 28.402 72.1523 28.0344 72.1523 27.6225C72.1523 27.2106 72.0742 26.8448 71.918 26.5252C71.7617 26.2056 71.5149 25.9553 71.1776 25.7741C70.8438 25.593 70.4034 25.5025 69.8565 25.5025H67.7898V35H66.1438ZM78.5284 24.0909H80.169V31.8253C80.169 32.5249 80.0305 33.1232 79.7536 33.6204C79.4801 34.1175 79.0948 34.4975 78.5977 34.7603C78.1005 35.0195 77.5181 35.1491 76.8505 35.1491C76.2362 35.1491 75.6839 35.0373 75.1939 34.8136C74.7074 34.5898 74.3221 34.2649 74.038 33.8388C73.7575 33.4091 73.6172 32.8871 73.6172 32.2727H75.2525C75.2525 32.5746 75.3217 32.8356 75.4602 33.0558C75.6023 33.2759 75.7958 33.4482 76.0408 33.5724C76.2894 33.6932 76.5735 33.7536 76.8931 33.7536C77.2411 33.7536 77.5359 33.6808 77.7773 33.5352C78.0224 33.386 78.2088 33.1676 78.3366 32.88C78.4645 32.5923 78.5284 32.2408 78.5284 31.8253V24.0909Z" fill="#676671"/>
<path d="M553.188 24.0909V35H551.537V25.7422H551.473L548.863 27.4467V25.87L551.585 24.0909H553.188ZM559.937 35.1811C559.096 35.1776 558.376 34.9556 557.78 34.5153C557.183 34.0749 556.727 33.4339 556.411 32.5923C556.095 31.7507 555.937 30.7369 555.937 29.5508C555.937 28.3683 556.095 27.358 556.411 26.5199C556.73 25.6818 557.189 25.0426 557.785 24.6023C558.385 24.1619 559.103 23.9418 559.937 23.9418C560.772 23.9418 561.487 24.1637 562.084 24.6076C562.68 25.0479 563.137 25.6871 563.453 26.5252C563.772 27.3597 563.932 28.3683 563.932 29.5508C563.932 30.7404 563.774 31.756 563.458 32.5977C563.142 33.4357 562.686 34.0767 562.089 34.5206C561.493 34.9609 560.775 35.1811 559.937 35.1811ZM559.937 33.7589C560.676 33.7589 561.253 33.3984 561.668 32.6776C562.087 31.9567 562.297 30.9144 562.297 29.5508C562.297 28.6452 562.201 27.88 562.009 27.255C561.821 26.6264 561.549 26.1506 561.194 25.8274C560.843 25.5007 560.424 25.3374 559.937 25.3374C559.202 25.3374 558.625 25.6996 558.206 26.424C557.787 27.1484 557.576 28.1907 557.572 29.5508C557.572 30.4599 557.666 31.2287 557.854 31.8572C558.046 32.4822 558.318 32.9563 558.669 33.2795C559.021 33.5991 559.444 33.7589 559.937 33.7589ZM569.62 35.1811C568.778 35.1776 568.059 34.9556 567.462 34.5153C566.866 34.0749 566.41 33.4339 566.093 32.5923C565.777 31.7507 565.619 30.7369 565.619 29.5508C565.619 28.3683 565.777 27.358 566.093 26.5199C566.413 25.6818 566.871 25.0426 567.468 24.6023C568.068 24.1619 568.785 23.9418 569.62 23.9418C570.454 23.9418 571.17 24.1637 571.766 24.6076C572.363 25.0479 572.819 25.6871 573.135 26.5252C573.455 27.3597 573.615 28.3683 573.615 29.5508C573.615 30.7404 573.457 31.756 573.141 32.5977C572.825 33.4357 572.368 34.0767 571.772 34.5206C571.175 34.9609 570.458 35.1811 569.62 35.1811ZM569.62 33.7589C570.358 33.7589 570.935 33.3984 571.351 32.6776C571.77 31.9567 571.979 30.9144 571.979 29.5508C571.979 28.6452 571.884 27.88 571.692 27.255C571.504 26.6264 571.232 26.1506 570.877 25.8274C570.525 25.5007 570.106 25.3374 569.62 25.3374C568.885 25.3374 568.308 25.6996 567.889 26.424C567.47 27.1484 567.258 28.1907 567.255 29.5508C567.255 30.4599 567.349 31.2287 567.537 31.8572C567.729 32.4822 568 32.9563 568.352 33.2795C568.704 33.5991 569.126 33.7589 569.62 33.7589ZM581.199 32.9545V32.3793C581.199 31.9673 581.284 31.5909 581.454 31.25C581.628 30.9055 581.881 30.6303 582.211 30.4244C582.545 30.2148 582.948 30.1101 583.42 30.1101C583.903 30.1101 584.308 30.2131 584.634 30.419C584.961 30.625 585.208 30.9002 585.375 31.2447C585.545 31.5891 585.631 31.9673 585.631 32.3793V32.9545C585.631 33.3665 585.545 33.7447 585.375 34.0891C585.204 34.43 584.954 34.7053 584.624 34.9148C584.297 35.1207 583.896 35.2237 583.42 35.2237C582.941 35.2237 582.536 35.1207 582.205 34.9148C581.875 34.7053 581.625 34.43 581.454 34.0891C581.284 33.7447 581.199 33.3665 581.199 32.9545ZM582.44 32.3793V32.9545C582.44 33.2599 582.513 33.5369 582.658 33.7855C582.804 34.0341 583.058 34.1584 583.42 34.1584C583.779 34.1584 584.029 34.0341 584.171 33.7855C584.313 33.5369 584.384 33.2599 584.384 32.9545V32.3793C584.384 32.0739 584.315 31.7969 584.176 31.5483C584.041 31.2997 583.789 31.1754 583.42 31.1754C583.065 31.1754 582.813 31.2997 582.664 31.5483C582.514 31.7969 582.44 32.0739 582.44 32.3793ZM575.712 26.7116V26.1364C575.712 25.7244 575.797 25.3462 575.968 25.0018C576.142 24.6573 576.394 24.3821 576.724 24.1761C577.058 23.9702 577.461 23.8672 577.933 23.8672C578.416 23.8672 578.821 23.9702 579.148 24.1761C579.475 24.3821 579.721 24.6573 579.888 25.0018C580.055 25.3462 580.139 25.7244 580.139 26.1364V26.7116C580.139 27.1236 580.053 27.5018 579.883 27.8462C579.716 28.1871 579.468 28.4624 579.137 28.6719C578.811 28.8778 578.409 28.9808 577.933 28.9808C577.45 28.9808 577.044 28.8778 576.714 28.6719C576.387 28.4624 576.138 28.1871 575.968 27.8462C575.797 27.5018 575.712 27.1236 575.712 26.7116ZM576.959 26.1364V26.7116C576.959 27.017 577.03 27.294 577.172 27.5426C577.317 27.7912 577.571 27.9155 577.933 27.9155C578.289 27.9155 578.537 27.7912 578.679 27.5426C578.825 27.294 578.898 27.017 578.898 26.7116V26.1364C578.898 25.831 578.828 25.554 578.69 25.3054C578.551 25.0568 578.299 24.9325 577.933 24.9325C577.578 24.9325 577.326 25.0568 577.177 25.3054C577.031 25.554 576.959 25.831 576.959 26.1364ZM576.218 35L583.718 24.0909H584.991L577.491 35H576.218Z" fill="#676671"/>
<path d="M682.055 27.75L681.796 34.5M678.204 34.5L677.945 27.75M685.421 25.3429C685.677 25.3817 685.933 25.4231 686.188 25.4672M685.421 25.3429L684.62 35.7544C684.552 36.6336 683.819 37.3125 682.937 37.3125H677.063C676.181 37.3125 675.448 36.6336 675.38 35.7544L674.579 25.3429M685.421 25.3429C684.561 25.2131 683.691 25.1136 682.812 25.0457M673.812 25.4672C674.067 25.4231 674.323 25.3817 674.579 25.3429M674.579 25.3429C675.439 25.2131 676.309 25.1136 677.188 25.0457M682.812 25.0457V24.3586C682.812 23.4741 682.13 22.7357 681.245 22.7074C680.832 22.6942 680.417 22.6875 680 22.6875C679.583 22.6875 679.168 22.6942 678.755 22.7074C677.87 22.7357 677.188 23.4741 677.188 24.3586V25.0457M682.812 25.0457C681.884 24.974 680.946 24.9375 680 24.9375C679.054 24.9375 678.116 24.974 677.188 25.0457" stroke="#0F172A" stroke-width="1.5" stroke-linecap="round" stroke-linejoin="round"/>
<g clip-path="url(#clip0_918_834)">
<path d="M650.646 24.365L651.912 23.0994C652.461 22.5502 653.351 22.5502 653.901 23.0994C654.45 23.6486 654.45 24.5389 653.901 25.0881L643.124 35.8646C642.728 36.2611 642.239 36.5526 641.701 36.7127L639.688 37.3125L640.287 35.2988C640.447 34.7614 640.739 34.2724 641.135 33.8759L650.646 24.365ZM650.646 24.365L652.625 26.3437" stroke="#0F172A" stroke-width="1.5" stroke-linecap="round" stroke-linejoin="round"/>
</g>
<path d="M613.707 27.138V32.2761M616.276 29.7071H611.138M621.414 29.7071C621.414 33.9636 617.964 37.4141 613.707 37.4141C609.451 37.4141 606 33.9636 606 29.7071C606 25.4506 609.451 22 613.707 22C617.964 22 621.414 25.4506 621.414 29.7071Z" stroke="#0F172A" stroke-width="1.28451" stroke-linecap="round" stroke-linejoin="round"/>
<rect x="61.5" y="86.5" width="649" height="59" rx="4.5" fill="#FAFBFB"/>
<rect x="61.5" y="86.5" width="649" height="59" rx="4.5" stroke="#8993A4"/>
<path d="M89.1484 112.957C89.0916 112.452 88.8572 112.062 88.4453 111.785C88.0334 111.504 87.5149 111.364 86.8899 111.364C86.4425 111.364 86.0554 111.435 85.7287 111.577C85.402 111.716 85.1481 111.907 84.967 112.152C84.7894 112.394 84.7006 112.669 84.7006 112.978C84.7006 113.237 84.761 113.461 84.8817 113.649C85.006 113.837 85.1676 113.995 85.3665 114.123C85.5689 114.248 85.7855 114.352 86.0163 114.438C86.2472 114.519 86.4691 114.587 86.6822 114.64L87.7475 114.917C88.0955 115.002 88.4524 115.118 88.8182 115.263C89.1839 115.409 89.5231 115.6 89.8356 115.838C90.1481 116.076 90.4002 116.371 90.592 116.723C90.7873 117.074 90.8849 117.495 90.8849 117.985C90.8849 118.603 90.7251 119.152 90.4055 119.631C90.0895 120.11 89.6296 120.489 89.0259 120.766C88.4258 121.043 87.6996 121.181 86.8473 121.181C86.0305 121.181 85.3239 121.051 84.7273 120.792C84.1307 120.533 83.6637 120.165 83.3263 119.69C82.989 119.21 82.8026 118.642 82.767 117.985H84.4183C84.4503 118.379 84.5781 118.708 84.8018 118.971C85.0291 119.23 85.3185 119.423 85.6701 119.551C86.0252 119.675 86.4141 119.738 86.8366 119.738C87.3018 119.738 87.7156 119.665 88.0778 119.519C88.4435 119.37 88.7312 119.164 88.9407 118.901C89.1502 118.635 89.255 118.324 89.255 117.969C89.255 117.646 89.1626 117.381 88.978 117.175C88.7969 116.969 88.5501 116.799 88.2376 116.664C87.9286 116.529 87.5788 116.41 87.1882 116.307L85.8991 115.956C85.0256 115.718 84.3331 115.368 83.8217 114.906C83.3139 114.445 83.06 113.834 83.06 113.074C83.06 112.445 83.2305 111.897 83.5714 111.428C83.9123 110.959 84.3739 110.595 84.9563 110.336C85.5387 110.073 86.1957 109.942 86.9272 109.942C87.6658 109.942 88.3175 110.071 88.8821 110.331C89.4503 110.59 89.8977 110.947 90.2244 111.401C90.5511 111.852 90.7216 112.371 90.7358 112.957H89.1484ZM96.1704 121.165C95.4033 121.165 94.7339 120.989 94.1622 120.638C93.5905 120.286 93.1466 119.794 92.8305 119.162C92.5145 118.53 92.3564 117.792 92.3564 116.946C92.3564 116.098 92.5145 115.355 92.8305 114.72C93.1466 114.084 93.5905 113.591 94.1622 113.239C94.7339 112.887 95.4033 112.712 96.1704 112.712C96.9374 112.712 97.6068 112.887 98.1785 113.239C98.7503 113.591 99.1942 114.084 99.5102 114.72C99.8263 115.355 99.9843 116.098 99.9843 116.946C99.9843 117.792 99.8263 118.53 99.5102 119.162C99.1942 119.794 98.7503 120.286 98.1785 120.638C97.6068 120.989 96.9374 121.165 96.1704 121.165ZM96.1757 119.828C96.6729 119.828 97.0848 119.697 97.4115 119.434C97.7382 119.171 97.9797 118.821 98.1359 118.385C98.2957 117.948 98.3756 117.467 98.3756 116.941C98.3756 116.419 98.2957 115.94 98.1359 115.503C97.9797 115.062 97.7382 114.709 97.4115 114.443C97.0848 114.176 96.6729 114.043 96.1757 114.043C95.675 114.043 95.2595 114.176 94.9292 114.443C94.6025 114.709 94.3593 115.062 94.1995 115.503C94.0432 115.94 93.9651 116.419 93.9651 116.941C93.9651 117.467 94.0432 117.948 94.1995 118.385C94.3593 118.821 94.6025 119.171 94.9292 119.434C95.2595 119.697 95.675 119.828 96.1757 119.828ZM95.5152 111.726L96.7616 109.271H98.4395L96.7883 111.726H95.5152ZM105.208 121.165C104.417 121.165 103.735 120.986 103.163 120.627C102.595 120.265 102.158 119.766 101.853 119.13C101.547 118.495 101.395 117.767 101.395 116.946C101.395 116.115 101.551 115.382 101.863 114.746C102.176 114.107 102.616 113.608 103.184 113.25C103.752 112.891 104.422 112.712 105.192 112.712C105.814 112.712 106.368 112.827 106.854 113.058C107.341 113.285 107.733 113.605 108.032 114.017C108.333 114.429 108.513 114.91 108.57 115.46H107.02C106.934 115.077 106.739 114.746 106.434 114.469C106.132 114.192 105.727 114.054 105.219 114.054C104.775 114.054 104.386 114.171 104.053 114.406C103.722 114.636 103.465 114.967 103.28 115.396C103.096 115.822 103.003 116.327 103.003 116.909C103.003 117.506 103.094 118.021 103.275 118.454C103.456 118.887 103.712 119.223 104.042 119.461C104.376 119.699 104.768 119.817 105.219 119.817C105.521 119.817 105.794 119.762 106.039 119.652C106.288 119.539 106.496 119.377 106.663 119.168C106.833 118.958 106.952 118.706 107.02 118.411H108.57C108.513 118.94 108.341 119.413 108.053 119.828C107.765 120.244 107.38 120.57 106.897 120.808C106.418 121.046 105.855 121.165 105.208 121.165ZM110.273 121V112.818H111.866V121H110.273ZM111.077 111.556C110.8 111.556 110.562 111.463 110.363 111.279C110.168 111.091 110.07 110.867 110.07 110.608C110.07 110.345 110.168 110.121 110.363 109.936C110.562 109.748 110.8 109.654 111.077 109.654C111.354 109.654 111.59 109.748 111.786 109.936C111.984 110.121 112.084 110.345 112.084 110.608C112.084 110.867 111.984 111.091 111.786 111.279C111.59 111.463 111.354 111.556 111.077 111.556ZM117.455 121.165C116.688 121.165 116.018 120.989 115.446 120.638C114.875 120.286 114.431 119.794 114.115 119.162C113.799 118.53 113.641 117.792 113.641 116.946C113.641 116.098 113.799 115.355 114.115 114.72C114.431 114.084 114.875 113.591 115.446 113.239C116.018 112.887 116.688 112.712 117.455 112.712C118.222 112.712 118.891 112.887 119.463 113.239C120.034 113.591 120.478 114.084 120.794 114.72C121.11 115.355 121.268 116.098 121.268 116.946C121.268 117.792 121.11 118.53 120.794 119.162C120.478 119.794 120.034 120.286 119.463 120.638C118.891 120.989 118.222 121.165 117.455 121.165ZM117.46 119.828C117.957 119.828 118.369 119.697 118.696 119.434C119.022 119.171 119.264 118.821 119.42 118.385C119.58 117.948 119.66 117.467 119.66 116.941C119.66 116.419 119.58 115.94 119.42 115.503C119.264 115.062 119.022 114.709 118.696 114.443C118.369 114.176 117.957 114.043 117.46 114.043C116.959 114.043 116.544 114.176 116.213 114.443C115.887 114.709 115.643 115.062 115.484 115.503C115.327 115.94 115.249 116.419 115.249 116.941C115.249 117.467 115.327 117.948 115.484 118.385C115.643 118.821 115.887 119.171 116.213 119.434C116.544 119.697 116.959 119.828 117.46 119.828ZM127.144 121V110.091H131.032C131.881 110.091 132.584 110.245 133.142 110.554C133.699 110.863 134.116 111.286 134.393 111.822C134.67 112.355 134.809 112.955 134.809 113.623C134.809 114.294 134.669 114.897 134.388 115.434C134.111 115.966 133.692 116.389 133.131 116.701C132.574 117.01 131.872 117.165 131.027 117.165H128.353V115.769H130.878C131.414 115.769 131.849 115.677 132.183 115.492C132.517 115.304 132.762 115.048 132.918 114.725C133.074 114.402 133.152 114.034 133.152 113.623C133.152 113.211 133.074 112.845 132.918 112.525C132.762 112.206 132.515 111.955 132.178 111.774C131.844 111.593 131.403 111.502 130.857 111.502H128.79V121H127.144ZM136.739 121V110.091H143.503V111.508H138.384V114.832H143.019V116.243H138.384V121H136.739Z" fill="#676671"/>
<path d="M558.049 121V119.807L561.741 115.982C562.135 115.567 562.46 115.203 562.716 114.89C562.975 114.574 563.168 114.274 563.296 113.99C563.424 113.706 563.488 113.404 563.488 113.085C563.488 112.722 563.403 112.41 563.232 112.147C563.062 111.881 562.829 111.676 562.534 111.534C562.24 111.389 561.908 111.316 561.538 111.316C561.148 111.316 560.807 111.396 560.516 111.556C560.224 111.716 560.001 111.941 559.844 112.232C559.688 112.523 559.61 112.864 559.61 113.255H558.039C558.039 112.591 558.191 112.01 558.497 111.513C558.802 111.016 559.221 110.631 559.754 110.357C560.287 110.08 560.892 109.942 561.57 109.942C562.256 109.942 562.859 110.078 563.381 110.352C563.907 110.622 564.317 110.991 564.612 111.46C564.907 111.925 565.054 112.451 565.054 113.037C565.054 113.441 564.978 113.837 564.825 114.224C564.676 114.612 564.415 115.043 564.042 115.519C563.669 115.991 563.151 116.565 562.487 117.239L560.319 119.509V119.588H565.23V121H558.049ZM571.047 121.181C570.205 121.178 569.486 120.956 568.889 120.515C568.293 120.075 567.836 119.434 567.52 118.592C567.204 117.751 567.046 116.737 567.046 115.551C567.046 114.368 567.204 113.358 567.52 112.52C567.84 111.682 568.298 111.043 568.895 110.602C569.495 110.162 570.212 109.942 571.047 109.942C571.881 109.942 572.597 110.164 573.193 110.608C573.79 111.048 574.246 111.687 574.562 112.525C574.882 113.36 575.042 114.368 575.042 115.551C575.042 116.74 574.884 117.756 574.567 118.598C574.251 119.436 573.795 120.077 573.199 120.521C572.602 120.961 571.885 121.181 571.047 121.181ZM571.047 119.759C571.785 119.759 572.362 119.398 572.778 118.678C573.197 117.957 573.406 116.914 573.406 115.551C573.406 114.645 573.31 113.88 573.119 113.255C572.93 112.626 572.659 112.151 572.304 111.827C571.952 111.501 571.533 111.337 571.047 111.337C570.311 111.337 569.734 111.7 569.315 112.424C568.896 113.148 568.685 114.191 568.681 115.551C568.681 116.46 568.776 117.229 568.964 117.857C569.156 118.482 569.427 118.956 569.779 119.279C570.13 119.599 570.553 119.759 571.047 119.759ZM582.625 118.955V118.379C582.625 117.967 582.711 117.591 582.881 117.25C583.055 116.906 583.307 116.63 583.638 116.424C583.971 116.215 584.374 116.11 584.847 116.11C585.33 116.11 585.734 116.213 586.061 116.419C586.388 116.625 586.635 116.9 586.802 117.245C586.972 117.589 587.057 117.967 587.057 118.379V118.955C587.057 119.366 586.972 119.745 586.802 120.089C586.631 120.43 586.381 120.705 586.051 120.915C585.724 121.121 585.323 121.224 584.847 121.224C584.367 121.224 583.962 121.121 583.632 120.915C583.302 120.705 583.052 120.43 582.881 120.089C582.711 119.745 582.625 119.366 582.625 118.955ZM583.867 118.379V118.955C583.867 119.26 583.939 119.537 584.085 119.786C584.231 120.034 584.484 120.158 584.847 120.158C585.205 120.158 585.456 120.034 585.598 119.786C585.74 119.537 585.811 119.26 585.811 118.955V118.379C585.811 118.074 585.742 117.797 585.603 117.548C585.468 117.3 585.216 117.175 584.847 117.175C584.492 117.175 584.239 117.3 584.09 117.548C583.941 117.797 583.867 118.074 583.867 118.379ZM577.139 112.712V112.136C577.139 111.724 577.224 111.346 577.395 111.002C577.569 110.657 577.821 110.382 578.151 110.176C578.485 109.97 578.888 109.867 579.36 109.867C579.843 109.867 580.248 109.97 580.575 110.176C580.901 110.382 581.148 110.657 581.315 111.002C581.482 111.346 581.565 111.724 581.565 112.136V112.712C581.565 113.124 581.48 113.502 581.31 113.846C581.143 114.187 580.894 114.462 580.564 114.672C580.237 114.878 579.836 114.981 579.36 114.981C578.877 114.981 578.471 114.878 578.14 114.672C577.814 114.462 577.565 114.187 577.395 113.846C577.224 113.502 577.139 113.124 577.139 112.712ZM578.385 112.136V112.712C578.385 113.017 578.456 113.294 578.598 113.543C578.744 113.791 578.998 113.915 579.36 113.915C579.715 113.915 579.964 113.791 580.106 113.543C580.252 113.294 580.324 113.017 580.324 112.712V112.136C580.324 111.831 580.255 111.554 580.117 111.305C579.978 111.057 579.726 110.933 579.36 110.933C579.005 110.933 578.753 111.057 578.604 111.305C578.458 111.554 578.385 111.831 578.385 112.136ZM577.645 121L585.145 110.091H586.418L578.918 121H577.645Z" fill="#676671"/>
<path d="M616.707 113.138V118.276M619.276 115.707H614.138M624.414 115.707C624.414 119.964 620.964 123.414 616.707 123.414C612.451 123.414 609 119.964 609 115.707C609 111.451 612.451 108 616.707 108C620.964 108 624.414 111.451 624.414 115.707Z" stroke="#0F172A" stroke-width="1.28451" stroke-linecap="round" stroke-linejoin="round"/>
<path d="M684.055 113.75L683.796 120.5M680.204 120.5L679.945 113.75M687.421 111.343C687.677 111.382 687.933 111.423 688.188 111.467M687.421 111.343L686.62 121.754C686.552 122.634 685.819 123.312 684.937 123.312H679.063C678.181 123.312 677.448 122.634 677.38 121.754L676.579 111.343M687.421 111.343C686.561 111.213 685.691 111.114 684.812 111.046M675.812 111.467C676.067 111.423 676.323 111.382 676.579 111.343M676.579 111.343C677.439 111.213 678.309 111.114 679.188 111.046M684.812 111.046V110.359C684.812 109.474 684.13 108.736 683.245 108.707C682.832 108.694 682.417 108.688 682 108.688C681.583 108.688 681.168 108.694 680.755 108.707C679.87 108.736 679.188 109.474 679.188 110.359V111.046M684.812 111.046C683.884 110.974 682.946 110.938 682 110.938C681.054 110.938 680.116 110.974 679.188 111.046" stroke="#0F172A" stroke-width="1.5" stroke-linecap="round" stroke-linejoin="round"/>
<g clip-path="url(#clip1_918_834)">
<path d="M652.646 110.365L653.912 109.099C654.461 108.55 655.351 108.55 655.901 109.099C656.45 109.649 656.45 110.539 655.901 111.088L645.124 121.865C644.728 122.261 644.239 122.553 643.701 122.713L641.688 123.312L642.287 121.299C642.447 120.761 642.739 120.272 643.135 119.876L652.646 110.365ZM652.646 110.365L654.625 112.344" stroke="#0F172A" stroke-width="1.5" stroke-linecap="round" stroke-linejoin="round"/>
</g>
<path d="M34 79V101C34 109.284 40.7157 116 49 116H61" stroke="#8993A4"/>
<rect x="61.5" y="176.5" width="649" height="59" rx="4.5" fill="#FAFBFB"/>
<rect x="61.5" y="176.5" width="649" height="59" rx="4.5" stroke="#8993A4"/>
<path d="M89.1484 202.957C89.0916 202.452 88.8572 202.062 88.4453 201.785C88.0334 201.504 87.5149 201.364 86.8899 201.364C86.4425 201.364 86.0554 201.435 85.7287 201.577C85.402 201.716 85.1481 201.907 84.967 202.152C84.7894 202.394 84.7006 202.669 84.7006 202.978C84.7006 203.237 84.761 203.461 84.8817 203.649C85.006 203.837 85.1676 203.995 85.3665 204.123C85.5689 204.248 85.7855 204.352 86.0163 204.438C86.2472 204.519 86.4691 204.587 86.6822 204.64L87.7475 204.917C88.0955 205.002 88.4524 205.118 88.8182 205.263C89.1839 205.409 89.5231 205.6 89.8356 205.838C90.1481 206.076 90.4002 206.371 90.592 206.723C90.7873 207.074 90.8849 207.495 90.8849 207.985C90.8849 208.603 90.7251 209.152 90.4055 209.631C90.0895 210.11 89.6296 210.489 89.0259 210.766C88.4258 211.043 87.6996 211.181 86.8473 211.181C86.0305 211.181 85.3239 211.051 84.7273 210.792C84.1307 210.533 83.6637 210.165 83.3263 209.69C82.989 209.21 82.8026 208.642 82.767 207.985H84.4183C84.4503 208.379 84.5781 208.708 84.8018 208.971C85.0291 209.23 85.3185 209.423 85.6701 209.551C86.0252 209.675 86.4141 209.738 86.8366 209.738C87.3018 209.738 87.7156 209.665 88.0778 209.519C88.4435 209.37 88.7312 209.164 88.9407 208.901C89.1502 208.635 89.255 208.324 89.255 207.969C89.255 207.646 89.1626 207.381 88.978 207.175C88.7969 206.969 88.5501 206.799 88.2376 206.664C87.9286 206.529 87.5788 206.41 87.1882 206.307L85.8991 205.956C85.0256 205.718 84.3331 205.368 83.8217 204.906C83.3139 204.445 83.06 203.834 83.06 203.074C83.06 202.445 83.2305 201.897 83.5714 201.428C83.9123 200.959 84.3739 200.595 84.9563 200.336C85.5387 200.073 86.1957 199.942 86.9272 199.942C87.6658 199.942 88.3175 200.071 88.8821 200.331C89.4503 200.59 89.8977 200.947 90.2244 201.401C90.5511 201.852 90.7216 202.371 90.7358 202.957H89.1484ZM96.1704 211.165C95.4033 211.165 94.7339 210.989 94.1622 210.638C93.5905 210.286 93.1466 209.794 92.8305 209.162C92.5145 208.53 92.3564 207.792 92.3564 206.946C92.3564 206.098 92.5145 205.355 92.8305 204.72C93.1466 204.084 93.5905 203.591 94.1622 203.239C94.7339 202.887 95.4033 202.712 96.1704 202.712C96.9374 202.712 97.6068 202.887 98.1785 203.239C98.7503 203.591 99.1942 204.084 99.5102 204.72C99.8263 205.355 99.9843 206.098 99.9843 206.946C99.9843 207.792 99.8263 208.53 99.5102 209.162C99.1942 209.794 98.7503 210.286 98.1785 210.638C97.6068 210.989 96.9374 211.165 96.1704 211.165ZM96.1757 209.828C96.6729 209.828 97.0848 209.697 97.4115 209.434C97.7382 209.171 97.9797 208.821 98.1359 208.385C98.2957 207.948 98.3756 207.467 98.3756 206.941C98.3756 206.419 98.2957 205.94 98.1359 205.503C97.9797 205.062 97.7382 204.709 97.4115 204.443C97.0848 204.176 96.6729 204.043 96.1757 204.043C95.675 204.043 95.2595 204.176 94.9292 204.443C94.6025 204.709 94.3593 205.062 94.1995 205.503C94.0432 205.94 93.9651 206.419 93.9651 206.941C93.9651 207.467 94.0432 207.948 94.1995 208.385C94.3593 208.821 94.6025 209.171 94.9292 209.434C95.2595 209.697 95.675 209.828 96.1757 209.828ZM95.5152 201.726L96.7616 199.271H98.4395L96.7883 201.726H95.5152ZM105.208 211.165C104.417 211.165 103.735 210.986 103.163 210.627C102.595 210.265 102.158 209.766 101.853 209.13C101.547 208.495 101.395 207.767 101.395 206.946C101.395 206.115 101.551 205.382 101.863 204.746C102.176 204.107 102.616 203.608 103.184 203.25C103.752 202.891 104.422 202.712 105.192 202.712C105.814 202.712 106.368 202.827 106.854 203.058C107.341 203.285 107.733 203.605 108.032 204.017C108.333 204.429 108.513 204.91 108.57 205.46H107.02C106.934 205.077 106.739 204.746 106.434 204.469C106.132 204.192 105.727 204.054 105.219 204.054C104.775 204.054 104.386 204.171 104.053 204.406C103.722 204.636 103.465 204.967 103.28 205.396C103.096 205.822 103.003 206.327 103.003 206.909C103.003 207.506 103.094 208.021 103.275 208.454C103.456 208.887 103.712 209.223 104.042 209.461C104.376 209.699 104.768 209.817 105.219 209.817C105.521 209.817 105.794 209.762 106.039 209.652C106.288 209.539 106.496 209.377 106.663 209.168C106.833 208.958 106.952 208.706 107.02 208.411H108.57C108.513 208.94 108.341 209.413 108.053 209.828C107.765 210.244 107.38 210.57 106.897 210.808C106.418 211.046 105.855 211.165 105.208 211.165ZM110.273 211V202.818H111.866V211H110.273ZM111.077 201.556C110.8 201.556 110.562 201.463 110.363 201.279C110.168 201.091 110.07 200.867 110.07 200.608C110.07 200.345 110.168 200.121 110.363 199.936C110.562 199.748 110.8 199.654 111.077 199.654C111.354 199.654 111.59 199.748 111.786 199.936C111.984 200.121 112.084 200.345 112.084 200.608C112.084 200.867 111.984 201.091 111.786 201.279C111.59 201.463 111.354 201.556 111.077 201.556ZM117.455 211.165C116.688 211.165 116.018 210.989 115.446 210.638C114.875 210.286 114.431 209.794 114.115 209.162C113.799 208.53 113.641 207.792 113.641 206.946C113.641 206.098 113.799 205.355 114.115 204.72C114.431 204.084 114.875 203.591 115.446 203.239C116.018 202.887 116.688 202.712 117.455 202.712C118.222 202.712 118.891 202.887 119.463 203.239C120.034 203.591 120.478 204.084 120.794 204.72C121.11 205.355 121.268 206.098 121.268 206.946C121.268 207.792 121.11 208.53 120.794 209.162C120.478 209.794 120.034 210.286 119.463 210.638C118.891 210.989 118.222 211.165 117.455 211.165ZM117.46 209.828C117.957 209.828 118.369 209.697 118.696 209.434C119.022 209.171 119.264 208.821 119.42 208.385C119.58 207.948 119.66 207.467 119.66 206.941C119.66 206.419 119.58 205.94 119.42 205.503C119.264 205.062 119.022 204.709 118.696 204.443C118.369 204.176 117.957 204.043 117.46 204.043C116.959 204.043 116.544 204.176 116.213 204.443C115.887 204.709 115.643 205.062 115.484 205.503C115.327 205.94 115.249 206.419 115.249 206.941C115.249 207.467 115.327 207.948 115.484 208.385C115.643 208.821 115.887 209.171 116.213 209.434C116.544 209.697 116.959 209.828 117.46 209.828ZM127.144 211V200.091H131.032C131.881 200.091 132.584 200.245 133.142 200.554C133.699 200.863 134.116 201.286 134.393 201.822C134.67 202.355 134.809 202.955 134.809 203.623C134.809 204.294 134.669 204.897 134.388 205.434C134.111 205.966 133.692 206.389 133.131 206.701C132.574 207.01 131.872 207.165 131.027 207.165H128.353V205.769H130.878C131.414 205.769 131.849 205.677 132.183 205.492C132.517 205.304 132.762 205.048 132.918 204.725C133.074 204.402 133.152 204.034 133.152 203.623C133.152 203.211 133.074 202.845 132.918 202.525C132.762 202.206 132.515 201.955 132.178 201.774C131.844 201.593 131.403 201.502 130.857 201.502H128.79V211H127.144ZM139.528 200.091H141.169V207.825C141.169 208.525 141.031 209.123 140.754 209.62C140.48 210.118 140.095 210.498 139.598 210.76C139.1 211.02 138.518 211.149 137.85 211.149C137.236 211.149 136.684 211.037 136.194 210.814C135.707 210.59 135.322 210.265 135.038 209.839C134.757 209.409 134.617 208.887 134.617 208.273H136.252C136.252 208.575 136.322 208.836 136.46 209.056C136.602 209.276 136.796 209.448 137.041 209.572C137.289 209.693 137.574 209.754 137.893 209.754C138.241 209.754 138.536 209.681 138.777 209.535C139.022 209.386 139.209 209.168 139.337 208.88C139.464 208.592 139.528 208.241 139.528 207.825V200.091Z" fill="#676671"/>
<path d="M558.049 211V209.807L561.741 205.982C562.135 205.567 562.46 205.203 562.716 204.89C562.975 204.574 563.168 204.274 563.296 203.99C563.424 203.706 563.488 203.404 563.488 203.085C563.488 202.722 563.403 202.41 563.232 202.147C563.062 201.881 562.829 201.676 562.534 201.534C562.24 201.389 561.908 201.316 561.538 201.316C561.148 201.316 560.807 201.396 560.516 201.556C560.224 201.716 560.001 201.941 559.844 202.232C559.688 202.523 559.61 202.864 559.61 203.255H558.039C558.039 202.591 558.191 202.01 558.497 201.513C558.802 201.016 559.221 200.631 559.754 200.357C560.287 200.08 560.892 199.942 561.57 199.942C562.256 199.942 562.859 200.078 563.381 200.352C563.907 200.622 564.317 200.991 564.612 201.46C564.907 201.925 565.054 202.451 565.054 203.037C565.054 203.441 564.978 203.837 564.825 204.224C564.676 204.612 564.415 205.043 564.042 205.519C563.669 205.991 563.151 206.565 562.487 207.239L560.319 209.509V209.588H565.23V211H558.049ZM571.047 211.181C570.205 211.178 569.486 210.956 568.889 210.515C568.293 210.075 567.836 209.434 567.52 208.592C567.204 207.751 567.046 206.737 567.046 205.551C567.046 204.368 567.204 203.358 567.52 202.52C567.84 201.682 568.298 201.043 568.895 200.602C569.495 200.162 570.212 199.942 571.047 199.942C571.881 199.942 572.597 200.164 573.193 200.608C573.79 201.048 574.246 201.687 574.562 202.525C574.882 203.36 575.042 204.368 575.042 205.551C575.042 206.74 574.884 207.756 574.567 208.598C574.251 209.436 573.795 210.077 573.199 210.521C572.602 210.961 571.885 211.181 571.047 211.181ZM571.047 209.759C571.785 209.759 572.362 209.398 572.778 208.678C573.197 207.957 573.406 206.914 573.406 205.551C573.406 204.645 573.31 203.88 573.119 203.255C572.93 202.626 572.659 202.151 572.304 201.827C571.952 201.501 571.533 201.337 571.047 201.337C570.311 201.337 569.734 201.7 569.315 202.424C568.896 203.148 568.685 204.191 568.681 205.551C568.681 206.46 568.776 207.229 568.964 207.857C569.156 208.482 569.427 208.956 569.779 209.279C570.13 209.599 570.553 209.759 571.047 209.759ZM582.625 208.955V208.379C582.625 207.967 582.711 207.591 582.881 207.25C583.055 206.906 583.307 206.63 583.638 206.424C583.971 206.215 584.374 206.11 584.847 206.11C585.33 206.11 585.734 206.213 586.061 206.419C586.388 206.625 586.635 206.9 586.802 207.245C586.972 207.589 587.057 207.967 587.057 208.379V208.955C587.057 209.366 586.972 209.745 586.802 210.089C586.631 210.43 586.381 210.705 586.051 210.915C585.724 211.121 585.323 211.224 584.847 211.224C584.367 211.224 583.962 211.121 583.632 210.915C583.302 210.705 583.052 210.43 582.881 210.089C582.711 209.745 582.625 209.366 582.625 208.955ZM583.867 208.379V208.955C583.867 209.26 583.939 209.537 584.085 209.786C584.231 210.034 584.484 210.158 584.847 210.158C585.205 210.158 585.456 210.034 585.598 209.786C585.74 209.537 585.811 209.26 585.811 208.955V208.379C585.811 208.074 585.742 207.797 585.603 207.548C585.468 207.3 585.216 207.175 584.847 207.175C584.492 207.175 584.239 207.3 584.09 207.548C583.941 207.797 583.867 208.074 583.867 208.379ZM577.139 202.712V202.136C577.139 201.724 577.224 201.346 577.395 201.002C577.569 200.657 577.821 200.382 578.151 200.176C578.485 199.97 578.888 199.867 579.36 199.867C579.843 199.867 580.248 199.97 580.575 200.176C580.901 200.382 581.148 200.657 581.315 201.002C581.482 201.346 581.565 201.724 581.565 202.136V202.712C581.565 203.124 581.48 203.502 581.31 203.846C581.143 204.187 580.894 204.462 580.564 204.672C580.237 204.878 579.836 204.981 579.36 204.981C578.877 204.981 578.471 204.878 578.14 204.672C577.814 204.462 577.565 204.187 577.395 203.846C577.224 203.502 577.139 203.124 577.139 202.712ZM578.385 202.136V202.712C578.385 203.017 578.456 203.294 578.598 203.543C578.744 203.791 578.998 203.915 579.36 203.915C579.715 203.915 579.964 203.791 580.106 203.543C580.252 203.294 580.324 203.017 580.324 202.712V202.136C580.324 201.831 580.255 201.554 580.117 201.305C579.978 201.057 579.726 200.933 579.36 200.933C579.005 200.933 578.753 201.057 578.604 201.305C578.458 201.554 578.385 201.831 578.385 202.136ZM577.645 211L585.145 200.091H586.418L578.918 211H577.645Z" fill="#676671"/>
<path d="M684.055 203.75L683.796 210.5M680.204 210.5L679.945 203.75M687.421 201.343C687.677 201.382 687.933 201.423 688.188 201.467M687.421 201.343L686.62 211.754C686.552 212.634 685.819 213.312 684.937 213.312H679.063C678.181 213.312 677.448 212.634 677.38 211.754L676.579 201.343M687.421 201.343C686.561 201.213 685.691 201.114 684.812 201.046M675.812 201.467C676.067 201.423 676.323 201.382 676.579 201.343M676.579 201.343C677.439 201.213 678.309 201.114 679.188 201.046M684.812 201.046V200.359C684.812 199.474 684.13 198.736 683.245 198.707C682.832 198.694 682.417 198.688 682 198.688C681.583 198.688 681.168 198.694 680.755 198.707C679.87 198.736 679.188 199.474 679.188 200.359V201.046M684.812 201.046C683.884 200.974 682.946 200.938 682 200.938C681.054 200.938 680.116 200.974 679.188 201.046" stroke="#0F172A" stroke-width="1.5" stroke-linecap="round" stroke-linejoin="round"/>
<g clip-path="url(#clip2_918_834)">
<path d="M652.646 200.365L653.912 199.099C654.461 198.55 655.351 198.55 655.901 199.099C656.45 199.649 656.45 200.539 655.901 201.088L645.124 211.865C644.728 212.261 644.239 212.553 643.701 212.713L641.688 213.312L642.287 211.299C642.447 210.761 642.739 210.272 643.135 209.876L652.646 200.365ZM652.646 200.365L654.625 202.344" stroke="#0F172A" stroke-width="1.5" stroke-linecap="round" stroke-linejoin="round"/>
</g>
<path d="M616.707 203.138V208.276M619.276 205.707H614.138M624.414 205.707C624.414 209.964 620.964 213.414 616.707 213.414C612.451 213.414 609 209.964 609 205.707C609 201.451 612.451 198 616.707 198C620.964 198 624.414 201.451 624.414 205.707Z" stroke="#0F172A" stroke-width="1.28451" stroke-linecap="round" stroke-linejoin="round"/>
<path d="M34 167V191C34 199.284 40.7157 206 49 206H61" stroke="#8993A4"/>
<rect x="123.908" y="266.5" width="586.592" height="59" rx="4.5" fill="#FAFBFB"/>
<rect x="123.908" y="266.5" width="586.592" height="59" rx="4.5" stroke="#8993A4"/>
<path d="M151.556 292.957C151.499 292.452 151.265 292.062 150.853 291.785C150.441 291.504 149.923 291.364 149.298 291.364C148.85 291.364 148.463 291.435 148.136 291.577C147.81 291.716 147.556 291.907 147.375 292.152C147.197 292.394 147.108 292.669 147.108 292.978C147.108 293.237 147.169 293.461 147.289 293.649C147.414 293.837 147.575 293.995 147.774 294.123C147.977 294.248 148.193 294.352 148.424 294.438C148.655 294.519 148.877 294.587 149.09 294.64L150.155 294.917C150.503 295.002 150.86 295.118 151.226 295.263C151.592 295.409 151.931 295.6 152.243 295.838C152.556 296.076 152.808 296.371 153 296.723C153.195 297.074 153.293 297.495 153.293 297.985C153.293 298.603 153.133 299.152 152.813 299.631C152.497 300.11 152.037 300.489 151.434 300.766C150.833 301.043 150.107 301.181 149.255 301.181C148.438 301.181 147.732 301.051 147.135 300.792C146.538 300.533 146.071 300.165 145.734 299.69C145.397 299.21 145.21 298.642 145.175 297.985H146.826C146.858 298.379 146.986 298.708 147.21 298.971C147.437 299.23 147.726 299.423 148.078 299.551C148.433 299.675 148.822 299.738 149.244 299.738C149.71 299.738 150.123 299.665 150.485 299.519C150.851 299.37 151.139 299.164 151.348 298.901C151.558 298.635 151.663 298.324 151.663 297.969C151.663 297.646 151.57 297.381 151.386 297.175C151.205 296.969 150.958 296.799 150.645 296.664C150.336 296.529 149.987 296.41 149.596 296.307L148.307 295.956C147.433 295.718 146.741 295.368 146.229 294.906C145.722 294.445 145.468 293.834 145.468 293.074C145.468 292.445 145.638 291.897 145.979 291.428C146.32 290.959 146.782 290.595 147.364 290.336C147.946 290.073 148.603 289.942 149.335 289.942C150.074 289.942 150.725 290.071 151.29 290.331C151.858 290.59 152.305 290.947 152.632 291.401C152.959 291.852 153.129 292.371 153.144 292.957H151.556ZM158.578 301.165C157.811 301.165 157.142 300.989 156.57 300.638C155.998 300.286 155.554 299.794 155.238 299.162C154.922 298.53 154.764 297.792 154.764 296.946C154.764 296.098 154.922 295.355 155.238 294.72C155.554 294.084 155.998 293.591 156.57 293.239C157.142 292.887 157.811 292.712 158.578 292.712C159.345 292.712 160.015 292.887 160.586 293.239C161.158 293.591 161.602 294.084 161.918 294.72C162.234 295.355 162.392 296.098 162.392 296.946C162.392 297.792 162.234 298.53 161.918 299.162C161.602 299.794 161.158 300.286 160.586 300.638C160.015 300.989 159.345 301.165 158.578 301.165ZM158.583 299.828C159.081 299.828 159.492 299.697 159.819 299.434C160.146 299.171 160.387 298.821 160.544 298.385C160.703 297.948 160.783 297.467 160.783 296.941C160.783 296.419 160.703 295.94 160.544 295.503C160.387 295.062 160.146 294.709 159.819 294.443C159.492 294.176 159.081 294.043 158.583 294.043C158.083 294.043 157.667 294.176 157.337 294.443C157.01 294.709 156.767 295.062 156.607 295.503C156.451 295.94 156.373 296.419 156.373 296.941C156.373 297.467 156.451 297.948 156.607 298.385C156.767 298.821 157.01 299.171 157.337 299.434C157.667 299.697 158.083 299.828 158.583 299.828ZM157.923 291.726L159.169 289.271H160.847L159.196 291.726H157.923ZM167.616 301.165C166.824 301.165 166.142 300.986 165.571 300.627C165.003 300.265 164.566 299.766 164.26 299.13C163.955 298.495 163.802 297.767 163.802 296.946C163.802 296.115 163.958 295.382 164.271 294.746C164.583 294.107 165.024 293.608 165.592 293.25C166.16 292.891 166.83 292.712 167.6 292.712C168.222 292.712 168.776 292.827 169.262 293.058C169.749 293.285 170.141 293.605 170.439 294.017C170.741 294.429 170.92 294.91 170.977 295.46H169.427C169.342 295.077 169.147 294.746 168.841 294.469C168.539 294.192 168.135 294.054 167.627 294.054C167.183 294.054 166.794 294.171 166.46 294.406C166.13 294.636 165.873 294.967 165.688 295.396C165.503 295.822 165.411 296.327 165.411 296.909C165.411 297.506 165.501 298.021 165.683 298.454C165.864 298.887 166.119 299.223 166.45 299.461C166.783 299.699 167.176 299.817 167.627 299.817C167.929 299.817 168.202 299.762 168.447 299.652C168.696 299.539 168.903 299.377 169.07 299.168C169.241 298.958 169.36 298.706 169.427 298.411H170.977C170.92 298.94 170.748 299.413 170.461 299.828C170.173 300.244 169.788 300.57 169.305 300.808C168.825 301.046 168.262 301.165 167.616 301.165ZM172.681 301V292.818H174.273V301H172.681ZM173.485 291.556C173.208 291.556 172.97 291.463 172.771 291.279C172.576 291.091 172.478 290.867 172.478 290.608C172.478 290.345 172.576 290.121 172.771 289.936C172.97 289.748 173.208 289.654 173.485 289.654C173.762 289.654 173.998 289.748 174.193 289.936C174.392 290.121 174.492 290.345 174.492 290.608C174.492 290.867 174.392 291.091 174.193 291.279C173.998 291.463 173.762 291.556 173.485 291.556ZM179.862 301.165C179.095 301.165 178.426 300.989 177.854 300.638C177.282 300.286 176.838 299.794 176.522 299.162C176.206 298.53 176.048 297.792 176.048 296.946C176.048 296.098 176.206 295.355 176.522 294.72C176.838 294.084 177.282 293.591 177.854 293.239C178.426 292.887 179.095 292.712 179.862 292.712C180.629 292.712 181.299 292.887 181.87 293.239C182.442 293.591 182.886 294.084 183.202 294.72C183.518 295.355 183.676 296.098 183.676 296.946C183.676 297.792 183.518 298.53 183.202 299.162C182.886 299.794 182.442 300.286 181.87 300.638C181.299 300.989 180.629 301.165 179.862 301.165ZM179.868 299.828C180.365 299.828 180.777 299.697 181.103 299.434C181.43 299.171 181.672 298.821 181.828 298.385C181.988 297.948 182.068 297.467 182.068 296.941C182.068 296.419 181.988 295.94 181.828 295.503C181.672 295.062 181.43 294.709 181.103 294.443C180.777 294.176 180.365 294.043 179.868 294.043C179.367 294.043 178.951 294.176 178.621 294.443C178.294 294.709 178.051 295.062 177.891 295.503C177.735 295.94 177.657 296.419 177.657 296.941C177.657 297.467 177.735 297.948 177.891 298.385C178.051 298.821 178.294 299.171 178.621 299.434C178.951 299.697 179.367 299.828 179.868 299.828ZM189.552 301V290.091H193.44C194.289 290.091 194.992 290.245 195.549 290.554C196.107 290.863 196.524 291.286 196.801 291.822C197.078 292.355 197.217 292.955 197.217 293.623C197.217 294.294 197.076 294.897 196.796 295.434C196.519 295.966 196.1 296.389 195.539 296.701C194.981 297.01 194.28 297.165 193.435 297.165H190.761V295.769H193.286C193.822 295.769 194.257 295.677 194.591 295.492C194.924 295.304 195.169 295.048 195.326 294.725C195.482 294.402 195.56 294.034 195.56 293.623C195.56 293.211 195.482 292.845 195.326 292.525C195.169 292.206 194.923 291.955 194.585 291.774C194.251 291.593 193.811 291.502 193.264 291.502H191.197V301H189.552ZM199.146 301V290.091H205.911V291.508H200.792V294.832H205.426V296.243H200.792V301H199.146Z" fill="#676671"/>
<path d="M585.596 290.091V301H583.945V291.742H583.881L581.271 293.447V291.87L583.993 290.091H585.596ZM592.345 301.181C591.503 301.178 590.784 300.956 590.188 300.515C589.591 300.075 589.135 299.434 588.819 298.592C588.503 297.751 588.345 296.737 588.345 295.551C588.345 294.368 588.503 293.358 588.819 292.52C589.138 291.682 589.596 291.043 590.193 290.602C590.793 290.162 591.51 289.942 592.345 289.942C593.179 289.942 593.895 290.164 594.492 290.608C595.088 291.048 595.544 291.687 595.86 292.525C596.18 293.36 596.34 294.368 596.34 295.551C596.34 296.74 596.182 297.756 595.866 298.598C595.55 299.436 595.093 300.077 594.497 300.521C593.9 300.961 593.183 301.181 592.345 301.181ZM592.345 299.759C593.083 299.759 593.661 299.398 594.076 298.678C594.495 297.957 594.705 296.914 594.705 295.551C594.705 294.645 594.609 293.88 594.417 293.255C594.229 292.626 593.957 292.151 593.602 291.827C593.25 291.501 592.831 291.337 592.345 291.337C591.61 291.337 591.033 291.7 590.614 292.424C590.195 293.148 589.983 294.191 589.98 295.551C589.98 296.46 590.074 297.229 590.262 297.857C590.454 298.482 590.726 298.956 591.077 299.279C591.429 299.599 591.851 299.759 592.345 299.759ZM602.027 301.181C601.186 301.178 600.467 300.956 599.87 300.515C599.274 300.075 598.817 299.434 598.501 298.592C598.185 297.751 598.027 296.737 598.027 295.551C598.027 294.368 598.185 293.358 598.501 292.52C598.821 291.682 599.279 291.043 599.875 290.602C600.476 290.162 601.193 289.942 602.027 289.942C602.862 289.942 603.578 290.164 604.174 290.608C604.771 291.048 605.227 291.687 605.543 292.525C605.863 293.36 606.023 294.368 606.023 295.551C606.023 296.74 605.864 297.756 605.548 298.598C605.232 299.436 604.776 300.077 604.179 300.521C603.583 300.961 602.866 301.181 602.027 301.181ZM602.027 299.759C602.766 299.759 603.343 299.398 603.759 298.678C604.178 297.957 604.387 296.914 604.387 295.551C604.387 294.645 604.291 293.88 604.1 293.255C603.911 292.626 603.64 292.151 603.285 291.827C602.933 291.501 602.514 291.337 602.027 291.337C601.292 291.337 600.715 291.7 600.296 292.424C599.877 293.148 599.666 294.191 599.662 295.551C599.662 296.46 599.757 297.229 599.945 297.857C600.136 298.482 600.408 298.956 600.76 299.279C601.111 299.599 601.534 299.759 602.027 299.759ZM613.606 298.955V298.379C613.606 297.967 613.692 297.591 613.862 297.25C614.036 296.906 614.288 296.63 614.618 296.424C614.952 296.215 615.355 296.11 615.828 296.11C616.311 296.11 616.715 296.213 617.042 296.419C617.369 296.625 617.616 296.9 617.783 297.245C617.953 297.589 618.038 297.967 618.038 298.379V298.955C618.038 299.366 617.953 299.745 617.783 300.089C617.612 300.43 617.362 300.705 617.031 300.915C616.705 301.121 616.303 301.224 615.828 301.224C615.348 301.224 614.943 301.121 614.613 300.915C614.283 300.705 614.033 300.43 613.862 300.089C613.692 299.745 613.606 299.366 613.606 298.955ZM614.848 298.379V298.955C614.848 299.26 614.92 299.537 615.066 299.786C615.212 300.034 615.465 300.158 615.828 300.158C616.186 300.158 616.437 300.034 616.579 299.786C616.721 299.537 616.792 299.26 616.792 298.955V298.379C616.792 298.074 616.723 297.797 616.584 297.548C616.449 297.3 616.197 297.175 615.828 297.175C615.473 297.175 615.22 297.3 615.071 297.548C614.922 297.797 614.848 298.074 614.848 298.379ZM608.12 292.712V292.136C608.12 291.724 608.205 291.346 608.376 291.002C608.55 290.657 608.802 290.382 609.132 290.176C609.466 289.97 609.869 289.867 610.341 289.867C610.824 289.867 611.229 289.97 611.556 290.176C611.882 290.382 612.129 290.657 612.296 291.002C612.463 291.346 612.546 291.724 612.546 292.136V292.712C612.546 293.124 612.461 293.502 612.291 293.846C612.124 294.187 611.875 294.462 611.545 294.672C611.218 294.878 610.817 294.981 610.341 294.981C609.858 294.981 609.452 294.878 609.121 294.672C608.795 294.462 608.546 294.187 608.376 293.846C608.205 293.502 608.12 293.124 608.12 292.712ZM609.366 292.136V292.712C609.366 293.017 609.437 293.294 609.579 293.543C609.725 293.791 609.979 293.915 610.341 293.915C610.696 293.915 610.945 293.791 611.087 293.543C611.232 293.294 611.305 293.017 611.305 292.712V292.136C611.305 291.831 611.236 291.554 611.098 291.305C610.959 291.057 610.707 290.933 610.341 290.933C609.986 290.933 609.734 291.057 609.585 291.305C609.439 291.554 609.366 291.831 609.366 292.136ZM608.626 301L616.126 290.091H617.399L609.899 301H608.626Z" fill="#676671"/>
<path d="M684.055 293.75L683.796 300.5M680.204 300.5L679.945 293.75M687.421 291.343C687.677 291.382 687.933 291.423 688.188 291.467M687.421 291.343L686.62 301.754C686.552 302.634 685.819 303.312 684.937 303.312H679.063C678.181 303.312 677.448 302.634 677.38 301.754L676.579 291.343M687.421 291.343C686.561 291.213 685.691 291.114 684.812 291.046M675.812 291.467C676.067 291.423 676.323 291.382 676.579 291.343M676.579 291.343C677.439 291.213 678.309 291.114 679.188 291.046M684.812 291.046V290.359C684.812 289.474 684.13 288.736 683.245 288.707C682.832 288.694 682.417 288.688 682 288.688C681.583 288.688 681.168 288.694 680.755 288.707C679.87 288.736 679.188 289.474 679.188 290.359V291.046M684.812 291.046C683.884 290.974 682.946 290.938 682 290.938C681.054 290.938 680.116 290.974 679.188 291.046" stroke="#0F172A" stroke-width="1.5" stroke-linecap="round" stroke-linejoin="round"/>
<g clip-path="url(#clip3_918_834)">
<path d="M652.646 290.365L653.912 289.099C654.461 288.55 655.351 288.55 655.901 289.099C656.45 289.649 656.45 290.539 655.901 291.088L645.124 301.865C644.728 302.261 644.239 302.553 643.701 302.713L641.688 303.312L642.287 301.299C642.447 300.761 642.739 300.272 643.135 299.876L652.646 290.365ZM652.646 290.365L654.625 292.344" stroke="#0F172A" stroke-width="1.5" stroke-linecap="round" stroke-linejoin="round"/>
</g>
<path d="M99 257V281C99 289.284 105.716 296 114 296H123.408" stroke="#8993A4"/>
<rect x="61.5" y="356.5" width="649" height="59" rx="4.5" fill="#FAFBFB"/>
<rect x="61.5" y="356.5" width="649" height="59" rx="4.5" stroke="#8993A4"/>
<path d="M89.1484 382.957C89.0916 382.452 88.8572 382.062 88.4453 381.785C88.0334 381.504 87.5149 381.364 86.8899 381.364C86.4425 381.364 86.0554 381.435 85.7287 381.577C85.402 381.716 85.1481 381.907 84.967 382.152C84.7894 382.394 84.7006 382.669 84.7006 382.978C84.7006 383.237 84.761 383.461 84.8817 383.649C85.006 383.837 85.1676 383.995 85.3665 384.123C85.5689 384.248 85.7855 384.352 86.0163 384.438C86.2472 384.519 86.4691 384.587 86.6822 384.64L87.7475 384.917C88.0955 385.002 88.4524 385.118 88.8182 385.263C89.1839 385.409 89.5231 385.6 89.8356 385.838C90.1481 386.076 90.4002 386.371 90.592 386.723C90.7873 387.074 90.8849 387.495 90.8849 387.985C90.8849 388.603 90.7251 389.152 90.4055 389.631C90.0895 390.11 89.6296 390.489 89.0259 390.766C88.4258 391.043 87.6996 391.181 86.8473 391.181C86.0305 391.181 85.3239 391.051 84.7273 390.792C84.1307 390.533 83.6637 390.165 83.3263 389.69C82.989 389.21 82.8026 388.642 82.767 387.985H84.4183C84.4503 388.379 84.5781 388.708 84.8018 388.971C85.0291 389.23 85.3185 389.423 85.6701 389.551C86.0252 389.675 86.4141 389.738 86.8366 389.738C87.3018 389.738 87.7156 389.665 88.0778 389.519C88.4435 389.37 88.7312 389.164 88.9407 388.901C89.1502 388.635 89.255 388.324 89.255 387.969C89.255 387.646 89.1626 387.381 88.978 387.175C88.7969 386.969 88.5501 386.799 88.2376 386.664C87.9286 386.529 87.5788 386.41 87.1882 386.307L85.8991 385.956C85.0256 385.718 84.3331 385.368 83.8217 384.906C83.3139 384.445 83.06 383.834 83.06 383.074C83.06 382.445 83.2305 381.897 83.5714 381.428C83.9123 380.959 84.3739 380.595 84.9563 380.336C85.5387 380.073 86.1957 379.942 86.9272 379.942C87.6658 379.942 88.3175 380.071 88.8821 380.331C89.4503 380.59 89.8977 380.947 90.2244 381.401C90.5511 381.852 90.7216 382.371 90.7358 382.957H89.1484ZM96.1704 391.165C95.4033 391.165 94.7339 390.989 94.1622 390.638C93.5905 390.286 93.1466 389.794 92.8305 389.162C92.5145 388.53 92.3564 387.792 92.3564 386.946C92.3564 386.098 92.5145 385.355 92.8305 384.72C93.1466 384.084 93.5905 383.591 94.1622 383.239C94.7339 382.887 95.4033 382.712 96.1704 382.712C96.9374 382.712 97.6068 382.887 98.1785 383.239C98.7503 383.591 99.1942 384.084 99.5102 384.72C99.8263 385.355 99.9843 386.098 99.9843 386.946C99.9843 387.792 99.8263 388.53 99.5102 389.162C99.1942 389.794 98.7503 390.286 98.1785 390.638C97.6068 390.989 96.9374 391.165 96.1704 391.165ZM96.1757 389.828C96.6729 389.828 97.0848 389.697 97.4115 389.434C97.7382 389.171 97.9797 388.821 98.1359 388.385C98.2957 387.948 98.3756 387.467 98.3756 386.941C98.3756 386.419 98.2957 385.94 98.1359 385.503C97.9797 385.062 97.7382 384.709 97.4115 384.443C97.0848 384.176 96.6729 384.043 96.1757 384.043C95.675 384.043 95.2595 384.176 94.9292 384.443C94.6025 384.709 94.3593 385.062 94.1995 385.503C94.0432 385.94 93.9651 386.419 93.9651 386.941C93.9651 387.467 94.0432 387.948 94.1995 388.385C94.3593 388.821 94.6025 389.171 94.9292 389.434C95.2595 389.697 95.675 389.828 96.1757 389.828ZM95.5152 381.726L96.7616 379.271H98.4395L96.7883 381.726H95.5152ZM105.208 391.165C104.417 391.165 103.735 390.986 103.163 390.627C102.595 390.265 102.158 389.766 101.853 389.13C101.547 388.495 101.395 387.767 101.395 386.946C101.395 386.115 101.551 385.382 101.863 384.746C102.176 384.107 102.616 383.608 103.184 383.25C103.752 382.891 104.422 382.712 105.192 382.712C105.814 382.712 106.368 382.827 106.854 383.058C107.341 383.285 107.733 383.605 108.032 384.017C108.333 384.429 108.513 384.91 108.57 385.46H107.02C106.934 385.077 106.739 384.746 106.434 384.469C106.132 384.192 105.727 384.054 105.219 384.054C104.775 384.054 104.386 384.171 104.053 384.406C103.722 384.636 103.465 384.967 103.28 385.396C103.096 385.822 103.003 386.327 103.003 386.909C103.003 387.506 103.094 388.021 103.275 388.454C103.456 388.887 103.712 389.223 104.042 389.461C104.376 389.699 104.768 389.817 105.219 389.817C105.521 389.817 105.794 389.762 106.039 389.652C106.288 389.539 106.496 389.377 106.663 389.168C106.833 388.958 106.952 388.706 107.02 388.411H108.57C108.513 388.94 108.341 389.413 108.053 389.828C107.765 390.244 107.38 390.57 106.897 390.808C106.418 391.046 105.855 391.165 105.208 391.165ZM110.273 391V382.818H111.866V391H110.273ZM111.077 381.556C110.8 381.556 110.562 381.463 110.363 381.279C110.168 381.091 110.07 380.867 110.07 380.608C110.07 380.345 110.168 380.121 110.363 379.936C110.562 379.748 110.8 379.654 111.077 379.654C111.354 379.654 111.59 379.748 111.786 379.936C111.984 380.121 112.084 380.345 112.084 380.608C112.084 380.867 111.984 381.091 111.786 381.279C111.59 381.463 111.354 381.556 111.077 381.556ZM117.455 391.165C116.688 391.165 116.018 390.989 115.446 390.638C114.875 390.286 114.431 389.794 114.115 389.162C113.799 388.53 113.641 387.792 113.641 386.946C113.641 386.098 113.799 385.355 114.115 384.72C114.431 384.084 114.875 383.591 115.446 383.239C116.018 382.887 116.688 382.712 117.455 382.712C118.222 382.712 118.891 382.887 119.463 383.239C120.034 383.591 120.478 384.084 120.794 384.72C121.11 385.355 121.268 386.098 121.268 386.946C121.268 387.792 121.11 388.53 120.794 389.162C120.478 389.794 120.034 390.286 119.463 390.638C118.891 390.989 118.222 391.165 117.455 391.165ZM117.46 389.828C117.957 389.828 118.369 389.697 118.696 389.434C119.022 389.171 119.264 388.821 119.42 388.385C119.58 387.948 119.66 387.467 119.66 386.941C119.66 386.419 119.58 385.94 119.42 385.503C119.264 385.062 119.022 384.709 118.696 384.443C118.369 384.176 117.957 384.043 117.46 384.043C116.959 384.043 116.544 384.176 116.213 384.443C115.887 384.709 115.643 385.062 115.484 385.503C115.327 385.94 115.249 386.419 115.249 386.941C115.249 387.467 115.327 387.948 115.484 388.385C115.643 388.821 115.887 389.171 116.213 389.434C116.544 389.697 116.959 389.828 117.46 389.828ZM127.144 391V380.091H131.032C131.881 380.091 132.584 380.245 133.142 380.554C133.699 380.863 134.116 381.286 134.393 381.822C134.67 382.355 134.809 382.955 134.809 383.623C134.809 384.294 134.669 384.897 134.388 385.434C134.111 385.966 133.692 386.389 133.131 386.701C132.574 387.01 131.872 387.165 131.027 387.165H128.353V385.769H130.878C131.414 385.769 131.849 385.677 132.183 385.492C132.517 385.304 132.762 385.048 132.918 384.725C133.074 384.402 133.152 384.034 133.152 383.623C133.152 383.211 133.074 382.845 132.918 382.525C132.762 382.206 132.515 381.955 132.178 381.774C131.844 381.593 131.403 381.502 130.857 381.502H128.79V391H127.144ZM139.528 380.091H141.169V387.825C141.169 388.525 141.031 389.123 140.754 389.62C140.48 390.118 140.095 390.498 139.598 390.76C139.1 391.02 138.518 391.149 137.85 391.149C137.236 391.149 136.684 391.037 136.194 390.814C135.707 390.59 135.322 390.265 135.038 389.839C134.757 389.409 134.617 388.887 134.617 388.273H136.252C136.252 388.575 136.322 388.836 136.46 389.056C136.602 389.276 136.796 389.448 137.041 389.572C137.289 389.693 137.574 389.754 137.893 389.754C138.241 389.754 138.536 389.681 138.777 389.535C139.022 389.386 139.209 389.168 139.337 388.88C139.464 388.592 139.528 388.241 139.528 387.825V380.091Z" fill="#676671"/>
<path d="M561.858 391.149C561.371 391.142 560.892 391.053 560.42 390.883C559.951 390.712 559.525 390.428 559.141 390.031C558.758 389.633 558.451 389.098 558.22 388.427C557.993 387.756 557.879 386.918 557.879 385.913C557.879 384.961 557.973 384.116 558.161 383.377C558.353 382.639 558.628 382.016 558.987 381.508C559.346 380.996 559.779 380.608 560.287 380.341C560.794 380.075 561.364 379.942 561.996 379.942C562.646 379.942 563.223 380.07 563.728 380.325C564.232 380.581 564.64 380.934 564.953 381.385C565.269 381.836 565.469 382.349 565.555 382.925H563.93C563.82 382.47 563.602 382.099 563.275 381.811C562.948 381.524 562.522 381.38 561.996 381.38C561.197 381.38 560.574 381.728 560.127 382.424C559.683 383.12 559.459 384.088 559.456 385.327H559.536C559.724 385.018 559.955 384.755 560.228 384.539C560.505 384.319 560.814 384.15 561.155 384.033C561.499 383.912 561.862 383.852 562.241 383.852C562.874 383.852 563.445 384.006 563.957 384.315C564.472 384.62 564.882 385.043 565.187 385.583C565.493 386.123 565.645 386.74 565.645 387.436C565.645 388.132 565.487 388.763 565.171 389.327C564.859 389.892 564.418 390.339 563.85 390.67C563.282 390.996 562.618 391.156 561.858 391.149ZM561.853 389.764C562.272 389.764 562.646 389.661 562.977 389.455C563.307 389.249 563.568 388.972 563.76 388.624C563.951 388.276 564.047 387.887 564.047 387.458C564.047 387.039 563.953 386.657 563.765 386.312C563.58 385.968 563.325 385.695 562.998 385.492C562.675 385.29 562.305 385.189 561.89 385.189C561.574 385.189 561.281 385.249 561.011 385.37C560.745 385.49 560.51 385.657 560.308 385.87C560.105 386.083 559.946 386.328 559.828 386.605C559.715 386.879 559.658 387.168 559.658 387.474C559.658 387.882 559.752 388.26 559.94 388.608C560.132 388.956 560.393 389.237 560.723 389.45C561.057 389.659 561.434 389.764 561.853 389.764ZM571.383 391.181C570.542 391.178 569.823 390.956 569.226 390.515C568.63 390.075 568.173 389.434 567.857 388.592C567.541 387.751 567.383 386.737 567.383 385.551C567.383 384.368 567.541 383.358 567.857 382.52C568.177 381.682 568.635 381.043 569.231 380.602C569.832 380.162 570.549 379.942 571.383 379.942C572.218 379.942 572.934 380.164 573.53 380.608C574.127 381.048 574.583 381.687 574.899 382.525C575.219 383.36 575.378 384.368 575.378 385.551C575.378 386.74 575.22 387.756 574.904 388.598C574.588 389.436 574.132 390.077 573.535 390.521C572.939 390.961 572.222 391.181 571.383 391.181ZM571.383 389.759C572.122 389.759 572.699 389.398 573.115 388.678C573.534 387.957 573.743 386.914 573.743 385.551C573.743 384.645 573.647 383.88 573.456 383.255C573.267 382.626 572.996 382.151 572.641 381.827C572.289 381.501 571.87 381.337 571.383 381.337C570.648 381.337 570.071 381.7 569.652 382.424C569.233 383.148 569.022 384.191 569.018 385.551C569.018 386.46 569.112 387.229 569.301 387.857C569.492 388.482 569.764 388.956 570.116 389.279C570.467 389.599 570.89 389.759 571.383 389.759ZM582.962 388.955V388.379C582.962 387.967 583.048 387.591 583.218 387.25C583.392 386.906 583.644 386.63 583.974 386.424C584.308 386.215 584.711 386.11 585.184 386.11C585.667 386.11 586.071 386.213 586.398 386.419C586.725 386.625 586.972 386.9 587.138 387.245C587.309 387.589 587.394 387.967 587.394 388.379V388.955C587.394 389.366 587.309 389.745 587.138 390.089C586.968 390.43 586.718 390.705 586.387 390.915C586.061 391.121 585.659 391.224 585.184 391.224C584.704 391.224 584.299 391.121 583.969 390.915C583.639 390.705 583.388 390.43 583.218 390.089C583.048 389.745 582.962 389.366 582.962 388.955ZM584.203 388.379V388.955C584.203 389.26 584.276 389.537 584.422 389.786C584.567 390.034 584.821 390.158 585.184 390.158C585.542 390.158 585.793 390.034 585.935 389.786C586.077 389.537 586.148 389.26 586.148 388.955V388.379C586.148 388.074 586.078 387.797 585.94 387.548C585.805 387.3 585.553 387.175 585.184 387.175C584.828 387.175 584.576 387.3 584.427 387.548C584.278 387.797 584.203 388.074 584.203 388.379ZM577.476 382.712V382.136C577.476 381.724 577.561 381.346 577.732 381.002C577.906 380.657 578.158 380.382 578.488 380.176C578.822 379.97 579.225 379.867 579.697 379.867C580.18 379.867 580.585 379.97 580.912 380.176C581.238 380.382 581.485 380.657 581.652 381.002C581.819 381.346 581.902 381.724 581.902 382.136V382.712C581.902 383.124 581.817 383.502 581.647 383.846C581.48 384.187 581.231 384.462 580.901 384.672C580.574 384.878 580.173 384.981 579.697 384.981C579.214 384.981 578.808 384.878 578.477 384.672C578.151 384.462 577.902 384.187 577.732 383.846C577.561 383.502 577.476 383.124 577.476 382.712ZM578.722 382.136V382.712C578.722 383.017 578.793 383.294 578.935 383.543C579.081 383.791 579.335 383.915 579.697 383.915C580.052 383.915 580.301 383.791 580.443 383.543C580.588 383.294 580.661 383.017 580.661 382.712V382.136C580.661 381.831 580.592 381.554 580.453 381.305C580.315 381.057 580.063 380.933 579.697 380.933C579.342 380.933 579.09 381.057 578.941 381.305C578.795 381.554 578.722 381.831 578.722 382.136ZM577.982 391L585.482 380.091H586.755L579.255 391H577.982Z" fill="#676671"/>
<path d="M684.055 383.75L683.796 390.5M680.204 390.5L679.945 383.75M687.421 381.343C687.677 381.382 687.933 381.423 688.188 381.467M687.421 381.343L686.62 391.754C686.552 392.634 685.819 393.312 684.937 393.312H679.063C678.181 393.312 677.448 392.634 677.38 391.754L676.579 381.343M687.421 381.343C686.561 381.213 685.691 381.114 684.812 381.046M675.812 381.467C676.067 381.423 676.323 381.382 676.579 381.343M676.579 381.343C677.439 381.213 678.309 381.114 679.188 381.046M684.812 381.046V380.359C684.812 379.474 684.13 378.736 683.245 378.707C682.832 378.694 682.417 378.688 682 378.688C681.583 378.688 681.168 378.694 680.755 378.707C679.87 378.736 679.188 379.474 679.188 380.359V381.046M684.812 381.046C683.884 380.974 682.946 380.938 682 380.938C681.054 380.938 680.116 380.974 679.188 381.046" stroke="#0F172A" stroke-width="1.5" stroke-linecap="round" stroke-linejoin="round"/>
<g clip-path="url(#clip4_918_834)">
<path d="M652.646 380.365L653.912 379.099C654.461 378.55 655.351 378.55 655.901 379.099C656.45 379.649 656.45 380.539 655.901 381.088L645.124 391.865C644.728 392.261 644.239 392.553 643.701 392.713L641.688 393.312L642.287 391.299C642.447 390.761 642.739 390.272 643.135 389.876L652.646 380.365ZM652.646 380.365L654.625 382.344" stroke="#0F172A" stroke-width="1.5" stroke-linecap="round" stroke-linejoin="round"/>
</g>
<path d="M616.707 383.138V388.276M619.276 385.707H614.138M624.414 385.707C624.414 389.964 620.964 393.414 616.707 393.414C612.451 393.414 609 389.964 609 385.707C609 381.451 612.451 378 616.707 378C620.964 378 624.414 381.451 624.414 385.707Z" stroke="#0F172A" stroke-width="1.28451" stroke-linecap="round" stroke-linejoin="round"/>
<path d="M34 347V371C34 379.284 40.7157 386 49 386H61" stroke="#8993A4"/>
<defs>
<clipPath id="clip0_918_834">
<rect width="18" height="18" fill="white" transform="translate(638 21)"/>
</clipPath>
<clipPath id="clip1_918_834">
<rect width="18" height="18" fill="white" transform="translate(640 107)"/>
</clipPath>
<clipPath id="clip2_918_834">
<rect width="18" height="18" fill="white" transform="translate(640 197)"/>
</clipPath>
<clipPath id="clip3_918_834">
<rect width="18" height="18" fill="white" transform="translate(640 287)"/>
</clipPath>
<clipPath id="clip4_918_834">
<rect width="18" height="18" fill="white" transform="translate(640 377)"/>
</clipPath>
</defs>
</svg>
