<svg width="102" height="30" viewBox="0 0 102 30" fill="none" xmlns="http://www.w3.org/2000/svg">
<g clip-path="url(#clip0_77_2785)">
<path d="M86.8694 18.5978C86.8512 19.4818 86.9772 20.3628 87.2423 21.2063C87.8422 23.1013 89.1616 24.2087 90.8662 24.2606C92.5884 24.3126 94.0449 23.2512 94.6729 21.3822C95.3171 19.5237 95.2797 17.497 94.5674 15.6634C93.869 13.8364 92.5162 12.875 90.8873 12.9469C89.1651 13.0209 87.851 14.1143 87.2459 15.9892C86.9805 16.8328 86.8534 17.7137 86.8694 18.5978ZM91.0185 7.2041C93.9455 7.25607 96.6547 7.95169 98.8593 10.1025C101.5 12.6811 102.298 16.0432 102.021 19.7092C101.557 25.8238 97.5782 29.7076 91.6441 29.9934C89.9611 30.0958 88.2744 29.8662 86.6802 29.3178C82.7775 27.9366 80.5673 25.0022 80.0478 20.6626C79.5581 16.5689 80.2992 12.843 83.3398 9.99455C85.5369 7.93769 88.1921 7.23808 91.0185 7.2041Z" fill="#242424"/>
<path d="M34.6439 12.9413H32.4419V7.29257H34.6439C34.6439 7.29257 34.64 6.3026 34.6439 5.8492C34.6558 4.685 34.6413 3.99053 34.6479 2.82635C34.6512 2.23917 34.8512 1.68947 35.6385 1.57703C37.8375 1.26297 39.4684 1.04984 41.6667 0.738996C41.6885 0.737014 41.7123 0.756815 41.8232 0.806313V7.26485C43.2452 7.26485 43.1419 7.24352 44.7254 7.25099C45.3516 7.25394 46.0104 7.3744 46.287 8.48033C46.6801 10.0523 47.1011 12.8918 47.1011 12.8918H41.8311C41.8311 12.8918 41.8331 13.5214 41.8311 13.7927C41.8232 15.9132 41.8219 18.033 41.8272 20.1522C41.8311 23.229 43.0342 24.4476 45.9574 23.4754C46.2723 23.3705 46.5793 23.2359 46.9873 23.0795C47.5141 24.3526 48.0214 25.6119 48.5519 26.8631C48.9077 27.7023 48.615 28.3666 47.5249 28.8083C45.0656 29.8046 41.7223 30.0195 39.2018 28.8738C36.0306 27.4324 34.6954 25.0169 34.6558 21.5342C34.6261 18.9999 34.6518 16.4676 34.6439 13.9333C34.6419 13.6343 34.6439 12.9413 34.6439 12.9413Z" fill="#242424"/>
<path d="M52.2046 7.38645C53.3366 7.38645 54.726 7.3904 55.8303 7.38446C56.1529 7.38248 56.3011 7.5991 56.4042 7.83389C56.8848 8.92777 57.5028 10.2099 57.5028 10.2099C57.5028 10.2099 58.1449 9.69445 58.3725 9.54596C60.2269 8.34222 61.3335 7.94704 62.9091 7.41567C64.1745 6.98894 64.6233 7.78286 64.8207 8.61226C65.2016 10.2129 65.7799 13.1899 65.7799 13.1899C64.7856 13.4847 62.4161 14.0755 60.4707 15.4119C59.7978 15.8732 59.3652 16.4665 59.3652 17.7421C59.3652 21.5439 59.3846 24.9615 59.3787 28.7627V29.6477H52.2046V7.38645Z" fill="#242424"/>
<path d="M69.1045 8.22006H74.8218C75.1914 8.22006 75.5458 8.36577 75.8072 8.62512C76.0686 8.88448 76.2154 9.23624 76.2154 9.60303V29.6477H69.1045V8.22006Z" fill="#242424"/>
<path d="M72.6138 6.92701C74.5519 6.92701 76.123 5.37634 76.123 3.46349C76.123 1.55064 74.5519 -3.05176e-05 72.6138 -3.05176e-05C70.6756 -3.05176e-05 69.1045 1.55064 69.1045 3.46349C69.1045 5.37634 70.6756 6.92701 72.6138 6.92701Z" fill="#242424"/>
<path d="M11.9031 23.6789C11.1407 24.942 9.2346 24.942 8.47216 23.6789L0.268341 10.0873C-0.494094 8.82416 0.458946 7.24523 1.98382 7.24523L18.3915 7.24521C19.9163 7.24521 20.8694 8.82416 20.1069 10.0873L11.9031 23.6789Z" fill="#CFDCBB"/>
<path fill-rule="evenodd" clip-rule="evenodd" d="M23.4852 27.2535L23.4852 27.2535L15.2814 13.6619C14.9364 13.0903 14.0331 13.0903 13.6881 13.6619L5.48423 27.2535C5.19726 27.7289 5.50564 28.4675 6.28089 28.4675L22.6885 28.4675C23.4638 28.4675 23.7722 27.7289 23.4852 27.2535ZM16.2002 13.1072C15.4378 11.8441 13.5317 11.8441 12.7693 13.1072L4.56543 26.6988C3.803 27.9619 4.75604 29.5409 6.28089 29.5409L22.6885 29.5409C24.2134 29.5409 25.1665 27.9619 24.404 26.6988L16.2002 13.1072Z" fill="#4A7848"/>
<path d="M11.8401 23.6684C11.0777 24.9315 9.17161 24.9315 8.40917 23.6684L0.205353 10.0768C-0.557082 8.81363 0.395958 7.2347 1.92083 7.2347L18.3285 7.23468C19.8533 7.23468 20.8064 8.81363 20.0439 10.0768L11.8401 23.6684Z" fill="#CFDCBB"/>
<path fill-rule="evenodd" clip-rule="evenodd" d="M23.4222 27.243L23.4222 27.243L15.2184 13.6514C14.8734 13.0798 13.9701 13.0798 13.6251 13.6514L5.42124 27.243C5.13427 27.7184 5.44266 28.457 6.2179 28.457L22.6256 28.457C23.4008 28.457 23.7092 27.7184 23.4222 27.243ZM16.1372 13.0967C15.3748 11.8335 13.4687 11.8335 12.7063 13.0967L4.50245 26.6882C3.74001 27.9514 4.69305 29.5303 6.2179 29.5303L22.6256 29.5303C24.1504 29.5303 25.1035 27.9514 24.341 26.6882L16.1372 13.0967Z" fill="#4A7848"/>
</g>
<defs>
<clipPath id="clip0_77_2785">
<rect width="102" height="30.0076" fill="white"/>
</clipPath>
</defs>
</svg>
